<svg xmlns="http://www.w3.org/2000/svg" xmlns:xlink="http://www.w3.org/1999/xlink" viewBox="0 0 800 500"><defs><style>.cls-1{fill:#545454;}.cls-2{fill:#424242;}.cls-3{opacity:0.6;fill:url(#linear-gradient);}.cls-4{fill:#fe6605;}.cls-5,.cls-6,.cls-7,.cls-8{fill:#fff;}.cls-5{opacity:0.7;}.cls-6{opacity:0.9;}.cls-7{opacity:0.8;}.cls-15,.cls-9{fill:#ff5a08;}.cls-10{fill:#fdf9d8;}.cls-11{fill:#faba2c;}.cls-12{fill:#fad83a;}.cls-13,.cls-14,.cls-16,.cls-17{fill:none;stroke:#fff;stroke-miterlimit:10;}.cls-13{stroke-width:0.45px;}.cls-14{stroke-width:0.9px;}.cls-15{opacity:0.3;}.cls-16{stroke-width:0.2px;}.cls-17{stroke-width:0.4px;}</style><linearGradient id="linear-gradient" x1="597.11" y1="5.64" x2="597.11" y2="403.06" gradientUnits="userSpaceOnUse"><stop offset="0" stop-color="#fff" stop-opacity="0.7"/><stop offset="0.13" stop-color="#fff" stop-opacity="0.64"/><stop offset="0.38" stop-color="#fff" stop-opacity="0.48"/><stop offset="0.73" stop-color="#fff" stop-opacity="0.22"/><stop offset="1" stop-color="#fff" stop-opacity="0"/></linearGradient></defs><title>featured image</title><g id="Layer_5" data-name="Layer 5"><rect class="cls-1" width="800" height="500"/><polygon class="cls-2" points="0 388.6 800 188.96 800 500 0 500 0 388.6"/></g><g id="Layer_2" data-name="Layer 2"><g id="Layer_12" data-name="Layer 12"><polygon class="cls-3" points="528.17 0.4 401.22 429.32 793 434 665.89 0.4 528.17 0.4"/></g></g><g id="Layer_3" data-name="Layer 3"><path class="cls-4" d="M372.15,295.66C366.38,362.72,314.69,427.9,253,427.9S134.71,364.21,134.71,301.33c0,0-2.15-40.38,1.23-72.68,2.62-25,7.11-53.66,9-65.45a9.74,9.74,0,0,1,6.23-7.62c12-4.36,44.34-13.88,98.57-13.91,64.63,0,91.29,5.09,101.47,8.17a10.78,10.78,0,0,1,7.31,7.59c2.25,8.51,6.51,28.18,10.3,65.95C368.84,223.38,373.94,274.92,372.15,295.66Z"/><path class="cls-5" d="M351.58,177.11c1.36-.7,2.15-.38,2.6.19a3.71,3.71,0,0,1,.63,1.83c.07,1.87,2.13,10.22,2.13,10.22a13.52,13.52,0,0,1,.82,4s-.51,2.74-4.17,3.54a49.38,49.38,0,0,0-7.77,2.62,11.13,11.13,0,0,1-2.86.68c-.78.19-1.11.08-1.26-.07a.43.43,0,0,1-.09-.36c.58-.73.19-1,.19-1a16,16,0,0,1-1.4-4.11,2.6,2.6,0,0,0,2.72.91s4-2.07,6-2.28c0,0,2.51-.06,2.63-1.09,0,0,.27-.44-.24-1.77a41.12,41.12,0,0,1-1.73-6s-.23-1.51-.33-3.87a1.75,1.75,0,0,0-1.55-1.82,14.8,14.8,0,0,0,1.88-.72Z"/><path class="cls-5" d="M341.61,199.76c.58-.73.19-1,.19-1a17.71,17.71,0,0,1-1.46-4.38,100.62,100.62,0,0,0-2.43-10.29c-.64-1.95-.09-2.56-.09-2.56.22-.81,3.55-1.4,3.55-1.4a29.63,29.63,0,0,0,8.43-2.12l1.78-.94c1.36-.7,2.15-.38,2.6.19a3.71,3.71,0,0,1,.63,1.83c.07,1.87,2.13,10.22,2.13,10.22a13.52,13.52,0,0,1,.82,4s-.51,2.74-4.17,3.54a49.38,49.38,0,0,0-7.77,2.62,11.13,11.13,0,0,1-2.86.68c-.78.19-1.11.08-1.26-.07A.43.43,0,0,1,341.61,199.76Z"/><path class="cls-6" d="M332.24,180.54s-2.23-1-2.53,1a3.19,3.19,0,0,1,.17-.84c.48-1.29,3.58-2,3.58-2l7.28-1.82,3.8-1.11c.84-.23,1.15,0,1.15,0a17.22,17.22,0,0,0,2.83.08c5.33-.25,5.66,1.44,5.66,1.44h0c-.45-.57-1.24-.89-2.6-.19l-1.78.94a29.63,29.63,0,0,1-8.43,2.12s-3.33.59-3.55,1.4a.46.46,0,0,0-.08.13,2.37,2.37,0,0,1-1.42-.21A19,19,0,0,0,332.24,180.54Z"/><path class="cls-7" d="M337.91,184.13a100.62,100.62,0,0,1,2.43,10.29,17.71,17.71,0,0,0,1.46,4.38s.39.23-.19,1a.43.43,0,0,0,.09.36c-.34.29-1.64-.49-1.64-.49-1.89-1.14-6-1.47-6-1.47a1.3,1.3,0,0,1-1.19-.8,11.46,11.46,0,0,1-.39-2.48,29.05,29.05,0,0,0-1-4.42L330,184.81a13.83,13.83,0,0,1-.29-3.25c.3-2.07,2.53-1,2.53-1a19,19,0,0,1,4.08,1,2.37,2.37,0,0,0,1.42.21A3.41,3.41,0,0,0,337.91,184.13Z"/><path class="cls-8" d="M350.75,178.1a.37.37,0,0,1,.34.17,7.6,7.6,0,0,1,1.06,4.71c-.33,2.43.85,5.87,1.07,6.5a.38.38,0,0,0,.11.16,1.48,1.48,0,0,1,.55.91.36.36,0,0,1-.71.13v0a7.87,7.87,0,0,0-1.11-2.38,7.7,7.7,0,0,1-1.24-4,31.44,31.44,0,0,0-.25-3.79.25.25,0,0,0,0-.08c-.1-.25-.64-1.63-1.59-1.63S349.85,178.19,350.75,178.1Z"/><path class="cls-8" d="M346,183.53s3.24,1,1.56,1.34l-4.79-.13a9.64,9.64,0,0,0,2.65.65c1.18,0-.18.77-.18.77a6.22,6.22,0,0,1-3.57.23c-1.7-.51-.13.7-.13.7s-2.22-.43-2.13-1.55a1.38,1.38,0,0,1,.55-1.37c.78-.74-1.53-.74-1.53-.74s-.68-1.63,1.53-2.05c1.18-.22,1.62-.1,1.78.06a2.83,2.83,0,0,0,.93.68Z"/><path class="cls-8" d="M331.28,182.22a3.78,3.78,0,0,1,1.35,1.49,2.07,2.07,0,0,1,.19,1.22.66.66,0,0,0,.35.71c.64.4.17,1.64.17,1.64s.57,4.21,2,5.64a.1.1,0,0,1-.08.18c-.5-.07-1.58-.7-2.4-4.43a4.08,4.08,0,0,0-.37-1,7,7,0,0,1-.83-2.84,6.45,6.45,0,0,0-.54-2.49A.09.09,0,0,1,331.28,182.22Z"/><path class="cls-8" d="M334,182.69a3.91,3.91,0,0,1,1.1,2,5.24,5.24,0,0,1-.19,1.52,6.64,6.64,0,0,0,1.5,5.46,7,7,0,0,1-.69-2.31,6,6,0,0,1-.12-1.52c.1-.94.67-1.82.56-2.76a2.46,2.46,0,0,0-.72-1.42,5.3,5.3,0,0,0-1.3-1Z"/><path class="cls-8" d="M338.87,190.82c0,.59.35,1.14.39,1.73,0,.38,0,.76,0,1.13.1,1.53,1,2.93,1.1,4.45,0,.07,0,.15,0,.19a.18.18,0,0,1-.16,0,1.93,1.93,0,0,1-1.46-1c-.55-1.07,0-2.36-.12-3.55-.14-1.58-1.41-2.85-1.74-4.41A5.36,5.36,0,0,1,337,187a12.33,12.33,0,0,0,.37-1.45,2.36,2.36,0,0,0-.07-1.06,0,0,0,1,1,0,0,6.22,6.22,0,0,1,1,3.07c0,.61,0,1.23,0,1.85s0,.93.47,1.33A.26.26,0,0,1,338.87,190.82Z"/><path class="cls-8" d="M352.26,194.66c-.59.12-1,.71-1.58.85a6.19,6.19,0,0,1-1.82.13,2.07,2.07,0,0,0-.86.07,1.87,1.87,0,0,0-.53.39l-.79.73a9.45,9.45,0,0,1-.77.65,7.26,7.26,0,0,1-2.74,1.12c-.09,0-.19.06-.2.15a1.66,1.66,0,0,0,.7-.1,15,15,0,0,0,2.54-1.25,2.11,2.11,0,0,1,.46-.21,3,3,0,0,1,.42,0,18.11,18.11,0,0,0,2.08-.22,5.34,5.34,0,0,0,1.12-.25,4,4,0,0,0,2-1.9S352.33,194.64,352.26,194.66Z"/><path class="cls-8" d="M270.31,460.38a199.07,199.07,0,0,0-10.81,65.37c0,1.39,0,2.77.11,4.16s.15,2.78.13,4.17v25l0,33.38c0,5.56-.11,11.12-.05,16.68l.12,16.69c.07,11.12.21,22.25.2,33.37L260,692.6c0,5.56,0,11.12-.09,16.68-.08,2.77-.06,5.55.11,8.32a27.62,27.62,0,0,0,1.44,8.17,27.67,27.67,0,0,1-1.74-8.14c-.26-2.78-.35-5.57-.34-8.36-.05-5.56-.24-11.12-.36-16.68l-.61-33.37c-.23-11.12-.32-22.24-.48-33.36l-.21-16.68c-.09-5.56,0-11.12,0-16.68l.2-33.36.1-16.68.05-8.35c0-1.39,0-2.77-.07-4.16s0-2.8,0-4.19A185.75,185.75,0,0,1,270.31,460.38Z"/><path class="cls-8" d="M134,202.69c1.41-9.33,2.93-18.63,4.44-27.94s3.09-18.6,4.71-27.89L148.12,119c.83-4.65,1.73-9.28,2.64-13.91l1.41-6.94c.51-2.34,1-4.59,1.69-7l-.07.46a2,2,0,0,1,.07-.52,3.4,3.4,0,0,1,.1-.33,3.3,3.3,0,0,1,.25-.53,6,6,0,0,1,.58-.85c.2-.24.42-.45.63-.67s.45-.38.67-.57c.45-.37.92-.66,1.38-1s.95-.55,1.42-.79a40.65,40.65,0,0,1,5.86-2.3,93.53,93.53,0,0,1,12-2.71c8-1.32,16.06-2.28,24.12-3.06q24.18-2.34,48.49-2.54c16.19-.17,32.38.53,48.5,1.93,8.06.69,16.09,1.67,24.09,2.88s16,2.62,23.84,4.38q-11.94-2-24-3.41c-8-.91-16.05-1.59-24.09-2.15-16.09-1.09-32.22-1.28-48.33-1s-32.21,1.26-48.23,2.85c-8,.84-16,1.7-23.94,3a88.54,88.54,0,0,0-11.63,2.57,38.13,38.13,0,0,0-5.41,2.09c-.43.21-.82.45-1.23.67s-.78.49-1.11.76c-.16.13-.34.26-.49.4s-.29.28-.41.42a3.72,3.72,0,0,0-.28.4.76.76,0,0,0-.08.15s0,0,0,0v-.15l-.07.46c-.64,2.06-1.17,4.43-1.68,6.69l-1.48,6.9-2.82,13.84L145,147.2,139.57,175Z"/><path class="cls-9" d="M231.18,444.08a.64.64,0,0,1,1.21-.28,16.39,16.39,0,0,0,8,7.48,30.35,30.35,0,0,0,24.83,0,16.45,16.45,0,0,0,8-7.48.64.64,0,0,1,1.21.27,12.19,12.19,0,0,1-1.14,5.39,17.26,17.26,0,0,1-5.17,6.33,26.05,26.05,0,0,1-30.57,0,17.16,17.16,0,0,1-5.17-6.33A11.94,11.94,0,0,1,231.18,444.08Z"/><path class="cls-8" d="M370.2,339c-1,3.71-2,7.41-3.31,11s-2.65,7.22-4.16,10.76-3.22,7-5,10.41-3.7,6.75-5.86,10l.1-.16c-3.28,6.8-8.07,12.43-12.86,17.95s-9.93,10.73-15.17,15.82c-2.63,2.54-5.29,5-8,7.48-2.85,2.31-5.73,4.51-8.6,6.76L290,442.45l.14-.13-.75.77c-.29.23-.56.48-.86.69a6.48,6.48,0,0,1-2.07,1,5,5,0,0,1-2.36,0,4.89,4.89,0,0,1-2.12-1.09l-.11-.08-.06-.14a8.5,8.5,0,0,0-1.3-1.69c-.51-.54-1.07-1.06-1.65-1.57a45.85,45.85,0,0,0-3.66-2.84l.12.07a56.32,56.32,0,0,0-13-3.64,54.8,54.8,0,0,0-6.76-.63,44.63,44.63,0,0,0-6.75.24h-.07a45.29,45.29,0,0,0-8.47.74,36.47,36.47,0,0,0-8.1,2.46,27.08,27.08,0,0,0-3.72,2,20.46,20.46,0,0,0-1.72,1.21,8.07,8.07,0,0,0-1.46,1.4c-.44.52-.77,1.11-1.33,1.74a4.57,4.57,0,0,1-2.09,1.25,5.41,5.41,0,0,1-2.4.05,7.33,7.33,0,0,1-2.21-.79h0l-.05,0-10.55-8.32c-3.47-2.83-7-5.53-10.59-8.2-1.78-1.32-3.63-2.67-5.36-4.14s-3.4-3.06-5-4.6l-9.7-9.28a125.8,125.8,0,0,1-9.36-9.8,124.09,124.09,0,0,1-8.12-10.89c-5-7.52-9.45-15.34-13.75-23.21l0,0,0-.05A237.46,237.46,0,0,1,133.27,333a145.65,145.65,0,0,1-3.65-16.57l-.53-4.23c-.17-1.41-.21-2.83-.33-4.24-.2-2.77-.39-5.61-.52-8.41q-.84-16.83-.38-33.66t2-33.58l.3,0c-.53,11.18-.71,22.38-.64,33.56q.06,8.38.39,16.77c.21,5.58.46,11.16.85,16.73.19,2.8.42,5.55.68,8.35.14,1.38.21,2.76.4,4.13l.59,4.1a165,165,0,0,0,3.79,16.18c1.52,5.34,3.28,10.63,5.17,15.86s3.94,10.44,6.16,15.5l0-.11c4.22,7.87,8.54,15.68,13.38,23.12a117.9,117.9,0,0,0,7.81,10.72c2.81,3.4,5.88,6.59,9,9.74l9.54,9.46c1.59,1.61,3.12,3.14,4.78,4.61s3.37,2.82,5.14,4.21c3.52,2.76,7,5.63,10.41,8.55l10.33,8.56-.08-.05a5.33,5.33,0,0,0,3.67.69,3.22,3.22,0,0,0,1.57-.89c.41-.43.81-1.09,1.3-1.66a9,9,0,0,1,1.64-1.56c.58-.45,1.19-.86,1.81-1.25a27.48,27.48,0,0,1,3.88-2,43,43,0,0,1,17-3.19h-.07a47.19,47.19,0,0,1,6.92-.29,60.94,60.94,0,0,1,6.88.55,58,58,0,0,1,6.78,1.32,62.39,62.39,0,0,1,6.61,2.07l.05,0,.07,0a44.87,44.87,0,0,1,3.89,2.83,23.08,23.08,0,0,1,1.82,1.63,9.69,9.69,0,0,1,1.62,2l-.17-.22a3.47,3.47,0,0,0,1.36.62A3.21,3.21,0,0,0,286,443a4.88,4.88,0,0,0,1.43-.74l.65-.56.6-.65.07-.08.07-.05,16.87-13.79,8.47-6.82c2.66-2.4,5.31-4.91,7.93-7.41,5.26-5,10.37-10.13,15.22-15.49,2.44-2.67,4.74-5.45,7-8.28,1-1.46,2.18-2.86,3.1-4.37.48-.76,1-1.47,1.44-2.25l1.27-2.32.07-.13,0,0c2.15-3.06,4.15-6.35,6-9.66s3.63-6.7,5.26-10.15,3.21-6.93,4.59-10.5,2.67-7.16,3.88-10.8Z"/><path class="cls-8" d="M354.49,106.77c4.45,16.59,8.14,33.38,11.34,50.26s5.92,33.86,8,50.94,3.6,34.21,4,51.42,0,34.45-2.37,51.48c.18-4.3.38-8.58.63-12.86,0-1.07.14-2.14.13-3.21v-9.64c0-2.14,0-4.28,0-6.42l-.23-6.42-.21-6.42-.1-3.21-.2-3.2-.82-12.82c-.32-4.27-.75-8.53-1.12-12.8-.2-2.13-.34-4.26-.57-6.39l-.7-6.39-.69-6.38-.35-3.2-.42-3.18-1.59-12.75-1.8-12.73c-.56-4.25-1.26-8.48-1.9-12.71s-1.31-8.47-2-12.7l-1-6.35-1.09-6.34-1.08-6.34-1.14-6.33C357.75,123.62,356.12,115.2,354.49,106.77Z"/><path class="cls-8" d="M226.28,451.41a125.17,125.17,0,0,1,13.94,26.95A70.4,70.4,0,0,1,244,493.2l.2,1.92.11,1.94.13,3.79.25,7.57c.29,10.09.55,20.19.69,30.29s.21,20.21.12,30.31q-1-15.12-1.68-30.26c-.46-10.09-.81-20.19-1.12-30.28l-.21-7.58-.1-3.78-.1-1.85-.16-1.85a73.59,73.59,0,0,0-3.36-14.55,132.41,132.41,0,0,0-5.57-14C231.11,460.28,228.79,455.8,226.28,451.41Z"/><path class="cls-8" d="M282.28,449.51l-4.94,10.3c-1.62,3.44-3.28,6.84-4.8,10.31-.78,1.72-1.54,3.45-2.26,5.2l-1.09,2.62c-.32.88-.67,1.76-1,2.64a101.15,101.15,0,0,0-3.46,10.83,46,46,0,0,1,2-11.33,86.22,86.22,0,0,1,4-10.78A111.71,111.71,0,0,1,276,459.09,86.51,86.51,0,0,1,282.28,449.51Z"/><path class="cls-5" d="M286.55,239.63c-3.44,1.2-4.17,3.08-3.93,4.8a8.69,8.69,0,0,0,2.13,4.06c3.12,3.18,14.15,20.34,14.15,20.34a32.2,32.2,0,0,0,5.56,7.93s5.56,3.57,12.91-1.42a116.9,116.9,0,0,1,17.17-9.14,26.18,26.18,0,0,0,5.85-3.82c1.58-1,1.94-1.78,1.92-2.28a1,1,0,0,0-.48-.75c-2.19-.17-1.95-1.22-1.95-1.22-.62-2.75-3.74-7.52-4.82-9.12a6.1,6.1,0,0,1-2.85,6.16s-10,3.48-13.75,6.68c0,0-4.18,4.22-6.17,2.75,0,0-1.19-.25-2.67-3.29,0,0-4.68-9.37-7.51-12.75a86.09,86.09,0,0,0-6.14-6.88,4.19,4.19,0,0,1-.61-5.66,39.9,39.9,0,0,1-4.3,2.09Z"/><path class="cls-5" d="M341.83,259.35c-2.19-.17-1.95-1.22-1.95-1.22-.76-3.34-5.19-9.66-5.19-9.66a236.79,236.79,0,0,1-13.77-21c-2.32-4.27-4.26-4.33-4.26-4.33-1.75-.94-8.2,3.84-8.2,3.84-10.12,8.32-17.4,11.09-17.4,11.09l-4.51,1.52c-3.44,1.2-4.17,3.08-3.93,4.8a8.69,8.69,0,0,0,2.13,4.06c3.12,3.18,14.15,20.34,14.15,20.34a32.2,32.2,0,0,0,5.56,7.93s5.56,3.57,12.91-1.42a116.9,116.9,0,0,1,17.17-9.14,26.18,26.18,0,0,0,5.85-3.82c1.58-1,1.94-1.78,1.92-2.28A1,1,0,0,0,341.83,259.35Z"/><path class="cls-6" d="M324,211.88s1.83-5.55,5.87-2.7a7.15,7.15,0,0,0-1.72-1.08c-3-1.27-9.31,2.9-9.31,2.9l-15,9.59s-6.33,3.68-8.11,4.74-1.88,2-1.88,2a40.29,40.29,0,0,1-4.5,5c-9.1,8.78-6.73,12.12-6.73,12.12h0c-.24-1.72.49-3.6,3.93-4.8l4.51-1.52s7.28-2.77,17.4-11.09c0,0,6.45-4.78,8.2-3.84a1.17,1.17,0,0,1,.33.07,5.42,5.42,0,0,0,2-2.79C319.91,217.45,324,211.88,324,211.88Z"/><path class="cls-7" d="M320.92,227.51a236.79,236.79,0,0,0,13.77,21s4.43,6.32,5.19,9.66c0,0-.24,1.05,1.95,1.22a1,1,0,0,1,.48.75c1.06-.12,1.83-3.63,1.83-3.63,1.1-5.11,7.17-12.66,7.17-12.66a3.1,3.1,0,0,0,.58-3.36,29.27,29.27,0,0,0-3.65-4.73c-2.18-2.26-6-8.87-6-8.87L335,215a32.53,32.53,0,0,0-5.14-5.79c-4-2.85-5.87,2.7-5.87,2.7s-4.06,5.57-5,8.58a5.42,5.42,0,0,1-2,2.79C317.64,223.46,319.17,224.29,320.92,227.51Z"/><path class="cls-8" d="M289.6,239.82a.87.87,0,0,0-.27.87,17.94,17.94,0,0,0,6.4,9.49c4.74,3.39,8.74,11,9.46,12.46a.83.83,0,0,1,.09.44,3.53,3.53,0,0,0,.68,2.42.85.85,0,0,0,1.37-1l0,0a18.35,18.35,0,0,1-2.29-5.79,18.47,18.47,0,0,0-4.91-8.67A75.34,75.34,0,0,1,294,243.4a1,1,0,0,1-.11-.17c-.29-.57-1.77-3.75-.22-5.4S291.21,238.42,289.6,239.82Z"/><path class="cls-8" d="M306.72,240.45s-3.59,7.19-.24,4.9l7.58-8.48a22.19,22.19,0,0,1-3.19,5.61c-1.85,2.12,1.62.94,1.62.94s4.34-2,6.22-5.76,1.41.91,1.41.91,2.89-4.53.8-6.19c0,0-.74-1.43-3.27-1.29s1.23-3.83,1.23-3.83-1.7-3.84-6-.72c-2.31,1.68-2.83,2.64-2.81,3.18a7,7,0,0,1-.34,2.69Z"/><path class="cls-8" d="M328.44,213a8.5,8.5,0,0,0,.37,4.76A4.75,4.75,0,0,0,330.6,220a1.57,1.57,0,0,1,.64,1.77c-.35,1.75,2.57,3,2.57,3s6.32,7.83,6.39,12.68a.26.26,0,0,0,.46.16c.69-1,1.36-3.87-3.72-11.36a10.17,10.17,0,0,1-1.15-2.28,16.27,16.27,0,0,0-3.54-6.06,15.09,15.09,0,0,1-3.42-5A.21.21,0,0,0,328.44,213Z"/><path class="cls-8" d="M324.78,218.46c.19,1.82.44,3.76,1.64,5.14a12.76,12.76,0,0,0,2.93,2.14,15.68,15.68,0,0,1,7,11.48,16.14,16.14,0,0,0-2.86-4.94A12.89,12.89,0,0,0,331,229.6c-1.78-1.37-4.23-1.82-5.68-3.54a6,6,0,0,1-1.27-3.56,12.93,12.93,0,0,1,.5-3.8Z"/><path class="cls-8" d="M330.89,240.07c1,1,1.4,2.45,2.34,3.49.6.67,1.29,1.25,1.9,1.9,2.47,2.68,3.44,6.46,5.88,9.16a.52.52,0,0,0,.41.22.45.45,0,0,0,.3-.23,4.64,4.64,0,0,0,.63-4.19c-1-2.68-4.05-3.84-5.93-6-2.5-2.83-2.63-7.08-4.77-10.19a12.67,12.67,0,0,0-4.38-3.74,28.56,28.56,0,0,1-3.1-1.74,5.71,5.71,0,0,1-1.71-1.85.08.08,0,0,0-.14,0,15.07,15.07,0,0,0,3.71,6.69c1,1.05,2.18,2,3.13,3.07s1.62,1.52,1.54,3A.57.57,0,0,0,330.89,240.07Z"/><path class="cls-8" d="M315.67,269.41c1.19-.83,2.86-.55,4.07-1.34a15,15,0,0,0,3.18-2.92,4.65,4.65,0,0,1,1.53-1.37,4.2,4.2,0,0,1,1.53-.29l2.55-.17a23.31,23.31,0,0,0,2.36-.25,17.36,17.36,0,0,0,6.4-2.91c.18-.12.43-.23.59-.09a3.81,3.81,0,0,1-1.32,1,35,35,0,0,1-6.3,2.34,4.2,4.2,0,0,0-1.09.46,5.29,5.29,0,0,0-.76.66,44.61,44.61,0,0,1-3.78,3.22,13,13,0,0,1-2.24,1.53,9.68,9.68,0,0,1-6.53.34S315.54,269.5,315.67,269.41Z"/><path class="cls-5" d="M184,232.81c-2.7-1.4-4.27-.77-5.18.38a7.26,7.26,0,0,0-1.24,3.62c-.14,3.73-4.24,20.3-4.24,20.3a26.93,26.93,0,0,0-1.63,7.95s1,5.44,8.3,7a97.63,97.63,0,0,1,15.43,5.19,21.93,21.93,0,0,0,5.68,1.36c1.54.37,2.21.16,2.49-.14a.84.84,0,0,0,.19-.72c-1.16-1.44-.38-1.9-.38-1.9,1.31-1.95,2.42-6.59,2.77-8.17a5.11,5.11,0,0,1-5.38,1.81s-7.89-4.11-12-4.53c0,0-5-.11-5.23-2.17,0,0-.53-.87.47-3.51,0,0,3-8.24,3.44-11.91a74.33,74.33,0,0,0,.66-7.68,3.48,3.48,0,0,1,3.09-3.63,32.43,32.43,0,0,1-3.75-1.42Z"/><path class="cls-5" d="M203.78,277.79c-1.16-1.44-.38-1.9-.38-1.9,1.6-2.37,2.89-8.71,2.89-8.71a198.79,198.79,0,0,1,4.83-20.43c1.27-3.87.19-5.08.19-5.08-.43-1.61-7.05-2.78-7.05-2.78-10.88-1.37-16.76-4.21-16.76-4.21L184,232.81c-2.7-1.4-4.27-.77-5.18.38a7.26,7.26,0,0,0-1.24,3.62c-.14,3.73-4.24,20.3-4.24,20.3a26.93,26.93,0,0,0-1.63,7.95s1,5.44,8.3,7a97.63,97.63,0,0,1,15.43,5.19,21.93,21.93,0,0,0,5.68,1.36c1.54.37,2.21.16,2.49-.14A.84.84,0,0,0,203.78,277.79Z"/><path class="cls-6" d="M222.38,239.62s4.43-2.08,5,2a7.06,7.06,0,0,0-.33-1.67c-1-2.56-7.12-4-7.12-4l-14.45-3.6s-5.88-1.74-7.54-2.21-2.29,0-2.29,0a34.76,34.76,0,0,1-5.64.14c-10.57-.49-11.24,2.87-11.24,2.87h0c.91-1.15,2.48-1.78,5.18-.38l3.52,1.87s5.88,2.84,16.76,4.21c0,0,6.62,1.17,7.05,2.78a.91.91,0,0,1,.15.24,4.5,4.5,0,0,0,2.82-.4C216.66,240.36,222.38,239.62,222.38,239.62Z"/><path class="cls-7" d="M211.12,246.75a198.79,198.79,0,0,0-4.83,20.43s-1.29,6.34-2.89,8.71c0,0-.78.46.38,1.9a.84.84,0,0,1-.19.72c.69.57,3.27-1,3.27-1,3.74-2.27,11.82-2.92,11.82-2.92a2.57,2.57,0,0,0,2.38-1.57,24.42,24.42,0,0,0,.78-4.94c.12-2.63,1.92-8.78,1.92-8.78l3.08-11.23a27.4,27.4,0,0,0,.57-6.45c-.6-4.1-5-2-5-2s-5.72.74-8.1,1.89a4.5,4.5,0,0,1-2.82.4C211.7,242.43,212.08,243.84,211.12,246.75Z"/><path class="cls-8" d="M185.62,234.78a.7.7,0,0,0-.68.34,14.92,14.92,0,0,0-2.09,9.34c.66,4.84-1.69,11.67-2.14,12.92a.63.63,0,0,1-.22.31,2.94,2.94,0,0,0-1.08,1.81.71.71,0,0,0,1.4.26v-.05A15.39,15.39,0,0,1,183,255a15.54,15.54,0,0,0,2.45-8,62.35,62.35,0,0,1,.49-7.52.83.83,0,0,1,0-.15c.18-.51,1.26-3.25,3.16-3.25S187.4,235,185.62,234.78Z"/><path class="cls-8" d="M195.08,245.55s-6.43,2-3.11,2.68l9.52-.27a18.7,18.7,0,0,1-5.26,1.29c-2.35.09.36,1.53.36,1.53a12.31,12.31,0,0,0,7.09.47c3.37-1,.25,1.37.25,1.37s4.42-.84,4.23-3.07c0,0,.45-1.27-1.09-2.73s3-1.46,3-1.46,1.35-3.23-3-4.06c-2.35-.45-3.23-.21-3.55.11a5.84,5.84,0,0,1-1.83,1.34Z"/><path class="cls-8" d="M224.3,243a7.29,7.29,0,0,0-2.68,3,4,4,0,0,0-.38,2.42,1.32,1.32,0,0,1-.71,1.41c-1.26.79-.33,3.26-.33,3.26s-1.12,8.35-4,11.19a.22.22,0,0,0,.17.37c1-.15,3.14-1.4,4.77-8.8a8.42,8.42,0,0,1,.73-2,13.76,13.76,0,0,0,1.65-5.64,12.82,12.82,0,0,1,1.07-5A.17.17,0,0,0,224.3,243Z"/><path class="cls-8" d="M218.84,243.89a7.77,7.77,0,0,0-2.18,4,10.68,10.68,0,0,0,.39,3,13.16,13.16,0,0,1-3,10.84,13.36,13.36,0,0,0,1.37-4.58,11.34,11.34,0,0,0,.24-3c-.19-1.87-1.33-3.63-1.12-5.5a5,5,0,0,1,1.44-2.82,10.93,10.93,0,0,1,2.59-1.88Z"/><path class="cls-8" d="M209.22,260c0,1.18-.69,2.26-.78,3.43-.06.75,0,1.5-.07,2.25-.21,3-2,5.81-2.18,8.85a.43.43,0,0,0,.09.37.4.4,0,0,0,.32.05,3.83,3.83,0,0,0,2.9-2c1.09-2.11,0-4.67.23-7,.28-3.14,2.8-5.67,3.46-8.75a10.49,10.49,0,0,0-.25-4.82,24.25,24.25,0,0,1-.72-2.88,4.54,4.54,0,0,1,.15-2.11.07.07,0,0,0-.12-.06,12.62,12.62,0,0,0-1.94,6.1c-.06,1.22.07,2.45-.06,3.67s0,1.86-.93,2.65A.44.44,0,0,0,209.22,260Z"/><path class="cls-8" d="M182.62,267.66c1.18.24,2,1.41,3.15,1.7a12.83,12.83,0,0,0,3.61.26,4,4,0,0,1,1.71.14,3.57,3.57,0,0,1,1.06.76l1.56,1.45a18.93,18.93,0,0,0,1.52,1.3,14.5,14.5,0,0,0,5.45,2.22c.17,0,.38.13.39.3a3.17,3.17,0,0,1-1.39-.21,28.83,28.83,0,0,1-5.05-2.48,3.81,3.81,0,0,0-.9-.4,3.92,3.92,0,0,0-.84-.08,38.06,38.06,0,0,1-4.13-.45,10.48,10.48,0,0,1-2.22-.49,8.07,8.07,0,0,1-4-3.77S182.48,267.63,182.62,267.66Z"/><path class="cls-5" d="M191.11,160.7c2.7-1.41,4.27-.77,5.18.37a7.28,7.28,0,0,1,1.24,3.63c.14,3.72,4.24,20.3,4.24,20.3A26.87,26.87,0,0,1,203.4,193s-1,5.43-8.29,7a97.63,97.63,0,0,0-15.43,5.19,22.06,22.06,0,0,1-5.69,1.36c-1.53.36-2.2.16-2.49-.15a.82.82,0,0,1-.18-.72c1.15-1.43.37-1.89.37-1.89-1.31-2-2.42-6.6-2.77-8.17a5.12,5.12,0,0,0,5.39,1.81s7.88-4.11,12-4.53c0,0,5-.12,5.22-2.17,0,0,.53-.87-.47-3.52,0,0-3-8.23-3.44-11.9a73.38,73.38,0,0,1-.65-7.69,3.51,3.51,0,0,0-3.1-3.63,34,34,0,0,0,3.75-1.41Z"/><path class="cls-5" d="M171.32,205.67c1.15-1.43.37-1.89.37-1.89-1.59-2.38-2.89-8.71-2.89-8.71A198.79,198.79,0,0,0,164,174.64c-1.26-3.87-.19-5.08-.19-5.08.44-1.61,7.06-2.78,7.06-2.78,10.87-1.37,16.75-4.21,16.75-4.21l3.52-1.87c2.7-1.41,4.27-.77,5.18.37a7.28,7.28,0,0,1,1.24,3.63c.14,3.72,4.24,20.3,4.24,20.3A26.87,26.87,0,0,1,203.4,193s-1,5.43-8.29,7a97.63,97.63,0,0,0-15.43,5.19,22.06,22.06,0,0,1-5.69,1.36c-1.53.36-2.2.16-2.49-.15A.82.82,0,0,1,171.32,205.67Z"/><path class="cls-6" d="M152.71,167.51s-4.43-2.08-5,2a6.26,6.26,0,0,1,.33-1.68c.95-2.55,7.11-4,7.11-4l14.45-3.6s5.88-1.73,7.55-2.2,2.29,0,2.29,0a34.63,34.63,0,0,0,5.63.14c10.57-.49,11.24,2.87,11.24,2.87h0c-.91-1.14-2.48-1.78-5.18-.37l-3.52,1.87s-5.88,2.84-16.75,4.21c0,0-6.62,1.17-7.06,2.78a1.16,1.16,0,0,0-.14.24,4.61,4.61,0,0,1-2.83-.41C158.43,168.24,152.71,167.51,152.71,167.51Z"/><path class="cls-7" d="M164,174.64a198.79,198.79,0,0,1,4.83,20.43s1.3,6.33,2.89,8.71c0,0,.78.46-.37,1.89a.82.82,0,0,0,.18.72c-.68.58-3.27-1-3.27-1-3.74-2.27-11.82-2.92-11.82-2.92a2.59,2.59,0,0,1-2.38-1.58,24.26,24.26,0,0,1-.78-4.94c-.12-2.62-1.92-8.78-1.92-8.78L148.25,176a27.06,27.06,0,0,1-.56-6.45c.59-4.1,5-2,5-2s5.72.73,8.1,1.88a4.61,4.61,0,0,0,2.83.41C163.39,170.32,163,171.72,164,174.64Z"/><path class="cls-8" d="M189.47,162.67a.7.7,0,0,1,.68.33,15,15,0,0,1,2.1,9.35c-.66,4.83,1.68,11.67,2.13,12.92a.77.77,0,0,0,.22.31,2.86,2.86,0,0,1,1.08,1.8.71.71,0,0,1-1.4.26v0a15.29,15.29,0,0,0-2.21-4.72,15.37,15.37,0,0,1-2.44-8,64,64,0,0,0-.5-7.52.47.47,0,0,0,0-.16c-.18-.5-1.26-3.24-3.15-3.24S187.69,162.84,189.47,162.67Z"/><path class="cls-8" d="M180,173.44s6.43,1.95,3.11,2.67l-9.51-.27a18.82,18.82,0,0,0,5.25,1.3c2.35.09-.36,1.52-.36,1.52a12.22,12.22,0,0,1-7.09.47c-3.37-1-.25,1.38-.25,1.38s-4.42-.84-4.23-3.07c0,0-.45-1.27,1.1-2.73s-3-1.46-3-1.46-1.36-3.24,3-4.07c2.35-.44,3.24-.2,3.55.12a5.81,5.81,0,0,0,1.83,1.33Z"/><path class="cls-8" d="M150.79,170.84a7.25,7.25,0,0,1,2.69,3,4.07,4.07,0,0,1,.37,2.43,1.33,1.33,0,0,0,.71,1.41c1.26.78.33,3.26.33,3.26s1.13,8.35,4,11.19a.21.21,0,0,1-.17.36c-1-.15-3.13-1.39-4.77-8.79a8.46,8.46,0,0,0-.72-2,13.56,13.56,0,0,1-1.66-5.64,12.76,12.76,0,0,0-1.07-4.95A.17.17,0,0,1,150.79,170.84Z"/><path class="cls-8" d="M156.25,171.78a7.67,7.67,0,0,1,2.18,3.95,11.07,11.07,0,0,1-.38,3,13.13,13.13,0,0,0,3,10.84,13.65,13.65,0,0,1-1.37-4.58,11.38,11.38,0,0,1-.24-3c.2-1.87,1.33-3.62,1.12-5.49a5,5,0,0,0-1.43-2.82,11,11,0,0,0-2.6-1.88Z"/><path class="cls-8" d="M165.88,187.93c0,1.17.68,2.26.77,3.43.06.75,0,1.5.07,2.25.21,3,1.95,5.81,2.19,8.84a.42.42,0,0,1-.1.38.43.43,0,0,1-.32,0,3.85,3.85,0,0,1-2.9-2c-1.09-2.11,0-4.68-.23-7-.28-3.15-2.79-5.67-3.45-8.76a10.45,10.45,0,0,1,.24-4.81,23.93,23.93,0,0,0,.72-2.89,4.7,4.7,0,0,0-.14-2.11c0-.07.07-.11.11-.05a12.48,12.48,0,0,1,1.94,6.1c.06,1.22-.06,2.45.07,3.67s0,1.86.92,2.65A.47.47,0,0,1,165.88,187.93Z"/><path class="cls-8" d="M192.48,195.54c-1.19.25-2,1.42-3.16,1.71a12.78,12.78,0,0,1-3.6.25,4.14,4.14,0,0,0-1.72.14,3.74,3.74,0,0,0-1.05.77l-1.57,1.45a18.38,18.38,0,0,1-1.51,1.29,14.75,14.75,0,0,1-5.45,2.23c-.18,0-.39.12-.39.3a3.12,3.12,0,0,0,1.38-.21,29.23,29.23,0,0,0,5.05-2.49,3.41,3.41,0,0,1,.9-.39,4,4,0,0,1,.85-.09,35.76,35.76,0,0,0,4.12-.44,10.71,10.71,0,0,0,2.23-.49,8.18,8.18,0,0,0,4-3.77S192.61,195.51,192.48,195.54Z"/><path class="cls-5" d="M212.7,176.6c-3-.2-4.22,1-4.6,2.42a7.21,7.21,0,0,0,.32,3.82c1.37,3.47,4.27,20.3,4.27,20.3a26.93,26.93,0,0,0,1.7,7.93s3.13,4.56,10.43,3.11A97.9,97.9,0,0,1,241,212.74a22,22,0,0,0,5.76-1c1.55-.28,2.08-.74,2.22-1.13a.82.82,0,0,0-.12-.73c-1.64-.86-1.11-1.59-1.11-1.59.42-2.32-.43-7-.74-8.6a5.11,5.11,0,0,1-4.21,3.82s-8.87-.59-12.78.67c0,0-4.6,1.89-5.65.1,0,0-.84-.58-1-3.4,0,0-.56-8.75-1.64-12.29a72.58,72.58,0,0,0-2.48-7.3,3.48,3.48,0,0,1,1.37-4.56,31.29,31.29,0,0,1-4,.2Z"/><path class="cls-5" d="M248.89,209.84c-1.64-.86-1.11-1.59-1.11-1.59.51-2.82-.85-9.13-.85-9.13a200.68,200.68,0,0,1-3.78-20.66c-.4-4.05-1.87-4.73-1.87-4.73-1-1.29-7.58.29-7.58.29-10.51,3.11-17,2.87-17,2.87l-4-.29c-3-.2-4.22,1-4.6,2.42a7.21,7.21,0,0,0,.32,3.82c1.37,3.47,4.27,20.3,4.27,20.3a26.93,26.93,0,0,0,1.7,7.93s3.13,4.56,10.43,3.11A97.9,97.9,0,0,1,241,212.74a22,22,0,0,0,5.76-1c1.55-.28,2.08-.74,2.22-1.13A.82.82,0,0,0,248.89,209.84Z"/><path class="cls-6" d="M250.6,167.41s3.22-3.68,5.41-.17a6.4,6.4,0,0,0-1-1.4c-1.89-2-8.12-.79-8.12-.79l-14.67,2.5-7.8,1c-1.72.24-2.1.92-2.1.92a34.4,34.4,0,0,1-5.1,2.4c-9.88,3.79-9.14,7.14-9.14,7.14h0c.38-1.41,1.55-2.62,4.6-2.42l4,.29s6.52.24,17-2.87c0,0,6.54-1.58,7.58-.29a1.58,1.58,0,0,1,.23.17,4.57,4.57,0,0,0,2.43-1.51C245.65,170.38,250.6,167.41,250.6,167.41Z"/><path class="cls-7" d="M243.15,178.46a200.68,200.68,0,0,0,3.78,20.66s1.36,6.31.85,9.13c0,0-.53.73,1.11,1.59a.82.82,0,0,1,.12.73c.85.25,2.6-2.21,2.6-2.21,2.51-3.58,9.65-7.42,9.65-7.42a2.59,2.59,0,0,0,1.55-2.4,24.68,24.68,0,0,0-1.27-4.83c-1-2.46-1.77-8.81-1.77-8.81l-1.69-11.52a27.21,27.21,0,0,0-2.07-6.14c-2.19-3.51-5.41.17-5.41.17s-4.95,3-6.66,5a4.57,4.57,0,0,1-2.43,1.51C241.94,174.27,242.85,175.41,243.15,178.46Z"/><path class="cls-8" d="M215,177.74a.71.71,0,0,0-.49.59,14.91,14.91,0,0,0,1.84,9.39c2.54,4.17,3.14,11.37,3.23,12.7a.71.71,0,0,1-.08.37,2.93,2.93,0,0,0-.27,2.08.72.72,0,0,0,1.39-.32v-.05a15.46,15.46,0,0,1,.13-5.2,15.43,15.43,0,0,0-1-8.29,65.15,65.15,0,0,1-2.57-7.08.88.88,0,0,1,0-.16c0-.54-.15-3.48,1.58-4.24S216.69,177.19,215,177.74Z"/><path class="cls-8" d="M228,183.81s-5.11,4.37-1.78,3.7l8.61-4.07a18.86,18.86,0,0,1-4.29,3.29c-2.12,1,.94,1.25.94,1.25a12.26,12.26,0,0,0,6.68-2.41c2.68-2.28.78,1.16.78,1.16s3.71-2.55,2.64-4.51c0,0-.1-1.35-2.1-2.07s2.2-2.55,2.2-2.55-.06-3.51-4.41-2.51c-2.32.54-3,1.11-3.2,1.53a5.67,5.67,0,0,1-1.14,2Z"/><path class="cls-8" d="M253.69,169.69a7.29,7.29,0,0,0-1.26,3.79,4,4,0,0,0,.62,2.38,1.31,1.31,0,0,1-.08,1.57c-.84,1.23,1,3.12,1,3.12s2.32,8.1.79,11.87a.22.22,0,0,0,.31.27c.85-.54,2.3-2.54.83-10a8.46,8.46,0,0,1-.14-2.13,13.77,13.77,0,0,0-.75-5.83,12.74,12.74,0,0,1-1-5A.18.18,0,0,0,253.69,169.69Z"/><path class="cls-8" d="M249.07,172.75a7.65,7.65,0,0,0-.41,4.49,10.42,10.42,0,0,0,1.57,2.61A13.14,13.14,0,0,1,251.85,191a13.67,13.67,0,0,0-.59-4.74,11.4,11.4,0,0,0-1-2.86c-.93-1.63-2.68-2.78-3.23-4.58a5,5,0,0,1,.18-3.16,10.82,10.82,0,0,1,1.62-2.76Z"/><path class="cls-8" d="M246.74,191.4c.49,1.07.28,2.34.67,3.46.24.7.59,1.38.84,2.08,1,2.87.54,6.1,1.55,9,0,.12.11.27.24.3a.41.41,0,0,0,.31-.08,3.85,3.85,0,0,0,1.85-3c.14-2.38-1.87-4.29-2.63-6.54-1-3,.29-6.32-.35-9.41a10.43,10.43,0,0,0-2.15-4.31,25.57,25.57,0,0,1-1.83-2.35,4.82,4.82,0,0,1-.71-2,.07.07,0,0,0-.13,0,12.65,12.65,0,0,0,.68,6.36c.44,1.14,1,2.22,1.41,3.38s.76,1.7.22,2.8A.52.52,0,0,0,246.74,191.4Z"/><path class="cls-8" d="M225.44,209.06c1.18-.26,2.38.5,3.57.29a12.61,12.61,0,0,0,3.41-1.21,2.83,2.83,0,0,1,2.9-.29l2,.7a16.14,16.14,0,0,0,1.91.58,14.76,14.76,0,0,0,5.88-.15c.18,0,.41,0,.48.12a3.12,3.12,0,0,1-1.35.36,28.61,28.61,0,0,1-5.62-.25,3.65,3.65,0,0,0-1,0,4,4,0,0,0-.8.27,37,37,0,0,1-4,1.24,10,10,0,0,1-2.23.45,8.17,8.17,0,0,1-5.15-1.86S225.3,209.08,225.44,209.06Z"/><path class="cls-10" d="M313.58,228.06A87.67,87.67,0,0,0,289.71,96L204.65,249.21A87.79,87.79,0,0,0,313.58,228.06Zm4.24-72a10.4,10.4,0,0,1,3.2,4.23c4.84,13.71,3.44,29.51-4.41,40.86a12.45,12.45,0,0,1-5.31,3.9,4.42,4.42,0,0,1-3.87-.2L259.05,178c-1.56-.44-7.3-4.39-.7-7.9L312,154.85A6.38,6.38,0,0,1,317.82,156.07ZM281.26,114.2a6.36,6.36,0,0,1,5-3.24,10.46,10.46,0,0,1,5.25.75c13.09,6.33,23.21,18.55,25.62,32.14a12.36,12.36,0,0,1-1,6.51,4.39,4.39,0,0,1-2.89,2.57l-53.3,14.94c-1.43.78-8.28,2-6.06-5.13ZM263.93,243a10.25,10.25,0,0,1-4.21,3.23c-13.68,4.92-29.49,3.61-40.88-4.17a12.43,12.43,0,0,1-3.94-5.29,4.42,4.42,0,0,1,.18-3.87l26.62-48.53c.44-1.57,4.35-7.33,7.9-.75l15.51,53.54A6.34,6.34,0,0,1,263.93,243Zm3.76-4.81-16-53c-.81-1.41-2.18-8.24,5-6.16l49.06,26.46a6.37,6.37,0,0,1,3.34,4.94,10.33,10.33,0,0,1-.65,5.26c-6.08,13.21-18.09,23.57-31.63,26.25a12.46,12.46,0,0,1-6.53-.91A4.38,4.38,0,0,1,267.69,238.21Z"/><path class="cls-11" d="M304.92,101.37a93,93,0,0,0-13.15-9.13l-1.22,2.21L289.71,96a87.64,87.64,0,0,1-85.06,153.25l-1.22,2.21-.83,1.51A91.89,91.89,0,0,0,304.92,101.37Z"/><path class="cls-12" d="M259.91,167.87l53.3-14.94a4.39,4.39,0,0,0,2.89-2.57,12.36,12.36,0,0,0,1-6.51c-2.41-13.59-12.53-25.81-25.62-32.14a10.46,10.46,0,0,0-5.25-.75,6.36,6.36,0,0,0-5,3.24l-27.41,48.54C251.63,169.88,258.48,168.65,259.91,167.87Z"/><path class="cls-12" d="M258.35,170.06c-6.6,3.51-.86,7.46.7,7.9l48.38,26.9a4.42,4.42,0,0,0,3.87.2,12.45,12.45,0,0,0,5.31-3.9c7.85-11.35,9.25-27.15,4.41-40.86a10.4,10.4,0,0,0-3.2-4.23,6.38,6.38,0,0,0-5.84-1.22Z"/><path class="cls-12" d="M249.6,183.64c-3.55-6.58-7.46-.82-7.9.75l-26.62,48.53a4.42,4.42,0,0,0-.18,3.87,12.43,12.43,0,0,0,3.94,5.29c11.39,7.78,27.2,9.09,40.88,4.17a10.25,10.25,0,0,0,4.21-3.23,6.34,6.34,0,0,0,1.18-5.84Z"/><path class="cls-12" d="M308.48,215.71a10.33,10.33,0,0,0,.65-5.26,6.37,6.37,0,0,0-3.34-4.94l-49.06-26.46c-7.19-2.08-5.82,4.75-5,6.16l16,53a4.38,4.38,0,0,0,2.63,2.84,12.46,12.46,0,0,0,6.53.91C290.39,239.28,302.4,228.92,308.48,215.71Z"/><path class="cls-8" d="M159.8,93.38l47.62,3.36c15.87,1.06,31.74,2,47.61,2.55,7.93.21,15.85.35,23.77.1s15.83-.74,23.74-1.41,15.81-1.51,23.69-2.5S342,93.41,349.83,92l.11,0,.07.06a4.91,4.91,0,0,1,.88,1.25,9.58,9.58,0,0,1,.58,1.36,16.31,16.31,0,0,1,.68,2.84,16.14,16.14,0,0,0-.88-2.76,9.08,9.08,0,0,0-.66-1.28,4.67,4.67,0,0,0-.87-1.07l.18,0a403.39,403.39,0,0,1-47.14,8q-11.89,1.28-23.88,1.83c-8,.28-16,.24-24,0-15.94-.58-31.84-1.71-47.69-3.24S175.56,95.66,159.8,93.38Z"/><circle class="cls-13" cx="209.11" cy="327.36" r="4.57"/><circle class="cls-13" cx="291.3" cy="284.79" r="4.57"/><circle class="cls-14" cx="186.69" cy="245.41" r="4.78"/><circle class="cls-14" cx="207.64" cy="334.73" r="5.6"/><circle class="cls-13" cx="188.75" cy="321.74" r="2.8"/><circle class="cls-13" cx="195.07" cy="359.87" r="2.8"/><circle class="cls-13" cx="298.89" cy="270.76" r="2.8"/><circle class="cls-13" cx="203.29" cy="256.6" r="4.57"/><circle class="cls-13" cx="316.75" cy="238.52" r="4.57"/><circle class="cls-14" cx="320.48" cy="265.33" r="4.78"/><circle class="cls-13" cx="204.33" cy="275.36" r="5.6"/><circle class="cls-13" cx="186.69" cy="264.51" r="2.8"/><circle class="cls-13" cx="193.02" cy="302.64" r="2.8"/><circle class="cls-13" cx="299.25" cy="255.7" r="2.8"/><circle class="cls-13" cx="266.65" cy="278.31" r="4.57"/><circle class="cls-13" cx="235.7" cy="277.08" r="4.57"/><circle class="cls-13" cx="239.43" cy="303.9" r="4.78"/><circle class="cls-13" cx="267.69" cy="297.07" r="5.6"/><circle class="cls-13" cx="250.05" cy="286.22" r="2.8"/><circle class="cls-13" cx="256.37" cy="324.35" r="2.8"/><circle class="cls-14" cx="218.19" cy="294.27" r="2.8"/><circle class="cls-14" cx="219.48" cy="298.37" r="2.8"/><circle class="cls-13" cx="266.52" cy="336.4" r="4.57"/><circle class="cls-14" cx="235.57" cy="335.17" r="4.57"/><circle class="cls-13" cx="239.3" cy="361.98" r="4.78"/><circle class="cls-13" cx="267.56" cy="355.16" r="5.6"/><circle class="cls-13" cx="249.92" cy="344.31" r="2.8"/><circle class="cls-13" cx="256.24" cy="382.44" r="2.8"/><circle class="cls-13" cx="218.06" cy="352.35" r="2.8"/><circle class="cls-13" cx="324.65" cy="304.68" r="4.57"/><circle class="cls-13" cx="293.7" cy="303.45" r="4.57"/><circle class="cls-14" cx="297.43" cy="330.26" r="4.78"/><circle class="cls-13" cx="325.69" cy="323.44" r="5.6"/><circle class="cls-14" cx="308.05" cy="312.59" r="2.8"/><circle class="cls-13" cx="314.38" cy="350.72" r="2.8"/><circle class="cls-13" cx="276.2" cy="320.63" r="2.8"/><circle class="cls-13" cx="240.5" cy="208.37" r="4.57"/><circle class="cls-13" cx="209.55" cy="207.14" r="4.57"/><circle class="cls-13" cx="213.28" cy="233.95" r="4.78"/><circle class="cls-13" cx="241.54" cy="227.12" r="5.6"/><circle class="cls-14" cx="223.9" cy="216.28" r="2.8"/><circle class="cls-14" cx="230.22" cy="254.4" r="2.8"/><circle class="cls-13" cx="209.93" cy="229.17" r="2.8"/><circle class="cls-14" cx="224.58" cy="193.7" r="4.78"/><circle class="cls-14" cx="221.24" cy="188.92" r="2.8"/><circle class="cls-13" cx="192.04" cy="224.32" r="2.8"/><circle class="cls-13" cx="306.94" cy="191.95" r="4.57"/><circle class="cls-14" cx="275.99" cy="190.72" r="4.57"/><circle class="cls-13" cx="279.72" cy="217.53" r="4.78"/><circle class="cls-13" cx="307.98" cy="210.71" r="5.6"/><circle class="cls-13" cx="290.34" cy="199.86" r="2.8"/><circle class="cls-13" cx="297.43" cy="240.79" r="2.8"/><circle class="cls-13" cx="258.48" cy="207.91" r="2.8"/><circle class="cls-13" cx="291.3" cy="226.66" r="4.57"/><circle class="cls-13" cx="260.35" cy="225.43" r="4.57"/><circle class="cls-13" cx="246.26" cy="182.86" r="5.6"/><circle class="cls-13" cx="228.63" cy="172.02" r="2.8"/><circle class="cls-13" cx="196.77" cy="180.06" r="2.8"/><circle class="cls-13" cx="284.44" cy="173.28" r="4.78"/><circle class="cls-14" cx="296.02" cy="182.4" r="4.57"/><circle class="cls-13" cx="265.07" cy="181.17" r="4.57"/><circle class="cls-13" cx="264.08" cy="252.24" r="4.78"/><circle class="cls-14" cx="292.34" cy="245.41" r="5.6"/><circle class="cls-13" cx="274.7" cy="234.56" r="2.8"/><circle class="cls-13" cx="281.02" cy="272.69" r="2.8"/><circle class="cls-13" cx="242.84" cy="242.61" r="2.8"/><path class="cls-15" d="M368.84,223.38c-3.79-37.77-8-57.44-10.3-65.95a11,11,0,0,0-1.56-3.35c-7.78,9.23-51.44,17.35-104.33,18.83-54.71,1.53-99.94-4.57-106-13.87A9.93,9.93,0,0,0,145,163.2c-1.91,11.79-6.4,40.5-9,65.45-3.38,32.3-1.23,72.68-1.23,72.68,0,62.88,56.68,126.57,118.33,126.57s113.34-65.18,119.11-132.24C373.94,274.92,368.84,223.38,368.84,223.38Z"/><path class="cls-4" d="M659.43,202.32c-2.54,29.54-25.31,58.26-52.47,58.26s-52.13-28.06-52.13-55.76c0,0-.94-17.79.55-32,1.15-11,3.13-23.64,4-28.83a4.28,4.28,0,0,1,2.74-3.35c5.28-1.93,19.54-6.12,43.42-6.13,28.47,0,40.22,2.24,44.7,3.6a4.75,4.75,0,0,1,3.22,3.34c1,3.75,2.87,12.41,4.54,29C658,170.48,660.22,193.19,659.43,202.32Z"/><path class="cls-5" d="M650.36,150.1c.6-.31.95-.17,1.15.08a1.57,1.57,0,0,1,.28.81c0,.82.94,4.5.94,4.5a5.86,5.86,0,0,1,.36,1.76,2.21,2.21,0,0,1-1.84,1.56,21.85,21.85,0,0,0-3.42,1.16,4.87,4.87,0,0,1-1.26.3c-.34.08-.49,0-.55,0a.16.16,0,0,1,0-.16c.25-.32.08-.42.08-.42a7.27,7.27,0,0,1-.62-1.82,1.14,1.14,0,0,0,1.2.4,10.89,10.89,0,0,1,2.65-1s1.11,0,1.16-.48c0,0,.12-.19-.1-.78a18.37,18.37,0,0,1-.77-2.64s-.1-.67-.14-1.71a.77.77,0,0,0-.69-.8,8.36,8.36,0,0,0,.83-.31Z"/><path class="cls-5" d="M646,160.08c.25-.32.08-.42.08-.42a7.54,7.54,0,0,1-.64-1.94,46.51,46.51,0,0,0-1.07-4.53c-.28-.86-.05-1.12-.05-1.12.1-.36,1.57-.62,1.57-.62a13.35,13.35,0,0,0,3.71-.93l.78-.42c.6-.31.95-.17,1.15.08a1.57,1.57,0,0,1,.28.81c0,.82.94,4.5.94,4.5a5.86,5.86,0,0,1,.36,1.76,2.21,2.21,0,0,1-1.84,1.56,21.85,21.85,0,0,0-3.42,1.16,4.87,4.87,0,0,1-1.26.3c-.34.08-.49,0-.55,0A.16.16,0,0,1,646,160.08Z"/><path class="cls-6" d="M641.85,151.61s-1-.46-1.12.45a1.7,1.7,0,0,1,.08-.37c.21-.57,1.58-.89,1.58-.89l3.2-.8,1.67-.48c.37-.11.51,0,.51,0a8.05,8.05,0,0,0,1.25,0c2.35-.11,2.49.63,2.49.63h0c-.2-.25-.55-.39-1.15-.08l-.78.42a13.35,13.35,0,0,1-3.71.93s-1.47.26-1.57.62l0,.05a1.06,1.06,0,0,1-.63-.09A8,8,0,0,0,641.85,151.61Z"/><path class="cls-7" d="M644.35,153.19a46.51,46.51,0,0,1,1.07,4.53,7.54,7.54,0,0,0,.64,1.94s.17.1-.08.42a.16.16,0,0,0,0,.16c-.16.12-.73-.22-.73-.22a8,8,0,0,0-2.62-.65.57.57,0,0,1-.53-.35,5,5,0,0,1-.17-1.09,13,13,0,0,0-.43-2l-.68-2.49a5.92,5.92,0,0,1-.13-1.43c.14-.91,1.12-.45,1.12-.45a8,8,0,0,1,1.79.42,1.06,1.06,0,0,0,.63.09A1.48,1.48,0,0,0,644.35,153.19Z"/><path class="cls-8" d="M650,150.54a.15.15,0,0,1,.15.07,3.32,3.32,0,0,1,.47,2.07,7.29,7.29,0,0,0,.47,2.87.18.18,0,0,0,0,.07.67.67,0,0,1,.24.4.16.16,0,0,1-.31.06h0a3.65,3.65,0,0,0-.49-1,3.49,3.49,0,0,1-.55-1.77,12.58,12.58,0,0,0-.11-1.66v0c0-.11-.28-.72-.7-.72S649.61,150.58,650,150.54Z"/><path class="cls-8" d="M647.9,152.93s1.43.43.69.59l-2.11-.06a4.15,4.15,0,0,0,1.17.29c.52,0-.08.34-.08.34a2.79,2.79,0,0,1-1.57.1c-.75-.23-.06.3-.06.3s-1-.18-.94-.68c0,0-.1-.28.25-.6s-.68-.33-.68-.33-.3-.71.67-.9c.52-.1.72,0,.79,0a1.18,1.18,0,0,0,.41.29Z"/><path class="cls-8" d="M641.42,152.35a1.64,1.64,0,0,1,.6.66.88.88,0,0,1,.08.53.3.3,0,0,0,.16.32c.28.17.07.72.07.72a5.63,5.63,0,0,0,.9,2.48,0,0,0,0,1,0,.08c-.22,0-.69-.31-1.06-1.95a1.79,1.79,0,0,0-.16-.44,3,3,0,0,1-.36-1.25,2.9,2.9,0,0,0-.24-1.1A0,0,0,0,1,641.42,152.35Z"/><path class="cls-8" d="M642.63,152.56a1.76,1.76,0,0,1,.49.88,2.5,2.5,0,0,1-.09.66,3,3,0,0,0,.66,2.41,3,3,0,0,1-.3-1,2.15,2.15,0,0,1,0-.67c0-.41.29-.8.24-1.21a1.08,1.08,0,0,0-.31-.63,2.68,2.68,0,0,0-.58-.42Z"/><path class="cls-8" d="M644.77,156.14a6.91,6.91,0,0,0,.17.76c0,.17,0,.33,0,.5,0,.67.43,1.29.48,2,0,0,0,.07,0,.08a.1.1,0,0,1-.07,0,.9.9,0,0,1-.65-.45c-.24-.47,0-1-.05-1.57-.06-.69-.62-1.25-.76-1.94a2.28,2.28,0,0,1,.05-1.07,4.61,4.61,0,0,0,.16-.64,1,1,0,0,0,0-.46s0,0,0,0a2.9,2.9,0,0,1,.43,1.35c0,.27,0,.54,0,.81s0,.41.21.59A.1.1,0,0,1,644.77,156.14Z"/><path class="cls-8" d="M650.67,157.83c-.27,0-.44.31-.7.38a2.68,2.68,0,0,1-.8,0,1.2,1.2,0,0,0-.38,0,1.31,1.31,0,0,0-.24.17l-.34.33a3,3,0,0,1-.34.28,3.24,3.24,0,0,1-1.21.5s-.08,0-.08.06a.63.63,0,0,0,.3,0A6.46,6.46,0,0,0,648,159a.59.59,0,0,1,.2-.09.62.62,0,0,1,.19,0c.31,0,.61-.06.92-.1a2.16,2.16,0,0,0,.49-.11,1.79,1.79,0,0,0,.88-.84S650.7,157.82,650.67,157.83Z"/><path class="cls-8" d="M556.58,404.11a17,17,0,0,0,4.72,4.73,32.33,32.33,0,0,0,5.88,3.23,52.49,52.49,0,0,0,12.94,3.49,96.64,96.64,0,0,0,13.39,1c2.25,0,4.5-.09,6.74-.14l6.75,0,13.51,0a97.11,97.11,0,0,0,13.38-1.29,66.24,66.24,0,0,0,13-3.36,31.39,31.39,0,0,0,6-3,15.74,15.74,0,0,0,4.73-4.71A15.71,15.71,0,0,1,653,409a31.42,31.42,0,0,1-6,3.21,66.52,66.52,0,0,1-13,3.63q-3.33.6-6.71,1a66.15,66.15,0,0,1-6.76.46l-13.51,0-6.75,0c-2.26,0-4.51.12-6.77.1A87.11,87.11,0,0,1,580,416.22a52.5,52.5,0,0,1-13-3.76,33,33,0,0,1-5.84-3.45A16.88,16.88,0,0,1,556.58,404.11Z"/><path class="cls-8" d="M614.57,395.24A7.41,7.41,0,0,1,613,393a15,15,0,0,1-1-2.57,26.9,26.9,0,0,1-.89-5.42c-.13-1.83-.1-3.66-.14-5.48l-.06-5.47-.13-21.88.07-21.88.11-10.93.2-10.94.23,10.94.14,10.93.13,21.88-.08,21.88,0,5.47c0,1.82-.07,3.65,0,5.45a27.14,27.14,0,0,0,.68,5.39,14.44,14.44,0,0,0,.85,2.58A7,7,0,0,0,614.57,395.24Z"/><path class="cls-8" d="M603.63,335.33c.11,5.13.11,10.27.09,15.4s-.12,10.26-.18,15.39-.25,10.26-.48,15.39a55.47,55.47,0,0,1-.68,7.7,13.84,13.84,0,0,1-1.28,3.66,5.94,5.94,0,0,1-2.66,2.74,6,6,0,0,0,2.45-2.84,13.61,13.61,0,0,0,1.07-3.64,57,57,0,0,0,.42-7.64l.28-15.39.39-15.38C603.21,345.59,603.38,340.46,603.63,335.33Z"/><path class="cls-8" d="M616.65,388.61a109.61,109.61,0,0,1,18.72,1.23,61.5,61.5,0,0,1,9.18,2.06c.76.2,1.49.49,2.23.76l1.11.4,1.08.48a21.5,21.5,0,0,1,4.18,2.22,7.67,7.67,0,0,1,3.07,3.7,3.77,3.77,0,0,1-.16,2.5,6.11,6.11,0,0,1-1.4,2,15.76,15.76,0,0,1-3.94,2.72,34.7,34.7,0,0,1-4.36,1.84,92.75,92.75,0,0,1-18.38,4,182.08,182.08,0,0,1-37.56.63,124.37,124.37,0,0,1-18.58-2.88,52,52,0,0,1-9-2.94,20,20,0,0,1-4.12-2.4,8.08,8.08,0,0,1-1.69-1.76,4.29,4.29,0,0,1-.8-2.37v-.05a6,6,0,0,1,1.49-2.55,12.15,12.15,0,0,1,1-1c.36-.31.75-.59,1.12-.89a26.35,26.35,0,0,1,5-2.68,51.9,51.9,0,0,1,10.85-3c1.84-.37,3.7-.54,5.56-.82s3.7-.52,5.56-.71a85.76,85.76,0,0,1,11.21-.51,85.19,85.19,0,0,0-11.18.71q-2.79.33-5.55.81c-1.84.31-3.71.51-5.53.91a52.78,52.78,0,0,0-10.72,3.06,25.63,25.63,0,0,0-4.85,2.66c-.35.29-.72.57-1.06.87a9.76,9.76,0,0,0-1,1,5.58,5.58,0,0,0-1.32,2.24v-.05a5,5,0,0,0,2.27,3.59,19.21,19.21,0,0,0,4,2.27,52.22,52.22,0,0,0,8.85,2.86,124.91,124.91,0,0,0,18.48,2.8c6.21.52,12.46.69,18.7.62a171.61,171.61,0,0,0,18.68-1.22,92.72,92.72,0,0,0,18.24-3.89,34.86,34.86,0,0,0,4.29-1.77,14.69,14.69,0,0,0,3.78-2.55,4,4,0,0,0,1.44-3.88,7,7,0,0,0-2.81-3.41,20.92,20.92,0,0,0-4.06-2.21l-1.06-.48-1.09-.41c-.73-.27-1.45-.56-2.2-.77a65.75,65.75,0,0,0-9.09-2.19A110,110,0,0,0,616.65,388.61Z"/><path class="cls-9" d="M594.25,402.32a14.84,14.84,0,0,0,3.12,1.54,26.09,26.09,0,0,0,3.33,1,34,34,0,0,0,6.89.83,29.17,29.17,0,0,0,6.92-.51,16.74,16.74,0,0,0,3.32-1,8.54,8.54,0,0,0,2.91-1.87,11.73,11.73,0,0,1-6.16,3.2,27.91,27.91,0,0,1-7,.61,32,32,0,0,1-7-.94A18.54,18.54,0,0,1,594.25,402.32Z"/><path class="cls-8" d="M614.57,274.88A81.16,81.16,0,0,0,611,289.1a83.86,83.86,0,0,0-1.17,14.58c0,1.22.09,2.44.1,3.67v25.73c-.09,9.8.13,19.6.12,29.4l0,14.7c0,2.45,0,4.9,0,7.35,0,1.22,0,2.44,0,3.66a12.56,12.56,0,0,0,.64,3.6,12.49,12.49,0,0,1-.75-3.59c-.11-1.22-.15-2.45-.15-3.68,0-2.45-.11-4.9-.17-7.35l-.27-14.69-.21-14.7c-.06-4.9-.14-9.8-.11-14.7l.09-14.69,0-7.35c0-2.45,0-4.9,0-7.36A82.05,82.05,0,0,1,614.57,274.88Z"/><path class="cls-9" d="M597.7,399.77a24.65,24.65,0,0,1,4.74-1.15,32.24,32.24,0,0,1,9.74,0,30.68,30.68,0,0,1,4.75,1.13c-1.59-.33-3.18-.64-4.79-.81a37.15,37.15,0,0,0-4.83-.28,39,39,0,0,0-4.83.26A35.13,35.13,0,0,0,597.7,399.77Z"/><path class="cls-8" d="M554.54,161.37c.62-4.11,1.29-8.21,2-12.31s1.36-8.19,2.07-12.28l2.17-12.28c.36-2,.77-4.08,1.17-6.12s.78-4,1.38-6.15l0,.19a.79.79,0,0,1,.08-.36,1,1,0,0,1,.1-.23,2.19,2.19,0,0,1,.26-.37,4.2,4.2,0,0,1,.57-.55,7.63,7.63,0,0,1,1.23-.77,18.49,18.49,0,0,1,2.57-1,39.42,39.42,0,0,1,5.28-1.2c3.54-.59,7.08-1,10.63-1.36,7.1-.68,14.23-1,21.36-1.11s14.26.24,21.36.85a169,169,0,0,1,21.12,3.18,209.59,209.59,0,0,0-21.18-2.43c-7.08-.49-14.19-.56-21.28-.45s-14.19.53-21.25,1.26c-3.53.37-7.06.74-10.55,1.3a39.53,39.53,0,0,0-5.12,1.13,17.26,17.26,0,0,0-2.4.92,6.15,6.15,0,0,0-1,.63,3.57,3.57,0,0,0-.4.37,1.4,1.4,0,0,0-.12.18l0,.07s0,.06,0,0l0,.2c-.55,1.88-.95,4-1.38,6l-1.24,6.1-2.43,12.21Z"/><path class="cls-9" d="M597.33,267.7a.28.28,0,0,1,.53-.12,7.25,7.25,0,0,0,3.51,3.29,12.73,12.73,0,0,0,5.47,1.17,13,13,0,0,0,5.47-1.17,7.25,7.25,0,0,0,3.52-3.3.28.28,0,0,1,.53.13,5.35,5.35,0,0,1-.5,2.37,7.72,7.72,0,0,1-2.28,2.79,11.47,11.47,0,0,1-13.47,0,7.69,7.69,0,0,1-2.28-2.78A5.49,5.49,0,0,1,597.33,267.7Z"/><path class="cls-8" d="M658.57,221.42c-.43,1.63-.89,3.26-1.46,4.86s-1.17,3.18-1.83,4.74-1.42,3.08-2.21,4.59-1.63,3-2.58,4.41l0-.07a36.14,36.14,0,0,1-5.66,7.91c-2.13,2.42-4.38,4.72-6.68,7-1.16,1.12-2.34,2.2-3.55,3.28l-3.79,3L623.23,267l.06-.06a4.37,4.37,0,0,1-.71.64,2.63,2.63,0,0,1-.91.43,2.15,2.15,0,0,1-1,0,2.18,2.18,0,0,1-.93-.48l0,0,0-.06a6.14,6.14,0,0,0-1.29-1.44c-.52-.44-1.06-.86-1.62-1.25l.06,0a28.44,28.44,0,0,0-2.82-1,24.46,24.46,0,0,0-2.92-.62,23.73,23.73,0,0,0-5.95-.18h0a17.86,17.86,0,0,0-7.3,1.41,9.14,9.14,0,0,0-3,2c-.19.23-.34.49-.59.77a1.9,1.9,0,0,1-.91.55,2.89,2.89,0,0,1-2-.32h0l0,0c-3.1-2.45-6.2-4.89-9.31-7.27a39.93,39.93,0,0,1-4.55-3.87L573,252.18a49.43,49.43,0,0,1-7.7-9.11c-2.2-3.31-4.17-6.75-6.06-10.22v0a109.31,109.31,0,0,1-5-14,62.09,62.09,0,0,1-1.62-7.3c-.16-1.24-.32-2.48-.38-3.73s-.17-2.47-.23-3.7c-.25-4.94-.29-9.89-.17-14.83s.43-9.88.9-14.79h.13c-.26,4.93-.3,9.86-.28,14.79s.22,9.85.54,14.75c.09,1.23.19,2.45.3,3.68s.26,2.42.44,3.62c.43,2.4,1,4.78,1.66,7.14a107.89,107.89,0,0,0,5,13.81l0,0c1.87,3.46,3.77,6.91,5.9,10.19a51.62,51.62,0,0,0,3.44,4.71c1.24,1.5,2.59,2.91,4,4.3l4.2,4.18a39.62,39.62,0,0,0,4.37,3.9c3.09,2.48,6.12,5,9.15,7.51l0,0a2.34,2.34,0,0,0,1.62.31,1.37,1.37,0,0,0,.69-.39c.18-.2.36-.48.57-.74a9.39,9.39,0,0,1,3.23-2.12,19,19,0,0,1,7.48-1.41h0a23.34,23.34,0,0,1,6.08.11,28.07,28.07,0,0,1,5.9,1.5h0l0,0a19.1,19.1,0,0,1,1.71,1.24c.28.23.55.46.81.72a4.63,4.63,0,0,1,.71.89l-.08-.1a1.65,1.65,0,0,0,.6.27,1.38,1.38,0,0,0,.67,0,1.91,1.91,0,0,0,.63-.33,3.43,3.43,0,0,0,.55-.53l0,0,0,0,7.44-6.06,3.73-3c1.17-1.06,2.34-2.17,3.49-3.27,2.31-2.2,4.57-4.46,6.7-6.82a38.38,38.38,0,0,0,5.63-7.59l0-.05v0c1-1.35,1.83-2.79,2.66-4.25s1.6-3,2.31-4.48a72.39,72.39,0,0,0,3.73-9.38Z"/><path class="cls-8" d="M651.65,119.11c2,7.31,3.56,14.71,5,22.15.37,1.85.72,3.71,1,5.58s.64,3.73.91,5.61l.85,5.61.75,5.63c.25,1.88.4,3.77.6,5.65s.39,3.77.51,5.66.31,3.77.42,5.67.17,3.78.24,5.67,0,3.79.05,5.69v2.84c0,.95-.07,1.89-.11,2.84-.12,1.89-.13,3.78-.35,5.67s-.41,3.76-.63,5.64c.08-1.89.17-3.78.28-5.66s0-3.78.05-5.66l0-2.83-.09-2.83c-.09-1.89-.08-3.77-.24-5.65-.4-7.54-1.14-15-2.06-22.54s-2-15-3.21-22.42c-.59-3.73-1.24-7.45-1.92-11.17S652.37,122.83,651.65,119.11Z"/><path class="cls-8" d="M595.17,270.93a55.26,55.26,0,0,1,6.14,11.88,29.78,29.78,0,0,1,1.65,6.53c.15,1.13.15,2.27.2,3.37l.12,3.33c.1,4.45.23,8.9.3,13.35s.11,8.9,0,13.35c-.31-4.44-.53-8.89-.73-13.33s-.34-8.89-.5-13.34l-.08-3.34c0-1.12,0-2.21-.16-3.29a33.12,33.12,0,0,0-1.49-6.41,53.56,53.56,0,0,0-2.46-6.17C597.3,274.84,596.27,272.87,595.17,270.93Z"/><path class="cls-8" d="M619.84,270.09l-2.18,4.54c-.71,1.52-1.44,3-2.11,4.54s-1.34,3.05-1.93,4.61a44.89,44.89,0,0,0-1.52,4.77,27.43,27.43,0,0,1,2.65-9.74A46.11,46.11,0,0,1,619.84,270.09Z"/><path class="cls-5" d="M621.72,177.64c-1.52.53-1.84,1.36-1.73,2.12a3.78,3.78,0,0,0,.94,1.78c1.37,1.4,6.23,9,6.23,9a14.2,14.2,0,0,0,2.45,3.5s2.45,1.57,5.69-.63a51.36,51.36,0,0,1,7.56-4,11.8,11.8,0,0,0,2.58-1.69c.69-.45.85-.78.84-1a.43.43,0,0,0-.21-.33c-1-.08-.86-.54-.86-.54a16.46,16.46,0,0,0-2.12-4,2.7,2.7,0,0,1-1.26,2.72s-4.42,1.53-6.05,2.94c0,0-1.85,1.86-2.72,1.21,0,0-.53-.11-1.18-1.45a42.86,42.86,0,0,0-3.3-5.62,39.86,39.86,0,0,0-2.71-3,1.84,1.84,0,0,1-.27-2.49,17.77,17.77,0,0,1-1.89.92Z"/><path class="cls-5" d="M646.07,186.33c-1-.08-.86-.54-.86-.54a18.43,18.43,0,0,0-2.28-4.26,103.61,103.61,0,0,1-6.07-9.23c-1-1.88-1.87-1.91-1.87-1.91-.78-.41-3.62,1.7-3.62,1.7a30.91,30.91,0,0,1-7.66,4.88l-2,.67c-1.52.53-1.84,1.36-1.73,2.12a3.78,3.78,0,0,0,.94,1.78c1.37,1.4,6.23,9,6.23,9a14.2,14.2,0,0,0,2.45,3.5s2.45,1.57,5.69-.63a51.36,51.36,0,0,1,7.56-4,11.8,11.8,0,0,0,2.58-1.69c.69-.45.85-.78.84-1A.43.43,0,0,0,646.07,186.33Z"/><path class="cls-6" d="M638.2,165.42s.81-2.45,2.59-1.19a3.08,3.08,0,0,0-.76-.48c-1.32-.56-4.1,1.28-4.1,1.28l-6.6,4.22-3.57,2.09c-.78.47-.82.87-.82.87a17.89,17.89,0,0,1-2,2.21c-4,3.87-3,5.34-3,5.34h0c-.11-.76.21-1.59,1.73-2.12l2-.67a30.91,30.91,0,0,0,7.66-4.88s2.84-2.11,3.62-1.7a.5.5,0,0,1,.14,0,2.4,2.4,0,0,0,.87-1.22A19.77,19.77,0,0,1,638.2,165.42Z"/><path class="cls-7" d="M636.86,172.3a103.61,103.61,0,0,0,6.07,9.23,18.43,18.43,0,0,1,2.28,4.26s-.1.46.86.54a.43.43,0,0,1,.21.33c.47,0,.81-1.6.81-1.6.48-2.25,3.16-5.58,3.16-5.58a1.36,1.36,0,0,0,.25-1.48,12.4,12.4,0,0,0-1.6-2.08,31.17,31.17,0,0,1-2.67-3.91l-3.17-5.23a14.25,14.25,0,0,0-2.27-2.55c-1.78-1.26-2.59,1.19-2.59,1.19a19.77,19.77,0,0,0-2.2,3.78,2.4,2.4,0,0,1-.87,1.22C635.42,170.52,636.09,170.88,636.86,172.3Z"/><path class="cls-8" d="M623.07,177.72a.39.39,0,0,0-.12.39,7.88,7.88,0,0,0,2.81,4.18c2.09,1.49,3.86,4.86,4.17,5.48a.36.36,0,0,1,0,.2,1.6,1.6,0,0,0,.3,1.07.38.38,0,0,0,.61-.45l0,0a8.17,8.17,0,0,1-1-2.55,8.12,8.12,0,0,0-2.17-3.81A34,34,0,0,1,625,179.3l0-.07c-.13-.26-.78-1.66-.1-2.38S623.78,177.11,623.07,177.72Z"/><path class="cls-8" d="M630.6,178s-1.57,3.17-.1,2.16l3.34-3.74a9.68,9.68,0,0,1-1.41,2.48c-.81.93.72.41.72.41a6.41,6.41,0,0,0,2.74-2.54c.83-1.65.62.4.62.4s1.27-2,.35-2.72c0,0-.32-.64-1.44-.57s.54-1.69.54-1.69-.75-1.69-2.65-.31c-1,.73-1.24,1.16-1.24,1.39a3,3,0,0,1-.15,1.19Z"/><path class="cls-8" d="M640.17,165.89a3.92,3.92,0,0,0,.16,2.1,2.21,2.21,0,0,0,.79,1,.69.69,0,0,1,.29.78c-.16.76,1.13,1.3,1.13,1.3s2.78,3.45,2.81,5.59a.12.12,0,0,0,.21.07c.3-.44.59-1.7-1.64-5a4.79,4.79,0,0,1-.51-1,7.13,7.13,0,0,0-1.56-2.67,6.68,6.68,0,0,1-1.5-2.2A.1.1,0,0,0,640.17,165.89Z"/><path class="cls-8" d="M638.56,168.32a4.1,4.1,0,0,0,.72,2.26,5.48,5.48,0,0,0,1.29.94,6.9,6.9,0,0,1,3.07,5.06,7.13,7.13,0,0,0-1.26-2.18,6.26,6.26,0,0,0-1.06-1.18c-.79-.6-1.87-.8-2.51-1.56a2.65,2.65,0,0,1-.56-1.56,5.62,5.62,0,0,1,.22-1.68Z"/><path class="cls-8" d="M641.25,177.83c.46.42.62,1.08,1,1.54.26.29.56.55.83.84,1.09,1.18,1.52,2.85,2.59,4a.21.21,0,0,0,.18.1.17.17,0,0,0,.13-.1,2,2,0,0,0,.28-1.85c-.42-1.18-1.78-1.69-2.61-2.63-1.1-1.24-1.16-3.12-2.1-4.48a5.49,5.49,0,0,0-1.93-1.65,12.3,12.3,0,0,1-1.37-.77,2.53,2.53,0,0,1-.75-.81,0,0,0,1,0-.06,0,6.53,6.53,0,0,0,1.63,2.94c.45.47,1,.87,1.38,1.36s.71.66.68,1.31A.22.22,0,0,0,641.25,177.83Z"/><path class="cls-8" d="M634.55,190.76c.52-.37,1.26-.25,1.79-.59a6.36,6.36,0,0,0,1.4-1.29,2,2,0,0,1,.68-.6,1.9,1.9,0,0,1,.67-.13l1.12-.08a7.19,7.19,0,0,0,1-.11,7.44,7.44,0,0,0,2.82-1.28c.08-.05.19-.1.26,0a1.62,1.62,0,0,1-.58.46,15.68,15.68,0,0,1-2.78,1,2,2,0,0,0-.47.2,2.37,2.37,0,0,0-.34.29A18.58,18.58,0,0,1,638.5,190a6,6,0,0,1-1,.68,4.31,4.31,0,0,1-2.88.15S634.49,190.8,634.55,190.76Z"/><path class="cls-5" d="M576.54,174.64c-1.19-.62-1.88-.34-2.28.16a3.22,3.22,0,0,0-.55,1.6c-.06,1.64-1.87,8.94-1.87,8.94a11.71,11.71,0,0,0-.71,3.5s.45,2.4,3.65,3.1a43.62,43.62,0,0,1,6.8,2.29,9.58,9.58,0,0,0,2.5.6c.68.16,1,.07,1.1-.06a.36.36,0,0,0,.08-.32c-.51-.63-.17-.84-.17-.84a13.56,13.56,0,0,0,1.22-3.6,2.22,2.22,0,0,1-2.37.8s-3.47-1.81-5.27-2c0,0-2.19,0-2.3-1,0,0-.24-.38.2-1.55a35.55,35.55,0,0,0,1.52-5.24,32,32,0,0,0,.29-3.39,1.54,1.54,0,0,1,1.36-1.6,14.19,14.19,0,0,1-1.65-.62Z"/><path class="cls-5" d="M585.26,194.45c-.51-.63-.17-.84-.17-.84a15.08,15.08,0,0,0,1.28-3.83,87.82,87.82,0,0,1,2.12-9c.56-1.71.09-2.24.09-2.24-.19-.71-3.11-1.23-3.11-1.23a25.9,25.9,0,0,1-7.38-1.85l-1.55-.82c-1.19-.62-1.88-.34-2.28.16a3.22,3.22,0,0,0-.55,1.6c-.06,1.64-1.87,8.94-1.87,8.94a11.71,11.71,0,0,0-.71,3.5s.45,2.4,3.65,3.1a43.62,43.62,0,0,1,6.8,2.29,9.58,9.58,0,0,0,2.5.6c.68.16,1,.07,1.1-.06A.36.36,0,0,0,585.26,194.45Z"/><path class="cls-6" d="M593.45,177.64s2-.92,2.22.89a3,3,0,0,0-.15-.74c-.42-1.13-3.13-1.76-3.13-1.76L586,174.44l-3.32-1c-.74-.2-1,0-1,0a15,15,0,0,1-2.48.07c-4.66-.22-5,1.26-5,1.26h0c.4-.5,1.09-.78,2.28-.16l1.55.82a25.9,25.9,0,0,0,7.38,1.85s2.92.52,3.11,1.23a.33.33,0,0,1,.06.11,2,2,0,0,0,1.25-.18A16.23,16.23,0,0,1,593.45,177.64Z"/><path class="cls-7" d="M588.49,180.78a87.82,87.82,0,0,0-2.12,9,15.08,15.08,0,0,1-1.28,3.83s-.34.21.17.84a.36.36,0,0,1-.08.32c.3.25,1.44-.43,1.44-.43,1.64-1,5.2-1.29,5.2-1.29a1.13,1.13,0,0,0,1-.69,11.06,11.06,0,0,0,.35-2.18,25.31,25.31,0,0,1,.84-3.87l1.36-4.94a11.91,11.91,0,0,0,.25-2.84c-.26-1.81-2.22-.89-2.22-.89a16.23,16.23,0,0,0-3.56.83,2,2,0,0,1-1.25.18A3,3,0,0,1,588.49,180.78Z"/><path class="cls-8" d="M577.26,175.5a.32.32,0,0,0-.3.15,6.56,6.56,0,0,0-.92,4.12,14.56,14.56,0,0,1-.94,5.69.45.45,0,0,1-.1.14,1.29,1.29,0,0,0-.48.79.32.32,0,0,0,.62.12v0a6.67,6.67,0,0,1,1-2.08,6.89,6.89,0,0,0,1.08-3.51,28,28,0,0,1,.21-3.32s0,0,0-.06c.08-.23.56-1.43,1.39-1.43S578,175.58,577.26,175.5Z"/><path class="cls-8" d="M581.43,180.25s-2.84.86-1.37,1.18l4.19-.12a8.21,8.21,0,0,1-2.32.57c-1,0,.16.67.16.67a5.48,5.48,0,0,0,3.13.21c1.48-.45.11.6.11.6s1.94-.37,1.86-1.35c0,0,.2-.56-.48-1.2s1.34-.64,1.34-.64.59-1.43-1.34-1.8c-1-.19-1.42-.09-1.56,0a2.6,2.6,0,0,1-.81.59Z"/><path class="cls-8" d="M594.3,179.1a3.22,3.22,0,0,0-1.18,1.31,1.79,1.79,0,0,0-.17,1.07.58.58,0,0,1-.31.62c-.56.34-.15,1.44-.15,1.44s-.49,3.67-1.78,4.92a.09.09,0,0,0,.08.16c.44-.06,1.38-.61,2.1-3.87a3.86,3.86,0,0,1,.32-.88,6.1,6.1,0,0,0,.73-2.49,5.62,5.62,0,0,1,.47-2.18A.08.08,0,0,0,594.3,179.1Z"/><path class="cls-8" d="M591.9,179.52a3.37,3.37,0,0,0-1,1.74,5,5,0,0,0,.17,1.33,5.77,5.77,0,0,1-1.31,4.77,6.06,6.06,0,0,0,.6-2,4.88,4.88,0,0,0,.11-1.32c-.09-.83-.59-1.6-.49-2.42a2.15,2.15,0,0,1,.63-1.24,4.45,4.45,0,0,1,1.14-.83Z"/><path class="cls-8" d="M587.65,186.63c0,.52-.3,1-.34,1.51,0,.33,0,.66,0,1-.09,1.34-.86,2.56-1,3.9a.2.2,0,0,0,0,.17.22.22,0,0,0,.14,0,1.69,1.69,0,0,0,1.28-.9c.48-.93,0-2.06.1-3.1.13-1.38,1.23-2.5,1.52-3.85a4.66,4.66,0,0,0-.1-2.13A10.72,10.72,0,0,1,589,182,2.09,2.09,0,0,1,589,181a0,0,0,0,0,0,0,5.47,5.47,0,0,0-.85,2.69c0,.53,0,1.08,0,1.61s0,.82-.41,1.17A.21.21,0,0,0,587.65,186.63Z"/><path class="cls-8" d="M575.94,190c.52.1.87.62,1.39.75a5.61,5.61,0,0,0,1.59.11,1.9,1.9,0,0,1,.75.06,1.71,1.71,0,0,1,.47.34l.69.64q.31.3.66.57a6.58,6.58,0,0,0,2.4,1c.08,0,.17.05.17.13a1.44,1.44,0,0,1-.61-.09,12.74,12.74,0,0,1-2.22-1.1,1.55,1.55,0,0,0-.4-.17,2.21,2.21,0,0,0-.37,0,16.07,16.07,0,0,1-1.82-.2,4.18,4.18,0,0,1-1-.21,3.64,3.64,0,0,1-1.74-1.66S575.88,190,575.94,190Z"/><path class="cls-5" d="M579.68,142.87c1.19-.62,1.88-.34,2.28.16a3.22,3.22,0,0,1,.55,1.6c.06,1.64,1.86,9,1.86,9a11.55,11.55,0,0,1,.72,3.5s-.45,2.39-3.65,3.1a43,43,0,0,0-6.8,2.28,9.58,9.58,0,0,1-2.5.6c-.68.16-1,.07-1.1-.06a.36.36,0,0,1-.08-.32c.51-.63.16-.83.16-.83a14.45,14.45,0,0,1-1.22-3.6,2.27,2.27,0,0,0,2.38.79,21.93,21.93,0,0,1,5.27-2s2.19-.05,2.3-1c0,0,.23-.38-.21-1.54a35.73,35.73,0,0,1-1.51-5.25,31.58,31.58,0,0,1-.29-3.38,1.53,1.53,0,0,0-1.36-1.6,13.73,13.73,0,0,0,1.65-.63Z"/><path class="cls-5" d="M571,162.68c.51-.63.16-.83.16-.83a15.52,15.52,0,0,1-1.27-3.84,86.54,86.54,0,0,0-2.13-9c-.55-1.7-.08-2.24-.08-2.24.19-.71,3.11-1.22,3.11-1.22a26.07,26.07,0,0,0,7.38-1.86l1.55-.82c1.19-.62,1.88-.34,2.28.16a3.22,3.22,0,0,1,.55,1.6c.06,1.64,1.86,9,1.86,9a11.55,11.55,0,0,1,.72,3.5s-.45,2.39-3.65,3.1a43,43,0,0,0-6.8,2.28,9.58,9.58,0,0,1-2.5.6c-.68.16-1,.07-1.1-.06A.36.36,0,0,1,571,162.68Z"/><path class="cls-6" d="M562.76,145.87s-2-.92-2.21.89a2.62,2.62,0,0,1,.15-.74c.42-1.12,3.13-1.76,3.13-1.76l6.36-1.58,3.33-1c.73-.21,1,0,1,0a15.86,15.86,0,0,0,2.48.06c4.66-.22,5,1.26,5,1.26h0c-.4-.5-1.09-.78-2.28-.16l-1.55.82a26.07,26.07,0,0,1-7.38,1.86s-2.92.51-3.11,1.22a.33.33,0,0,0-.06.11,2,2,0,0,1-1.25-.18A16.41,16.41,0,0,0,562.76,145.87Z"/><path class="cls-7" d="M567.72,149a86.54,86.54,0,0,1,2.13,9,15.52,15.52,0,0,0,1.27,3.84s.35.2-.16.83a.36.36,0,0,0,.08.32c-.3.25-1.44-.43-1.44-.43-1.65-1-5.21-1.29-5.21-1.29a1.11,1.11,0,0,1-1-.69,10.26,10.26,0,0,1-.35-2.18,25.39,25.39,0,0,0-.84-3.86l-1.36-5a11.91,11.91,0,0,1-.25-2.84c.26-1.81,2.21-.89,2.21-.89a16.41,16.41,0,0,1,3.57.83,2,2,0,0,0,1.25.18A2.94,2.94,0,0,0,567.72,149Z"/><path class="cls-8" d="M579,143.74a.31.31,0,0,1,.3.15,6.67,6.67,0,0,1,.92,4.11,14.56,14.56,0,0,0,.94,5.69.28.28,0,0,0,.1.14,1.27,1.27,0,0,1,.47.79.31.31,0,0,1-.61.12v0a6.77,6.77,0,0,0-1-2.08,6.8,6.8,0,0,1-1.08-3.51,27.19,27.19,0,0,0-.22-3.31s0,0,0-.07c-.08-.22-.56-1.43-1.4-1.43S578.17,143.81,579,143.74Z"/><path class="cls-8" d="M574.79,148.48s2.83.86,1.37,1.18l-4.19-.12a8.2,8.2,0,0,0,2.31.57c1,0-.16.67-.16.67A5.36,5.36,0,0,1,571,151c-1.48-.45-.11.61-.11.61s-1.95-.37-1.86-1.36c0,0-.2-.56.48-1.2s-1.34-.64-1.34-.64-.6-1.43,1.33-1.79c1-.2,1.43-.09,1.57,0a2.45,2.45,0,0,0,.8.59Z"/><path class="cls-8" d="M561.92,147.34a3.25,3.25,0,0,1,1.18,1.3,1.8,1.8,0,0,1,.17,1.07.58.58,0,0,0,.31.62c.55.35.14,1.44.14,1.44s.5,3.68,1.78,4.93a.09.09,0,0,1-.07.16c-.44-.07-1.38-.62-2.1-3.88a4,4,0,0,0-.32-.88,6.1,6.1,0,0,1-.73-2.48,5.83,5.83,0,0,0-.47-2.19A.07.07,0,0,1,561.92,147.34Z"/><path class="cls-8" d="M564.32,147.75a3.39,3.39,0,0,1,1,1.74,4.63,4.63,0,0,1-.17,1.33,5.81,5.81,0,0,0,1.32,4.78,5.9,5.9,0,0,1-.6-2,4.61,4.61,0,0,1-.11-1.33c.09-.82.59-1.6.49-2.42a2.15,2.15,0,0,0-.63-1.24,4.9,4.9,0,0,0-1.14-.83Z"/><path class="cls-8" d="M568.56,154.86c0,.52.3,1,.34,1.52,0,.33,0,.66,0,1,.1,1.34.86,2.56,1,3.89a.24.24,0,0,1,0,.17.18.18,0,0,1-.14,0,1.69,1.69,0,0,1-1.28-.89c-.48-.93,0-2.06-.1-3.11-.13-1.38-1.24-2.49-1.53-3.85a4.61,4.61,0,0,1,.11-2.12,11.8,11.8,0,0,0,.32-1.27,2.23,2.23,0,0,0-.06-.93,0,0,0,0,1,.05,0,5.61,5.61,0,0,1,.85,2.69c0,.54,0,1.08,0,1.62s0,.82.41,1.16A.24.24,0,0,1,568.56,154.86Z"/><path class="cls-8" d="M580.28,158.22c-.52.11-.87.62-1.39.75a5.31,5.31,0,0,1-1.59.11,1.88,1.88,0,0,0-.75.06,1.77,1.77,0,0,0-.47.34l-.69.64a7.09,7.09,0,0,1-.66.57,6.53,6.53,0,0,1-2.41,1c-.07,0-.17.06-.17.13a1.26,1.26,0,0,0,.61-.09,13.53,13.53,0,0,0,2.23-1.09,1.73,1.73,0,0,1,.39-.18,1.58,1.58,0,0,1,.38,0c.61,0,1.21-.11,1.81-.2a4.5,4.5,0,0,0,1-.22,3.57,3.57,0,0,0,1.75-1.66S580.34,158.21,580.28,158.22Z"/><path class="cls-5" d="M589.19,149.87c-1.34-.08-1.86.45-2,1.07a3.24,3.24,0,0,0,.14,1.68c.61,1.53,1.89,8.94,1.89,8.94a11.8,11.8,0,0,0,.75,3.5s1.37,2,4.59,1.37a43.25,43.25,0,0,1,7.14-.64,9.53,9.53,0,0,0,2.53-.45c.69-.13.92-.33,1-.5a.33.33,0,0,0,0-.32c-.72-.38-.49-.7-.49-.7a14,14,0,0,0-.32-3.79,2.26,2.26,0,0,1-1.86,1.68s-3.91-.26-5.63.29c0,0-2,.84-2.49.05,0,0-.37-.25-.43-1.5a36.36,36.36,0,0,0-.72-5.41,32.09,32.09,0,0,0-1.1-3.22,1.55,1.55,0,0,1,.61-2,12.83,12.83,0,0,1-1.76.09Z"/><path class="cls-5" d="M605.13,164.52c-.72-.38-.49-.7-.49-.7a15.21,15.21,0,0,0-.37-4,87.13,87.13,0,0,1-1.67-9.1c-.17-1.78-.82-2.08-.82-2.08-.46-.57-3.34.13-3.34.13a25.81,25.81,0,0,1-7.5,1.26l-1.75-.13c-1.34-.08-1.86.45-2,1.07a3.24,3.24,0,0,0,.14,1.68c.61,1.53,1.89,8.94,1.89,8.94a11.8,11.8,0,0,0,.75,3.5s1.37,2,4.59,1.37a43.25,43.25,0,0,1,7.14-.64,9.53,9.53,0,0,0,2.53-.45c.69-.13.92-.33,1-.5A.33.33,0,0,0,605.13,164.52Z"/><path class="cls-6" d="M605.88,145.83s1.42-1.63,2.39-.08a3,3,0,0,0-.43-.61c-.84-.87-3.58-.35-3.58-.35l-6.46,1.1-3.44.44c-.76.11-.92.41-.92.41a15.43,15.43,0,0,1-2.25,1c-4.35,1.68-4,3.15-4,3.15h0c.17-.62.69-1.15,2-1.07l1.75.13a25.81,25.81,0,0,0,7.5-1.26s2.88-.7,3.34-.13l.1.07A2,2,0,0,0,603,148,16.94,16.94,0,0,1,605.88,145.83Z"/><path class="cls-7" d="M602.6,150.69a87.13,87.13,0,0,0,1.67,9.1,15.21,15.21,0,0,1,.37,4s-.23.32.49.7a.33.33,0,0,1,0,.32c.38.11,1.15-1,1.15-1,1.11-1.58,4.25-3.27,4.25-3.27a1.14,1.14,0,0,0,.68-1.06,10.43,10.43,0,0,0-.56-2.13,26.36,26.36,0,0,1-.78-3.88l-.74-5.07a12.34,12.34,0,0,0-.91-2.71c-1-1.55-2.39.08-2.39.08A16.94,16.94,0,0,0,603,148a2,2,0,0,1-1.07.66A3,3,0,0,1,602.6,150.69Z"/><path class="cls-8" d="M590.2,150.38a.31.31,0,0,0-.22.25,6.57,6.57,0,0,0,.81,4.14,14.64,14.64,0,0,1,1.42,5.6.23.23,0,0,1,0,.16,1.3,1.3,0,0,0-.12.92.31.31,0,0,0,.61-.15h0a6.73,6.73,0,0,1,.06-2.3,6.73,6.73,0,0,0-.43-3.65,28,28,0,0,1-1.13-3.12s0,0,0-.07c0-.24-.06-1.53.7-1.87S591,150.13,590.2,150.38Z"/><path class="cls-8" d="M595.92,153.05s-2.25,1.93-.78,1.63l3.79-1.79a8.49,8.49,0,0,1-1.89,1.45c-.93.45.41.55.41.55a5.45,5.45,0,0,0,2.95-1.06c1.18-1,.34.51.34.51s1.63-1.13,1.16-2c0,0,0-.59-.92-.91s1-1.12,1-1.12,0-1.55-1.94-1.11c-1,.24-1.34.49-1.42.67a2.6,2.6,0,0,1-.5.87Z"/><path class="cls-8" d="M607.25,146.83a3.19,3.19,0,0,0-.56,1.67,1.76,1.76,0,0,0,.27,1.05.57.57,0,0,1,0,.69c-.37.54.44,1.38.44,1.38s1,3.56.35,5.22a.1.1,0,0,0,.14.12c.37-.24,1-1.12.36-4.39a3.69,3.69,0,0,1-.06-.94,6,6,0,0,0-.33-2.57,5.58,5.58,0,0,1-.44-2.19A.08.08,0,0,0,607.25,146.83Z"/><path class="cls-8" d="M605.21,148.18a3.38,3.38,0,0,0-.18,2,5,5,0,0,0,.69,1.15,5.74,5.74,0,0,1,.71,4.9,5.92,5.92,0,0,0-.26-2.09,4.58,4.58,0,0,0-.43-1.26c-.41-.72-1.18-1.23-1.42-2a2.21,2.21,0,0,1,.07-1.39,4.84,4.84,0,0,1,.72-1.22Z"/><path class="cls-8" d="M604.18,156.39a15.32,15.32,0,0,1,.3,1.53c.11.31.26.6.37.92.45,1.26.24,2.68.68,3.95,0,.06.05.12.11.13s.09,0,.13,0a1.71,1.71,0,0,0,.82-1.33c.06-1.05-.83-1.89-1.16-2.89-.44-1.31.13-2.78-.15-4.14a4.73,4.73,0,0,0-.95-1.9,11.46,11.46,0,0,1-.81-1,2.16,2.16,0,0,1-.31-.88s-.05,0-.06,0a5.57,5.57,0,0,0,.3,2.8c.19.5.46,1,.62,1.49s.34.75.1,1.24A.23.23,0,0,0,604.18,156.39Z"/><path class="cls-8" d="M594.8,164.17c.52-.11,1.05.22,1.57.13a5.26,5.26,0,0,0,1.5-.53,1.77,1.77,0,0,1,.72-.25,1.81,1.81,0,0,1,.56.12l.89.31a8.11,8.11,0,0,0,.84.25,6.28,6.28,0,0,0,2.59-.06c.08,0,.18,0,.21.05a1.33,1.33,0,0,1-.59.16,12.85,12.85,0,0,1-2.48-.11,1.55,1.55,0,0,0-.43,0,1.52,1.52,0,0,0-.36.12c-.56.22-1.15.38-1.74.55a4.68,4.68,0,0,1-1,.19,3.55,3.55,0,0,1-2.26-.82S594.74,164.18,594.8,164.17Z"/><path class="cls-10" d="M633.63,172.54a38.65,38.65,0,0,0-5-54.37,39.63,39.63,0,0,0-5.51-3.82l-37.47,67.51A38.68,38.68,0,0,0,633.63,172.54Zm1.86-31.71a4.54,4.54,0,0,1,1.41,1.86c2.14,6,1.52,13-1.94,18a5.34,5.34,0,0,1-2.34,1.72,1.92,1.92,0,0,1-1.7-.09l-21.31-11.84c-.69-.2-3.22-1.94-.31-3.49l23.62-6.69A2.77,2.77,0,0,1,635.49,140.83Zm-16.1-18.44a2.8,2.8,0,0,1,2.2-1.43,4.53,4.53,0,0,1,2.31.33c5.77,2.79,10.23,8.17,11.29,14.16a5.55,5.55,0,0,1-.45,2.87,2,2,0,0,1-1.27,1.13L610,146c-.63.34-3.65.89-2.67-2.26Zm-7.63,56.75a4.65,4.65,0,0,1-1.86,1.42c-6,2.17-13,1.59-18-1.84a5.47,5.47,0,0,1-1.73-2.33,1.92,1.92,0,0,1,.08-1.7L602,153.3c.2-.68,1.92-3.22,3.49-.32l6.83,23.58A2.83,2.83,0,0,1,611.76,179.14Zm1.65-2.12-7-23.35c-.36-.62-1-3.63,2.2-2.71l21.61,11.65a2.82,2.82,0,0,1,1.48,2.18,4.53,4.53,0,0,1-.29,2.31c-2.68,5.82-8,10.39-13.93,11.56a5.49,5.49,0,0,1-2.88-.39A2,2,0,0,1,613.41,177Z"/><path class="cls-11" d="M629.81,116.74a40.63,40.63,0,0,0-5.79-4l-.54,1-.37.66a39.63,39.63,0,0,1,5.51,3.82,38.61,38.61,0,0,1-43,63.69l-.53,1-.37.67a40.47,40.47,0,0,0,45.07-66.76Z"/><path class="cls-12" d="M610,146l23.48-6.58a2,2,0,0,0,1.27-1.13,5.55,5.55,0,0,0,.45-2.87c-1.06-6-5.52-11.37-11.29-14.16a4.53,4.53,0,0,0-2.31-.33,2.8,2.8,0,0,0-2.2,1.43l-12.07,21.38C606.34,146.92,609.36,146.37,610,146Z"/><path class="cls-12" d="M609.3,147c-2.91,1.55-.38,3.29.31,3.49l21.31,11.84a1.92,1.92,0,0,0,1.7.09,5.34,5.34,0,0,0,2.34-1.72c3.46-5,4.08-12,1.94-18a4.54,4.54,0,0,0-1.41-1.86,2.77,2.77,0,0,0-2.57-.53Z"/><path class="cls-12" d="M605.45,153c-1.57-2.9-3.29-.36-3.49.32l-11.72,21.39a1.92,1.92,0,0,0-.08,1.7,5.47,5.47,0,0,0,1.73,2.33c5,3.43,12,4,18,1.84a4.65,4.65,0,0,0,1.86-1.42,2.83,2.83,0,0,0,.52-2.58Z"/><path class="cls-12" d="M631.38,167.1a4.53,4.53,0,0,0,.29-2.31,2.82,2.82,0,0,0-1.48-2.18L608.58,151c-3.16-.92-2.56,2.09-2.2,2.71l7,23.35a2,2,0,0,0,1.16,1.25,5.49,5.49,0,0,0,2.88.39C623.41,177.49,628.7,172.92,631.38,167.1Z"/><path class="cls-8" d="M565.89,113.22l21,1.49c7,.44,14,.93,21,1.11,3.5.09,7,.17,10.48.07s7-.35,10.46-.64,7-.65,10.43-1.1,6.95-.92,10.4-1.53h0l0,0a3,3,0,0,1,.65,1.15,7.35,7.35,0,0,1,.3,1.25,7.23,7.23,0,0,0-.39-1.22,3,3,0,0,0-.67-1l.07,0a179.55,179.55,0,0,1-20.76,3.51c-3.5.38-7,.63-10.52.79s-7,.13-10.56,0c-7-.3-14-.74-21-1.44S572.83,114.23,565.89,113.22Z"/><circle class="cls-16" cx="587.61" cy="216.29" r="2.01"/><circle class="cls-16" cx="623.81" cy="197.53" r="2.01"/><circle class="cls-17" cx="577.73" cy="180.19" r="2.11"/><circle class="cls-17" cx="586.96" cy="219.53" r="2.47"/><circle class="cls-16" cx="578.64" cy="213.81" r="1.23"/><circle class="cls-16" cx="581.42" cy="230.61" r="1.23"/><circle class="cls-16" cx="627.16" cy="191.35" r="1.23"/><circle class="cls-16" cx="585.04" cy="185.12" r="2.01"/><circle class="cls-16" cx="635.02" cy="177.15" r="2.01"/><circle class="cls-17" cx="636.67" cy="188.96" r="2.11"/><circle class="cls-16" cx="585.5" cy="193.38" r="2.47"/><circle class="cls-16" cx="577.73" cy="188.6" r="1.23"/><circle class="cls-16" cx="580.52" cy="205.4" r="1.23"/><circle class="cls-16" cx="627.31" cy="184.72" r="1.23"/><circle class="cls-16" cx="612.95" cy="194.68" r="2.01"/><circle class="cls-16" cx="599.32" cy="194.14" r="2.01"/><circle class="cls-16" cx="600.96" cy="205.95" r="2.11"/><circle class="cls-16" cx="613.41" cy="202.94" r="2.47"/><circle class="cls-16" cx="605.64" cy="198.16" r="1.23"/><circle class="cls-16" cx="608.43" cy="214.96" r="1.23"/><circle class="cls-17" cx="591.61" cy="201.71" r="1.23"/><circle class="cls-17" cx="592.17" cy="203.52" r="1.23"/><circle class="cls-16" cx="612.9" cy="220.27" r="2.01"/><circle class="cls-17" cx="599.26" cy="219.73" r="2.01"/><circle class="cls-16" cx="600.91" cy="231.54" r="2.11"/><circle class="cls-16" cx="613.35" cy="228.53" r="2.47"/><circle class="cls-16" cx="605.59" cy="223.75" r="1.23"/><circle class="cls-16" cx="608.37" cy="240.55" r="1.23"/><circle class="cls-16" cx="591.55" cy="227.3" r="1.23"/><circle class="cls-16" cx="638.51" cy="206.3" r="2.01"/><circle class="cls-16" cx="624.87" cy="205.75" r="2.01"/><circle class="cls-17" cx="626.51" cy="217.56" r="2.11"/><circle class="cls-16" cx="638.96" cy="214.56" r="2.47"/><circle class="cls-17" cx="631.19" cy="209.78" r="1.23"/><circle class="cls-16" cx="633.98" cy="226.58" r="1.23"/><circle class="cls-16" cx="617.16" cy="213.32" r="1.23"/><circle class="cls-16" cx="601.44" cy="163.87" r="2.01"/><circle class="cls-16" cx="587.8" cy="163.33" r="2.01"/><circle class="cls-16" cx="589.45" cy="175.14" r="2.11"/><circle class="cls-16" cx="601.89" cy="172.13" r="2.47"/><circle class="cls-17" cx="594.12" cy="167.35" r="1.23"/><circle class="cls-17" cx="596.91" cy="184.15" r="1.23"/><circle class="cls-16" cx="587.97" cy="173.03" r="1.23"/><circle class="cls-17" cx="594.42" cy="157.41" r="2.11"/><circle class="cls-17" cx="592.95" cy="155.3" r="1.23"/><circle class="cls-16" cx="580.09" cy="170.9" r="1.23"/><circle class="cls-16" cx="630.7" cy="156.64" r="2.01"/><circle class="cls-17" cx="617.07" cy="156.1" r="2.01"/><circle class="cls-16" cx="618.71" cy="167.91" r="2.11"/><circle class="cls-16" cx="631.16" cy="164.9" r="2.47"/><circle class="cls-16" cx="623.39" cy="160.12" r="1.23"/><circle class="cls-16" cx="626.51" cy="178.15" r="1.23"/><circle class="cls-16" cx="609.36" cy="163.67" r="1.23"/><circle class="cls-16" cx="623.81" cy="171.93" r="2.01"/><circle class="cls-16" cx="610.18" cy="171.38" r="2.01"/><circle class="cls-16" cx="603.97" cy="152.63" r="2.47"/><circle class="cls-16" cx="596.2" cy="147.86" r="1.23"/><circle class="cls-16" cx="582.17" cy="151.4" r="1.23"/><circle class="cls-16" cx="620.79" cy="148.41" r="2.11"/><circle class="cls-17" cx="625.89" cy="152.43" r="2.01"/><circle class="cls-16" cx="612.26" cy="151.89" r="2.01"/><circle class="cls-16" cx="611.82" cy="183.19" r="2.11"/><circle class="cls-17" cx="624.27" cy="180.19" r="2.47"/><circle class="cls-16" cx="616.5" cy="175.41" r="1.23"/><circle class="cls-16" cx="619.29" cy="192.2" r="1.23"/><circle class="cls-16" cx="602.47" cy="178.95" r="1.23"/><path class="cls-15" d="M658,170.48c-1.67-16.64-3.55-25.3-4.54-29a4.87,4.87,0,0,0-.68-1.48c-3.43,4.07-22.66,7.65-46,8.3-24.1.67-44-2-46.68-6.11a4.38,4.38,0,0,0-.76,1.83c-.84,5.19-2.82,17.84-4,28.83-1.49,14.23-.55,32-.55,32,0,27.7,25,55.76,52.13,55.76s49.93-28.72,52.47-58.26C660.22,193.19,658,170.48,658,170.48Z"/></g></svg>