<svg xmlns="http://www.w3.org/2000/svg" xmlns:xlink="http://www.w3.org/1999/xlink" viewBox="0 0 800 500"><defs><style>.cls-1{fill:#545454;}.cls-2{fill:#424242;}.cls-3{opacity:0.6;fill:url(#linear-gradient);}.cls-10,.cls-11,.cls-4,.cls-9{fill:#fff;}.cls-5{fill:url(#linear-gradient-2);}.cls-6{fill:#638919;}.cls-7{fill:#73a91d;}.cls-8{fill:#4bf7be;}.cls-9{opacity:0.7;}.cls-10{opacity:0.9;}.cls-11{opacity:0.8;}.cls-12{fill:#ede664;opacity:0.4;}.cls-13{fill:#d3ca5b;}.cls-14{fill:url(#linear-gradient-3);}.cls-15{fill:#8fc624;}</style><linearGradient id="linear-gradient" x1="587.11" y1="5.64" x2="587.11" y2="403.06" gradientUnits="userSpaceOnUse"><stop offset="0" stop-color="#fff" stop-opacity="0.7"/><stop offset="0.13" stop-color="#fff" stop-opacity="0.64"/><stop offset="0.38" stop-color="#fff" stop-opacity="0.48"/><stop offset="0.73" stop-color="#fff" stop-opacity="0.22"/><stop offset="1" stop-color="#fff" stop-opacity="0"/></linearGradient><linearGradient id="linear-gradient-2" x1="276.56" y1="329.86" x2="276.56" y2="790.97" gradientUnits="userSpaceOnUse"><stop offset="0" stop-color="#d9ce98"/><stop offset="0.45" stop-color="#edeab2" stop-opacity="0.5"/><stop offset="1" stop-color="#b8ab68"/></linearGradient><linearGradient id="linear-gradient-3" x1="594.15" y1="204.58" x2="594.15" y2="379.36" xlink:href="#linear-gradient-2"/></defs><title>featured image</title><g id="Layer_7" data-name="Layer 7"><rect class="cls-1" width="800" height="500"/><polygon class="cls-2" points="0 388.6 800 188.96 800 500 0 500 0 388.6"/></g><g id="Layer_2" data-name="Layer 2"><g id="Layer_12" data-name="Layer 12"><polygon class="cls-3" points="518.17 0.4 391.22 429.32 783 434 655.89 0.4 518.17 0.4"/></g></g><g id="Layer_3" data-name="Layer 3"><path class="cls-4" d="M415.3,235.77a3.42,3.42,0,0,0-.8-2,7.59,7.59,0,0,0-1.63-1.52,21.22,21.22,0,0,0-3.91-2.15,63.33,63.33,0,0,0-8.47-2.84c-5.76-1.54-11.63-2.65-17.52-3.61-11.78-1.87-23.67-3-35.57-3.83-23.8-1.62-47.67-1.92-71.49-1.45q-17.88.36-35.71,1.35t-35.58,2.64c-11.83,1.1-23.62,2.54-35.24,4.52a173.85,173.85,0,0,0-17.15,3.67,59.36,59.36,0,0,0-8,2.73A18,18,0,0,0,141,235a4.6,4.6,0,0,0-.91.83c-.16.22-.05.17-.06-.1s-.1-.32.06-.11a4.3,4.3,0,0,0,.91.84,18.05,18.05,0,0,0,3.24,1.79,60.16,60.16,0,0,0,8,2.74,173.83,173.83,0,0,0,17.15,3.66c11.63,2,23.42,3.41,35.24,4.51s23.69,2,35.58,2.64S264,253,275.91,253.19c23.82.48,47.69.18,71.49-1.43,11.9-.88,23.79-2,35.57-3.83,5.89-1,11.76-2.07,17.52-3.61a62,62,0,0,0,8.47-2.85,20.6,20.6,0,0,0,3.91-2.14,7.59,7.59,0,0,0,1.63-1.52A3.42,3.42,0,0,0,415.3,235.77Zm0,0a3.42,3.42,0,0,1-.78,2,7.94,7.94,0,0,1-1.63,1.54,21.27,21.27,0,0,1-3.9,2.18,64.61,64.61,0,0,1-8.47,2.91,176.8,176.8,0,0,1-17.5,3.74c-11.78,2-23.64,3.45-35.53,4.56s-23.81,2-35.75,2.65-23.88,1.11-35.83,1.35c-23.91.48-47.86.18-71.79-1.45q-9-.65-17.94-1.56c-6-.63-12-1.33-17.92-2.31a179.41,179.41,0,0,1-17.87-3.69,65.73,65.73,0,0,1-9-3,24.46,24.46,0,0,1-4.58-2.53A11.07,11.07,0,0,1,134.5,240a7.48,7.48,0,0,1-1.05-1.79,6.73,6.73,0,0,1-.48-2.42,7,7,0,0,1,1.53-4.2,11.17,11.17,0,0,1,2.35-2.22,25.25,25.25,0,0,1,4.57-2.53,67.12,67.12,0,0,1,9-3,179.93,179.93,0,0,1,17.87-3.68c11.94-1.88,23.9-3,35.86-3.86,23.93-1.63,47.88-1.93,71.79-1.45q17.93.34,35.83,1.34c11.94.62,23.85,1.53,35.75,2.65s23.75,2.56,35.53,4.55a176.8,176.8,0,0,1,17.5,3.74A64.61,64.61,0,0,1,409,230a21.27,21.27,0,0,1,3.9,2.18,7.94,7.94,0,0,1,1.63,1.54A3.42,3.42,0,0,1,415.3,235.77Z"/><path class="cls-4" d="M358.05,257c9.91-1,19.79-2.37,29.57-4.18,4.89-.92,9.76-2,14.53-3.32a62.22,62.22,0,0,0,7-2.43,23.14,23.14,0,0,0,3.25-1.67,7.08,7.08,0,0,0,2.44-2.39l1-2v2.22c0,1.64,0,3.28,0,4.91l-.12,4.9-.24,9.81L415,282.47l-1,39.22-2,78.43L407.77,557l-4.46,156.86L401,792.27c-.2,6.54-.44,13.06-.44,19.67,0,.82,0,1.64,0,2.47l-.15,2.49-.3,5c-.1,1.66-.35,3.31-.52,5s-.33,3.32-.66,5l-.87,4.95c-.36,1.65-.78,3.28-1.18,4.92l-.29,1.23-.38,1.22-.78,2.42a50.6,50.6,0,0,1-1.8,4.8l-.48,1.19-.58,1.16L391.36,856c-.4.76-.89,1.5-1.34,2.25l-.68,1.12-.79,1.07a29.16,29.16,0,0,1-3.5,4.09l-1,.94-1.11.88a14.09,14.09,0,0,1-1.2.84c-.2.13-.42.26-.67.39a6.09,6.09,0,0,1-.85.42l.3-.14A141.56,141.56,0,0,1,356.22,878a185.41,185.41,0,0,1-25.46,6q-12.88,2.16-25.9,3.06c-8.66.56-17.34.78-26,.72a448,448,0,0,1-51.79-3.59q-12.87-1.61-25.66-3.9-3.19-.59-6.38-1.21l-3.19-.64-1.6-.34-.8-.18a8.06,8.06,0,0,1-.91-.23,66.3,66.3,0,0,1-12.48-5.22,54.69,54.69,0,0,1-19.76-18.2,61.67,61.67,0,0,1-9.1-25.2,53.84,53.84,0,0,1-.49-6.79c0-2.17-.08-4.3-.12-6.46l-.27-12.9-.54-25.79L143.66,674l-3.88-206.39-1.71-103.2-.84-51.6-.72-51.61,1.65,51.59,1.53,51.59,3,103.2,5.59,206.41,2.62,103.21.65,25.81.32,12.9c0,2.14.12,4.31.14,6.43a48.77,48.77,0,0,0,.48,6.08,56.73,56.73,0,0,0,8.34,22.94,49.08,49.08,0,0,0,17.83,16.36A61.32,61.32,0,0,0,190,872.39a3.89,3.89,0,0,0,.65.17l.77.17,1.56.33,3.14.63q3.14.62,6.29,1.18,12.62,2.25,25.37,3.82a442.19,442.19,0,0,0,51.14,3.47c8.54.05,17.07-.18,25.57-.75s17-1.56,25.34-3a179.21,179.21,0,0,0,24.73-5.84A136.22,136.22,0,0,0,377.86,863l.31-.14.24-.14a2.75,2.75,0,0,0,.38-.23,7.86,7.86,0,0,0,.81-.56l.82-.64.77-.73a24.56,24.56,0,0,0,2.87-3.35l.67-.91.59-1c.39-.66.81-1.28,1.17-2l1-2.06.52-1,.43-1.08c.57-1.45,1.22-2.86,1.65-4.38l.72-2.25.36-1.12.28-1.15c.36-1.54.77-3.07,1.11-4.62l.83-4.71c.32-1.56.43-3.16.64-4.75s.41-3.17.51-4.78l.29-4.81.15-2.4c0-.81,0-1.62,0-2.43,0-6.47.26-13,.47-19.56l2.58-78.43,5.36-156.86L409,400.08l2.92-78.42,1.49-39.22.74-19.6.37-9.8.19-4.91c.06-1.63,0-3.26.06-4.89l1,.22a7.86,7.86,0,0,1-2.85,2.77,23.06,23.06,0,0,1-3.41,1.7,59.07,59.07,0,0,1-7.14,2.36c-4.84,1.28-9.74,2.23-14.65,3.07C377.88,255,368,256.16,358.05,257Z"/><path class="cls-5" d="M405.71,299.24l-27.6,472.62s-9.9,35.13-97.19,33.34-114-33.34-114-33.34L147.4,299.11a4.7,4.7,0,0,1,3.95-4.85c15.28-2.47,70.82-10.6,129.57-9.17,0,0,65.2.86,120.8,9.2A4.73,4.73,0,0,1,405.71,299.24Z"/><path class="cls-6" d="M353.57,383.64c1.14-1.09,1.94-7.13,1.17-6.18s-1.22,0-1.22,0c1.85-1.18,1-10.92,1-10.92-.42,1.14-1.33.66-1.33.66l.34-1.9a13.86,13.86,0,0,0-1.95-7.32,10.05,10.05,0,0,0-.9-5.08c-1.19-2-.43-3-.43-3l-1.24.19s-.42.05-1.33-2.47-1.71-3-1.71-3-2-.76-1.71-2a2.79,2.79,0,0,0-.9-2.33L340.79,338c-.34-1.8-.86-1.9-.86-1.9-1.14-.09-.38-1.28-.38-1.28.19-1.43-.71-.76-.71-.76.62-1.29-.81-2.3-.81-2.3s-2.85-1.69-4.08-1.17-4.9.47-4.9.47c-.66,1-3.46,2.07-3.46,2.07a4.45,4.45,0,0,0-3.9-.69l-1.09,1.9a1.77,1.77,0,0,1-2.28-.76c-3.95,2.38-3.43,4.61-3.43,4.61a1.55,1.55,0,0,0-1.52-1.09c-2.09,2.14-1.8,3-1.8,3-1.38.28-2.33-1.19-2.33-1.19-3,2-7.32,8.6-7.32,8.6-1.1.39-1.61-1.57-1.61-1.57-.86-.39-1,.87-1,.87-.43.94-1.1,2.16-1.1,2.16a13.79,13.79,0,0,0-2.78,3.69c-1.65,2.12-.51,2.75-.51,2.75-.87.7-2.24-.36-2.24-.36-.94-.23-.87.51-.87.51-.51,2.24-3.41,7.9-3.41,7.9a6.62,6.62,0,0,0-.79,5.61c-1.61-1.1-1.33-2.2-1.33-2.2-1.14,1.34-1.57,6.28-1.57,6.28l-.43-.27c-.91,1.37,0,3.89,0,3.89a1.12,1.12,0,0,0-1.69-.55,2.48,2.48,0,0,0-.24,2.12s-.82-.08-.9,1a1.4,1.4,0,0,1-.9,1.33,13.55,13.55,0,0,0-2.28,6.44s-.12,4.67-.67,5.34-.4-.84-.4-.84c-1.89,6.48-.56,8.64-.56,8.64-.77.8-1-.36-1-.36-.56,3.39,1.53,3.49,1.8,5.61s-.23,2.63-.23,2.63a2.81,2.81,0,0,0,.36,3.23,5.58,5.58,0,0,0,.67,3.35,14,14,0,0,0,1.23,5.09c-.5.53-1.73-1-1.73-1,.8,1.66,3.92,6.94,3.92,6.94a6.59,6.59,0,0,0,2.14,2.37c-.9.35,0,.91,0,.91.17.54,1.8,1.63,1.8,1.63l3.8,2.37s.56.38,3.43.3,3.26-1.32,5.4-2.64c1.76-1.09,2.31-.77,2.45-.62h.14s9.78-17.17,14.5-43.64q.86-4.81,1.46-10s1.94,21.62-11.69,56.92a6.39,6.39,0,0,1,.4-.63c1.47-.95,3.84,1.47,3.84,1.47,2.81,3,5.18,3,5.18,3,4.52.67,10-1.66,10-1.66a5.83,5.83,0,0,0,2.85-.38c4.84-2.23,3.7-3.66,3.7-3.66,8.13-4.37,7.79-6.74,7.79-6.74,3.57-2.66,3.76-5.7,3.76-5.7a14.38,14.38,0,0,0,5.08-8.18c3-4.32,1.47-6.12,1.47-6.12l.38-.53a6.81,6.81,0,0,0,1.71-2.61,17.72,17.72,0,0,0,1.48-7.41c-1.57,0-.76-.62-.76-.62,1.95-1.79,2.14-6.13,2.14-6.13-.7-.57,0-3.67,0-3.67C353.3,384.47,353.57,383.64,353.57,383.64Z"/><path class="cls-6" d="M299.23,430.93a3.22,3.22,0,0,0-.72,1.1A3.94,3.94,0,0,1,299.23,430.93Z"/><path class="cls-7" d="M316.83,376.52q-.6,5.19-1.46,10c-4.72,26.47-14.5,43.64-14.5,43.64h-.14a2.52,2.52,0,0,0-1.5.74,3.94,3.94,0,0,0-.72,1.1,7,7,0,0,0-.5,2.32c.45,1.13,4.37,1.32,4.37,1.32l1.34.14s1.42-.22,1.31-.91a2.05,2.05,0,0,1,.05-1.29h0l.06-.17C318.77,398.14,316.83,376.52,316.83,376.52Z"/><path class="cls-8" d="M233.55,187.79l4.25,42.78c-.24,1.59-.49,3.14-.76,4.67a122.64,122.64,0,0,1-8.88,29.61c-3.82,8.26-8.35,14.52-13.22,18.19l-4.25-42.81c4.88-3.65,9.4-9.91,13.22-18.17a122.54,122.54,0,0,0,8.88-29.63C233.06,190.9,233.31,189.35,233.55,187.79Z"/><path class="cls-8" d="M225.05,102.19,229.3,145c-.24,1.57-.49,3.11-.76,4.64a122.62,122.62,0,0,1-8.88,29.64c-3.82,8.23-8.34,14.51-13.22,18.16l-4.25-42.78c4.88-3.68,9.4-9.93,13.22-18.19a122.64,122.64,0,0,0,8.88-29.61C224.56,105.33,224.82,103.78,225.05,102.19Z"/><path class="cls-8" d="M242.05,273.38l4.25,42.79c-.24,1.56-.49,3.13-.76,4.64a122.76,122.76,0,0,1-8.88,29.64c-3.82,8.25-8.35,14.51-13.23,18.16l-4.25-42.79c4.89-3.65,9.41-9.92,13.23-18.16A122.68,122.68,0,0,0,241.29,278C241.56,276.5,241.81,275,242.05,273.38Z"/><path class="cls-8" d="M250.55,359l4.25,42.8c-.24,1.57-.5,3.12-.76,4.65A122.54,122.54,0,0,1,245.16,436c-3.83,8.24-8.35,14.51-13.23,18.17l-4.25-42.79c4.88-3.67,9.41-9.93,13.22-18.19a122.62,122.62,0,0,0,8.89-29.61C250.06,362.09,250.31,360.54,250.55,359Z"/><path class="cls-8" d="M259.05,444.55l4.24,42.79c-.23,1.58-.49,3.13-.76,4.66a122.64,122.64,0,0,1-8.88,29.63c-3.82,8.24-8.34,14.5-13.22,18.17L236.18,497c4.88-3.67,9.4-9.92,13.22-18.18a122.18,122.18,0,0,0,8.88-29.64C258.56,447.68,258.81,446.12,259.05,444.55Z"/><path class="cls-4" d="M229.3,145l4.25,42.79c-.24,1.56-.49,3.11-.76,4.64a122.54,122.54,0,0,1-8.88,29.63c-3.82,8.26-8.34,14.52-13.22,18.17l-4.25-42.79c4.88-3.65,9.4-9.93,13.22-18.16a122.62,122.62,0,0,0,8.88-29.64C228.81,148.11,229.06,146.57,229.3,145Z"/><path class="cls-4" d="M218.69,38.11l6.36,64.08c-.23,1.59-.49,3.14-.76,4.67a122.64,122.64,0,0,1-8.88,29.61c-3.82,8.26-8.34,14.51-13.22,18.19L190.89,40.87Z"/><path class="cls-4" d="M237.8,230.57l4.25,42.81c-.24,1.57-.49,3.12-.76,4.65a122.68,122.68,0,0,1-8.88,29.63c-3.82,8.24-8.34,14.51-13.23,18.16L214.94,283c4.87-3.67,9.4-9.93,13.22-18.19A122.64,122.64,0,0,0,237,235.24C237.31,233.71,237.56,232.16,237.8,230.57Z"/><path class="cls-4" d="M246.3,316.17,250.55,359c-.24,1.58-.49,3.13-.76,4.66a122.62,122.62,0,0,1-8.89,29.61c-3.81,8.26-8.34,14.52-13.22,18.19l-4.25-42.81c4.88-3.65,9.41-9.91,13.23-18.16a122.76,122.76,0,0,0,8.88-29.64C245.81,319.3,246.06,317.73,246.3,316.17Z"/><path class="cls-4" d="M254.8,401.76l4.25,42.79c-.24,1.57-.49,3.13-.77,4.64a122.18,122.18,0,0,1-8.88,29.64c-3.82,8.26-8.34,14.51-13.22,18.18l-4.25-42.8c4.88-3.66,9.4-9.93,13.23-18.17A122.54,122.54,0,0,0,254,406.41C254.3,404.88,254.56,403.33,254.8,401.76Z"/><path class="cls-4" d="M263.29,487.34l4.25,42.8c-.23,1.57-.49,3.12-.76,4.65a122.09,122.09,0,0,1-8.88,29.63c-3.82,8.24-8.34,14.52-13.22,18.17l-4.25-42.79c4.88-3.67,9.4-9.93,13.22-18.17A122.64,122.64,0,0,0,262.53,492C262.8,490.47,263.06,488.92,263.29,487.34Z"/><path class="cls-9" d="M218.43,357.65c-4.92-5.67-9.08-5.62-12.19-3.84-3.88,2.23-6.12,7.18-6.12,7.18-3.69,8.4-28.06,42.62-28.06,42.62a66.21,66.21,0,0,0-10.91,16.72s-2.57,13.36,12.61,23.6,30.61,25.83,30.61,25.83c4.43,4.5,11.79,8.26,11.79,8.26,3.17,2.22,4.89,2.35,5.82,1.92a2,2,0,0,0,1.07-1.49c-1.34-4.33.86-4.66.86-4.66,4.77-3.3,11.5-12.91,13.73-16.2a12.6,12.6,0,0,1-14-.73s-14.33-16.53-23.3-21.19c0,0-11.27-4.76-10-9.69,0,0-.43-2.47,4.25-7.61,0,0,14.32-16.13,18.63-24.13a179.26,179.26,0,0,0,8.45-17c2.47-5.62,6.83-6.19,10.36-5.51a80.81,80.81,0,0,1-7.29-6.63Z"/><path class="cls-9" d="M223.05,478.45c-1.34-4.33.86-4.66.86-4.66,5.8-4,14.49-17.32,14.49-17.32,12-20.11,29.53-42.39,29.53-42.39,6.39-7.7,5-11.45,5-11.45.46-4.08-13.63-12.75-13.63-12.75-23.65-13-34.52-24.78-34.52-24.78l-6.37-7.45c-4.92-5.67-9.08-5.62-12.19-3.84-3.88,2.23-6.12,7.18-6.12,7.18-3.69,8.4-28.06,42.62-28.06,42.62a66.21,66.21,0,0,0-10.91,16.72s-2.57,13.36,12.61,23.6,30.61,25.83,30.61,25.83c4.43,4.5,11.79,8.26,11.79,8.26,3.17,2.22,4.89,2.35,5.82,1.92A2,2,0,0,0,223.05,478.45Z"/><path class="cls-10" d="M300.14,408s12-.75,9.67,9.16a15.74,15.74,0,0,0,.75-4.12c.13-6.71-12.67-15.57-12.67-15.57l-29.8-21.3s-11.88-9.28-15.28-11.87-5.23-2.08-5.23-2.08c-3.52-.5-13-4.76-13-4.76-23.74-10.69-28.31-3.6-28.31-3.6h0c3.11-1.78,7.27-1.83,12.19,3.84l6.37,7.45s10.87,11.81,34.52,24.78c0,0,14.09,8.67,13.63,12.75a2.53,2.53,0,0,1,.12.69,11.3,11.3,0,0,0,6.83,1.62C286.39,404.46,300.14,408,300.14,408Z"/><path class="cls-11" d="M267.93,414.08s-17.49,22.28-29.53,42.39c0,0-8.69,13.31-14.49,17.32,0,0-2.2.33-.86,4.66a2,2,0,0,1-1.07,1.49c1,1.93,8.36.72,8.36.72,10.61-1.81,29.69,4,29.69,4,3.92,1.68,6.87-1.46,6.87-1.46a58.9,58.9,0,0,0,6.25-10.6c2.65-5.9,12.33-18.35,12.33-18.35l17.2-22.89s5.15-7.76,7.13-14.26c2.35-9.91-9.67-9.16-9.67-9.16s-13.75-3.49-20.24-3a11.3,11.3,0,0,1-6.83-1.62C273.16,404.72,272.74,408.28,267.93,414.08Z"/><path class="cls-4" d="M220.4,363.63a1.74,1.74,0,0,0-1.87.16c-2.63,2-10.6,8.79-13.23,19.49-2.87,11.66-14.41,25.17-16.58,27.63a1.64,1.64,0,0,1-.78.51,7.17,7.17,0,0,0-4.1,3.15,1.76,1.76,0,0,0,3,1.86l.06-.09c2.12-3,4.63-5.32,9.32-8.8s10.4-9.38,12.81-16c2.22-6.14,7.19-15.38,7.93-16.74a1.5,1.5,0,0,1,.23-.33c.87-1,5.82-6.28,10.16-4.57S224.31,365.64,220.4,363.63Z"/><path class="cls-4" d="M232.3,396.84s-16.48-1.35-9.54,3.3l22,8s-7.73.12-13.19-1.8-.56,3.83-.56,3.83,7.17,6.75,15.8,7.48-.67,3.38-.67,3.38,10.87,2.07,12.44-3.21c0,0,2.18-2.5,0-7.24s8.26-.58,8.26-.58,6-6.18-3.24-12.05c-5-3.14-7.21-3.39-8.22-2.94a14.45,14.45,0,0,1-5.41,1.4Z"/><path class="cls-4" d="M301.52,417.31a17.75,17.75,0,0,0-8.82,4.35,9.94,9.94,0,0,0-3.06,5.21,3.25,3.25,0,0,1-2.89,2.58c-3.61.66-3.71,7.17-3.71,7.17s-10.13,18.09-19.36,21.95a.52.52,0,0,0,.06,1c2.41.56,8.43-.36,18.87-15.81a20.35,20.35,0,0,1,3.47-3.94c2.58-2.28,7-6.68,8.88-11.41A31.26,31.26,0,0,1,301.9,418,.43.43,0,0,0,301.52,417.31Z"/><path class="cls-4" d="M288.18,414.53c-3.32,1.77-6.84,3.73-8.57,7.07-1.15,2.22-1.37,4.79-1.85,7.25A32.29,32.29,0,0,1,261.14,451c3.1-2.44,5.21-5.88,7.26-9.25a26.93,26.93,0,0,0,3.28-6.68c1.25-4.45.24-9.49,2.42-13.57a12.25,12.25,0,0,1,5.82-5.16,26.76,26.76,0,0,1,7.65-2Z"/><path class="cls-4" d="M251.55,442.77c-1,2.7-3.61,4.55-4.88,7.15-.82,1.66-1.4,3.42-2.19,5.09-3.22,6.76-9.72,11.52-13,18.25a1.05,1.05,0,0,0-.12.95,1,1,0,0,0,.68.4,9.48,9.48,0,0,0,8.48-2c4.41-3.86,4.26-10.69,6.89-15.92,3.49-6.93,11.52-10.44,15.82-16.9a25.8,25.8,0,0,0,3.8-11.24,63.24,63.24,0,0,1,1-7.26,11.86,11.86,0,0,1,2.24-4.69c.12-.13-.07-.33-.21-.22a30.94,30.94,0,0,0-9.95,12.2c-1.24,2.74-2.07,5.66-3.47,8.33s-1.66,4.27-4.51,5.23A1.16,1.16,0,0,0,251.55,442.77Z"/><path class="cls-4" d="M183.8,436.14c2.49,1.63,3.24,5,5.67,6.75a31.05,31.05,0,0,0,8,3.85,9.7,9.7,0,0,1,3.79,1.87,8.71,8.71,0,0,1,1.73,2.71l2.28,4.73a43.62,43.62,0,0,0,2.29,4.33c2.58,4.12,6.45,7.26,10.46,10,.36.25.77.64.61,1.05a7.81,7.81,0,0,1-3-1.73c-3.55-3-6.38-6.67-9.3-10.25a9,9,0,0,0-1.7-1.73,10.51,10.51,0,0,0-1.86-1,94.9,94.9,0,0,1-9-4.75,26.66,26.66,0,0,1-4.65-3.13c-3.4-3.06-5-7.68-5.65-12.22C183.47,436.68,183.51,436,183.8,436.14Z"/><path class="cls-7" d="M347.48,474.55c-.32-1.58-5.08-5.55-4.68-4.36s-.66,1.05-.66,1.05c0-2.24-8.84-6.83-8.84-6.83a1,1,0,0,1-.15,1.51l-1.46-1.32a14.05,14.05,0,0,0-7.36-2.29,10.16,10.16,0,0,0-4.86-2c-2.41-.08-2.85-1.28-2.85-1.28l-.51,1.17s-.19.39-2.85-.2-3.5-.15-3.5-.15-1.74,1.31-2.65.39a2.84,2.84,0,0,0-2.49-.48l-3.34,1c-1.74-.7-2.1-.3-2.1-.3-.71.93-1.32-.37-1.32-.37-1.12-.93-1,.2-1,.2-.77-1.22-2.41-.55-2.41-.55s-3,1.54-3.23,2.89-2.24,4.47-2.24,4.47c.45,1.09-.1,4.1-.1,4.1a4.5,4.5,0,0,0-2.71,3l1,2a1.81,1.81,0,0,1-1.89,1.55c-.1,4.68,2.11,5.44,2.11,5.44a1.61,1.61,0,0,0-1.77.72c.71,3,1.64,3.2,1.64,3.2-.5,1.35-2.28,1.36-2.28,1.36.11,3.73,3.43,11,3.43,11-.26,1.16-2.22.54-2.22.54-.81.53.19,1.34.19,1.34.58.89,1.26,2.12,1.26,2.12a14.29,14.29,0,0,0,1.67,4.41c.93,2.57,2.09,1.93,2.09,1.93.14,1.12-1.52,1.73-1.52,1.73-.71.69,0,1,0,1,1.65,1.66,4.94,7.23,4.94,7.23a6.77,6.77,0,0,0,4.41,3.72c-1.82.79-2.62,0-2.62,0,.54,1.71,4.56,4.77,4.56,4.77l-.47.22c.69,1.52,3.37,2.07,3.37,2.07a1.14,1.14,0,0,0-1.39,1.16,2.51,2.51,0,0,0,1.7,1.35s-.52.67.39,1.33a1.46,1.46,0,0,1,.66,1.51,13.72,13.72,0,0,0,4.31,5.45s4,2.64,4.23,3.47-.94-.11-.94-.11c4.55,5.14,7.13,5.17,7.13,5.17.28,1.09-.83.63-.83.63,2.61,2.33,3.83.58,5.81,1.51s2.13,1.62,2.13,1.62a2.87,2.87,0,0,0,3,1.44,5.66,5.66,0,0,0,3.25,1.24,14.27,14.27,0,0,0,5,1.71c.19.71-1.77,1-1.77,1,1.86.22,8.1.39,8.1.39a6.68,6.68,0,0,0,3.2-.55c-.17,1,.79.49.79.49a7.07,7.07,0,0,0,2.39-.67l4.09-2s.63-.27,2.13-2.79.63-3.53.65-6.09c0-2.1.59-2.4.8-2.44l0-.08,0-.05s-9.48-17.74-29.72-36.16c-2.45-2.23-5.05-4.47-7.82-6.69,0,0,19.66,10.06,42.67,40.94a7,7,0,0,1-.33-.68c0-1.78,3.36-2.51,3.36-2.51,4.05-.82,5.42-2.81,5.42-2.81,3-3.52,4-9.53,4-9.53a5.88,5.88,0,0,0,1.22-2.66c.71-5.39-1.14-5.18-1.14-5.18.65-9.37-1.58-10.37-1.58-10.37-.36-4.51-2.87-6.32-2.87-6.32a14.64,14.64,0,0,0-4.28-8.81c-2.1-4.93-4.48-4.6-4.48-4.6l-.24-.61a7.13,7.13,0,0,0-1.32-2.89,17.92,17.92,0,0,0-5.59-5.29c-.85,1.35-.94.32-.94.32-.49-2.65-4.11-5.17-4.11-5.17-.88.29-3.16-2-3.16-2C348.05,475.23,347.48,474.55,347.48,474.55Z"/><path class="cls-9" d="M287.61,503.43c4.91-5.66,9.08-5.62,12.19-3.83,3.88,2.23,6.12,7.17,6.12,7.17C309.6,515.17,334,549.4,334,549.4a66.18,66.18,0,0,1,10.9,16.71s2.58,13.36-12.61,23.6-30.61,25.83-30.61,25.83c-4.43,4.51-11.78,8.26-11.78,8.26-3.18,2.22-4.9,2.35-5.83,1.92a2,2,0,0,1-1.07-1.48c1.34-4.33-.85-4.67-.85-4.67-4.78-3.3-11.51-12.9-13.74-16.19a12.63,12.63,0,0,0,14-.74s14.33-16.52,23.29-21.18c0,0,11.28-4.77,10-9.7,0,0,.43-2.46-4.26-7.61,0,0-14.32-16.13-18.63-24.13a179.26,179.26,0,0,1-8.45-17c-2.47-5.61-6.83-6.19-10.36-5.5a80.29,80.29,0,0,0,7.3-6.63Z"/><path class="cls-9" d="M283,624.24c1.34-4.33-.85-4.67-.85-4.67-5.8-4-14.49-17.32-14.49-17.32-12-20.11-29.53-42.39-29.53-42.39-6.39-7.7-5-11.45-5-11.45-.46-4.07,13.63-12.74,13.63-12.74,23.65-13,34.53-24.78,34.53-24.78l6.37-7.46c4.91-5.66,9.08-5.62,12.19-3.83,3.88,2.23,6.12,7.17,6.12,7.17C309.6,515.17,334,549.4,334,549.4a66.18,66.18,0,0,1,10.9,16.71s2.58,13.36-12.61,23.6-30.61,25.83-30.61,25.83c-4.43,4.51-11.78,8.26-11.78,8.26-3.18,2.22-4.9,2.35-5.83,1.92A2,2,0,0,1,283,624.24Z"/><path class="cls-10" d="M205.89,553.73s-12-.75-9.66,9.17a15.51,15.51,0,0,1-.76-4.13c-.13-6.71,12.68-15.57,12.68-15.57L238,521.9s11.88-9.28,15.27-11.87,5.24-2.07,5.24-2.07c3.51-.51,13-4.77,13-4.77,23.75-10.68,28.32-3.6,28.32-3.6h0c-3.11-1.79-7.28-1.83-12.19,3.83l-6.37,7.46s-10.88,11.8-34.53,24.78c0,0-14.09,8.67-13.63,12.74a2.89,2.89,0,0,0-.11.69,11.33,11.33,0,0,1-6.84,1.63C219.65,550.24,205.89,553.73,205.89,553.73Z"/><path class="cls-4" d="M136.51,235.77a3.4,3.4,0,0,0,.91,2,7.72,7.72,0,0,0,1.67,1.39,21.52,21.52,0,0,0,4,1.9,63.75,63.75,0,0,0,8.52,2.42c5.78,1.27,11.64,2.19,17.53,2.91s11.8,1.37,17.72,1.86,11.84,1,17.78,1.29c11.87.65,23.74,1.24,35.63,1.49s23.78.5,35.68.44,23.79-.12,35.67-.45,23.77-.84,35.64-1.49c5.93-.33,11.85-.81,17.78-1.29s11.83-1.1,17.71-1.86,11.76-1.64,17.54-2.9a65.58,65.58,0,0,0,8.51-2.42,20.91,20.91,0,0,0,4-1.9,7.72,7.72,0,0,0,1.67-1.39,3.34,3.34,0,0,0,.91-2,3.55,3.55,0,0,1-.67,2.14,8.29,8.29,0,0,1-1.58,1.66,22.16,22.16,0,0,1-3.86,2.43,63.23,63.23,0,0,1-8.42,3.33,171,171,0,0,1-17.49,4.45c-11.79,2.34-23.68,4-35.61,5.23q-8.94,1-17.91,1.59t-17.93,1.09c-12,.53-23.95.76-35.92.82s-24-.28-35.92-.83-23.93-1.37-35.85-2.68-23.82-2.89-35.6-5.23a168.38,168.38,0,0,1-17.49-4.44,63.41,63.41,0,0,1-8.43-3.34,22,22,0,0,1-3.85-2.42,8,8,0,0,1-1.58-1.66A3.56,3.56,0,0,1,136.51,235.77Z"/><path class="cls-12" d="M276.56,310.45c-69.33,0-125.89-5.6-129-12.63a4.56,4.56,0,0,0-.14,1.29l19.48,472.75s26.74,31.55,114,33.34,97.19-33.34,97.19-33.34l27.6-472.62a4.9,4.9,0,0,0-.15-1.39C402.31,304.86,345.8,310.45,276.56,310.45Z"/><path class="cls-4" d="M646.74,168.92a1.85,1.85,0,0,0-.93-1.35,8.08,8.08,0,0,0-1.47-.81,23,23,0,0,0-3.22-1.08c-2.18-.58-4.4-1-6.63-1.37-4.47-.71-9-1.12-13.49-1.45-9-.6-18.06-.7-27.09-.55s-18.06.64-27,1.51c-4.48.42-8.95,1-13.36,1.72a63,63,0,0,0-6.5,1.39,22.79,22.79,0,0,0-3,1,7.26,7.26,0,0,0-1.22.68l-.22.17a.93.93,0,0,1-.13.15s0,0,0,0,0-.06,0-.09,0-.09,0-.09,0,0,0,0a.86.86,0,0,1,.13.14l.22.18a8,8,0,0,0,1.22.68,24.33,24.33,0,0,0,3,1,65.74,65.74,0,0,0,6.5,1.39c4.41.75,8.88,1.29,13.36,1.71,9,.87,18,1.34,27,1.51S612,175.58,621,175c4.51-.34,9-.74,13.49-1.45,2.23-.36,4.45-.79,6.63-1.37a24.35,24.35,0,0,0,3.22-1.08,8.08,8.08,0,0,0,1.47-.81A1.85,1.85,0,0,0,646.74,168.92Zm0,0a1.88,1.88,0,0,1-.92,1.36,8.17,8.17,0,0,1-1.47.83,24.81,24.81,0,0,1-3.21,1.1c-2.19.6-4.41,1-6.64,1.42-4.46.76-9,1.3-13.46,1.72-9,.88-18.07,1.35-27.13,1.52s-18.14.06-27.21-.55c-4.53-.34-9.07-.74-13.59-1.47a68,68,0,0,1-6.78-1.39,25.57,25.57,0,0,1-3.39-1.15,9.16,9.16,0,0,1-1.74-1c-.15-.12-.3-.22-.45-.36s-.3-.31-.44-.48a4.87,4.87,0,0,1-.4-.68,3.77,3.77,0,0,1-.18-.91,3.35,3.35,0,0,1,.19-.91,4,4,0,0,1,.39-.68,5.11,5.11,0,0,1,.45-.48c.14-.13.29-.24.44-.36a9.16,9.16,0,0,1,1.74-1,24.13,24.13,0,0,1,3.39-1.14,65.3,65.3,0,0,1,6.78-1.4c4.52-.72,9.06-1.13,13.59-1.47,9.07-.6,18.15-.7,27.21-.55s18.11.64,27.13,1.52c4.5.42,9,1,13.46,1.72,2.23.38,4.45.82,6.64,1.42a24.81,24.81,0,0,1,3.21,1.1,8.17,8.17,0,0,1,1.47.83A1.88,1.88,0,0,1,646.74,168.92Z"/><path d="M570.2,378.72a4.59,4.59,0,0,1,2.19-2.05,17,17,0,0,1,2.82-1.18,40.57,40.57,0,0,1,5.95-1.33,97.05,97.05,0,0,1,12.15-.87,112.61,112.61,0,0,1,12.18.46,43.91,43.91,0,0,1,6,1,15.66,15.66,0,0,1,2.86,1.07,5.39,5.39,0,0,1,1.27.84,1.7,1.7,0,0,1,.7,1.31,1.64,1.64,0,0,0-.75-1.25,5.19,5.19,0,0,0-1.28-.77,15.23,15.23,0,0,0-2.87-.92,44.79,44.79,0,0,0-6-.87c-4-.34-8.07-.38-12.12-.33a103.8,103.8,0,0,0-12.09.74,39.94,39.94,0,0,0-5.94,1.15,17.77,17.77,0,0,0-2.83,1A4.49,4.49,0,0,0,570.2,378.72Z"/><path d="M559.56,368.5a20.25,20.25,0,0,1,3.82-2.17,39.17,39.17,0,0,1,4.11-1.58,64.57,64.57,0,0,1,8.57-2,98.38,98.38,0,0,1,17.57-1l4.4.2,4.39.31,4.38.4c1.46.16,2.91.35,4.37.53,2.9.43,5.8.89,8.66,1.59a37,37,0,0,1,4.2,1.3,13.93,13.93,0,0,1,2,.91,7.56,7.56,0,0,1,.93.58,2.69,2.69,0,0,1,.75.79,2.54,2.54,0,0,0-.77-.76,6.85,6.85,0,0,0-.94-.56,16.28,16.28,0,0,0-2-.85,38.85,38.85,0,0,0-4.22-1.18c-2.86-.63-5.75-1.05-8.65-1.43-5.81-.66-11.66-1.16-17.5-1.31a103.25,103.25,0,0,0-17.49.87,62.38,62.38,0,0,0-8.56,1.83,40.6,40.6,0,0,0-4.14,1.45A20.44,20.44,0,0,0,559.56,368.5Z"/><path class="cls-4" d="M625,177c3.76-.38,7.5-.89,11.21-1.57,1.86-.34,3.71-.73,5.52-1.24a23.72,23.72,0,0,0,2.65-.93,4.43,4.43,0,0,0,2.17-1.55l.33-.57v.64c-.14,9.92-.45,19.82-.67,29.73l-.74,29.73-1.61,59.46-1.72,59.46-.89,29.72c-.07,2.48-.16,4.95-.16,7.46,0,1.24-.13,2.51-.18,3.76s-.25,2.52-.45,3.77a31.47,31.47,0,0,1-2,7.4,17.39,17.39,0,0,1-1.9,3.45,10.8,10.8,0,0,1-1.33,1.55,7.79,7.79,0,0,1-.8.69,5.16,5.16,0,0,1-1,.62l.12-.05a62.08,62.08,0,0,1-18.85,6.12A110,110,0,0,1,595,416.05a169.45,169.45,0,0,1-19.63-1.37c-3.25-.41-6.49-.9-9.72-1.49-1.63-.3-3.19-.58-4.88-1l-2.41-.88c-.81-.3-1.54-.74-2.31-1.11a20.92,20.92,0,0,1-7.48-6.88,23.94,23.94,0,0,1-3.44-9.54,21.41,21.41,0,0,1-.19-2.56l-.05-2.45-.1-4.89-.21-9.78L543.78,335l-1.47-78.22-1.24-78.24,2.35,78.22L545.54,335l1,39.12.24,9.78.12,4.89,0,2.44a18.1,18.1,0,0,0,.18,2.3,22,22,0,0,0,3.16,8.72,19,19,0,0,0,6.79,6.19c.7.33,1.37.75,2.1,1l2.18.8c1.47.35,3.14.65,4.71.94,3.19.57,6.4,1,9.62,1.44a167.6,167.6,0,0,0,19.38,1.3,113.09,113.09,0,0,0,19.3-1.41,59.79,59.79,0,0,0,18.22-5.85l.11-.05a3.12,3.12,0,0,0,.55-.35,5.93,5.93,0,0,0,.61-.53,8.46,8.46,0,0,0,1.09-1.27,15.16,15.16,0,0,0,1.68-3,29.77,29.77,0,0,0,1.88-6.91c.83-4.78.55-9.72.81-14.69l1-29.72,2-59.46,2.1-59.45,2.22-59.45.31.07a4.71,4.71,0,0,1-2.35,1.68,23.84,23.84,0,0,1-2.71.89c-1.83.49-3.68.86-5.55,1.18C632.56,176.19,628.8,176.64,625,177Z"/><path class="cls-13" d="M547.23,376.63A16.73,16.73,0,0,0,550.5,379a35.23,35.23,0,0,0,3.62,1.85c1.25.52,2.49,1.07,3.78,1.48.65.22,1.28.45,1.93.66l2,.54a96.15,96.15,0,0,0,16,2.89c1.35.2,2.7.24,4.06.36s2.7.22,4.06.29c2.71.06,5.42.19,8.14.21s5.43,0,8.14-.09l8.15-.31-8.14.57c-2.71.15-5.43.16-8.15.24s-5.45-.1-8.17-.14c-1.36-.06-2.71-.17-4.07-.26s-2.72-.14-4.07-.33l-4.06-.5c-1.35-.17-2.69-.45-4-.67-.67-.12-1.35-.22-2-.37l-2-.46-2-.46c-.66-.17-1.3-.38-2-.57l-2-.59c-.64-.21-1.28-.46-1.92-.69-1.29-.44-2.53-1-3.78-1.56a34.63,34.63,0,0,1-3.58-2A16.92,16.92,0,0,1,547.23,376.63Z"/><path class="cls-13" d="M618.22,386c1.69-.48,3.36-1,5-1.55s3.31-1.14,4.91-1.83a35.45,35.45,0,0,0,9.07-5.16,21.5,21.5,0,0,1-4.14,3.28,38,38,0,0,1-4.73,2.37,49,49,0,0,1-5,1.73A41.06,41.06,0,0,1,618.22,386Z"/><path class="cls-13" d="M556.23,402.66c3,0,5.92.06,8.88.2s5.9.28,8.84.56,5.88.68,8.83.87,5.91.2,8.87.13c5.91-.14,11.81-.27,17.69-.48A138.53,138.53,0,0,0,627,402.66l0,.16c-5.66,1.92-11.66,2.52-17.58,2.84-3,.14-5.94.12-8.9.07s-5.93-.2-8.88-.43c-1.48-.07-3-.23-4.44-.3s-3-.13-4.43-.19-3,0-4.44,0l-4.45,0c-3-.09-5.91-.34-8.86-.65s-5.88-.72-8.8-1.29Z"/><path class="cls-13" d="M638.1,391.4a5.07,5.07,0,0,1-1.93,1.7,16,16,0,0,1-2.3,1.08,20.86,20.86,0,0,1-2.4.76,15.65,15.65,0,0,1-2.45.5c-1.65.26-3.33.23-5,.44s-3.27.49-4.9.77a47.71,47.71,0,0,1-4.91.76c-1.64.18-3.28.37-4.93.42a62.08,62.08,0,0,1-9.92-.38v-.16a94.41,94.41,0,0,1,9.83-1.18c3.28-.16,6.55-.32,9.85-.34a31,31,0,0,0,4.91-.41c1.62-.3,3.2-.79,4.78-1.23l4.73-1.14c.77-.21,1.56-.41,2.32-.67a7.24,7.24,0,0,0,2.14-1Z"/><path class="cls-13" d="M547.3,391.32a7.42,7.42,0,0,0,2.15,1c.76.26,1.55.46,2.32.67l4.73,1.14c1.58.44,3.16.93,4.77,1.23a31.21,31.21,0,0,0,4.92.41c3.3,0,6.57.18,9.85.34a93.9,93.9,0,0,1,9.82,1.18v.16a62.08,62.08,0,0,1-9.92.38c-1.65-.05-3.29-.24-4.94-.42a48,48,0,0,1-4.9-.76c-1.63-.28-3.25-.63-4.9-.77s-3.31-.18-5-.44a15.65,15.65,0,0,1-2.45-.5,20.86,20.86,0,0,1-2.4-.76,16,16,0,0,1-2.3-1.08,5,5,0,0,1-1.93-1.7Z"/><path class="cls-14" d="M643.11,193,632.65,372.12s-3.76,13.31-36.84,12.63-43.23-12.63-43.23-12.63L545.2,192.93a1.77,1.77,0,0,1,1.5-1.84,287.53,287.53,0,0,1,49.11-3.48s24.71.33,45.78,3.49A1.79,1.79,0,0,1,643.11,193Z"/><path class="cls-6" d="M623.34,225c.43-.42.74-2.7.45-2.34s-.47,0-.47,0c.71-.45.4-4.15.4-4.15-.16.44-.5.26-.5.26l.12-.72a5.21,5.21,0,0,0-.74-2.78,3.75,3.75,0,0,0-.34-1.92c-.45-.78-.16-1.16-.16-1.16l-.47.08s-.16,0-.5-.94-.65-1.14-.65-1.14-.76-.28-.65-.75a1,1,0,0,0-.34-.88l-1-.85c-.13-.68-.33-.72-.33-.72-.43,0-.14-.49-.14-.49.07-.54-.27-.28-.27-.28.23-.49-.31-.87-.31-.87s-1.08-.65-1.54-.45a7.31,7.31,0,0,1-1.86.18,4.14,4.14,0,0,1-1.31.78,1.69,1.69,0,0,0-1.48-.26l-.41.72A.67.67,0,0,1,610,206c-1.49.91-1.3,1.75-1.3,1.75a.58.58,0,0,0-.57-.41c-.79.81-.69,1.15-.69,1.15-.52.11-.88-.45-.88-.45a15.35,15.35,0,0,0-2.77,3.26c-.42.15-.61-.59-.61-.59-.33-.15-.39.32-.39.32-.16.36-.42.82-.42.82a5.19,5.19,0,0,0-1.05,1.4c-.63.8-.2,1-.2,1-.32.27-.84-.13-.84-.13-.36-.09-.33.19-.33.19a20.72,20.72,0,0,1-1.3,3,2.5,2.5,0,0,0-.29,2.13c-.61-.42-.51-.83-.51-.83a6.59,6.59,0,0,0-.59,2.38l-.17-.1c-.34.52,0,1.47,0,1.47a.42.42,0,0,0-.64-.21.91.91,0,0,0-.09.8s-.32,0-.35.39a.52.52,0,0,1-.34.51,5.07,5.07,0,0,0-.86,2.44,8.18,8.18,0,0,1-.25,2c-.21.25-.15-.32-.15-.32-.72,2.46-.22,3.28-.22,3.28-.29.3-.36-.14-.36-.14-.22,1.28.58,1.32.68,2.13s-.09,1-.09,1a1.07,1.07,0,0,0,.14,1.23,2.06,2.06,0,0,0,.25,1.27,5.21,5.21,0,0,0,.47,1.93c-.19.2-.66-.37-.66-.37.3.63,1.49,2.63,1.49,2.63a2.49,2.49,0,0,0,.81.9c-.34.14,0,.35,0,.35.06.2.68.62.68.62l1.44.89s.21.15,1.3.12,1.24-.5,2-1,.87-.29.93-.24h0a56.3,56.3,0,0,0,5.49-16.54c.22-1.21.41-2.48.56-3.79,0,0,.73,8.19-4.43,21.57a2.37,2.37,0,0,1,.15-.24c.56-.36,1.46.56,1.46.56a3.23,3.23,0,0,0,2,1.16,8.55,8.55,0,0,0,3.8-.63,2.23,2.23,0,0,0,1.08-.15c1.84-.85,1.4-1.39,1.4-1.39,3.08-1.65,3-2.55,3-2.55a3.23,3.23,0,0,0,1.42-2.16,5.51,5.51,0,0,0,1.93-3.1c1.13-1.64.55-2.32.55-2.32l.15-.2a2.59,2.59,0,0,0,.65-1,6.75,6.75,0,0,0,.55-2.81c-.59,0-.28-.24-.28-.24a4,4,0,0,0,.81-2.32c-.27-.21,0-1.39,0-1.39C623.24,225.28,623.34,225,623.34,225Z"/><path class="cls-6" d="M602.75,242.89a1.12,1.12,0,0,0-.27.42A1.26,1.26,0,0,1,602.75,242.89Z"/><path class="cls-7" d="M609.42,222.27c-.15,1.31-.34,2.58-.56,3.79a56.3,56.3,0,0,1-5.49,16.54h0a1,1,0,0,0-.57.28,1.26,1.26,0,0,0-.27.42,2.55,2.55,0,0,0-.2.88c.18.43,1.66.5,1.66.5l.51.05s.54-.08.5-.35a.72.72,0,0,1,0-.48h0l0-.07C610.15,230.46,609.42,222.27,609.42,222.27Z"/><path class="cls-8" d="M577.85,150.73,579.46,167c-.09.6-.18,1.19-.29,1.77a46.55,46.55,0,0,1-3.36,11.22,18.15,18.15,0,0,1-5,6.9l-1.61-16.23a18,18,0,0,0,5-6.89,46.37,46.37,0,0,0,3.36-11.23C577.67,151.91,577.76,151.33,577.85,150.73Z"/><path class="cls-8" d="M574.63,118.29l1.61,16.22c-.09.6-.18,1.18-.29,1.76a46.45,46.45,0,0,1-3.36,11.24,18,18,0,0,1-5,6.88L566,138.17a18.13,18.13,0,0,0,5-6.89,46.55,46.55,0,0,0,3.36-11.22C574.45,119.48,574.54,118.89,574.63,118.29Z"/><path class="cls-8" d="M581.07,183.18l1.61,16.21c-.09.6-.18,1.19-.28,1.76A46.44,46.44,0,0,1,579,212.39a17.91,17.91,0,0,1-5,6.88l-1.61-16.22a18,18,0,0,0,5-6.88,46.49,46.49,0,0,0,3.37-11.23C580.89,184.36,581,183.77,581.07,183.18Z"/><path class="cls-8" d="M584.29,215.61l1.62,16.23c-.09.59-.19,1.18-.29,1.76a46.49,46.49,0,0,1-3.37,11.23,18,18,0,0,1-5,6.88l-1.61-16.21a18.15,18.15,0,0,0,5-6.9A46.4,46.4,0,0,0,584,217.38C584.11,216.8,584.2,216.21,584.29,215.61Z"/><path class="cls-8" d="M587.52,248.05l1.61,16.22c-.09.6-.19,1.19-.29,1.77a46.63,46.63,0,0,1-3.37,11.23,18.11,18.11,0,0,1-5,6.89l-1.61-16.22a18,18,0,0,0,5-6.89,46.44,46.44,0,0,0,3.37-11.24C587.33,249.24,587.43,248.65,587.52,248.05Z"/><path class="cls-8" d="M590.74,280.5l1.61,16.22c-.09.59-.19,1.18-.29,1.76a46.49,46.49,0,0,1-3.37,11.23,17.93,17.93,0,0,1-5,6.89l-1.61-16.22a18.11,18.11,0,0,0,5-6.89,46.49,46.49,0,0,0,3.37-11.23C590.55,281.68,590.65,281.09,590.74,280.5Z"/><path class="cls-8" d="M594,312.94l1.61,16.22c-.09.59-.19,1.18-.29,1.76-1.54,8.7-4.7,15.36-8.38,18.12l-1.61-16.22a17.93,17.93,0,0,0,5-6.89,46.49,46.49,0,0,0,3.37-11.23C593.77,314.12,593.87,313.53,594,312.94Z"/><path class="cls-4" d="M576.24,134.51l1.61,16.22c-.09.6-.18,1.18-.29,1.76a46.37,46.37,0,0,1-3.36,11.23,18,18,0,0,1-5,6.89l-1.61-16.22a18,18,0,0,0,5-6.88A46.45,46.45,0,0,0,576,136.27C576.06,135.69,576.15,135.11,576.24,134.51Z"/><path class="cls-4" d="M572.22,94l2.41,24.29c-.09.6-.18,1.19-.29,1.77A46.55,46.55,0,0,1,571,131.28a18.13,18.13,0,0,1-5,6.89l-4.29-43.12Z"/><path class="cls-4" d="M579.46,167l1.61,16.23c-.09.59-.18,1.18-.28,1.76a46.49,46.49,0,0,1-3.37,11.23,18,18,0,0,1-5,6.88l-1.61-16.21a18.15,18.15,0,0,0,5-6.9,46.55,46.55,0,0,0,3.36-11.22C579.28,168.14,579.37,167.55,579.46,167Z"/><path class="cls-4" d="M582.68,199.39l1.61,16.22c-.09.6-.18,1.19-.28,1.77a46.4,46.4,0,0,1-3.37,11.22,18.15,18.15,0,0,1-5,6.9L574,219.27a17.91,17.91,0,0,0,5-6.88,46.44,46.44,0,0,0,3.37-11.24C582.5,200.58,582.59,200,582.68,199.39Z"/><path class="cls-4" d="M585.91,231.84l1.61,16.21c-.09.6-.19,1.19-.29,1.76a46.44,46.44,0,0,1-3.37,11.24,18,18,0,0,1-5,6.89l-1.61-16.23a18,18,0,0,0,5-6.88,46.49,46.49,0,0,0,3.37-11.23C585.72,233,585.82,232.43,585.91,231.84Z"/><path class="cls-4" d="M589.13,264.27l1.61,16.23c-.09.59-.19,1.18-.29,1.76a46.49,46.49,0,0,1-3.37,11.23,18.11,18.11,0,0,1-5,6.89l-1.61-16.22a18.11,18.11,0,0,0,5-6.89A46.63,46.63,0,0,0,588.84,266C588.94,265.46,589,264.87,589.13,264.27Z"/><path class="cls-4" d="M595.57,329.16l4.09,41.22-10.53,1.05L586.9,349c3.68-2.76,6.84-9.42,8.38-18.12C595.38,330.34,595.48,329.75,595.57,329.16Z"/><path class="cls-4" d="M592.35,296.72,594,312.94c-.09.59-.19,1.18-.29,1.76a46.49,46.49,0,0,1-3.37,11.23,17.93,17.93,0,0,1-5,6.89l-1.61-16.22a17.93,17.93,0,0,0,5-6.89,46.49,46.49,0,0,0,3.37-11.23C592.16,297.9,592.26,297.31,592.35,296.72Z"/><path class="cls-9" d="M572.12,215.12c-1.86-2.15-3.44-2.14-4.62-1.46a6.8,6.8,0,0,0-2.32,2.72c-1.4,3.18-10.63,16.16-10.63,16.16a25.05,25.05,0,0,0-4.14,6.33s-1,5.07,4.78,8.95a90.68,90.68,0,0,1,11.6,9.79,20.43,20.43,0,0,0,4.47,3.13c1.2.84,1.86.89,2.21.73a.74.74,0,0,0,.4-.56c-.5-1.65.33-1.77.33-1.77,1.81-1.25,4.36-4.89,5.2-6.14a4.78,4.78,0,0,1-5.29-.28s-5.43-6.26-8.83-8c0,0-4.27-1.81-3.78-3.67,0,0-.17-.94,1.61-2.89,0,0,5.43-6.11,7.06-9.15a67.11,67.11,0,0,0,3.2-6.44,3.27,3.27,0,0,1,3.93-2.09,28.14,28.14,0,0,1-2.76-2.51Z"/><path class="cls-9" d="M573.87,260.91c-.5-1.65.33-1.77.33-1.77,2.2-1.52,5.49-6.57,5.49-6.57a187.37,187.37,0,0,1,11.19-16.07c2.43-2.91,1.91-4.34,1.91-4.34.17-1.54-5.17-4.83-5.17-4.83-9-4.91-13.08-9.39-13.08-9.39l-2.42-2.82c-1.86-2.15-3.44-2.14-4.62-1.46a6.8,6.8,0,0,0-2.32,2.72c-1.4,3.18-10.63,16.16-10.63,16.16a25.05,25.05,0,0,0-4.14,6.33s-1,5.07,4.78,8.95a90.68,90.68,0,0,1,11.6,9.79,20.43,20.43,0,0,0,4.47,3.13c1.2.84,1.86.89,2.21.73A.74.74,0,0,0,573.87,260.91Z"/><path class="cls-10" d="M603.09,234.18s4.56-.28,3.67,3.47a5.85,5.85,0,0,0,.28-1.56c.05-2.54-4.8-5.9-4.8-5.9l-11.3-8.07s-4.5-3.52-5.79-4.5-2-.79-2-.79a32,32,0,0,1-4.94-1.81c-9-4-10.73-1.36-10.73-1.36h0c1.18-.68,2.76-.69,4.62,1.46l2.42,2.82s4.12,4.48,13.08,9.39c0,0,5.34,3.29,5.17,4.83a1.14,1.14,0,0,1,0,.27,4.35,4.35,0,0,0,2.59.61C597.88,232.86,603.09,234.18,603.09,234.18Z"/><path class="cls-11" d="M590.88,236.5a187.37,187.37,0,0,0-11.19,16.07s-3.29,5.05-5.49,6.57c0,0-.83.12-.33,1.77a.74.74,0,0,1-.4.56c.39.73,3.17.27,3.17.27,4-.69,11.25,1.52,11.25,1.52a2.39,2.39,0,0,0,2.6-.55,22.32,22.32,0,0,0,2.37-4,55,55,0,0,1,4.67-6.95l6.53-8.68a25.5,25.5,0,0,0,2.7-5.41c.89-3.75-3.67-3.47-3.67-3.47s-5.21-1.32-7.67-1.14a4.35,4.35,0,0,1-2.59-.61C592.86,233,592.71,234.31,590.88,236.5Z"/><path class="cls-4" d="M572.87,217.38a.7.7,0,0,0-.71.06,14,14,0,0,0-5,7.39c-1.08,4.42-5.46,9.54-6.28,10.47a.72.72,0,0,1-.29.2,2.69,2.69,0,0,0-1.56,1.19.67.67,0,0,0,1.13.71l0,0a14.36,14.36,0,0,1,3.53-3.33,14.38,14.38,0,0,0,4.86-6.08,59.2,59.2,0,0,1,3-6.35.38.38,0,0,1,.09-.12c.33-.38,2.21-2.38,3.85-1.74S574.35,218.15,572.87,217.38Z"/><path class="cls-4" d="M577.38,230s-6.25-.51-3.62,1.25l8.35,3a17.64,17.64,0,0,1-5-.68c-2.07-.73-.21,1.45-.21,1.45a11.43,11.43,0,0,0,6,2.83c3.27.28-.26,1.29-.26,1.29s4.13.78,4.72-1.22c0,0,.83-.95,0-2.74s3.14-.23,3.14-.23,2.28-2.34-1.24-4.56c-1.88-1.19-2.73-1.29-3.11-1.12a5.23,5.23,0,0,1-2,.53Z"/><path class="cls-4" d="M603.62,237.73a6.74,6.74,0,0,0-3.35,1.65,3.79,3.79,0,0,0-1.16,2,1.22,1.22,0,0,1-1.09,1c-1.37.25-1.41,2.72-1.41,2.72s-3.84,6.85-7.34,8.32a.2.2,0,0,0,0,.37c.92.21,3.2-.13,7.16-6a7.74,7.74,0,0,1,1.31-1.49,12.74,12.74,0,0,0,3.37-4.33,11.91,11.91,0,0,1,2.63-3.93A.16.16,0,0,0,603.62,237.73Z"/><path class="cls-4" d="M598.56,236.68a7.16,7.16,0,0,0-3.25,2.68,9.77,9.77,0,0,0-.7,2.74,12.25,12.25,0,0,1-6.3,8.38,12.59,12.59,0,0,0,2.75-3.51,10.08,10.08,0,0,0,1.24-2.53c.48-1.68.1-3.6.92-5.14a4.64,4.64,0,0,1,2.21-2,10.23,10.23,0,0,1,2.9-.74Z"/><path class="cls-4" d="M584.68,247.38c-.39,1-1.37,1.73-1.86,2.71-.3.63-.52,1.3-.83,1.93-1.22,2.56-3.68,4.36-4.92,6.92a.39.39,0,0,0-.05.36.4.4,0,0,0,.26.15,3.62,3.62,0,0,0,3.22-.76c1.66-1.47,1.61-4.05,2.61-6,1.32-2.62,4.36-4,6-6.4a9.73,9.73,0,0,0,1.44-4.26,22.72,22.72,0,0,1,.36-2.75,4.39,4.39,0,0,1,.85-1.78c0-.05,0-.13-.08-.09A11.65,11.65,0,0,0,587.9,242c-.47,1-.78,2.14-1.31,3.15s-.63,1.62-1.72,2A.41.41,0,0,0,584.68,247.38Z"/><path class="cls-4" d="M559,244.87c1,.61,1.23,1.9,2.15,2.55a11.9,11.9,0,0,0,3.05,1.46,3.84,3.84,0,0,1,1.43.71,3.36,3.36,0,0,1,.66,1l.86,1.79a17.31,17.31,0,0,0,.87,1.65,13.51,13.51,0,0,0,4,3.79c.14.09.3.24.24.4a2.93,2.93,0,0,1-1.13-.66,27.19,27.19,0,0,1-3.53-3.89,3.58,3.58,0,0,0-.64-.65,4.73,4.73,0,0,0-.71-.36,35.9,35.9,0,0,1-3.42-1.8A9.62,9.62,0,0,1,561,249.7a7.58,7.58,0,0,1-2.14-4.63S558.89,244.8,559,244.87Z"/><path class="cls-7" d="M621,259.42c-.13-.59-1.93-2.1-1.78-1.65s-.25.4-.25.4c0-.85-3.35-2.59-3.35-2.59.28.38-.06.57-.06.57l-.55-.5a5.39,5.39,0,0,0-2.79-.87,3.92,3.92,0,0,0-1.84-.75c-.91,0-1.08-.48-1.08-.48l-.19.44s-.08.15-1.08-.07-1.33-.06-1.33-.06-.66.49-1,.15a1.06,1.06,0,0,0-.94-.19l-1.27.4c-.66-.27-.79-.12-.79-.12-.27.36-.5-.14-.5-.14-.43-.35-.4.08-.4.08-.29-.46-.91-.21-.91-.21s-1.14.58-1.22,1.09a7.64,7.64,0,0,1-.85,1.7,4.3,4.3,0,0,1,0,1.55,1.74,1.74,0,0,0-1,1.14l.4.74a.69.69,0,0,1-.72.59c0,1.78.8,2.07.8,2.07a.6.6,0,0,0-.67.27c.27,1.12.62,1.21.62,1.21-.19.51-.86.52-.86.52a15.63,15.63,0,0,0,1.3,4.15c-.1.44-.84.21-.84.21-.31.2.07.51.07.51.22.33.48.8.48.8a5.2,5.2,0,0,0,.63,1.67c.35,1,.79.73.79.73.05.43-.58.66-.58.66-.27.26,0,.39,0,.39a21.09,21.09,0,0,1,1.88,2.73,2.54,2.54,0,0,0,1.67,1.41c-.69.3-1,0-1,0,.21.64,1.73,1.8,1.73,1.8l-.18.09c.27.57,1.28.78,1.28.78a.44.44,0,0,0-.53.44.94.94,0,0,0,.65.51s-.2.26.14.51a.53.53,0,0,1,.25.57,5.19,5.19,0,0,0,1.64,2.06s1.5,1,1.6,1.32-.35,0-.35,0c1.72,1.95,2.7,2,2.7,2,.1.41-.32.24-.32.24,1,.88,1.46.22,2.21.57s.81.61.81.61a1.07,1.07,0,0,0,1.12.55,2.15,2.15,0,0,0,1.24.47,5.45,5.45,0,0,0,1.91.65c.07.27-.67.36-.67.36.71.08,3.07.15,3.07.15a2.57,2.57,0,0,0,1.21-.21c-.06.36.3.19.3.19a2.78,2.78,0,0,0,.91-.26l1.55-.75s.24-.1.8-1.06.24-1.33.25-2.3c0-.8.23-.91.3-.93l0,0v0a57.6,57.6,0,0,0-11.27-13.7c-.93-.85-1.91-1.7-3-2.54,0,0,7.45,3.81,16.17,15.52a1.61,1.61,0,0,1-.12-.26c0-.67,1.27-.95,1.27-.95a3.28,3.28,0,0,0,2.06-1.07,8.63,8.63,0,0,0,1.51-3.61,2.25,2.25,0,0,0,.47-1c.26-2-.44-2-.44-2,.25-3.55-.59-3.93-.59-3.93a3.32,3.32,0,0,0-1.09-2.4,5.61,5.61,0,0,0-1.62-3.34c-.8-1.86-1.7-1.74-1.7-1.74L627,265a2.63,2.63,0,0,0-.51-1.09,6.86,6.86,0,0,0-2.11-2c-.32.51-.36.12-.36.12-.18-1-1.56-2-1.56-2-.33.11-1.2-.75-1.2-.75C621.25,259.68,621,259.42,621,259.42Z"/><path class="cls-7" d="M625.3,286.88a1,1,0,0,0,.21.46A1.21,1.21,0,0,1,625.3,286.88Z"/><path class="cls-15" d="M611.16,270c1.05.84,2,1.69,3,2.54a57.6,57.6,0,0,1,11.27,13.7v0l0,0a1,1,0,0,0-.06.64,1.21,1.21,0,0,0,.21.46,2.66,2.66,0,0,0,.65.65c.46.08,1.33-1.16,1.33-1.16l.32-.41s.22-.51,0-.61a.92.92,0,0,1-.41-.28h0l0-.06C618.61,273.76,611.16,270,611.16,270Z"/><path class="cls-9" d="M598.34,270.37c1.86-2.14,3.44-2.13,4.62-1.45a6.74,6.74,0,0,1,2.32,2.72c1.4,3.18,10.64,16.15,10.64,16.15a25.12,25.12,0,0,1,4.13,6.34s1,5.07-4.78,8.95a91.49,91.49,0,0,0-11.6,9.79A20.82,20.82,0,0,1,599.2,316c-1.2.84-1.85.89-2.21.72a.73.73,0,0,1-.4-.56c.51-1.64-.33-1.77-.33-1.77-1.81-1.25-4.36-4.89-5.2-6.14a4.76,4.76,0,0,0,5.29-.27s5.43-6.27,8.83-8c0,0,4.28-1.81,3.79-3.68,0,0,.16-.93-1.62-2.88,0,0-5.42-6.12-7.06-9.15a67.11,67.11,0,0,1-3.2-6.44,3.27,3.27,0,0,0-3.93-2.09,31.13,31.13,0,0,0,2.77-2.51Z"/><path class="cls-9" d="M596.59,316.16c.51-1.64-.33-1.77-.33-1.77-2.19-1.51-5.49-6.56-5.49-6.56a184.89,184.89,0,0,0-11.19-16.07c-2.42-2.92-1.91-4.34-1.91-4.34-.17-1.54,5.17-4.83,5.17-4.83,9-4.92,13.09-9.39,13.09-9.39l2.41-2.83c1.86-2.14,3.44-2.13,4.62-1.45a6.74,6.74,0,0,1,2.32,2.72c1.4,3.18,10.64,16.15,10.64,16.15a25.12,25.12,0,0,1,4.13,6.34s1,5.07-4.78,8.95a91.49,91.49,0,0,0-11.6,9.79A20.82,20.82,0,0,1,599.2,316c-1.2.84-1.85.89-2.21.72A.73.73,0,0,1,596.59,316.16Z"/><path class="cls-10" d="M567.37,289.44s-4.56-.29-3.66,3.47a6,6,0,0,1-.29-1.56c0-2.55,4.8-5.9,4.8-5.9l11.3-8.08s4.5-3.51,5.79-4.5,2-.78,2-.78a31.54,31.54,0,0,0,4.94-1.81c9-4,10.73-1.36,10.73-1.36h0c-1.18-.68-2.76-.69-4.62,1.45l-2.41,2.83s-4.13,4.47-13.09,9.39c0,0-5.34,3.29-5.17,4.83a1.11,1.11,0,0,0,0,.26,4.27,4.27,0,0,1-2.59.62C572.58,288.11,567.37,289.44,567.37,289.44Z"/><path class="cls-11" d="M579.58,291.76a184.89,184.89,0,0,1,11.19,16.07s3.3,5.05,5.49,6.56c0,0,.84.13.33,1.77a.73.73,0,0,0,.4.56c-.39.74-3.16.28-3.16.28-4-.69-11.26,1.52-11.26,1.52A2.4,2.4,0,0,1,580,318a22.32,22.32,0,0,1-2.37-4,53.53,53.53,0,0,0-4.67-7l-6.52-8.68a25.08,25.08,0,0,1-2.7-5.4c-.9-3.76,3.66-3.47,3.66-3.47s5.21-1.33,7.67-1.14a4.27,4.27,0,0,0,2.59-.62C577.6,288.21,577.76,289.56,579.58,291.76Z"/><path class="cls-4" d="M597.59,272.64a.65.65,0,0,1,.71.06,14,14,0,0,1,5,7.39c1.08,4.42,5.46,9.54,6.28,10.47a.6.6,0,0,0,.3.19,2.7,2.7,0,0,1,1.55,1.2.66.66,0,0,1-1.12.7l0,0a14.18,14.18,0,0,0-3.53-3.34,14.34,14.34,0,0,1-4.86-6.08,57.84,57.84,0,0,0-3-6.34.38.38,0,0,0-.09-.13c-.33-.37-2.21-2.38-3.85-1.73S596.11,273.4,597.59,272.64Z"/><path class="cls-4" d="M593.08,285.23s6.25-.51,3.62,1.25l-8.35,3a17.64,17.64,0,0,0,5-.68c2.07-.73.21,1.44.21,1.44a11.49,11.49,0,0,1-6,2.84c-3.27.28.26,1.28.26,1.28s-4.12.79-4.72-1.21c0,0-.83-.95,0-2.75s-3.13-.22-3.13-.22-2.29-2.34,1.23-4.56c1.88-1.2,2.73-1.29,3.11-1.12a5.51,5.51,0,0,0,2,.53Z"/><path class="cls-4" d="M566.85,293a6.63,6.63,0,0,1,3.34,1.65,3.76,3.76,0,0,1,1.16,2,1.23,1.23,0,0,0,1.09,1c1.37.25,1.41,2.72,1.41,2.72s3.84,6.85,7.34,8.31a.2.2,0,0,1,0,.38c-.92.21-3.2-.14-7.15-6a8.15,8.15,0,0,0-1.32-1.49,12.84,12.84,0,0,1-3.37-4.33,11.69,11.69,0,0,0-2.63-3.93A.16.16,0,0,1,566.85,293Z"/><path class="cls-4" d="M571.9,291.93a7.17,7.17,0,0,1,3.25,2.68,9.84,9.84,0,0,1,.7,2.75,12.25,12.25,0,0,0,6.3,8.38,12.77,12.77,0,0,1-2.75-3.51,10.08,10.08,0,0,1-1.24-2.53c-.48-1.69-.09-3.6-.92-5.15A4.62,4.62,0,0,0,575,292.6a9.92,9.92,0,0,0-2.89-.74Z"/><path class="cls-4" d="M585.79,302.64c.39,1,1.37,1.72,1.85,2.71.31.62.53,1.29.83,1.92,1.22,2.57,3.68,4.37,4.92,6.92a.4.4,0,0,1,.05.36.42.42,0,0,1-.26.16,3.6,3.6,0,0,1-3.21-.77c-1.67-1.46-1.62-4.05-2.61-6-1.33-2.63-4.37-4-6-6.41a9.73,9.73,0,0,1-1.44-4.26,23,23,0,0,0-.36-2.75,4.52,4.52,0,0,0-.85-1.78.06.06,0,0,1,.08-.08,11.69,11.69,0,0,1,3.77,4.62c.47,1,.79,2.15,1.32,3.16s.63,1.62,1.71,2A.44.44,0,0,1,585.79,302.64Z"/><path class="cls-4" d="M611.47,300.12c-1,.62-1.23,1.91-2.15,2.56a11.68,11.68,0,0,1-3,1.46,3.74,3.74,0,0,0-1.44.71,3.36,3.36,0,0,0-.66,1l-.86,1.79a16,16,0,0,1-.87,1.64,13.55,13.55,0,0,1-4,3.8c-.14.09-.29.24-.23.39a2.93,2.93,0,0,0,1.13-.65,27.73,27.73,0,0,0,3.52-3.89,3.33,3.33,0,0,1,.65-.65,3.09,3.09,0,0,1,.7-.36,35.09,35.09,0,0,0,3.43-1.81,9.84,9.84,0,0,0,1.76-1.18,7.58,7.58,0,0,0,2.14-4.63S611.58,300.05,611.47,300.12Z"/><path class="cls-6" d="M630.56,324.78c.53-.51.91-3.35.55-2.9s-.57,0-.57,0c.87-.56.49-5.15.49-5.15-.2.54-.63.31-.63.31l.16-.89a6.54,6.54,0,0,0-.92-3.45,4.77,4.77,0,0,0-.42-2.39c-.56-1-.21-1.43-.21-1.43l-.58.09s-.2,0-.62-1.17-.81-1.41-.81-1.41-.94-.35-.81-.94a1.28,1.28,0,0,0-.42-1.09l-1.23-1.05c-.16-.85-.4-.9-.4-.9-.54,0-.18-.6-.18-.6.09-.67-.34-.36-.34-.36.29-.61-.38-1.08-.38-1.08s-1.34-.8-1.92-.55A9.43,9.43,0,0,1,619,300a5.1,5.1,0,0,1-1.63,1,2.09,2.09,0,0,0-1.84-.32l-.51.89a.83.83,0,0,1-1.07-.36c-1.86,1.12-1.61,2.17-1.61,2.17a.75.75,0,0,0-.72-.51c-1,1-.85,1.43-.85,1.43-.65.14-1.1-.56-1.1-.56-1.43,1-3.44,4.05-3.44,4.05-.52.19-.76-.73-.76-.73-.41-.19-.48.4-.48.4-.21.45-.52,1-.52,1a6.54,6.54,0,0,0-1.31,1.74c-.78,1-.24,1.29-.24,1.29-.41.33-1.06-.16-1.06-.16-.44-.12-.4.24-.4.24a26.54,26.54,0,0,1-1.61,3.71,3.14,3.14,0,0,0-.37,2.65c-.76-.52-.63-1-.63-1-.54.63-.74,3-.74,3l-.2-.13c-.43.65,0,1.83,0,1.83a.52.52,0,0,0-.79-.26,1.15,1.15,0,0,0-.11,1s-.39,0-.43.48a.65.65,0,0,1-.42.63,6.32,6.32,0,0,0-1.07,3,9.82,9.82,0,0,1-.32,2.52c-.26.31-.19-.4-.19-.4-.89,3.05-.26,4.07-.26,4.07-.36.38-.46-.17-.46-.17-.26,1.6.72,1.64.85,2.64s-.11,1.24-.11,1.24a1.33,1.33,0,0,0,.17,1.52,2.58,2.58,0,0,0,.32,1.58,6.54,6.54,0,0,0,.57,2.4c-.23.25-.81-.46-.81-.46.38.79,1.85,3.27,1.85,3.27a3,3,0,0,0,1,1.12c-.42.16,0,.43,0,.43.09.25.85.77.85.77l1.79,1.11s.26.18,1.62.14,1.53-.62,2.54-1.24c.83-.52,1.09-.36,1.16-.29h.06a70.11,70.11,0,0,0,6.83-20.56c.27-1.5.5-3.08.69-4.71,0,0,.91,10.18-5.51,26.81.1-.17.19-.3.19-.3.69-.45,1.81.7,1.81.7a4,4,0,0,0,2.44,1.43,10.6,10.6,0,0,0,4.72-.79,2.79,2.79,0,0,0,1.34-.17c2.28-1.06,1.75-1.73,1.75-1.73,3.82-2.06,3.67-3.17,3.67-3.17a4,4,0,0,0,1.76-2.69,6.75,6.75,0,0,0,2.4-3.85c1.41-2,.69-2.88.69-2.88l.18-.25a3.29,3.29,0,0,0,.81-1.23,8.37,8.37,0,0,0,.69-3.49c-.74,0-.36-.29-.36-.29a5,5,0,0,0,1-2.89c-.33-.27,0-1.73,0-1.73C630.43,325.18,630.56,324.78,630.56,324.78Z"/><path class="cls-6" d="M605,347.06a1.34,1.34,0,0,0-.34.52A1.61,1.61,0,0,1,605,347.06Z"/><path class="cls-7" d="M613.26,321.43c-.19,1.63-.42,3.21-.69,4.71a70.11,70.11,0,0,1-6.83,20.56h-.06a1.2,1.2,0,0,0-.71.35,1.61,1.61,0,0,0-.34.52,3.19,3.19,0,0,0-.24,1.09c.22.53,2.06.62,2.06.62l.63.07s.67-.11.62-.44a1,1,0,0,1,0-.6h0l0-.08C614.17,331.61,613.26,321.43,613.26,321.43Z"/><path class="cls-9" d="M600.42,341.27c2,.83,2.33,2,2.12,3a5.14,5.14,0,0,1-1.39,2.3c-1.94,1.74-9,11.37-9,11.37a19,19,0,0,1-3.55,4.43s-3.38,1.89-7.49-1.3a68.71,68.71,0,0,0-9.7-6,15.58,15.58,0,0,1-3.28-2.45c-.89-.66-1.07-1.11-1-1.4a.59.59,0,0,1,.31-.42c1.28,0,1.18-.65,1.18-.65a22.42,22.42,0,0,1,3.15-5.15,3.6,3.6,0,0,0,1.44,3.71s5.74,2.4,7.8,4.4c0,0,2.29,2.62,3.5,1.84,0,0,.71-.11,1.68-1.83a56.8,56.8,0,0,1,4.86-7.18,49.57,49.57,0,0,1,3.84-3.79,2.46,2.46,0,0,0,.56-3.29,22,22,0,0,0,2.44,1.38Z"/><path class="cls-9" d="M567.39,350.78c1.28,0,1.18-.65,1.18-.65.56-1.92,3.39-5.45,3.39-5.45a139.35,139.35,0,0,0,8.81-11.75c1.52-2.41,2.65-2.38,2.65-2.38,1.06-.48,4.65,2.55,4.65,2.55a41.29,41.29,0,0,0,9.77,7.12l2.58,1c2,.83,2.33,2,2.12,3a5.14,5.14,0,0,1-1.39,2.3c-1.94,1.74-9,11.37-9,11.37a19,19,0,0,1-3.55,4.43s-3.38,1.89-7.49-1.3a68.71,68.71,0,0,0-9.7-6,15.58,15.58,0,0,1-3.28-2.45c-.89-.66-1.07-1.11-1-1.4A.59.59,0,0,1,567.39,350.78Z"/><path class="cls-10" d="M579.56,323.69s-.87-3.32-3.33-1.8a4.71,4.71,0,0,1,1-.57c1.8-.63,5.34,2,5.34,2l8.4,6.15s3.56,2.38,4.57,3.07,1,1.23,1,1.23a24.26,24.26,0,0,0,2.45,3.09c5,5.46,3.49,7.32,3.49,7.32h0c.21-1-.15-2.12-2.12-3l-2.58-1a41.29,41.29,0,0,1-9.77-7.12s-3.59-3-4.65-2.55a.76.76,0,0,0-.2,0,3.28,3.28,0,0,1-1-1.71A26.41,26.41,0,0,0,579.56,323.69Z"/><path class="cls-11" d="M580.77,332.93A139.35,139.35,0,0,1,572,344.68s-2.83,3.53-3.39,5.45c0,0,.1.63-1.18.65a.59.59,0,0,0-.31.42c-.61-.11-.94-2.19-.94-2.19-.45-3-3.73-7.66-3.73-7.66a1.81,1.81,0,0,1-.21-2,16.64,16.64,0,0,1,2.3-2.63,40.32,40.32,0,0,0,3.86-5l4.65-6.69a19.15,19.15,0,0,1,3.22-3.19c2.46-1.52,3.33,1.8,3.33,1.8a26.41,26.41,0,0,1,2.62,5.19,3.28,3.28,0,0,0,1,1.71C582.84,330.69,581.91,331.11,580.77,332.93Z"/><path class="cls-4" d="M598.63,341.27a.48.48,0,0,1,.12.52,10.45,10.45,0,0,1-4.08,5.31c-2.9,1.81-5.52,6.13-6,6.94a.55.55,0,0,0-.07.25,2,2,0,0,1-.48,1.39.5.5,0,0,1-.77-.63l0,0a10.83,10.83,0,0,0,1.55-3.3,10.79,10.79,0,0,1,3.19-4.89,43,43,0,0,0,3.81-3.63l.07-.09c.19-.32,1.18-2.13.33-3.15S597.74,340.4,598.63,341.27Z"/><path class="cls-4" d="M588.6,341s1.83,4.33,0,2.87l-4.12-5.24a13.14,13.14,0,0,0,1.66,3.4c1,1.3-1,.49-1,.49a8.59,8.59,0,0,1-3.43-3.6c-1-2.26-.85.48-.85.48s-1.53-2.75-.25-3.64a1.93,1.93,0,0,1,2-.64c1.48.18-.58-2.28-.58-2.28s1.14-2.18,3.55-.2c1.29,1.06,1.55,1.65,1.52,2a4,4,0,0,0,.11,1.58Z"/><path class="cls-4" d="M576.91,324.15a5.05,5.05,0,0,1-.39,2.77,2.89,2.89,0,0,1-1.13,1.29.91.91,0,0,0-.44,1c.14,1-1.61,1.64-1.61,1.64s-4,4.34-4.2,7.18a.15.15,0,0,1-.27.07c-.37-.6-.66-2.31,2.59-6.5a6.39,6.39,0,0,0,.75-1.29,9.43,9.43,0,0,1,2.29-3.41,9,9,0,0,0,2.18-2.8A.12.12,0,0,1,576.91,324.15Z"/><path class="cls-4" d="M578.85,327.5a5.37,5.37,0,0,1-1.15,2.95,7.37,7.37,0,0,1-1.79,1.14,9.2,9.2,0,0,0-4.49,6.46,9.76,9.76,0,0,1,1.85-2.79,8.13,8.13,0,0,1,1.51-1.48c1.1-.73,2.55-.91,3.46-1.86a3.52,3.52,0,0,0,.87-2,7.67,7.67,0,0,0-.15-2.24Z"/><path class="cls-4" d="M574.49,339.91c-.64.51-.91,1.38-1.5,1.95-.38.37-.8.68-1.18,1.05-1.54,1.47-2.25,3.65-3.77,5.13a.29.29,0,0,1-.25.12.28.28,0,0,1-.17-.15,2.73,2.73,0,0,1-.21-2.47c.65-1.53,2.51-2.1,3.69-3.28,1.56-1.56,1.79-4,3.15-5.77a7.22,7.22,0,0,1,2.7-2,15.33,15.33,0,0,0,1.87-.9,3.48,3.48,0,0,0,1.07-1c0-.05.1,0,.08,0a8.77,8.77,0,0,1-2.41,3.77c-.63.58-1.34,1.07-1.94,1.68s-1,.83-1,1.69A.32.32,0,0,1,574.49,339.91Z"/><path class="cls-4" d="M582.31,357.61c-.66-.53-1.65-.42-2.33-.93a8.4,8.4,0,0,1-1.75-1.82,2.79,2.79,0,0,0-.85-.86,2.43,2.43,0,0,0-.88-.22l-1.48-.2a13.24,13.24,0,0,1-1.38-.23,10.27,10.27,0,0,1-3.63-1.93c-.1-.08-.24-.16-.34-.08a2.17,2.17,0,0,0,.73.65,20.35,20.35,0,0,0,3.6,1.6,2,2,0,0,1,1,.73,26.41,26.41,0,0,0,2.09,2,6.66,6.66,0,0,0,1.26,1,5.64,5.64,0,0,0,3.8.44S582.38,357.67,582.31,357.61Z"/><path class="cls-4" d="M541.07,168.92a1.8,1.8,0,0,0,1,1.27,8.19,8.19,0,0,0,1.49.72,25.85,25.85,0,0,0,3.23.92c2.19.48,4.41.83,6.65,1.1,4.46.58,9,.91,13.45,1.19,9,.53,18,.75,27,.73q6.75,0,13.52-.17c4.5-.09,9-.31,13.5-.56s9-.62,13.46-1.19c2.23-.27,4.45-.63,6.64-1.11a23.8,23.8,0,0,0,3.23-.91,8,8,0,0,0,1.5-.72,1.81,1.81,0,0,0,1-1.27,1.87,1.87,0,0,1-.86,1.43,8,8,0,0,1-1.46.93,23.49,23.49,0,0,1-3.19,1.26,63.76,63.76,0,0,1-6.63,1.69c-4.47.89-9,1.51-13.49,2a265.88,265.88,0,0,1-27.2,1.33,271.56,271.56,0,0,1-27.2-1.33c-4.52-.47-9-1.09-13.5-2a63,63,0,0,1-6.62-1.69,23.11,23.11,0,0,1-3.2-1.26,7.61,7.61,0,0,1-1.45-.93A1.88,1.88,0,0,1,541.07,168.92Z"/><path class="cls-12" d="M594.15,197.23c-26.27,0-47.71-2.13-48.9-4.79a2,2,0,0,0,0,.49l7.38,179.19s10.14,11.95,43.23,12.63,36.84-12.63,36.84-12.63L643.11,193a1.84,1.84,0,0,0-.06-.53C641.82,195.11,620.4,197.23,594.15,197.23Z"/></g></svg>