<svg xmlns="http://www.w3.org/2000/svg" xmlns:xlink="http://www.w3.org/1999/xlink" viewBox="0 0 800 500"><defs><style>.cls-1{fill:#545454;}.cls-2{fill:#424242;}.cls-3{opacity:0.6;fill:url(#linear-gradient);}.cls-4{fill:url(#linear-gradient-2);}.cls-5{fill:#a6b137;}.cls-6{fill:#fef6d2;}.cls-7{fill:#dbd162;}.cls-8{fill:url(#linear-gradient-3);}.cls-9{fill:url(#linear-gradient-4);}.cls-10{fill:url(#linear-gradient-5);}.cls-11{fill:url(#linear-gradient-6);}.cls-12,.cls-13,.cls-31,.cls-32{opacity:0.5;}.cls-12{fill:url(#linear-gradient-7);}.cls-13{fill:url(#linear-gradient-8);}.cls-14,.cls-33{fill:none;stroke:#fff;stroke-miterlimit:10;}.cls-14{stroke-width:2.25px;}.cls-15{fill:#fff;}.cls-16{fill:#a5a5a5;}.cls-17{fill:#e87b9d;}.cls-18{fill:#e55a8c;}.cls-19{fill:url(#linear-gradient-9);}.cls-20{fill:url(#linear-gradient-10);}.cls-21{fill:url(#linear-gradient-11);}.cls-22{fill:url(#linear-gradient-12);}.cls-23{fill:url(#linear-gradient-13);}.cls-24{fill:url(#linear-gradient-14);}.cls-25{fill:url(#linear-gradient-15);}.cls-26{fill:url(#linear-gradient-16);}.cls-27{fill:url(#linear-gradient-17);}.cls-28{fill:url(#linear-gradient-18);}.cls-29{fill:url(#linear-gradient-19);}.cls-30{fill:url(#linear-gradient-20);}.cls-31{fill:url(#linear-gradient-21);}.cls-32{fill:url(#linear-gradient-22);}.cls-33{stroke-width:1.26px;}.cls-34{fill:url(#linear-gradient-23);}.cls-35{fill:url(#linear-gradient-24);}.cls-36{fill:url(#linear-gradient-25);}.cls-37{fill:url(#linear-gradient-26);}.cls-38{fill:url(#linear-gradient-27);}.cls-39{fill:url(#linear-gradient-28);}.cls-40{fill:url(#linear-gradient-29);}</style><linearGradient id="linear-gradient" x1="587.11" y1="5.64" x2="587.11" y2="403.06" gradientUnits="userSpaceOnUse"><stop offset="0" stop-color="#fff" stop-opacity="0.7"/><stop offset="0.13" stop-color="#fff" stop-opacity="0.64"/><stop offset="0.38" stop-color="#fff" stop-opacity="0.48"/><stop offset="0.73" stop-color="#fff" stop-opacity="0.22"/><stop offset="1" stop-color="#fff" stop-opacity="0"/></linearGradient><linearGradient id="linear-gradient-2" x1="214.21" y1="305.08" x2="214.23" y2="445.96" gradientUnits="userSpaceOnUse"><stop offset="0.01" stop-color="#e87b9d"/><stop offset="0.25" stop-color="#e87b9d" stop-opacity="0.99"/><stop offset="0.38" stop-color="#e87b9d" stop-opacity="0.95"/><stop offset="0.5" stop-color="#e87b9d" stop-opacity="0.89"/><stop offset="0.6" stop-color="#e87b9d" stop-opacity="0.81"/><stop offset="0.69" stop-color="#e87b9d" stop-opacity="0.69"/><stop offset="0.77" stop-color="#e87b9d" stop-opacity="0.56"/><stop offset="0.85" stop-color="#e87b9d" stop-opacity="0.39"/><stop offset="0.93" stop-color="#e87b9d" stop-opacity="0.21"/><stop offset="1" stop-color="#e87b9d" stop-opacity="0"/></linearGradient><linearGradient id="linear-gradient-3" x1="329.12" y1="260.67" x2="329.12" y2="291.47" gradientUnits="userSpaceOnUse"><stop offset="0" stop-color="#dbd162"/><stop offset="1" stop-color="#dbd162"/></linearGradient><linearGradient id="linear-gradient-4" x1="338.02" y1="274.89" x2="338.02" y2="320.39" xlink:href="#linear-gradient-3"/><linearGradient id="linear-gradient-5" x1="358.39" y1="279.25" x2="358.39" y2="333.98" xlink:href="#linear-gradient-3"/><linearGradient id="linear-gradient-6" x1="392.89" y1="278.09" x2="392.89" y2="332.74" xlink:href="#linear-gradient-3"/><linearGradient id="linear-gradient-7" x1="214.23" y1="311.61" x2="214.25" y2="446.4" gradientUnits="userSpaceOnUse"><stop offset="0" stop-color="#e87b9d"/><stop offset="0.24" stop-color="#e87b9d" stop-opacity="0.99"/><stop offset="0.38" stop-color="#e87b9d" stop-opacity="0.95"/><stop offset="0.49" stop-color="#e87b9d" stop-opacity="0.89"/><stop offset="0.59" stop-color="#e87b9d" stop-opacity="0.81"/><stop offset="0.68" stop-color="#e87b9d" stop-opacity="0.69"/><stop offset="0.77" stop-color="#e87b9d" stop-opacity="0.56"/><stop offset="0.85" stop-color="#e87b9d" stop-opacity="0.39"/><stop offset="0.92" stop-color="#e87b9d" stop-opacity="0.21"/><stop offset="0.99" stop-color="#e87b9d" stop-opacity="0"/></linearGradient><linearGradient id="linear-gradient-8" x1="213.48" y1="472.74" x2="213.48" y2="457.46" xlink:href="#linear-gradient-7"/><linearGradient id="linear-gradient-9" x1="397.87" y1="197.68" x2="397.87" y2="249.36" xlink:href="#linear-gradient-3"/><linearGradient id="linear-gradient-10" x1="368.36" y1="192.12" x2="368.36" y2="247.63" xlink:href="#linear-gradient-3"/><linearGradient id="linear-gradient-11" x1="341.95" y1="200.59" x2="341.95" y2="251.55" xlink:href="#linear-gradient-3"/><linearGradient id="linear-gradient-12" x1="330.22" y1="225.89" x2="330.22" y2="259.94" xlink:href="#linear-gradient-3"/><linearGradient id="linear-gradient-13" x1="409.6" y1="271.89" x2="409.6" y2="315.73" xlink:href="#linear-gradient-3"/><linearGradient id="linear-gradient-14" x1="415.84" y1="253.02" x2="415.84" y2="284.24" xlink:href="#linear-gradient-3"/><linearGradient id="linear-gradient-15" x1="412.22" y1="219.64" x2="412.22" y2="256.09" xlink:href="#linear-gradient-3"/><linearGradient id="linear-gradient-16" x1="562.82" y1="190.08" x2="562.83" y2="268.98" xlink:href="#linear-gradient-2"/><linearGradient id="linear-gradient-17" x1="627.17" y1="165.22" x2="627.17" y2="182.46" xlink:href="#linear-gradient-3"/><linearGradient id="linear-gradient-18" x1="632.15" y1="173.18" x2="632.15" y2="198.66" xlink:href="#linear-gradient-3"/><linearGradient id="linear-gradient-19" x1="643.56" y1="175.62" x2="643.56" y2="206.27" xlink:href="#linear-gradient-3"/><linearGradient id="linear-gradient-20" x1="662.88" y1="174.97" x2="662.88" y2="205.58" xlink:href="#linear-gradient-3"/><linearGradient id="linear-gradient-21" x1="562.83" y1="193.74" x2="562.84" y2="269.22" xlink:href="#linear-gradient-7"/><linearGradient id="linear-gradient-22" x1="562.41" y1="283.97" x2="562.41" y2="275.42" xlink:href="#linear-gradient-7"/><linearGradient id="linear-gradient-23" x1="665.67" y1="129.94" x2="665.67" y2="158.88" xlink:href="#linear-gradient-3"/><linearGradient id="linear-gradient-24" x1="649.14" y1="126.83" x2="649.14" y2="157.92" xlink:href="#linear-gradient-3"/><linearGradient id="linear-gradient-25" x1="634.35" y1="131.57" x2="634.35" y2="160.11" xlink:href="#linear-gradient-3"/><linearGradient id="linear-gradient-26" x1="627.78" y1="145.74" x2="627.78" y2="164.8" xlink:href="#linear-gradient-3"/><linearGradient id="linear-gradient-27" x1="672.23" y1="171.5" x2="672.23" y2="196.05" xlink:href="#linear-gradient-3"/><linearGradient id="linear-gradient-28" x1="675.73" y1="160.93" x2="675.73" y2="178.41" xlink:href="#linear-gradient-3"/><linearGradient id="linear-gradient-29" x1="673.7" y1="142.24" x2="673.7" y2="162.65" xlink:href="#linear-gradient-3"/></defs><title>featured image</title><g id="Layer_4" data-name="Layer 4"><rect class="cls-1" width="800" height="500"/><polygon class="cls-2" points="0 388.6 800 188.96 800 500 0 500 0 388.6"/></g><g id="Layer_2" data-name="Layer 2"><g id="Layer_12" data-name="Layer 12"><polygon class="cls-3" points="518.17 0.4 391.22 429.32 783 434 655.89 0.4 518.17 0.4"/></g></g><g id="Layer_3" data-name="Layer 3"><path class="cls-4" d="M80.66,308.44l19.1,30.45,24,35,25,33.2L172.13,437s15.68,15.92,29.78,17.73c0,0,23.55,5.37,40.57-6.44,0,0,8.58-4.64,19.39-18.44l31.39-40.12,29.67-42.35,17.68-27.74,7.19-11.9s-.14-3.62-87-5.69l-64.08-.35s-100.9,1-108.57,4.21C88.14,305.94,80,306.75,80.66,308.44Z"/><path class="cls-5" d="M300.21,302.31s.86,1.58,1.34,2.38"/><circle class="cls-5" cx="372.22" cy="263.5" r="81.78"/><circle class="cls-6" cx="372.22" cy="263.5" r="79.03"/><path class="cls-7" d="M378.81,243.76l9-39.5s1.79-6.91,8.4-6.64,15.34,5.15,19.72,10.61-1.57,10.88-1.57,10.88l-32,28.84s-2.17,2.21-3.24,1C379.1,248.9,377.6,249.06,378.81,243.76Z"/><path class="cls-7" d="M367.09,243.33l-13.78-38.1s-2.22-6.78,3.48-10.12,15.69-4,22.32-1.75,4.57,10,4.57,10l-11.35,41.58s-.64,3-2.21,2.56C370.12,247.5,368.94,248.44,367.09,243.33Z"/><path class="cls-7" d="M357,249.31,324.81,224.7s-5.54-4.5-2.55-10.39,11.06-11.82,17.84-13.54,9.25,5.94,9.25,5.94l12.93,41.12s1.11,2.9-.48,3.34C361.8,251.17,361.32,252.61,357,249.31Z"/><path class="cls-7" d="M351.75,259.79l-40.39-3.3s-7.09-.79-7.76-7.37,2.91-15.91,7.68-21,11,0,11,0l33.11,27.6s2.5,1.84,1.4,3.07C356.79,258.76,357.16,260.23,351.75,259.79Z"/><path class="cls-8" d="M353,271.44l-35.75,19.07s-6.4,3.17-10.52-2-6.16-15-4.9-21.85,9.25-6,9.25-6L353.84,266s3.09.19,2.84,1.82C356.68,267.85,357.79,268.89,353,271.44Z"/><path class="cls-9" d="M360.34,280.58l-19.77,35.36s-3.67,6.13-9.92,4-13.28-9.26-15.94-15.73,4.56-10,4.56-10l38.85-18.66s2.72-1.51,3.38,0C361.5,275.56,363,275.83,360.34,280.58Z"/><path class="cls-10" d="M371.46,284.29,374,324.73s.23,7.13-6.18,8.73-16.17-.61-21.91-4.61S344.29,318,344.29,318l22.6-36.7s1.46-2.74,2.83-1.83C369.72,279.44,371.13,278.86,371.46,284.29Z"/><path class="cls-11" d="M382.82,281.39l24,32.67s4.05,5.89-.48,10.7-13.93,8.23-20.92,8-7.2-8.31-7.2-8.31l-.84-43.09s-.24-3.1,1.4-3.08C378.74,278.25,379.61,277,382.82,281.39Z"/><path class="cls-7" d="M390.82,272.82l37.82,14.53s6.58,2.75,5.38,9.25-7.28,14.46-13.3,18-10.55-3.1-10.55-3.1l-24-35.79s-1.88-2.47-.49-3.35C385.68,272.38,385.74,270.87,390.82,272.82Z"/><path class="cls-7" d="M392.9,261.28l39.68-8.23s7-1.24,9.52,4.88,1.7,16.09-1.44,22.34-10.55,3.11-10.55,3.11l-39.54-17.14s-2.92-1.06-2.22-2.55C388.35,263.69,387.58,262.39,392.9,261.28Z"/><path class="cls-7" d="M388.42,250.45l28.93-28.37s5.24-4.85,10.65-1.05,10.13,12.62,10.87,19.57-7.2,8.32-7.2,8.32l-42.53,7s-3,.69-3.24-.94C385.9,254.94,384.54,254.25,388.42,250.45Z"/><path class="cls-12" d="M80.66,308.44l19.1,30.45,24,35,25,33.2L172.13,437s15.68,15.92,29.78,17.73c0,0,23.55,5.37,40.57-6.44,0,0,8.58-4.64,19.39-18.44l31.39-40.12,29.67-42.35,17.68-27.74,7.19-11.28s.16,4.27-87.11,5.7l-63.6.39s-97-3.06-107.47-4.06Z"/><path class="cls-13" d="M182.32,450l19.59,4.72,8.64,1.81h8.6l9.9-2,8.09-3.16,7.5.48-10.72,16.7-5.49,12.59-2.61-2.4a18.16,18.16,0,0,0-5.43-3.47l-.78-.32a14.59,14.59,0,0,0-4.79-1.09h-.24a13.42,13.42,0,0,0-3.94.37h0a13.37,13.37,0,0,0-3.85,1.58l-1.9,1.16a8.05,8.05,0,0,0-1,.68l-3.29,2.66-2.83-7.75-4.36-8.07-4-5.85-5.66-6.78Z"/><ellipse class="cls-14" cx="215.6" cy="261.65" rx="156.6" ry="16.25"/><path class="cls-15" d="M70,289.32c4,7.27,8.24,14.36,12.62,21.38l6.61,10.5c2.26,3.47,4.48,7,6.78,10.4s4.58,6.89,6.91,10.31,4.64,6.84,7,10.26S114.6,359,117,362.36s4.75,6.76,7.14,10.14,4.81,6.73,7.23,10.08,4.78,6.74,7.38,10L154,412.14c10.17,13.07,20.22,26.22,30.31,39.35l-.05-.05a76.44,76.44,0,0,1,6.55,8.18,80.25,80.25,0,0,1,5.43,8.91,58.32,58.32,0,0,1,4,9.64,44,44,0,0,1,1.22,5.07,37.38,37.38,0,0,1,.49,5.17,38.35,38.35,0,0,0-.7-5.13,50.56,50.56,0,0,0-1.4-5,57.22,57.22,0,0,0-4.25-9.41,80.68,80.68,0,0,0-5.64-8.65,85.31,85.31,0,0,0-6.61-7.9l0,0,0,0c-10.32-12.95-20.69-25.87-30.93-38.89L137,393.87c-2.62-3.21-5-6.61-7.44-10s-4.85-6.73-7.22-10.12q-7.18-10.14-14.1-20.47c-4.63-6.88-9.17-13.81-13.56-20.84s-8.76-14.07-12.9-21.26S73.55,296.8,70,289.32Z"/><path class="cls-16" d="M181.83,445a78.65,78.65,0,0,0,15.82,7.2,55.64,55.64,0,0,0,16.8,2.87A54.78,54.78,0,0,0,246.8,445a33.27,33.27,0,0,1-6.77,5.73,45.79,45.79,0,0,1-8,4.12,50.46,50.46,0,0,1-8.66,2.48,51.09,51.09,0,0,1-9,.74,48.24,48.24,0,0,1-9-1,53.71,53.71,0,0,1-8.58-2.68A49.73,49.73,0,0,1,181.83,445Z"/><path class="cls-17" d="M196.57,462.12c2.47.48,4.94.86,7.41,1.27,1.23.23,2.46.49,3.71.63a33.51,33.51,0,0,0,3.75.18c2.52,0,5-.06,7.52-.15,1.25,0,2.5-.06,3.75-.07s2.51-.09,3.78-.07V464a52.49,52.49,0,0,1-7.51.86q-1.89.07-3.78,0c-1.26,0-2.52-.13-3.78-.24s-2.5-.24-3.76-.35-2.51-.13-3.77-.25a27.8,27.8,0,0,1-7.34-1.82Z"/><path class="cls-15" d="M364.27,270.13a16.26,16.26,0,0,1-4.24,2c-1.48.5-3,.91-4.5,1.3-3,.76-6.1,1.37-9.18,1.94-6.15,1.08-12.34,1.92-18.55,2.66-12.41,1.46-24.87,2.37-37.33,3.14s-25,1.11-37.43,1.31c-6.24.08-12.48.14-18.72.13s-12.48-.1-18.72-.26l18.71-.48q9.36-.21,18.7-.54c12.47-.44,24.93-.9,37.38-1.66s24.88-1.57,37.29-2.78c6.2-.6,12.39-1.31,18.55-2.25,3.08-.45,6.16-.95,9.21-1.6,1.52-.33,3-.68,4.52-1.13A16,16,0,0,0,364.27,270.13Z"/><path class="cls-15" d="M249.75,703.44a68.92,68.92,0,0,1-10.49-11.23,53.37,53.37,0,0,1-7.43-13.5,37.28,37.28,0,0,1-1.87-7.52c-.33-2.56-.56-5.1-.82-7.66l-1.47-15.32L225,617.55l-.65-7.67-.33-3.83-.16-1.93-.09-1.94-.58-15.39c-.69-20.51-1-41-.54-61.59.26-10.27.64-20.55,1.85-30.82.34-2.56.7-5.12,1.27-7.69a59.85,59.85,0,0,1,2.21-7.5,93.76,93.76,0,0,1,6.59-14.1,120.32,120.32,0,0,1,8.52-13L252.58,440l19-24.19,19-24.2c6.22-8.15,12.17-16.47,18.12-24.82q17.75-25.11,33.83-51.36c5.39-8.72,10.66-17.52,15.73-26.43,2.52-4.47,5-8.94,7.46-13.46,1.22-2.25,2.42-4.52,3.6-6.79.58-1.15,1.14-2.3,1.66-3.47.26-.58.52-1.17.75-1.77a5.19,5.19,0,0,0,.46-1.85,5.09,5.09,0,0,1-.42,1.87c-.22.6-.46,1.19-.71,1.79-.5,1.18-1,2.34-1.59,3.5q-1.69,3.46-3.45,6.88c-2.35,4.56-4.79,9.08-7.24,13.59-4.93,9-10.06,17.89-15.3,26.72q-15.86,26.4-33.36,51.77c-5.85,8.42-11.77,16.84-18,25l-18.93,24.27-18.94,24.27-9.45,12.13a120.73,120.73,0,0,0-8.32,12.75A91.52,91.52,0,0,0,230,479.94a59.43,59.43,0,0,0-2.17,7.23c-.55,2.44-.91,5-1.25,7.48-1.23,10.11-1.64,20.37-1.93,30.6-.52,20.48-.21,41,.21,61.49l.43,15.38.07,1.9.14,1.91.28,3.83.58,7.67,2.37,30.69L230,663.45c.22,2.55.41,5.12.69,7.65a37.17,37.17,0,0,0,1.72,7.42A53.39,53.39,0,0,0,239.53,692,69.34,69.34,0,0,0,249.75,703.44Z"/><path class="cls-15" d="M203.24,494.84c1.14,8.63,2,17.3,2.7,26s1.2,17.37,1.57,26.07c.65,17.39.83,34.85-.69,52.21-.12-8.7-.37-17.39-.6-26.07l-.46-13c-.13-4.34-.32-8.68-.49-13l-1.08-26.05C203.81,512.24,203.51,503.54,203.24,494.84Z"/><path class="cls-17" d="M230.81,468.62a34.92,34.92,0,0,1-7.19,1.1l-3.63,0c-1.21,0-2.42.11-3.63.16a50.54,50.54,0,0,1-7.28,0,41.35,41.35,0,0,1-7.17-1.23s0,0,0-.05,0,0,0,0c2.42.15,4.81.4,7.22.52s4.8.31,7.21.43a33.81,33.81,0,0,0,3.63,0c1.2-.08,2.4-.26,3.6-.4,2.4-.24,4.79-.42,7.22-.56a0,0,0,0,1,0,0S230.83,468.61,230.81,468.62Z"/><path class="cls-15" d="M68.51,286.14c-1.57-2.85-3.14-5.69-4.66-8.56s-3.07-5.73-4.56-8.62l-.38-.76.81.31a84.07,84.07,0,0,0,8.88,2.66q4.5,1.15,9.08,2c3.06.5,6.12,1,9.2,1.37,1.54.2,3.09.33,4.63.5l4.65.38c-3.11,0-6.22-.15-9.32-.45s-6.2-.65-9.27-1.15a98.07,98.07,0,0,1-18.1-4.68l.42-.45c1.49,2.89,2.91,5.8,4.36,8.7S67.11,283.2,68.51,286.14Z"/><path class="cls-15" d="M103.19,277.48c4.34.39,8.68.72,13,1s8.68.63,13,.89c8.68.53,17.38,1,26.07,1.39s17.4.73,26.1,1,17.41.43,26.12.59l-13.07.11c-4.35,0-8.71,0-13.06-.12-8.71-.11-17.42-.44-26.12-.79s-17.4-.91-26.08-1.57q-6.53-.49-13-1.09C111.85,278.44,107.52,278,103.19,277.48Z"/><path class="cls-15" d="M61.59,264.61a1.37,1.37,0,0,1,.3-1.49,3.08,3.08,0,0,1,.55-.59,3.45,3.45,0,0,1,.64-.5,18,18,0,0,1,2.83-1.53,53,53,0,0,1,6.1-2l3.11-.77,3.15-.62c2.09-.45,4.2-.73,6.31-1.1,4.22-.59,8.45-1.14,12.7-1.52s8.5-.68,12.76-.93l-6.35.76q-3.18.31-6.35.74c-4.23.5-8.45,1-12.65,1.69-2.1.35-4.22.6-6.3,1l-3.13.59-3.11.69a53.24,53.24,0,0,0-6.1,1.77,18.24,18.24,0,0,0-2.86,1.35,3.25,3.25,0,0,0-.64.46,2.45,2.45,0,0,0-.57.54l-.25.3a3.92,3.92,0,0,0-.16.36A1,1,0,0,0,61.59,264.61Z"/><path class="cls-15" d="M125.23,252.33c8.14-.61,16.29-1.1,24.44-1.55s16.31-.73,24.47-1q24.47-.84,49-.92c8.17,0,16.33.1,24.49.19l12.24.27,6.12.14,6.12.21c16.32.44,32.62,1.48,48.9,2.67l-12.22-.67-6.11-.34-6.12-.24-12.23-.54-12.23-.38-6.12-.18-6.12-.11-12.24-.21c-8.16,0-16.32-.13-24.47-.06q-24.48,0-49,.67-12.22.36-24.46.88C141.53,251.47,133.38,251.84,125.23,252.33Z"/><path d="M333.76,253.68c.1.11.36.09.54.13l.6.06,1.19.11,2.39.22,4.77.53c3.18.39,6.34.9,9.5,1.5a77.17,77.17,0,0,1,9.31,2.42,32.77,32.77,0,0,1,4.45,1.88,10.81,10.81,0,0,1,3.76,3,11.4,11.4,0,0,0-3.93-2.64,33.12,33.12,0,0,0-4.46-1.66A91.51,91.51,0,0,0,352.6,257c-3.12-.65-6.27-1.15-9.43-1.66l-4.73-.74-2.37-.38-1.19-.2-.59-.12C334.12,253.81,333.85,253.81,333.76,253.68Z"/><path class="cls-18" d="M347.85,308.08c0-.24-.39-.43-.68-.57a8,8,0,0,0-1-.34,19.32,19.32,0,0,0-2-.47c-1.36-.27-2.74-.47-4.12-.64-2.77-.36-5.54-.62-8.32-.86-5.56-.45-11.13-.82-16.7-1-11.15-.47-22.31-.74-33.46-.91q-33.48-.48-66.95-.64-16.73-.12-33.47-.1l-16.74.1c-5.58.07-11.16.19-16.74.32q-16.72.38-33.44,1.34c-5.57.31-11.14.69-16.68,1.23-2.78.27-5.55.57-8.3.95-1.37.2-2.74.41-4.09.69-.67.14-1.34.29-2,.49a6,6,0,0,0-.9.33,1.6,1.6,0,0,0-.33.19c-.12.06,0,.11,0-.07s-.07-.13,0-.07a2.54,2.54,0,0,0,.34.18,7.3,7.3,0,0,0,.9.31,18.36,18.36,0,0,0,2,.45c1.35.26,2.73.45,4.1.62,2.75.34,5.53.59,8.3.81,5.55.43,11.12.74,16.68,1,11.14.54,22.29.87,33.44,1.16s22.31.45,33.46.55,22.32.21,33.47.21q33.48,0,66.94-.44c11.16-.16,22.32-.43,33.47-.9,5.57-.22,11.14-.58,16.7-1,2.78-.23,5.55-.5,8.32-.85,1.38-.17,2.76-.37,4.12-.64a19.32,19.32,0,0,0,2-.47,6.56,6.56,0,0,0,1-.34C347.46,308.51,347.81,308.32,347.85,308.08Zm.22,0c-.09.48-.5.61-.8.78a7.53,7.53,0,0,1-1,.37c-.67.2-1.36.36-2,.5-1.38.27-2.76.49-4.14.68-2.77.38-5.55.67-8.33.93-5.56.52-11.13.87-16.7,1.27-11.14.74-22.3,1.28-33.45,1.75-22.32.93-44.65,1.28-67,1.28s-44.66-.26-67-1c-11.16-.35-22.32-.82-33.47-1.5-5.58-.33-11.16-.73-16.72-1.27-2.79-.27-5.57-.58-8.35-1-1.39-.2-2.78-.42-4.17-.7-.7-.15-1.39-.31-2.09-.52a9.79,9.79,0,0,1-1.06-.39,3.55,3.55,0,0,1-.57-.34,1.13,1.13,0,0,1-.31-.31,1,1,0,0,1-.22-.6,1.07,1.07,0,0,1,.22-.59,1.28,1.28,0,0,1,.31-.31,3.17,3.17,0,0,1,.57-.33,10.5,10.5,0,0,1,1.07-.37c.7-.2,1.4-.35,2.09-.48,1.4-.27,2.79-.46,4.18-.64,2.78-.34,5.56-.6,8.35-.82,5.57-.43,11.15-.77,16.72-1.06,11.16-.58,22.31-.94,33.47-1.32l33.48-.9c11.16-.24,22.33-.43,33.49-.51,22.33-.11,44.67.18,67,1.09,11.16.46,22.32,1,33.46,1.74,5.57.39,11.14.74,16.7,1.26,2.78.25,5.56.54,8.33.92,1.38.19,2.76.4,4.14.68a20.91,20.91,0,0,1,2,.5,7.48,7.48,0,0,1,1,.36C347.57,307.47,348,307.6,348.07,308.08Z"/><polygon class="cls-15" points="80.66 307.58 81.86 309.51 81.41 309.69 80.26 307.77 80.66 307.58"/><polyline class="cls-15" points="347.57 307.19 346.26 309.37 347.37 309.35 347.89 308.53 348.24 307.89 347.57 307.19"/><polygon class="cls-6" points="345.52 306.55 347.61 307.13 347.18 307.83 345.27 307.12 345.52 306.55"/><polygon class="cls-6" points="314.65 303.28 303.39 302.67 303.47 304.03 315.04 304.34 314.65 303.28"/><polyline class="cls-5" points="303.35 302.31 304.57 304.4 301.12 303.95 300.28 302.43 303.35 302.31"/><polygon class="cls-7" points="314.38 303.27 314.78 304.4 345.18 307.19 345.42 307.26 345.92 306.38 329.83 304.07 314.38 303.27"/><path class="cls-5" d="M453.79,258.82a81.78,81.78,0,0,0-163.15-2l2.74.23a79,79,0,1,1,125.83,70l1.64,2.2A81.7,81.7,0,0,0,453.79,258.82Z"/><path class="cls-6" d="M419.21,327.06a79,79,0,1,0-125.83-70l74,6.1a10.51,10.51,0,0,1,7.58,4.22Zm14.73-30.39c-1.21,6.5-7.27,14.45-13.29,18s-10.55-3.09-10.55-3.09l-24-35.8s-1.88-2.47-.49-3.34c0,0,.06-1.51,5.14.44l37.82,14.52S435.15,290.17,433.94,296.67ZM442,258c2.5,6.12,1.7,16.09-1.44,22.34S430,283.45,430,283.45L390.5,266.31s-2.92-1.06-2.22-2.55c0,0-.77-1.31,4.55-2.41l39.67-8.23S439.54,251.88,442,258Zm-14.1-36.9c5.41,3.8,10.13,12.62,10.87,19.57s-7.2,8.32-7.2,8.32l-42.53,7s-3,.68-3.25-.95c0,0-1.35-.68,2.53-4.48l28.93-28.38S422.52,217.3,427.93,221.1Zm-31.78-23.41c6.6.28,15.34,5.15,19.72,10.6s-1.57,10.89-1.57,10.89l-32,28.83s-2.18,2.22-3.24,1c0,0-1.5.16-.3-5.14l9-39.5S389.54,197.42,396.15,197.69Zm-44.48,62.16-40.38-3.29s-7.09-.79-7.76-7.37,2.91-15.92,7.68-21,11,0,11,0l33.1,27.6s2.5,1.83,1.41,3.06C356.72,258.82,357.09,260.29,351.67,259.85Zm10.06-8.61s-.48,1.43-4.8-1.87l-32.19-24.6s-5.54-4.5-2.55-10.4,11.06-11.81,17.84-13.53,9.25,5.94,9.25,5.94l12.93,41.11S363.32,250.79,361.73,251.24Zm8.32-3.68s-1.18.95-3-4.16l-13.78-38.1s-2.22-6.79,3.48-10.13,15.69-4,22.32-1.74,4.57,10,4.57,10L372.26,245S371.62,248.05,370.05,247.56Z"/><path class="cls-19" d="M379,249c1.06,1.26,3.24-1,3.24-1l32-28.83s5.94-5.43,1.57-10.89-13.12-10.32-19.72-10.6-8.4,6.64-8.4,6.64l-9,39.5C377.53,249.13,379,249,379,249Z"/><path class="cls-20" d="M383.61,203.43s2.06-7.78-4.57-10-16.62-1.6-22.32,1.74-3.48,10.13-3.48,10.13L367,243.4c1.85,5.11,3,4.16,3,4.16,1.57.49,2.21-2.55,2.21-2.55Z"/><path class="cls-21" d="M349.28,206.78s-2.47-7.66-9.25-5.94-14.84,7.64-17.84,13.53,2.55,10.4,2.55,10.4l32.19,24.6c4.32,3.3,4.8,1.87,4.8,1.87,1.59-.45.48-3.35.48-3.35Z"/><path class="cls-22" d="M355.31,255.76l-33.1-27.6s-6.22-5.11-11,0-8.35,14.46-7.68,21,7.76,7.37,7.76,7.37l40.38,3.29c5.42.44,5.05-1,5.05-1C357.81,257.59,355.31,255.76,355.31,255.76Z"/><path class="cls-23" d="M428.57,287.41l-37.82-14.52c-5.08-1.95-5.14-.44-5.14-.44-1.39.87.49,3.34.49,3.34l24,35.8s4.53,6.66,10.55,3.09,12.08-11.51,13.29-18S428.57,287.41,428.57,287.41Z"/><path class="cls-24" d="M432.5,253.12l-39.67,8.23c-5.32,1.1-4.55,2.41-4.55,2.41-.7,1.49,2.22,2.55,2.22,2.55L430,283.45s7.41,3.14,10.55-3.11S444.53,264.12,442,258,432.5,253.12,432.5,253.12Z"/><path class="cls-25" d="M388.35,250.52c-3.88,3.8-2.53,4.48-2.53,4.48.22,1.63,3.25.95,3.25.95l42.53-7s7.93-1.36,7.2-8.32-5.46-15.77-10.87-19.57-10.65,1-10.65,1Z"/><path class="cls-26" d="M488,192,498.73,209l13.42,19.61,14,18.6L539.26,264s8.78,8.92,16.67,9.92c0,0,13.19,3,22.72-3.6,0,0,4.81-2.6,10.85-10.33l17.59-22.46,16.61-23.72,9.9-15.53,4-6.67s-.08-2-48.73-3.18l-35.88-.2s-56.51.57-60.8,2.36C492.22,190.57,487.63,191,488,192Z"/><path class="cls-5" d="M611,188.54s.48.88.75,1.33"/><circle class="cls-5" cx="651.3" cy="166.8" r="45.8"/><circle class="cls-6" cx="651.3" cy="166.8" r="44.26"/><path class="cls-7" d="M655,155.75l5-22.12s1-3.87,4.7-3.72,8.59,2.88,11,5.94-.87,6.09-.87,6.09L657,158.09s-1.22,1.24-1.81.54C655.16,158.63,654.31,158.72,655,155.75Z"/><path class="cls-7" d="M648.43,155.51l-7.71-21.34s-1.25-3.8,1.94-5.67,8.79-2.22,12.5-1,2.56,5.6,2.56,5.6l-6.36,23.29s-.35,1.7-1.23,1.43C650.13,157.84,649.47,158.37,648.43,155.51Z"/><path class="cls-7" d="M642.78,158.85l-18-13.78s-3.11-2.52-1.43-5.82,6.19-6.62,10-7.58S638.5,135,638.5,135l7.24,23s.62,1.63-.27,1.88C645.47,159.9,645.2,160.7,642.78,158.85Z"/><path class="cls-7" d="M639.84,164.72l-22.62-1.84s-4-.45-4.34-4.13,1.62-8.91,4.3-11.78,6.16,0,6.16,0l18.54,15.46s1.4,1,.78,1.71C642.66,164.14,642.87,165,639.84,164.72Z"/><path class="cls-27" d="M640.53,171.25l-20,10.67s-3.58,1.78-5.88-1.12-3.45-8.37-2.75-12.23,5.18-3.33,5.18-3.33l24,3s1.73.11,1.59,1C642.6,169.24,643.22,169.82,640.53,171.25Z"/><path class="cls-28" d="M644.65,176.36l-11.07,19.81s-2.05,3.43-5.56,2.24-7.43-5.18-8.92-8.8,2.55-5.61,2.55-5.61l21.76-10.44s1.52-.85,1.89,0C645.3,173.55,646.14,173.71,644.65,176.36Z"/><path class="cls-29" d="M650.88,178.44l1.39,22.65s.13,4-3.46,4.89-9-.34-12.27-2.58-.88-6.1-.88-6.1l12.66-20.55s.82-1.53,1.59-1C649.91,175.73,650.69,175.4,650.88,178.44Z"/><path class="cls-30" d="M657.24,176.82l13.42,18.3s2.27,3.29-.27,6-7.8,4.6-11.72,4.46-4-4.65-4-4.65l-.47-24.14s-.14-1.73.78-1.72C655,175.06,655.44,174.37,657.24,176.82Z"/><path class="cls-7" d="M661.72,172l21.18,8.14s3.69,1.54,3,5.18-4.07,8.09-7.45,10.09-5.9-1.74-5.9-1.74l-13.44-20s-1.06-1.39-.28-1.87C658.84,171.78,658.88,170.93,661.72,172Z"/><path class="cls-7" d="M662.89,165.56,685.1,161s3.94-.69,5.34,2.73.95,9-.81,12.51-5.91,1.74-5.91,1.74l-22.14-9.6s-1.64-.59-1.24-1.42C660.34,166.91,659.91,166.18,662.89,165.56Z"/><path class="cls-7" d="M660.38,159.49l16.19-15.89s2.94-2.71,6-.58,5.67,7.06,6.09,11-4,4.66-4,4.66l-23.82,3.89s-1.7.39-1.82-.52C659,162,658.2,161.62,660.38,159.49Z"/><path class="cls-31" d="M488,192,498.73,209l13.42,19.61,14,18.6L539.26,264s8.78,8.92,16.67,9.92c0,0,13.19,3,22.72-3.6,0,0,4.81-2.6,10.85-10.33l17.59-22.46,16.61-23.72,9.9-15.53,4-6.32s.09,2.39-48.78,3.19l-35.62.22s-54.34-1.71-60.18-2.28Z"/><path class="cls-32" d="M545,271.26l11,2.64,4.84,1h4.81l5.55-1.13,4.53-1.76,4.2.27-6,9.35-3.07,7.05-1.46-1.35a10.23,10.23,0,0,0-3-1.94l-.44-.18a8.23,8.23,0,0,0-2.68-.61H563a7.45,7.45,0,0,0-2.21.21h0a7.41,7.41,0,0,0-2.16.89l-1.06.65a4,4,0,0,0-.54.38l-1.85,1.49-1.58-4.35-2.45-4.51-2.25-3.28-3.16-3.79Z"/><ellipse class="cls-33" cx="563.6" cy="165.77" rx="87.7" ry="9.1"/><path class="cls-15" d="M482.05,181.26c2.22,4.07,4.61,8,7.07,12s4.93,7.85,7.49,11.71c5.14,7.71,10.34,15.38,15.74,22.91,1.34,1.89,2.7,3.76,4.06,5.63s2.66,3.79,4.12,5.59l8.54,11c5.71,7.3,11.33,14.68,17,22l0,0a45,45,0,0,1,6.71,9.57A32.09,32.09,0,0,1,555,287a21.23,21.23,0,0,1,1,5.74,21.92,21.92,0,0,0-1.17-5.67,33.28,33.28,0,0,0-2.39-5.27,42.76,42.76,0,0,0-3.16-4.84,44.86,44.86,0,0,0-3.7-4.42v0h0c-5.78-7.26-11.6-14.49-17.31-21.79l-8.61-10.93c-1.47-1.8-2.81-3.7-4.18-5.57s-2.71-3.78-4-5.68c-5.32-7.6-10.58-15.25-15.5-23.13A261,261,0,0,1,482.05,181.26Z"/><path class="cls-16" d="M544.68,268.42a44.61,44.61,0,0,0,8.86,4,31.35,31.35,0,0,0,9.41,1.61,30.54,30.54,0,0,0,9.43-1.36,30.85,30.85,0,0,0,8.69-4.28,22,22,0,0,1-8.25,5.51,27.15,27.15,0,0,1-4.85,1.39,28.34,28.34,0,0,1-5,.42,27.28,27.28,0,0,1-5-.56,30.82,30.82,0,0,1-4.81-1.5A28.2,28.2,0,0,1,544.68,268.42Z"/><path class="cls-17" d="M552.94,278c1.38.27,2.77.48,4.15.71a18.33,18.33,0,0,0,4.18.45c1.4,0,2.81,0,4.21-.07s2.8-.09,4.21-.09v0a26,26,0,0,1-4.21.48,29.86,29.86,0,0,1-4.23-.13c-1.4-.17-2.81-.22-4.22-.33a16.18,16.18,0,0,1-4.11-1Z"/><path class="cls-15" d="M646.85,170.51a8.89,8.89,0,0,1-2.38,1.1c-.82.28-1.67.51-2.52.73-1.7.43-3.41.77-5.13,1.09-3.45.61-6.92,1.08-10.39,1.5-6.95.81-13.93,1.32-20.91,1.75s-14,.63-21,.74c-3.49,0-7,.08-10.48.07l-10.48-.14,10.47-.27,10.48-.31c7-.24,14-.5,20.93-.93s13.93-.87,20.88-1.55c3.47-.34,6.94-.74,10.39-1.26,1.73-.25,3.45-.53,5.16-.89.85-.18,1.7-.38,2.53-.63A8.65,8.65,0,0,0,646.85,170.51Z"/><path class="cls-15" d="M558.9,357.52c0,4.76-.2,9.5-.41,14.25s-.51,9.49-.94,14.23a112.12,112.12,0,0,1-2,14.17,16.45,16.45,0,0,1-1.19,3.5,4.1,4.1,0,0,1-.56.84l-.61.67c-.42.44-.84.88-1.29,1.29a18,18,0,0,1-6.19,3.92h-.08c-5.86.77-11.74,1.66-17.52,2.92a82.12,82.12,0,0,0-8.58,2.28,33.67,33.67,0,0,0-4.09,1.66,9.81,9.81,0,0,0-3.49,2.54v0a4.2,4.2,0,0,0,.59,4.16,10.76,10.76,0,0,0,3.4,2.95,33.07,33.07,0,0,0,8.54,3.26,82,82,0,0,0,9,1.71c3.05.42,6.11.73,9.17,1,6.14.46,12.29.61,18.44.68h4.61c1.51,0,3.06-.15,4.59-.24,3.07-.2,6.14-.43,9.2-.72,6.12-.55,12.24-1.21,18.29-2.24,3-.52,6-1.14,9-1.93a39.8,39.8,0,0,0,4.33-1.41,19.86,19.86,0,0,0,2-.93,7.15,7.15,0,0,0,1.78-1.21,9.56,9.56,0,0,0,1.39-1.67,3.28,3.28,0,0,0,.62-1.86,2.61,2.61,0,0,0-1-1.62,11.83,11.83,0,0,0-1.73-1.39,36.16,36.16,0,0,0-8.22-3.93,97.77,97.77,0,0,0-17.94-4.16l0-.13a91.59,91.59,0,0,1,18.15,3.6,36.79,36.79,0,0,1,8.52,3.83,12.48,12.48,0,0,1,1.89,1.47,6.33,6.33,0,0,1,.83.94,2.64,2.64,0,0,1,.48,1.32,4.27,4.27,0,0,1-.74,2.48,10.53,10.53,0,0,1-1.53,1.9,8.14,8.14,0,0,1-2,1.42,20.87,20.87,0,0,1-2.14,1,40.1,40.1,0,0,1-4.44,1.52,89.39,89.39,0,0,1-9.09,2c-6.1,1.05-12.24,1.77-18.4,2.3q-4.6.39-9.24.64c-1.54.08-3.07.18-4.64.21l-4.64-.06c-6.18-.11-12.35-.42-18.5-1a111,111,0,0,1-18.28-3,35.41,35.41,0,0,1-8.63-3.4,11.05,11.05,0,0,1-3.5-3.1,4.65,4.65,0,0,1-.63-4.58h0v0a10.36,10.36,0,0,1,3.61-2.7,33.15,33.15,0,0,1,4.14-1.72,85.82,85.82,0,0,1,8.58-2.5c2.89-.71,5.81-1.31,8.73-1.86s5.86-1,8.82-1.43l-.08,0a17.22,17.22,0,0,0,5.72-3.71c.42-.39.82-.82,1.22-1.24l.59-.64a3.5,3.5,0,0,0,.43-.63,15.56,15.56,0,0,0,1.11-3.23,110.7,110.7,0,0,0,2.12-14c1-9.43,1.61-18.91,2.17-28.39Z"/><path class="cls-16" d="M548,411.46c.93-.93,1.9-1.8,2.77-2.75a16.1,16.1,0,0,0,1.29-1.45,10.48,10.48,0,0,0,1.09-1.6,5.72,5.72,0,0,1-.83,1.79,12.39,12.39,0,0,1-1.24,1.55A14.87,14.87,0,0,1,548,411.46Z"/><path class="cls-15" d="M582.72,413.17a38.45,38.45,0,0,1-5.86-6.3,29.91,29.91,0,0,1-4.16-7.55,20.92,20.92,0,0,1-1.05-4.21c-.19-1.44-.32-2.86-.47-4.29l-.83-8.58-1.5-17.17c-.23-2.87-.53-5.71-.69-8.61l-.32-8.62c-.39-11.48-.54-23-.31-34.49.15-5.75.36-11.5,1-17.25a36.76,36.76,0,0,1,2-8.51,52,52,0,0,1,3.68-7.9,68.25,68.25,0,0,1,4.77-7.26l5.32-6.79L595,252.09l10.64-13.55c3.48-4.56,6.82-9.23,10.15-13.9q9.94-14.07,18.94-28.76c3-4.89,6-9.81,8.82-14.8,1.42-2.5,2.82-5,4.18-7.53q1-1.91,2-3.81c.32-.64.64-1.29.93-2a6.67,6.67,0,0,0,.67-2,6.44,6.44,0,0,1-.63,2c-.29.66-.59,1.31-.9,2-.63,1.29-1.28,2.57-1.94,3.85-1.31,2.56-2.68,5.08-4.05,7.61q-4.14,7.56-8.56,15-8.87,14.78-18.68,29c-3.27,4.72-6.59,9.43-10.07,14l-10.6,13.59-10.61,13.59L580,273.17a68.87,68.87,0,0,0-4.66,7.14,51.38,51.38,0,0,0-3.61,7.7,35.43,35.43,0,0,0-1.93,8.24c-.69,5.66-.92,11.4-1.08,17.13-.29,11.47-.12,23,.12,34.44l.24,8.61c.13,2.83.4,5.72.6,8.57L571,382.19l.68,8.59c.13,1.42.23,2.86.39,4.28a20.48,20.48,0,0,0,1,4.15,29.66,29.66,0,0,0,4,7.57A39.14,39.14,0,0,0,582.72,413.17Z"/><path class="cls-15" d="M512.66,427a28.88,28.88,0,0,0,5.87,3.47,51.7,51.7,0,0,0,6.38,2.43,76.52,76.52,0,0,0,13.33,2.9c9,1.24,18.19,1.06,27.29.83a256.32,256.32,0,0,0,27.25-2.17c2.25-.32,4.51-.66,6.75-1.05a64.92,64.92,0,0,0,6.68-1.41,28.58,28.58,0,0,0,6.23-2.74,25.5,25.5,0,0,0,2.87-1.85,6.41,6.41,0,0,0,2.18-2.58,6.29,6.29,0,0,1-2.16,2.61,23.42,23.42,0,0,1-2.84,1.9,29.19,29.19,0,0,1-6.23,2.84,56.56,56.56,0,0,1-6.69,1.46c-2.24.4-4.5.75-6.76,1.08a256.71,256.71,0,0,1-27.27,2.32c-4.56.16-9.13.18-13.69.09-2.28,0-4.56-.2-6.84-.32s-4.56-.37-6.81-.72a78.17,78.17,0,0,1-13.36-3,52,52,0,0,1-6.36-2.54A29.13,29.13,0,0,1,512.66,427Z"/><path class="cls-15" d="M556.68,296.35c.34,2.42.58,4.84.85,7.27l.65,7.28c.41,4.86.68,9.72.89,14.59s.3,9.75.25,14.63c-.05,2.44-.06,4.88-.17,7.31s-.26,4.88-.47,7.3c-.07-2.44,0-4.87-.15-7.3s-.11-4.87-.18-7.3l-.54-14.59-.6-14.58-.29-7.3Z"/><path class="cls-17" d="M549.33,416.08a7.53,7.53,0,0,0,3.24,2.36,18.32,18.32,0,0,0,3.84,1.17,39.55,39.55,0,0,0,8.07.64,52,52,0,0,0,8.1-.6,25,25,0,0,0,3.93-1,8.88,8.88,0,0,0,3.51-2,8.15,8.15,0,0,1-3.27,2.55,20,20,0,0,1-4,1.35,37.39,37.39,0,0,1-8.29.9,31,31,0,0,1-8.3-.95,15.73,15.73,0,0,1-3.9-1.58A7.14,7.14,0,0,1,549.33,416.08Z"/><path class="cls-17" d="M545.53,419.13a3,3,0,0,0,1.35,1.88,8.16,8.16,0,0,0,1,.62c.38.15.73.35,1.12.47a22.77,22.77,0,0,0,2.35.7c.81.14,1.6.35,2.43.49s1.63.36,2.46.46a23.52,23.52,0,0,0,2.51.29c.84,0,1.68.07,2.52,0s1.69-.12,2.53-.18c3.38-.22,6.72-.43,10-.85a42.07,42.07,0,0,0,4.9-.81,13.62,13.62,0,0,0,2.35-.73,5.29,5.29,0,0,0,2-1.38.06.06,0,0,1,.08,0,.05.05,0,0,1,0,.08,4.69,4.69,0,0,1-1.8,1.87A13.44,13.44,0,0,1,579,423.2a26.53,26.53,0,0,1-5,1.18,50.35,50.35,0,0,1-10.19.21c-1.69-.06-3.38-.12-5.08-.14s-3.4,0-5.11-.12a15.64,15.64,0,0,1-5-1.33,7.49,7.49,0,0,1-2.19-1.48,3.07,3.07,0,0,1-1-2.41.08.08,0,0,1,.07-.05,0,0,0,0,1,0,.05Z"/><path class="cls-17" d="M572.11,281.67a19.43,19.43,0,0,1-4,.61c-1.36,0-2.72,0-4.07.11a29.09,29.09,0,0,1-4.07,0,21.79,21.79,0,0,1-4-.68l0,0s0,0,0,0l4.05.29c1.34.08,2.69.19,4,.24a19.53,19.53,0,0,0,4-.22c1.35-.14,2.69-.24,4.05-.31,0,0,0,0,0,0Z"/><path class="cls-15" d="M481.22,179.48c-.86-1.6-1.76-3.19-2.6-4.8l-2.56-4.82-.22-.43.46.17a45.79,45.79,0,0,0,5,1.5c1.69.43,3.38.8,5.09,1.1s3.43.59,5.15.77,3.46.38,5.2.49c-1.74,0-3.48-.07-5.22-.24s-3.47-.37-5.19-.65A55,55,0,0,1,476.16,170l.24-.25,2.44,4.87C479.66,176.19,480.43,177.84,481.22,179.48Z"/><path class="cls-15" d="M500.65,174.63c2.43.22,4.86.4,7.29.57l7.3.52q7.29.47,14.6.76c4.87.23,9.74.44,14.62.56l14.62.31-7.31.06-7.32-.09c-4.88-.08-9.75-.23-14.63-.42s-9.74-.55-14.6-.9S505.49,175.22,500.65,174.63Z"/><path class="cls-15" d="M477.35,167.42a.78.78,0,0,1,.17-.83,1.93,1.93,0,0,1,.31-.33,1.87,1.87,0,0,1,.35-.28,11.11,11.11,0,0,1,1.59-.86,31,31,0,0,1,3.42-1.11c2.31-.63,4.68-1,7-1.4s4.74-.64,7.12-.85,4.76-.37,7.14-.52l-3.56.42c-1.18.12-2.37.27-3.55.42-2.37.28-4.73.58-7.08.95s-4.71.74-7,1.29a30.93,30.93,0,0,0-3.41,1,10.3,10.3,0,0,0-1.61.76,2.12,2.12,0,0,0-.36.25,1.52,1.52,0,0,0-.32.3A.76.76,0,0,0,477.35,167.42Z"/><path class="cls-15" d="M513,160.55c9.12-.69,18.25-1.14,27.39-1.44s18.28-.47,27.42-.51,18.28.14,27.42.45,18.27.83,27.38,1.5c-4.56-.23-9.12-.56-13.69-.71l-6.85-.3-6.85-.21q-13.69-.39-27.41-.31t-27.41.37q-6.85.2-13.7.49C522.12,160.06,517.55,160.27,513,160.55Z"/><path d="M629.76,161.3c.84.18,1.77.19,2.65.29l2.67.3c1.78.22,3.55.51,5.32.84a42.9,42.9,0,0,1,5.21,1.36,9.92,9.92,0,0,1,4.6,2.71,6.11,6.11,0,0,0-2.2-1.48,19.7,19.7,0,0,0-2.5-.93,50.92,50.92,0,0,0-5.19-1.25c-1.75-.37-3.52-.65-5.28-.93S631.47,161.72,629.76,161.3Z"/><path class="cls-17" d="M574.49,404.57a12.62,12.62,0,0,1-2.17,1.52,16.42,16.42,0,0,1-7.73,1.93,18.47,18.47,0,0,1-5.28-.81,24.79,24.79,0,0,1-2.49-.92c-.8-.39-1.57-.81-2.33-1.25.84.27,1.64.61,2.48.87s1.65.54,2.51.68c.42.08.84.16,1.26.26s.86.11,1.28.17a22.16,22.16,0,0,0,2.57.16,20.83,20.83,0,0,0,5.09-.65A18.24,18.24,0,0,0,574.49,404.57Z"/><path class="cls-17" d="M552.59,406.8a6.84,6.84,0,0,0,1.81,1.43,11.06,11.06,0,0,0,2.1.87,22,22,0,0,0,2.23.58l1.15.21c.39.07.79.13,1.18.24-.39.08-.79.13-1.2.18s-.8,0-1.21,0a9.46,9.46,0,0,1-2.41-.43,7.07,7.07,0,0,1-2.2-1.13A4,4,0,0,1,552.59,406.8Z"/><path class="cls-17" d="M576.45,407.6a4,4,0,0,1-1.45,2,7,7,0,0,1-2.2,1.14,10,10,0,0,1-2.41.42c-.41,0-.81,0-1.22,0s-.8-.09-1.2-.18c.4-.1.79-.16,1.18-.23s.77-.16,1.16-.22c.75-.18,1.51-.32,2.23-.57a11,11,0,0,0,2.09-.88A6.69,6.69,0,0,0,576.45,407.6Z"/><path class="cls-18" d="M637.65,191.77c0-.14-.21-.25-.37-.32a3.58,3.58,0,0,0-.55-.19,10.92,10.92,0,0,0-1.13-.27c-.77-.15-1.54-.26-2.31-.36-1.55-.2-3.11-.34-4.66-.47-3.12-.26-6.23-.46-9.36-.59-6.24-.26-12.49-.41-18.73-.51q-18.75-.27-37.49-.36c-12.5-.07-25-.14-37.49.18q-9.37.21-18.73.75c-3.12.18-6.24.39-9.34.69-1.56.15-3.11.32-4.65.53-.77.11-1.54.23-2.29.39-.38.08-.75.16-1.11.27a4.77,4.77,0,0,0-.5.19.56.56,0,0,0-.19.11c-.07,0,0,.06,0,0s.06,0,.21.06l.51.17a9.47,9.47,0,0,0,1.11.26c.75.14,1.52.25,2.29.35,1.54.19,3.09.33,4.65.46,3.11.25,6.22.42,9.34.57,6.24.29,12.48.47,18.73.64,12.49.29,25,.38,37.48.42s25-.08,37.49-.25c6.24-.09,12.49-.24,18.73-.5,3.13-.12,6.24-.33,9.36-.58,1.55-.13,3.11-.27,4.66-.47.77-.1,1.54-.21,2.31-.36a10.88,10.88,0,0,0,1.13-.26C637.07,192.17,637.55,192.05,637.65,191.77Zm.13,0c0,.27-.28.34-.45.44a5.31,5.31,0,0,1-.56.2c-.38.11-.76.2-1.14.28-.77.15-1.55.27-2.32.38-1.55.21-3.11.37-4.66.52-3.12.29-6.24.49-9.36.71-6.24.42-12.48.72-18.73,1-12.5.52-25,.72-37.51.72s-25-.15-37.52-.54c-6.25-.19-12.5-.46-18.74-.85-3.12-.2-6.25-.42-9.36-.72-1.56-.15-3.12-.31-4.68-.53-.78-.11-1.56-.23-2.33-.39-.39-.08-.78-.17-1.17-.29a4.84,4.84,0,0,1-.6-.22,1.22,1.22,0,0,1-.32-.19.58.58,0,0,1,0-1,1.79,1.79,0,0,1,.32-.18,3.91,3.91,0,0,1,.6-.21q.58-.17,1.17-.27c.78-.15,1.56-.26,2.34-.36,1.56-.19,3.12-.33,4.68-.46,3.12-.24,6.24-.43,9.36-.59,6.25-.32,12.5-.52,18.74-.74,12.5-.36,25-.71,37.51-.79s25,.1,37.51.61c6.25.26,12.49.56,18.73,1,3.12.23,6.24.42,9.36.71,1.55.14,3.11.31,4.66.52.77.1,1.55.22,2.32.38a9.47,9.47,0,0,1,1.14.28,3.73,3.73,0,0,1,.56.2C637.5,191.42,637.73,191.5,637.78,191.77Z"/><polygon class="cls-15" points="488.03 191.48 488.7 192.57 488.45 192.67 487.81 191.59 488.03 191.48"/><polyline class="cls-15" points="637.5 191.27 636.76 192.49 637.38 192.48 637.68 192.02 637.88 191.66 637.5 191.27"/><polygon class="cls-6" points="636.35 190.91 637.52 191.23 637.28 191.63 636.21 191.23 636.35 190.91"/><polygon class="cls-6" points="619.06 189.08 612.76 188.73 612.8 189.5 619.28 189.67 619.06 189.08"/><polyline class="cls-5" points="612.74 188.54 613.42 189.71 611.49 189.45 611.01 188.6 612.74 188.54"/><polygon class="cls-7" points="618.91 189.07 619.14 189.71 636.16 191.26 636.3 191.31 636.57 190.81 627.57 189.52 618.91 189.07"/><path class="cls-5" d="M697,164.18a45.8,45.8,0,0,0-91.36-1.11l1.53.13a44.26,44.26,0,1,1,70.47,39.19l.92,1.24A45.75,45.75,0,0,0,697,164.18Z"/><path class="cls-6" d="M677.62,202.39a44.26,44.26,0,1,0-70.47-39.19l41.46,3.42a5.9,5.9,0,0,1,4.24,2.36Zm8.25-17c-.68,3.63-4.07,8.09-7.45,10.08s-5.9-1.73-5.9-1.73l-13.44-20s-1.06-1.38-.28-1.87c0,0,0-.84,2.88.25l21.18,8.13S686.55,181.74,685.87,185.38Zm4.53-21.66c1.4,3.43,1,9-.81,12.51s-5.91,1.74-5.91,1.74l-22.14-9.6s-1.64-.59-1.24-1.42c0,0-.43-.74,2.55-1.35L685.06,161S689,160.29,690.4,163.72Zm-7.9-20.66c3,2.12,5.67,7.06,6.09,11s-4,4.65-4,4.65l-23.82,3.9s-1.7.39-1.82-.53c0,0-.76-.38,1.42-2.51l16.19-15.89S679.47,140.93,682.5,143.06ZM664.7,130c3.7.15,8.59,2.88,11,5.94s-.87,6.09-.87,6.09l-17.94,16.15s-1.22,1.24-1.81.54c0,0-.85.08-.17-2.88l5-22.13S661,129.79,664.7,130Zm-24.9,34.81-22.62-1.85s-4-.44-4.34-4.12,1.62-8.92,4.3-11.78,6.16,0,6.16,0l18.54,15.45s1.4,1,.78,1.72C642.62,164.18,642.83,165,639.8,164.76Zm5.63-4.83s-.27.81-2.69-1l-18-13.78s-3.11-2.52-1.43-5.82,6.19-6.62,10-7.58,5.18,3.33,5.18,3.33l7.24,23S646.32,159.69,645.43,159.93Zm4.66-2.05s-.66.53-1.7-2.34l-7.71-21.33s-1.25-3.8,1.94-5.67,8.79-2.22,12.5-1,2.56,5.6,2.56,5.6l-6.36,23.29S651,158.15,650.09,157.88Z"/><path class="cls-34" d="M655.12,158.67c.59.7,1.81-.54,1.81-.54L674.87,142s3.33-3,.87-6.09-7.34-5.79-11-5.94-4.7,3.71-4.7,3.71l-5,22.13C654.27,158.75,655.12,158.67,655.12,158.67Z"/><path class="cls-35" d="M657.68,133.16s1.16-4.35-2.56-5.6-9.3-.89-12.5,1-1.94,5.67-1.94,5.67l7.71,21.33c1,2.87,1.7,2.34,1.7,2.34.88.27,1.23-1.43,1.23-1.43Z"/><path class="cls-36" d="M638.46,135s-1.39-4.29-5.18-3.33-8.32,4.28-10,7.58,1.43,5.82,1.43,5.82l18,13.78c2.42,1.85,2.69,1,2.69,1,.89-.24.27-1.87.27-1.87Z"/><path class="cls-37" d="M641.84,162.46,623.3,147s-3.49-2.86-6.16,0-4.68,8.1-4.3,11.78,4.34,4.12,4.34,4.12l22.62,1.85c3,.25,2.82-.58,2.82-.58C643.24,163.49,641.84,162.46,641.84,162.46Z"/><path class="cls-38" d="M682.86,180.19l-21.18-8.13c-2.84-1.09-2.88-.25-2.88-.25-.78.49.28,1.87.28,1.87l13.44,20s2.53,3.73,5.9,1.73,6.77-6.45,7.45-10.08S682.86,180.19,682.86,180.19Z"/><path class="cls-39" d="M685.06,161l-22.21,4.61c-3,.61-2.55,1.35-2.55,1.35-.4.83,1.24,1.42,1.24,1.42l22.14,9.6s4.15,1.76,5.91-1.74,2.21-9.08.81-12.51S685.06,161,685.06,161Z"/><path class="cls-40" d="M660.34,159.53c-2.18,2.13-1.42,2.51-1.42,2.51.12.92,1.82.53,1.82.53l23.82-3.9s4.44-.76,4-4.65-3.06-8.84-6.09-11-6,.58-6,.58Z"/></g></svg>