<svg id="Layer_1" data-name="Layer 1" xmlns="http://www.w3.org/2000/svg" viewBox="0 0 593.94 593.94"><defs><style>.cls-1{fill:#40a2aa;}.cls-2{fill:#fff;}</style></defs><title>logo</title><circle class="cls-1" cx="296.97" cy="296.97" r="296.89"/><path class="cls-2" d="M407.3,267.68c-5.73-2.3-11.33-4.92-16.87-7.65-2.78-1.35-5.5-2.82-8.25-4.24L374,251.34a366.84,366.84,0,0,1-31.35-19.93l-3.79-2.69c-1.27-.89-2.54-1.79-3.76-2.74l-7.38-5.69c-2.46-1.9-4.8-3.94-7.21-5.91l-3.59-3c-1.19-1-2.33-2.07-3.5-3.1l-6.93-6.25-6.65-6.57-3.32-3.3-3.15-3.45-6.31-6.92a3.65,3.65,0,0,1-.94-2.11v-.06c0-.41,0-.58-.05-.85s0-.48,0-.73a10.63,10.63,0,0,1,.15-1.46,9.47,9.47,0,0,1,1.1-3.25,7.37,7.37,0,0,1,3.22-3,8.13,8.13,0,0,1,3.89-.66l1.87.62c-.07-.05,0,0,0,0l.12.07.32.15c.23.1.48.18.72.26a8,8,0,0,0,1.53.32,7.43,7.43,0,0,0,3.1-.3,13.11,13.11,0,0,0,5.83-4.09c.41-.41,1-1.15,1.56-1.77s1.16-1.26,1.77-1.87a34,34,0,0,1,3.93-3.4,90.63,90.63,0,0,1,8.17-5.45,73.21,73.21,0,0,1,8.8-4.44,55.87,55.87,0,0,1,9.47-3.12,43.34,43.34,0,0,1,10.06-1.12l2.55.1c.85.06,1.7.21,2.55.31l1.27.18c.42.08.83.2,1.25.29l2.49.62a2.66,2.66,0,0,1,1.32.79l0,0c3.57,4,7.27,8,11,11.91s7.65,7.68,11.58,11.42,8.05,7.26,12.3,10.61,8.72,6.5,13.78,8.6c-5.33-1.37-10.23-4.1-14.9-7a141.44,141.44,0,0,1-13.47-9.57c-4.34-3.39-8.51-7-12.59-10.67s-8.08-7.43-12-11.42l1.35.82-2.1-.4c-.35-.06-.69-.14-1-.19L356.1,152c-.71-.05-1.42-.14-2.13-.16l-2.14,0a37.23,37.23,0,0,0-8.53,1.39,49.4,49.4,0,0,0-8.27,3,65.4,65.4,0,0,0-7.84,4.26,81.57,81.57,0,0,0-7.32,5.21,30.83,30.83,0,0,0-3.11,2.8c-.49.5-1,1-1.44,1.57s-.85,1.05-1.52,1.78a20.69,20.69,0,0,1-1.89,2,18.48,18.48,0,0,1-2.17,1.82,17.72,17.72,0,0,1-5.3,2.72,15.59,15.59,0,0,1-6.19.61,16.07,16.07,0,0,1-3.07-.62c-.49-.16-1-.33-1.48-.54-.25-.1-.5-.23-.75-.35l-.39-.2c-.14-.08-.26-.14-.5-.29l1.87.62c-.16,0-.25,0,0,0a.83.83,0,0,0,.33-.27,2.49,2.49,0,0,0-.15.54c0,.16,0,.34,0,.53v.28c0,.06,0,.22,0,.15l-.94-2.17,6.1,6.76,3.05,3.37,3.2,3.25,6.4,6.5,6.64,6.26c1.11,1,2.19,2.11,3.33,3.13l3.43,3c2.3,2,4.54,4.06,6.89,6,4.72,3.86,9.37,7.81,14.22,11.54l3.6,2.83,3.68,2.74,3.68,2.74c1.23.91,2.45,1.84,3.7,2.72l7.47,5.35,7.58,5.2Q391.3,258.41,407.3,267.68Z" transform="translate(-3 -3)"/><path class="cls-2" d="M368.35,146.32a10.74,10.74,0,0,0,1.59-1.5c.49-.54,1-1.08,1.41-1.66.89-1.15,1.73-2.32,2.5-3.55a.69.69,0,0,1,.95-.21l.05,0,.08.07c4.62,3.53,9.23,7.07,13.78,10.67,2.3,1.78,4.56,3.59,6.84,5.39l3.42,2.69,3.4,2.71,6.84,5.36,6.87,5.31q1.76,1.27,3.48,2.6c1.16.87,2.36,1.66,3.52,2.53s2.41,1.59,3.6,2.44a19.36,19.36,0,0,0,1.85,1.12l1.89,1.11c-1.36-.49-2.8-.88-4.13-1.51s-2.69-1.19-4-1.9c-2.6-1.36-5.13-2.85-7.61-4.41s-4.91-3.18-7.27-4.9-4.74-3.43-7.06-5.19-4.62-3.57-6.86-5.43-4.5-3.71-6.7-5.63q-6.63-5.7-12.86-11.86l1.08-.11a34.9,34.9,0,0,1-3.09,3.23,21.22,21.22,0,0,1-1.71,1.43A11.2,11.2,0,0,1,368.35,146.32Z" transform="translate(-3 -3)"/><path class="cls-2" d="M382,126.45c1.58-3,3.29-6,5-8.91l2.61-4.38,1.33-2.18.67-1.09.17-.27c0-.05.12-.15.18-.23l.12-.15c.16-.2.32-.38.48-.57A18.85,18.85,0,0,1,397,105a16.1,16.1,0,0,1,5.63-2.09,17.93,17.93,0,0,1,11.78,2.35l.27.19c4.7,3.17,9.33,6.43,13.93,9.72s9.15,6.66,13.68,10.07l6.74,5.16,3.34,2.62,1.67,1.31a12.42,12.42,0,0,1,2.07,2,15.34,15.34,0,0,1,2.73,4.72,13.42,13.42,0,0,1,.77,5.42,14.47,14.47,0,0,1-.37,2.64c-.21.85-.51,1.65-.79,2.45s-.71,1.51-1.1,2.23-.86,1.36-1.3,2L456,156l0,0q-4.15,4.88-8.45,9.65-2.16,2.38-4.38,4.72t-4.5,4.63c1-1.91,2-3.8,3.11-5.66s2.13-3.73,3.23-5.57q3.3-5.5,6.75-10.91l-.11.15c.26-.57.52-1.13.79-1.68s.38-1.13.58-1.68.25-1.11.31-1.65a9.37,9.37,0,0,0,.05-1.58,7.3,7.3,0,0,0-.73-2.89,8.61,8.61,0,0,0-1.72-2.46,6.18,6.18,0,0,0-1.05-.88L448.08,139l-3.5-2.44-6.93-4.95c-4.6-3.34-9.16-6.71-13.68-10.16s-9-6.92-13.43-10.49l.27.18a12.52,12.52,0,0,0-7.48-2.38,13.69,13.69,0,0,0-7.68,3.13c-.13.11-.28.22-.4.33l-.09.08s0,0,0,0l-.2.24-.84,1-1.67,1.88L389,119.1C386.72,121.58,384.41,124.05,382,126.45Z" transform="translate(-3 -3)"/><path class="cls-2" d="M430.8,181.56l-1.62,6.18,0-.21a35.9,35.9,0,0,1-.37,4.74,18.07,18.07,0,0,1-.52,2.42,6.54,6.54,0,0,1-1.26,2.54l.06-1.79a30.11,30.11,0,0,1,4.11,6.77L432,204l.65,1.84a38.39,38.39,0,0,1,1.06,3.77,50.49,50.49,0,0,1,1,15.55l-.41,3.88-.73,3.82-.37,1.91-.52,1.87-1.06,3.74c-.82,2.45-1.81,4.83-2.71,7.25l-3.3,7,.12-.24c-.2.48-.42,1.08-.6,1.62s-.35,1.1-.48,1.62a11,11,0,0,0-.26,1.4,1.07,1.07,0,0,0,0,.29c0,.06,0-.12-.05-.2a.3.3,0,0,1,0-.09,1.8,1.8,0,0,0-.08-.21,1.78,1.78,0,0,0-.25-.36l.15.21c.49.72.92,1.39,1.36,2.1s.86,1.42,1.27,2.17a22.74,22.74,0,0,1,1.2,2.42,12.73,12.73,0,0,1,.55,1.55l.12.48a5.86,5.86,0,0,1,.09.66l0,.35v.19l0,.3a6.26,6.26,0,0,1-.23,1.22l.14-1.81a4.16,4.16,0,0,1,.06,1.15,5.67,5.67,0,0,1-.1.75,6.75,6.75,0,0,1-.41,1.27,7.11,7.11,0,0,1-1.23,1.84,10.57,10.57,0,0,1-2.74,2.08,17.55,17.55,0,0,1-2.63,1.1c-.86.29-1.69.5-2.53.7l2.16-1.42c-13.76,19.64-29.27,37.71-44.81,55.79q-2.88,3.4-5.81,6.77l-5.77,6.82c-3.85,4.54-7.69,9.08-11.47,13.67l-11.35,13.78-11.23,13.87-22.39,27.83c-3.73,4.65-7.55,9.2-11.36,13.79s-7.65,9.11-11.54,13.64l-11.7,13.53-2.93,3.38-3,3.29-6.05,6.57-12.1,13.13-12.21,13,0,.05-.21.2c-.13.12-.31.27-.42.35l-.31.23c-.21.16-.43.32-.62.44-.4.24-.8.52-1.2.73a25.27,25.27,0,0,1-4.87,2.06,19.84,19.84,0,0,1-2.5.62,32.13,32.13,0,0,1-9.95.41,51.16,51.16,0,0,1-18-5.74,86.28,86.28,0,0,1-7.9-4.67c-1.27-.83-2.45-1.76-3.67-2.64s-2.47-1.78-3.59-2.67c-4.64-3.53-9.22-7.13-13.82-10.71s-9.19-7.17-13.75-10.79c-.59-.48-1.09-.84-1.8-1.46s-1.18-1.07-1.73-1.62a44,44,0,0,1-3.08-3.48,40.69,40.69,0,0,1-4.89-7.84,34.7,34.7,0,0,1-2.82-8.79,31.28,31.28,0,0,1-.23-9.16,37.72,37.72,0,0,1,6.57-16.51.4.4,0,0,1,.69.41h0a38.3,38.3,0,0,0-4.55,16.31,30.09,30.09,0,0,0,4.1,15.8,38,38,0,0,0,4.86,6.63,39.65,39.65,0,0,0,2.92,2.88c.51.44,1,.88,1.54,1.27s1.11.78,1.68,1.18q7.22,5,14.36,10c4.78,3.35,9.56,6.68,14.3,10.07,1.2.87,2.35,1.61,3.52,2.42s2.32,1.61,3.51,2.33a79.6,79.6,0,0,0,7.3,4,43.93,43.93,0,0,0,15.23,4.52,23.54,23.54,0,0,0,7.43-.38,11.86,11.86,0,0,0,1.73-.46A12.41,12.41,0,0,0,229,490a13.35,13.35,0,0,0,1.52-.73c.25-.13.44-.28.66-.41s.19-.13.28-.19l.13-.09s0,0,0,0l-.26.25c16.17-17.41,33.14-34.1,48.88-51.84,15.93-17.6,32.35-34.84,48.14-52.61,7.94-8.85,15.62-17.93,23.2-27.09l5.62-6.92q2.81-3.45,5.52-7c3.65-4.69,7.29-9.39,10.82-14.17,7.11-9.53,14-19.2,21-28.8l20.95-28.7h0a3.65,3.65,0,0,1,2.15-1.42c.63-.15,1.26-.29,1.83-.47a11.39,11.39,0,0,0,1.55-.61,4,4,0,0,0,.87-.59c.08-.06.05-.07,0,0a.93.93,0,0,0-.05.2.92.92,0,0,0,0,.19,1.65,1.65,0,0,0,0,.59l.15-1.81a1.5,1.5,0,0,0-.15.63v.2a.13.13,0,0,0,0,.06s0,.09,0,.08l0-.09a1.18,1.18,0,0,0-.09-.28,3.79,3.79,0,0,0-.14-.38,19.06,19.06,0,0,0-.86-1.8c-.33-.62-.69-1.26-1.07-1.89s-.78-1.28-1.15-1.86l.15.2a5.79,5.79,0,0,1-.49-.79c-.07-.14-.13-.28-.19-.42a2.85,2.85,0,0,1-.1-.32,5,5,0,0,1-.22-1.16,7.87,7.87,0,0,1,0-1.65,14.6,14.6,0,0,1,.52-2.42c.21-.74.45-1.42.7-2.09s.51-1.3.84-2l.08-.18,0,0,3.34-6.43c.91-2.21,1.93-4.41,2.77-6.65l1.17-3.4.58-1.7.44-1.73.88-3.48.57-3.53a49.68,49.68,0,0,0,.07-14.2,34.39,34.39,0,0,0-.7-3.5l-.43-1.73-.55-1.69a15.87,15.87,0,0,0-.62-1.67c-.23-.55-.44-1.11-.71-1.63a21.48,21.48,0,0,0-1.69-3l-.15-.22a1.21,1.21,0,0,1,.21-1.58,4.16,4.16,0,0,0,.91-1.5,15.25,15.25,0,0,0,.68-2,36,36,0,0,0,.87-4.4v-.12l0-.09,2.43-5.91a.39.39,0,0,1,.51-.22A.4.4,0,0,1,430.8,181.56Z" transform="translate(-3 -3)"/><path class="cls-2" d="M153.93,402.62c8.3-19.27,17.7-38,27.57-56.48s20.29-36.67,31.22-54.54,22.48-35.39,34.51-52.55c3.06-4.26,6.08-8.54,9.18-12.76s6.33-8.37,9.5-12.54,6.4-8.3,9.79-12.31,6.7-8.06,10.13-12c-11.08,17.81-22.4,35.34-33.45,53.06-1.41,2.19-2.77,4.42-4.12,6.65l-4.15,6.64c-2.77,4.42-5.55,8.83-8.24,13.3l-8.22,13.32-8.17,13.35-32.63,53.45C176,367.05,165.13,384.89,153.93,402.62Z" transform="translate(-3 -3)"/><path class="cls-2" d="M329.31,201.77a104.85,104.85,0,0,1,8.74,5.95c1.39,1.05,2.78,2.11,4.14,3.21a51.36,51.36,0,0,1,4,3.41c1.28,1.19,2.51,2.45,3.75,3.71s2.52,2.45,3.87,3.57a61.17,61.17,0,0,0,8.68,5.91c3.05,1.75,6.1,3.49,9,5.37s6,3.62,8.88,5.51c5.78,3.91,11.6,7.7,17.18,12.13a.21.21,0,0,1,0,.29.22.22,0,0,1-.22.07c-1.7-.53-3.37-1.15-5-1.79s-3.29-1.35-4.88-2.12-3.19-1.54-4.75-2.37-3.08-1.72-4.6-2.63-3-1.87-4.43-2.9-2.9-2-4.3-3.09-2.82-2.12-4.2-3.23-2.66-2.33-4-3.48c-.66-.58-1.32-1.18-2-1.74s-1.33-1.16-2-1.71c-1.36-1.12-2.77-2.17-4.19-3.2-2.86-2-6-3.72-8.92-5.73a68.13,68.13,0,0,1-8-6.85,60.22,60.22,0,0,1-7-8,.2.2,0,0,1,.05-.28A.21.21,0,0,1,329.31,201.77Z" transform="translate(-3 -3)"/><path class="cls-2" d="M387,119.64c2.65,1.68,5.14,3.54,7.61,5.42s4.89,3.82,7.19,5.9,4.43,4.37,6.82,6.36a72.18,72.18,0,0,0,7.53,5.46c1.3.86,2.64,1.65,3.93,2.52l3.86,2.58c2.56,1.74,5.15,3.42,7.69,5.19,5.07,3.53,10.11,7.07,15.16,10.77a.14.14,0,0,1,0,.19.12.12,0,0,1-.15,0,89.3,89.3,0,0,1-16.62-8.67c-1.28-.88-2.58-1.75-3.84-2.67s-2.49-1.87-3.73-2.82c-2.51-1.86-4.87-3.9-7.2-6s-4.7-4.09-7.19-5.95-5.18-3.48-7.69-5.33c-1.25-.93-2.47-1.89-3.64-2.92s-2.35-2.05-3.48-3.12a71.61,71.61,0,0,1-6.46-6.79.13.13,0,0,1,0-.19A.15.15,0,0,1,387,119.64Z" transform="translate(-3 -3)"/><path class="cls-2" d="M383.56,124.34c2.66,1.68,5.15,3.54,7.62,5.41s4.89,3.82,7.19,5.9,4.44,4.37,6.82,6.35a72.39,72.39,0,0,0,7.54,5.47c1.3.85,2.64,1.65,3.92,2.51l3.86,2.59c2.57,1.73,5.16,3.42,7.7,5.18,5.06,3.54,10.1,7.08,15.14,10.79a.13.13,0,0,1,0,.19.13.13,0,0,1-.15.05,90.43,90.43,0,0,1-16.6-8.69c-1.29-.88-2.58-1.76-3.84-2.67s-2.5-1.88-3.74-2.83c-2.5-1.85-4.86-3.9-7.2-6s-4.7-4.08-7.19-5.94-5.18-3.48-7.69-5.33c-1.25-.93-2.47-1.89-3.64-2.92s-2.35-2-3.48-3.11a72.82,72.82,0,0,1-6.47-6.78.15.15,0,0,1,0-.19A.14.14,0,0,1,383.56,124.34Z" transform="translate(-3 -3)"/><path class="cls-2" d="M383.22,133.87c2.45,1.58,4.75,3.31,7,5.06,1.14.88,2.27,1.77,3.38,2.69s2.21,1.83,3.26,2.8c2.12,2,4.09,4.09,6.31,5.92a59.77,59.77,0,0,0,7,5c2.45,1.52,4.9,3,7.28,4.65l3.61,2.34,3.58,2.38c4.69,3.31,9.42,6.52,14,10.15a.14.14,0,0,1,0,.19.14.14,0,0,1-.16,0,77.62,77.62,0,0,1-7.91-3.65c-1.28-.68-2.55-1.38-3.8-2.1s-2.47-1.52-3.7-2.28c-2.44-1.56-4.76-3.29-7.07-5-1.15-.89-2.3-1.77-3.42-2.68s-2.19-1.9-3.28-2.85c-2.18-1.91-4.37-3.79-6.7-5.49s-4.83-3.19-7.18-4.9a69.05,69.05,0,0,1-6.57-5.64,57.84,57.84,0,0,1-5.88-6.42.13.13,0,0,1,0-.19A.15.15,0,0,1,383.22,133.87Z" transform="translate(-3 -3)"/><path class="cls-2" d="M278.72,199.11c4.79,3.58,9.36,7.37,13.94,11.14s9.1,7.6,13.44,11.64l6.44,6.15c1.07,1,2.16,2.06,3.25,3.06l3.35,2.93a159.18,159.18,0,0,0,14.27,10.64c5,3.23,9.89,6.56,14.82,9.84s9.94,6.41,14.82,9.75c9.87,6.51,19.84,12.78,29.94,19.16h0a.21.21,0,0,1,.06.28.2.2,0,0,1-.24.08,148.57,148.57,0,0,1-16.42-7.17c-5.4-2.61-10.5-5.72-15.63-8.79q-3.76-2.43-7.44-5c-2.47-1.68-4.86-3.46-7.25-5.25s-4.81-3.53-7.1-5.44-4.58-3.83-6.87-5.74c-4.48-3.94-9.08-7.7-13.76-11.37q-3.57-2.68-7.19-5.3c-2.42-1.75-4.86-3.47-7.2-5.32s-4.63-3.75-6.82-5.77-4.4-4-6.53-6.1a149.68,149.68,0,0,1-12.15-13.14.19.19,0,0,1,0-.28A.2.2,0,0,1,278.72,199.11Z" transform="translate(-3 -3)"/><path class="cls-2" d="M331,74.31A119.75,119.75,0,0,0,292,72a108.52,108.52,0,0,0-67.44,33.86,120.16,120.16,0,0,0-21.43,32.64,87.91,87.91,0,0,1,17.54-36,95.7,95.7,0,0,1,70.95-35.61A88,88,0,0,1,331,74.31Z" transform="translate(-3 -3)"/><path class="cls-2" d="M323.35,96.54a96.43,96.43,0,0,0-29.77-1.16,84.86,84.86,0,0,0-51.16,25.69,96.9,96.9,0,0,0-16.86,24.56,65.12,65.12,0,0,1,12.94-27.95,72.4,72.4,0,0,1,54.71-27.45A65.27,65.27,0,0,1,323.35,96.54Z" transform="translate(-3 -3)"/><path class="cls-2" d="M284.7,526.47a119.88,119.88,0,0,0,39-.65,108.61,108.61,0,0,0,64.66-38.91,120.1,120.1,0,0,0,18.87-34.18A87.87,87.87,0,0,1,392.53,490a95.75,95.75,0,0,1-68,40.92A88.22,88.22,0,0,1,284.7,526.47Z" transform="translate(-3 -3)"/><path class="cls-2" d="M290.63,503.71a96.37,96.37,0,0,0,29.77-1.11,84.79,84.79,0,0,0,49.05-29.52,96.31,96.31,0,0,0,14.94-25.78,65,65,0,0,1-10.77,28.86,72.42,72.42,0,0,1-52.45,31.55A65.1,65.1,0,0,1,290.63,503.71Z" transform="translate(-3 -3)"/></svg>