<svg xmlns="http://www.w3.org/2000/svg" xmlns:xlink="http://www.w3.org/1999/xlink" viewBox="0 0 800 500"><defs><style>.cls-1{fill:#545454;}.cls-2{fill:#424242;}.cls-3{opacity:0.6;fill:url(#linear-gradient);}.cls-4{fill:#e9a502;}.cls-10,.cls-11,.cls-5,.cls-9{fill:#fff;}.cls-6{fill:#638919;}.cls-7{fill:#73a91d;}.cls-8{fill:#4bf7be;}.cls-9{opacity:0.7;}.cls-10{opacity:0.9;}.cls-11{opacity:0.8;}.cls-12,.cls-14{fill:#ffc145;}.cls-12{opacity:0.4;}.cls-13{fill:#cc8615;}.cls-15{fill:#8fc624;}</style><linearGradient id="linear-gradient" x1="597.11" y1="5.64" x2="597.11" y2="403.06" gradientUnits="userSpaceOnUse"><stop offset="0" stop-color="#fff" stop-opacity="0.7"/><stop offset="0.13" stop-color="#fff" stop-opacity="0.64"/><stop offset="0.38" stop-color="#fff" stop-opacity="0.48"/><stop offset="0.73" stop-color="#fff" stop-opacity="0.22"/><stop offset="1" stop-color="#fff" stop-opacity="0"/></linearGradient></defs><title>featured image</title><g id="Layer_10" data-name="Layer 10"><rect class="cls-1" width="800" height="500"/><polygon class="cls-2" points="0 388.6 800 188.96 800 500 0 500 0 388.6"/></g><g id="Layer_2" data-name="Layer 2"><g id="Layer_12" data-name="Layer 12"><polygon class="cls-3" points="528.17 0.4 401.22 429.32 793 434 665.89 0.4 528.17 0.4"/></g></g><g id="Layer_3" data-name="Layer 3"><path class="cls-4" d="M158.18,584.17s114.48,13.52,196.73,1.05c0,0,27.51-6.84,34.83-14.17,3.67-3.67,4.79-12.46,4.79-12.46L428,278.33a17.45,17.45,0,0,0-12.08-18.73c-18.91-6-60.68-14.87-144.45-16.69-87.79-1.91-138.58,4.31-161.93,8.44a17.47,17.47,0,0,0-14.38,18.73l24.25,277.39s.06,30.62,17.41,33.19S158.18,584.17,158.18,584.17Z"/><path class="cls-5" d="M443,215.77a1.63,1.63,0,0,0-.76-1.15,6.63,6.63,0,0,0-1.24-.71,20.92,20.92,0,0,0-2.68-1c-1.83-.54-3.7-1-5.57-1.32-3.74-.73-7.52-1.27-11.31-1.75-7.57-1-15.17-1.64-22.77-2.23-15.22-1.16-30.47-1.79-45.72-2.31-30.51-.9-61-.93-91.53-.55s-61,1.34-91.44,2.91c-15.22.73-30.42,1.69-45.57,3-7.57.63-15.13,1.36-22.61,2.34-3.74.5-7.47,1-11.09,1.78-1.81.36-3.6.77-5.26,1.27a18.22,18.22,0,0,0-2.23.82,3.79,3.79,0,0,0-.61.34s-.06,0,0,0a.41.41,0,0,0,.12-.14,1.5,1.5,0,0,0,.25-.45,1.91,1.91,0,0,0,.15-.84,1.86,1.86,0,0,0-.15-.83,1.36,1.36,0,0,0-.25-.46.36.36,0,0,0-.11-.14c-.06,0,0,0,0,0a5.09,5.09,0,0,0,.61.34,18.22,18.22,0,0,0,2.23.82c1.67.5,3.45.91,5.26,1.27,3.62.73,7.35,1.28,11.09,1.78,7.48,1,15,1.71,22.61,2.34q22.72,1.89,45.57,3,45.66,2.32,91.44,2.9c30.5.38,61,.36,91.53-.53,15.25-.52,30.5-1.16,45.72-2.31,7.6-.59,15.2-1.28,22.77-2.23,3.79-.49,7.57-1,11.31-1.76,1.87-.36,3.74-.78,5.57-1.31a20.92,20.92,0,0,0,2.68-1,6.68,6.68,0,0,0,1.24-.72A1.59,1.59,0,0,0,443,215.77Zm0,0a1.6,1.6,0,0,1-.76,1.16,6.33,6.33,0,0,1-1.23.73,23.27,23.27,0,0,1-2.68,1c-1.83.55-3.7,1-5.57,1.35-3.74.74-7.52,1.3-11.3,1.81-7.57,1-15.17,1.72-22.77,2.36q-22.82,1.91-45.7,3-45.75,2.34-91.57,2.91c-30.55.38-61.11.36-91.67-.54-15.28-.53-30.56-1.16-45.85-2.32-7.64-.6-15.28-1.3-22.93-2.26-3.83-.49-7.66-1-11.53-1.78-1.93-.38-3.87-.81-5.87-1.39a25.76,25.76,0,0,1-3.13-1.15,9.92,9.92,0,0,1-1.86-1.1c-.18-.16-.33-.25-.54-.46s-.41-.44-.6-.68a6.12,6.12,0,0,1-.59-1.07,5.13,5.13,0,0,1-.29-1.54,5.07,5.07,0,0,1,.29-1.53,6,6,0,0,1,.6-1.08c.18-.23.38-.45.59-.67s.36-.3.55-.46a10,10,0,0,1,1.85-1.09,24.18,24.18,0,0,1,3.13-1.15c2-.59,3.94-1,5.88-1.39,3.86-.76,7.69-1.3,11.52-1.79,7.65-1,15.29-1.66,22.94-2.25,15.28-1.15,30.56-1.8,45.84-2.31,30.57-.89,61.12-.93,91.67-.55s61.07,1.35,91.57,2.9q22.88,1.11,45.7,3c7.6.63,15.2,1.37,22.77,2.36,3.78.5,7.56,1.06,11.3,1.81,1.87.38,3.74.8,5.57,1.35a21.54,21.54,0,0,1,2.68,1,6.33,6.33,0,0,1,1.23.73A1.58,1.58,0,0,1,443,215.77Z"/><path class="cls-5" d="M368.77,231.09q9.38-.42,18.72-1c6.24-.41,12.47-.82,18.69-1.35s12.44-1.12,18.61-1.93c3.09-.41,6.17-.87,9.2-1.47,1.51-.3,3-.63,4.47-1a18.66,18.66,0,0,0,2.11-.72,5.32,5.32,0,0,0,1.62-.93l2-2.06-.13,2.87c-.65,15.3-1.51,30.58-2.25,45.87l-1.16,22.93-1.25,22.93q-1.25,22.93-2.63,45.85T434,406.84q-1.51,22.92-3.22,45.82l-3.39,45.8q-3.48,45.8-6.23,91.63V590a59.32,59.32,0,0,1-.94,12.82,45.31,45.31,0,0,1-1.62,6.26,41.33,41.33,0,0,1-2.59,5.95,33.77,33.77,0,0,1-8.23,10,30.24,30.24,0,0,1-11.6,6h.06a317.31,317.31,0,0,1-38.82,8c-13.07,1.9-26.22,3.21-39.39,4.16s-26.36,1.47-39.56,1.72-26.39.14-39.58-.16c-26.39-.6-52.74-2.17-79-4.56-3.28-.31-6.57-.63-9.86-1s-6.7-1-10-1.67a104,104,0,0,1-19.38-5.82,55.65,55.65,0,0,1-17.45-11,34.26,34.26,0,0,1-6.46-8.54,26.56,26.56,0,0,1-2-5.09,20.9,20.9,0,0,1-.61-2.74c-.07-.47-.13-1-.17-1.43l0-.75c0-.28,0-.48,0-.89v.31l-2.12-46.12-2-46.13c-1.36-30.74-2.49-61.5-3.72-92.26l-1.8-46.13-1.63-46.14L81,278.64l-1.42-46.15.53,0,2.77,46.09,2.62,46.1L88,370.75l2.39,46.1c1.56,30.74,3.23,61.47,4.66,92.22l2.21,46.11,2.07,46.13V602l0,.49c0,.33.07.67.12,1a17.28,17.28,0,0,0,.47,2.08,20.93,20.93,0,0,0,1.61,4.06,28.74,28.74,0,0,0,5.37,7.18,50.23,50.23,0,0,0,15.7,10A99,99,0,0,0,141,632.44c3.16.66,6.34,1.26,9.47,1.66s6.52.71,9.79,1c26.15,2.57,52.41,4.26,78.67,5.22q19.71.69,39.42.64c13.15,0,26.29-.31,39.41-1S344,638.21,357,636.51a305.09,305.09,0,0,0,38.65-7.32h0l.06,0A24.73,24.73,0,0,0,401.4,627a30.76,30.76,0,0,0,5.14-3.37,31.89,31.89,0,0,0,7.84-9.44,38.62,38.62,0,0,0,2.5-5.66,44.73,44.73,0,0,0,1.6-6,58.39,58.39,0,0,0,1-12.46V590q3-45.82,5.11-91.71l2.29-45.86q1.09-22.95,2.45-45.86t2.86-45.84q1.47-22.91,3-45.82l1.58-22.9,1.68-22.91c1.15-15.26,2.19-30.53,3.42-45.79l1.88.81a7,7,0,0,1-2.4,1.41,22,22,0,0,1-2.35.75c-1.55.42-3.11.73-4.66,1-3.12.54-6.23.94-9.35,1.29-6.24.69-12.48,1.17-18.73,1.57-12.49.8-25,1.23-37.49,1.48Z"/><path class="cls-6" d="M241.89,527.52c1.07-1,1.83-6.68,1.1-5.79s-1.14,0-1.14,0c1.74-1.11,1-10.24,1-10.24-.4,1.07-1.25.62-1.25.62l.31-1.78a12.9,12.9,0,0,0-1.82-6.85,9.45,9.45,0,0,0-.85-4.77c-1.11-1.91-.4-2.85-.4-2.85l-1.16.18s-.4,0-1.24-2.32-1.61-2.8-1.61-2.8-1.87-.71-1.6-1.87a2.6,2.6,0,0,0-.85-2.18l-2.44-2.09c-.32-1.7-.81-1.79-.81-1.79-1.06-.08-.35-1.2-.35-1.2.18-1.33-.67-.71-.67-.71.58-1.2-.76-2.15-.76-2.15s-2.67-1.59-3.83-1.1a18.05,18.05,0,0,1-4.58.44c-.63.89-3.25,1.94-3.25,1.94a4.15,4.15,0,0,0-3.65-.64l-1,1.78a1.67,1.67,0,0,1-2.14-.72c-3.69,2.23-3.2,4.32-3.2,4.32a1.47,1.47,0,0,0-1.43-1c-1.95,2-1.69,2.85-1.69,2.85-1.29.27-2.18-1.11-2.18-1.11-2.85,1.91-6.86,8.05-6.86,8.05-1,.37-1.5-1.46-1.5-1.46-.81-.37-1,.81-1,.81-.41.88-1,2-1,2a13.06,13.06,0,0,0-2.61,3.46c-1.55,2-.48,2.58-.48,2.58-.81.66-2.1-.34-2.1-.34-.88-.22-.81.48-.81.48-.48,2.1-3.2,7.4-3.2,7.4a6.23,6.23,0,0,0-.74,5.26c-1.51-1-1.25-2.06-1.25-2.06-1.07,1.25-1.47,5.89-1.47,5.89l-.41-.26c-.84,1.29,0,3.64,0,3.64a1,1,0,0,0-1.58-.51,2.31,2.31,0,0,0-.22,2s-.77-.08-.85,1a1.31,1.31,0,0,1-.84,1.25,12.66,12.66,0,0,0-2.14,6s-.11,4.38-.62,5-.38-.79-.38-.79c-1.77,6.08-.53,8.1-.53,8.1-.71.75-.9-.34-.9-.34-.53,3.18,1.43,3.27,1.68,5.27s-.22,2.46-.22,2.46a2.62,2.62,0,0,0,.35,3,5.22,5.22,0,0,0,.62,3.15,13.18,13.18,0,0,0,1.15,4.76c-.46.5-1.62-.9-1.62-.9.75,1.56,3.68,6.51,3.68,6.51a6.1,6.1,0,0,0,2,2.22c-.83.33,0,.85,0,.85.17.51,1.69,1.53,1.69,1.53l3.56,2.22s.52.36,3.22.29,3.06-1.24,5.06-2.48c1.65-1,2.17-.72,2.3-.58h.13s9.16-16.1,13.58-40.9q.81-4.51,1.37-9.38s1.82,20.26-11,53.34c.19-.33.37-.59.37-.59,1.38-.89,3.6,1.38,3.6,1.38,2.63,2.76,4.86,2.85,4.86,2.85,4.23.63,9.39-1.55,9.39-1.55a5.4,5.4,0,0,0,2.67-.36c4.55-2.09,3.48-3.43,3.48-3.43,7.61-4.1,7.3-6.32,7.3-6.32,3.34-2.5,3.52-5.35,3.52-5.35a13.46,13.46,0,0,0,4.76-7.65c2.81-4.06,1.38-5.75,1.38-5.75l.36-.49a6.42,6.42,0,0,0,1.6-2.45,16.56,16.56,0,0,0,1.38-6.94c-1.47,0-.71-.58-.71-.58,1.83-1.68,2-5.74,2-5.74-.66-.54,0-3.44,0-3.44C241.64,528.3,241.89,527.52,241.89,527.52Z"/><path class="cls-7" d="M173.23,520.13c.2-1-1.61-4.46-1.67-3.67s-.64.45-.64.45c.53-1.31-3.5-6.12-3.5-6.12.2.76-.45.84-.45.84l-.53-1.12a8.91,8.91,0,0,0-3.73-3.12,6.42,6.42,0,0,0-2.36-2.33c-1.38-.63-1.35-1.43-1.35-1.43l-.58.55s-.2.19-1.61-.8-2-.94-2-.94-1.32.34-1.63-.41a1.82,1.82,0,0,0-1.34-.89l-2.2-.2c-.84-.83-1.15-.68-1.15-.68-.63.37-.67-.53-.67-.53-.43-.82-.66-.14-.66-.14-.15-.9-1.27-.9-1.27-.9s-2.13.16-2.58.89a12.46,12.46,0,0,1-2.39,2.07,7.17,7.17,0,0,1-1,2.36,2.89,2.89,0,0,0-2.31,1.09l.13,1.4a1.14,1.14,0,0,1-1.47.45c-1.19,2.7-.09,3.68-.09,3.68a1,1,0,0,0-1.2,0c-.31,1.9.18,2.26.18,2.26a1.64,1.64,0,0,1-1.67.24c-.83,2.2-.65,7.23-.65,7.23-.43.61-1.42-.23-1.42-.23-.6.11-.22.83-.22.83.12.66.22,1.54.22,1.54a9.08,9.08,0,0,0-.09,3c-.08,1.72.75,1.63.75,1.63-.19.69-1.31.65-1.31.65-.58.22-.26.58-.26.58a36.56,36.56,0,0,1,1.13,5.41,4.29,4.29,0,0,0,1.67,3.24c-1.25,0-1.51-.66-1.51-.66-.11,1.12,1.5,3.88,1.5,3.88h-.33c0,1.06,1.46,2,1.46,2a.72.72,0,0,0-1.09.33,1.57,1.57,0,0,0,.66,1.2s-.46.27-.09.87a.93.93,0,0,1,0,1,8.61,8.61,0,0,0,1.19,4.22s1.67,2.49,1.63,3.05-.52-.3-.52-.3c1.4,4.11,2.9,4.75,2.9,4.75-.1.7-.64.16-.64.16,1,2,2.1,1.27,3,2.28s.85,1.47.85,1.47a1.82,1.82,0,0,0,1.39,1.56,3.59,3.59,0,0,0,1.6,1.51,8.9,8.9,0,0,0,2.52,2.21c-.06.47-1.26.14-1.26.14,1,.58,4.63,2.19,4.63,2.19a4.27,4.27,0,0,0,2,.45c-.34.52.34.48.34.48a4.56,4.56,0,0,0,1.55.18l2.86-.16s.44,0,1.92-1.11,1.22-1.9,1.85-3.39c.52-1.22.93-1.26,1.06-1.23l0,0,0,0s-1.23-12.64-8.57-28.27c-.89-1.89-1.86-3.83-2.94-5.79,0,0,9,10.62,15,34.19a4.69,4.69,0,0,1,0-.48c.42-1,2.56-.65,2.56-.65a5.47,5.47,0,0,0,3.85-.32,14.41,14.41,0,0,0,4.64-4.59,3.84,3.84,0,0,0,1.36-1.25c1.71-3,.59-3.3.59-3.3,2.64-5.3,1.58-6.42,1.58-6.42a5.44,5.44,0,0,0-.14-4.38,9.26,9.26,0,0,0-.36-6.17c0-3.38-1.5-3.76-1.5-3.76v-.42a4.38,4.38,0,0,0-.07-2,11.36,11.36,0,0,0-2-4.44c-.83.58-.63,0-.63,0,.36-1.66-1.15-4-1.15-4-.58,0-1.36-1.93-1.36-1.93C173.4,520.67,173.23,520.13,173.23,520.13Z"/><path class="cls-8" d="M406.44,166.42l-12.59,30.72c-.83,1-1.66,1.89-2.5,2.79a83.19,83.19,0,0,1-19.6,15.83c-6.7,3.8-13.28,5.93-19.19,6.16l12.6-30.75c5.9-.21,12.48-2.34,19.18-6.13A83.55,83.55,0,0,0,404,169.19C404.79,168.28,405.62,167.36,406.44,166.42Z"/><path class="cls-8" d="M431.63,104.94,419,135.69c-.82.94-1.65,1.87-2.49,2.77a83.71,83.71,0,0,1-19.6,15.85c-6.7,3.78-13.28,5.92-19.19,6.13l12.6-30.72c5.9-.23,12.48-2.36,19.18-6.16a83.19,83.19,0,0,0,19.6-15.83C430,106.83,430.8,105.9,431.63,104.94Z"/><path class="cls-8" d="M381.25,227.89l-12.59,30.73c-.82.94-1.66,1.88-2.49,2.77a83.55,83.55,0,0,1-19.61,15.85c-6.7,3.79-13.28,5.92-19.18,6.13L340,252.64c5.9-.21,12.49-2.35,19.18-6.13a83.55,83.55,0,0,0,19.61-15.85C379.6,229.76,380.43,228.83,381.25,227.89Z"/><path class="cls-8" d="M356.07,289.34l-12.6,30.75c-.82.94-1.65,1.87-2.49,2.77a83.55,83.55,0,0,1-19.61,15.85c-6.69,3.78-13.28,5.92-19.18,6.13l12.59-30.72c5.91-.23,12.49-2.36,19.19-6.16a83.19,83.19,0,0,0,19.6-15.83C354.41,291.23,355.24,290.3,356.07,289.34Z"/><path class="cls-8" d="M330.88,350.82l-12.59,30.72c-.83,1-1.66,1.89-2.5,2.79a83.85,83.85,0,0,1-19.61,15.85c-6.69,3.78-13.27,5.91-19.18,6.13l12.59-30.72c5.91-.23,12.49-2.36,19.19-6.16a83.24,83.24,0,0,0,19.61-15.84C329.22,352.7,330.05,351.76,330.88,350.82Z"/><path class="cls-8" d="M305.69,412.29,293.1,443c-.83.95-1.66,1.89-2.5,2.79A83.39,83.39,0,0,1,271,461.63c-6.7,3.8-13.28,5.93-19.19,6.16L264.41,437c5.9-.21,12.48-2.35,19.18-6.13a83.55,83.55,0,0,0,19.61-15.85C304,414.15,304.86,413.23,305.69,412.29Z"/><path class="cls-8" d="M280.5,473.76l-12.59,30.73c-.83.94-1.66,1.86-2.5,2.77-12.6,13.55-27,21.55-38.78,22l12.59-30.73c5.91-.22,12.48-2.35,19.18-6.13A83.8,83.8,0,0,0,278,476.53C278.84,475.63,279.67,474.7,280.5,473.76Z"/><path class="cls-5" d="M419,135.69l-12.59,30.73c-.82.94-1.65,1.86-2.49,2.77A83.55,83.55,0,0,1,384.34,185c-6.7,3.79-13.28,5.92-19.18,6.13l12.59-30.73c5.91-.21,12.49-2.35,19.19-6.13a83.71,83.71,0,0,0,19.6-15.85C417.38,137.56,418.21,136.63,419,135.69Z"/><path class="cls-5" d="M450.49,58.92l-18.86,46c-.83,1-1.66,1.89-2.5,2.79a83.19,83.19,0,0,1-19.6,15.83c-6.7,3.8-13.28,5.93-19.18,6.16L423.83,48Z"/><path class="cls-5" d="M393.85,197.14l-12.6,30.75c-.82.94-1.65,1.87-2.49,2.77a83.55,83.55,0,0,1-19.61,15.85c-6.69,3.78-13.28,5.92-19.18,6.13l12.59-30.72c5.91-.23,12.49-2.36,19.19-6.16a83.19,83.19,0,0,0,19.6-15.83C392.19,199,393,198.1,393.85,197.14Z"/><path class="cls-5" d="M368.66,258.62l-12.59,30.72c-.83,1-1.66,1.89-2.5,2.79A83.19,83.19,0,0,1,334,308c-6.7,3.8-13.28,5.93-19.19,6.16l12.6-30.75c5.9-.21,12.48-2.34,19.18-6.13a83.55,83.55,0,0,0,19.61-15.85C367,260.5,367.84,259.56,368.66,258.62Z"/><path class="cls-5" d="M343.47,320.09l-12.59,30.73c-.83.94-1.66,1.88-2.49,2.77a83.24,83.24,0,0,1-19.61,15.84c-6.7,3.8-13.28,5.93-19.19,6.16l12.6-30.75c5.9-.21,12.49-2.35,19.18-6.13A83.55,83.55,0,0,0,341,322.86C341.82,322,342.65,321,343.47,320.09Z"/><path class="cls-5" d="M318.29,381.54l-12.6,30.75c-.83.94-1.66,1.86-2.49,2.77a83.55,83.55,0,0,1-19.61,15.85c-6.7,3.78-13.28,5.92-19.18,6.13L277,406.31c5.91-.22,12.49-2.35,19.18-6.13a83.85,83.85,0,0,0,19.61-15.85C316.63,383.43,317.46,382.5,318.29,381.54Z"/><path class="cls-5" d="M293.1,443l-12.6,30.75c-.83.94-1.66,1.87-2.49,2.77a83.8,83.8,0,0,1-19.61,15.85c-6.7,3.78-13.27,5.91-19.18,6.13l12.59-30.72c5.91-.23,12.49-2.36,19.19-6.16a83.39,83.39,0,0,0,19.6-15.83C291.44,444.9,292.27,444,293.1,443Z"/><path class="cls-5" d="M79.82,215.77a1.56,1.56,0,0,0,.79,1.11,7.47,7.47,0,0,0,1.25.66,21.71,21.71,0,0,0,2.7.86c1.84.46,3.72.79,5.59,1.08,3.76.6,7.54,1,11.33,1.37q11.37,1.05,22.79,1.6t22.83,1c7.62.24,15.23.52,22.85.69,15.24.31,30.48.66,45.72.76s30.48.29,45.73.23,30.48,0,45.73-.23,30.48-.46,45.71-.77c7.62-.17,15.24-.44,22.85-.69s15.23-.58,22.84-1,15.21-.9,22.79-1.6c3.78-.35,7.57-.77,11.32-1.36,1.88-.29,3.75-.63,5.59-1.08a22.33,22.33,0,0,0,2.7-.86,7.1,7.1,0,0,0,1.25-.66,1.58,1.58,0,0,0,.8-1.11,1.65,1.65,0,0,1-.72,1.21,7.43,7.43,0,0,1-1.22.78,21.46,21.46,0,0,1-2.67,1.11c-1.82.63-3.67,1.13-5.54,1.58-3.73.88-7.5,1.57-11.28,2.2-7.56,1.24-15.16,2.15-22.76,3-15.22,1.59-30.47,2.75-45.74,3.6s-30.54,1.4-45.81,1.86-30.56.52-45.84.58-30.56-.21-45.84-.59-30.56-.94-45.82-1.86-30.51-2-45.73-3.6c-7.6-.85-15.2-1.75-22.76-3-3.78-.63-7.55-1.31-11.29-2.19-1.86-.46-3.72-1-5.54-1.58a22,22,0,0,1-2.66-1.11,7,7,0,0,1-1.22-.78A1.62,1.62,0,0,1,79.82,215.77Z"/><path class="cls-6" d="M395.48,512c1.44-1.38,2.46-9,1.48-7.8s-1.54,0-1.54,0c2.34-1.51,1.32-13.82,1.32-13.82-.54,1.45-1.68.85-1.68.85l.42-2.41c.36-4.74-2.46-9.24-2.46-9.24s.36-3.85-1.14-6.43-.54-3.84-.54-3.84l-1.56.24s-.55.06-1.69-3.12-2.16-3.79-2.16-3.79-2.52-1-2.16-2.52-1.14-2.94-1.14-2.94l-3.3-2.82c-.42-2.29-1.08-2.41-1.08-2.41-1.44-.12-.48-1.62-.48-1.62.24-1.8-.9-1-.9-1,.78-1.62-1-2.9-1-2.9s-3.6-2.14-5.16-1.48-6.18.6-6.18.6c-.85,1.2-4.38,2.61-4.38,2.61-2-1.77-4.93-.87-4.93-.87l-1.38,2.4a2.26,2.26,0,0,1-2.89-1c-5,3-4.32,5.83-4.32,5.83a2,2,0,0,0-1.92-1.38c-2.64,2.7-2.28,3.84-2.28,3.84-1.74.36-2.94-1.5-2.94-1.5-3.85,2.58-9.25,10.87-9.25,10.87-1.39.49-2-2-2-2-1.09-.5-1.29,1.09-1.29,1.09-.54,1.19-1.39,2.73-1.39,2.73a17.8,17.8,0,0,0-3.52,4.66c-2.08,2.68-.64,3.48-.64,3.48-1.1.89-2.83-.45-2.83-.45-1.19-.3-1.1.65-1.1.65-.64,2.82-4.31,10-4.31,10a8.39,8.39,0,0,0-1,7.1c-2-1.39-1.68-2.78-1.68-2.78-1.44,1.69-2,7.94-2,7.94l-.54-.35c-1.14,1.74.05,4.91.05,4.91a1.42,1.42,0,0,0-2.14-.69,3.15,3.15,0,0,0-.3,2.68s-1-.1-1.14,1.29a1.79,1.79,0,0,1-1.14,1.69,17,17,0,0,0-2.87,8.14s-.16,5.9-.85,6.74-.5-1.06-.5-1.06c-2.4,8.19-.72,10.92-.72,10.92-1,1-1.21-.46-1.21-.46-.72,4.29,1.93,4.41,2.26,7.1s-.29,3.32-.29,3.32a3.55,3.55,0,0,0,.46,4.08,7,7,0,0,0,.85,4.24,17.53,17.53,0,0,0,1.55,6.43c-.63.67-2.19-1.22-2.19-1.22,1,2.1,5,8.78,5,8.78a8.31,8.31,0,0,0,2.7,3c-1.13.45,0,1.16,0,1.16.22.67,2.28,2.06,2.28,2.06l4.8,3s.71.48,4.34.38,4.12-1.67,6.82-3.34c2.23-1.38,2.93-1,3.1-.78h.18s12.36-21.71,18.32-55.17q1.08-6.07,1.84-12.64s2.45,27.32-14.76,71.93c.25-.45.49-.79.49-.79,1.86-1.2,4.87,1.86,4.87,1.86,3.54,3.73,6.54,3.85,6.54,3.85,5.71.84,12.67-2.11,12.67-2.11a7.28,7.28,0,0,0,3.6-.48c6.13-2.82,4.69-4.62,4.69-4.62,10.27-5.52,9.85-8.53,9.85-8.53,4.5-3.36,4.74-7.2,4.74-7.2a18.22,18.22,0,0,0,6.42-10.33c3.79-5.46,1.87-7.75,1.87-7.75l.48-.66a8.66,8.66,0,0,0,2.16-3.3,22.31,22.31,0,0,0,1.86-9.37c-2,0-1-.78-1-.78,2.46-2.27,2.71-7.74,2.71-7.74-.89-.72,0-4.64,0-4.64C395.14,513.05,395.48,512,395.48,512Z"/><path class="cls-7" d="M294.36,482.56c-.4-1.95-6.31-6.88-5.81-5.41s-.82,1.3-.82,1.3c0-2.78-11-8.48-11-8.48.93,1.23-.19,1.87-.19,1.87l-1.81-1.64c-3.82-2.83-9.13-2.84-9.13-2.84s-3.06-2.36-6.05-2.46-3.54-1.59-3.54-1.59l-.63,1.45s-.23.48-3.53-.25-4.36-.18-4.36-.18-2.15,1.62-3.28.48-3.1-.6-3.1-.6L237,465.5c-2.15-.86-2.61-.37-2.61-.37-.87,1.16-1.63-.46-1.63-.46-1.39-1.16-1.29.25-1.29.25-.95-1.52-3-.68-3-.68s-3.73,1.9-4,3.58-2.79,5.55-2.79,5.55c.56,1.35-.13,5.1-.13,5.1-2.55.72-3.36,3.7-3.36,3.7l1.29,2.45a2.24,2.24,0,0,1-2.35,1.93c-.11,5.82,2.63,6.76,2.63,6.76a2,2,0,0,0-2.2.89c.88,3.68,2,4,2,4-.62,1.67-2.84,1.69-2.84,1.69.14,4.63,4.27,13.62,4.27,13.62-.33,1.43-2.76.66-2.76.66-1,.66.23,1.68.23,1.68.72,1.09,1.57,2.63,1.57,2.63a17.79,17.79,0,0,0,2.07,5.47c1.16,3.19,2.6,2.39,2.6,2.39.17,1.4-1.89,2.16-1.89,2.16-.89.85,0,1.27,0,1.27,2.05,2,6.14,9,6.14,9a8.41,8.41,0,0,0,5.48,4.62c-2.26,1-3.25-.05-3.25-.05.66,2.11,5.65,5.91,5.65,5.91l-.58.28c.86,1.89,4.18,2.57,4.18,2.57a1.42,1.42,0,0,0-1.72,1.44,3.12,3.12,0,0,0,2.11,1.68s-.64.83.48,1.65a1.8,1.8,0,0,1,.82,1.87,17,17,0,0,0,5.35,6.77s4.92,3.27,5.26,4.31-1.17-.14-1.17-.14c5.65,6.39,8.86,6.43,8.86,6.43.34,1.35-1,.78-1,.78,3.25,2.89,4.76.72,7.22,1.87s2.65,2,2.65,2a3.56,3.56,0,0,0,3.7,1.78,7,7,0,0,0,4,1.55,17.74,17.74,0,0,0,6.26,2.11c.24.89-2.19,1.2-2.19,1.2,2.31.27,10.06.49,10.06.49a8.3,8.3,0,0,0,4-.69c-.22,1.19,1,.61,1,.61.69.17,3-.83,3-.83l5.09-2.46s.79-.34,2.64-3.47.78-4.38.81-7.56c0-2.62.74-3,1-3a.36.36,0,0,0,0-.09s0,0,0-.07-11.78-22-36.91-44.9c-3-2.77-6.28-5.55-9.71-8.31,0,0,24.42,12.5,53,50.85-.25-.46-.41-.84-.41-.84,0-2.22,4.17-3.13,4.17-3.13,5-1,6.74-3.49,6.74-3.49,3.75-4.37,5-11.84,5-11.84a7.28,7.28,0,0,0,1.52-3.3c.88-6.69-1.42-6.43-1.42-6.43.8-11.63-2-12.87-2-12.87-.44-5.61-3.57-7.86-3.57-7.86a18.15,18.15,0,0,0-5.31-10.94c-2.61-6.12-5.56-5.71-5.56-5.71l-.3-.75a8.63,8.63,0,0,0-1.65-3.59,22.22,22.22,0,0,0-6.93-6.57c-1.06,1.67-1.17.39-1.17.39-.61-3.29-5.11-6.42-5.11-6.42-1.08.37-3.92-2.47-3.92-2.47C295.07,483.41,294.36,482.56,294.36,482.56Z"/><path class="cls-9" d="M119.48,296.46c-6.37,1.32-8.1,4.49-8.07,7.6,0,3.89,2.84,7.68,2.84,7.68,4.79,6.35,20.37,39.32,20.37,39.32a57.41,57.41,0,0,0,8,15.35s9,7.62,23.22.46,32.54-12.22,32.54-12.22c5.29-1.45,11.25-5.42,11.25-5.42,3-1.46,3.86-2.71,3.92-3.6a1.75,1.75,0,0,0-.66-1.44c-3.85-.82-3.18-2.62-3.18-2.62-.47-5-4.88-14.19-6.43-17.27a10.94,10.94,0,0,1-6.48,10.26s-18.59,3.84-25.92,8.66c0,0-8.39,6.51-11.57,3.44,0,0-2.05-.72-4-6.45,0,0-6.14-17.68-10.37-24.34a154.6,154.6,0,0,0-9.29-13.6c-3.2-4.26-1.79-7.8.23-10.18a68.84,68.84,0,0,1-8.11,2.71Z"/><path class="cls-9" d="M212.91,344.19c-3.85-.82-3.18-2.62-3.18-2.62-.57-6.09-7-18.32-7-18.32-10.12-17.65-19.57-40.33-19.57-40.33-3.12-8.11-6.54-8.67-6.54-8.67-2.89-2.07-15.43,4.92-15.43,4.92-19.85,12.4-33.4,15.63-33.4,15.63l-8.35,1.66c-6.37,1.32-8.1,4.49-8.07,7.6,0,3.89,2.84,7.68,2.84,7.68,4.79,6.35,20.37,39.32,20.37,39.32a57.41,57.41,0,0,0,8,15.35s9,7.62,23.22.46,32.54-12.22,32.54-12.22c5.29-1.45,11.25-5.42,11.25-5.42,3-1.46,3.86-2.71,3.92-3.6A1.75,1.75,0,0,0,212.91,344.19Z"/><path class="cls-10" d="M192.22,255.93s4.53-9.42,11-3.43a13.76,13.76,0,0,0-2.81-2.33c-5-2.94-17.16,3-17.16,3L154.52,266.7s-12.06,5.06-15.46,6.53-3.79,3.08-3.79,3.08c-1.87,2.45-9.13,7.84-9.13,7.84-18.16,13.45-14.73,19.91-14.73,19.91h0c0-3.11,1.7-6.28,8.07-7.6l8.35-1.66s13.55-3.23,33.4-15.63c0,0,12.54-7,15.43-4.92a2.68,2.68,0,0,1,.57.21,9.74,9.74,0,0,0,4.13-4.48C183.74,264.86,192.22,255.93,192.22,255.93Z"/><path class="cls-11" d="M183.2,282.92s9.45,22.68,19.57,40.33c0,0,6.39,12.23,7,18.32,0,0-.67,1.8,3.18,2.62a1.75,1.75,0,0,1,.66,1.44c1.91,0,4.09-6,4.09-6,3.14-8.8,15.64-20.78,15.64-20.78a5.5,5.5,0,0,0,1.8-5.81,51,51,0,0,0-5.37-9.23c-3.34-4.51-8.66-17.12-8.66-17.12l-10-22.73s-3.69-7.19-7.77-11.44c-6.51-6-11,3.43-11,3.43s-8.48,8.93-10.86,14.05a9.74,9.74,0,0,1-4.13,4.48C178.33,275,180.85,276.81,183.2,282.92Z"/><path class="cls-5" d="M124.85,297.5a1.54,1.54,0,0,0-.68,1.49c.4,2.83,2.16,11.75,9.15,18.28,7.61,7.11,12.94,21.59,13.89,24.27a1.49,1.49,0,0,1,0,.81,6.31,6.31,0,0,0,.64,4.44,1.53,1.53,0,0,0,2.68-1.46l-.05-.09c-1.39-2.88-2.06-5.76-2.7-10.78s-2.7-11.86-6.71-16.5a133.64,133.64,0,0,1-9.32-13.11,1.77,1.77,0,0,1-.15-.31c-.38-1.09-2.28-7.07.85-9.63S128,295.39,124.85,297.5Z"/><path class="cls-5" d="M155,302.58s-8,11.9-1.55,8.62l15.39-13.29s-3.19,5.91-6.95,9.23,2.66,2,2.66,2,8.15-2.56,12.36-8.78,2.28,1.94,2.28,1.94,6.17-7.36,2.85-10.79c0,0-1-2.71-5.5-3.05s3.07-6.5,3.07-6.5-2.13-7.19-10.5-2.65c-4.49,2.43-5.62,4-5.72,5A12.26,12.26,0,0,1,162.2,289Z"/><path class="cls-5" d="M199.89,258.85a15.57,15.57,0,0,0-.45,8.53,8.7,8.7,0,0,0,2.65,4.52,2.81,2.81,0,0,1,.73,3.28c-1,3,3.86,5.86,3.86,5.86s9.39,15.33,8.4,24a.45.45,0,0,0,.77.38c1.45-1.6,3.31-6.54-4-21a17.88,17.88,0,0,1-1.51-4.3c-.63-2.92-2.08-8.17-4.87-11.56a27,27,0,0,1-4.91-9.65A.37.37,0,0,0,199.89,258.85Z"/><path class="cls-5" d="M192.13,267.77c-.07,3.27-.08,6.76,1.72,9.49,1.19,1.82,3.05,3.07,4.7,4.48a28,28,0,0,1,9.68,21.95c-.53-3.38-2.24-6.44-3.92-9.42a23.56,23.56,0,0,0-3.66-5.31c-2.84-2.84-7.09-4.21-9.26-7.59a10.66,10.66,0,0,1-1.43-6.6,22.78,22.78,0,0,1,1.76-6.61Z"/><path class="cls-5" d="M198,307.48c1.62,1.93,1.92,4.67,3.35,6.74.91,1.31,2,2.5,2.92,3.81,3.75,5.31,4.6,12.24,8.31,17.58a.92.92,0,0,0,.66.5.89.89,0,0,0,.6-.35,8.21,8.21,0,0,0,2.07-7.28c-1-5-6.28-7.75-9.13-12-3.77-5.58-3-13.15-6.08-19.15a22.45,22.45,0,0,0-6.9-7.64,52.59,52.59,0,0,1-5.09-3.8,10,10,0,0,1-2.6-3.68.14.14,0,0,0-.27.06,27,27,0,0,0,5,12.71c1.55,2.1,3.41,4,4.84,6.16s2.52,3.07,2,5.63A1,1,0,0,0,198,307.48Z"/><path class="cls-5" d="M164.22,356c2.29-1.2,5.18-.32,7.52-1.44a26.36,26.36,0,0,0,6.31-4.44,8.62,8.62,0,0,1,3-2.07,7.63,7.63,0,0,1,2.78-.16l4.55.28a37.64,37.64,0,0,0,4.25.11c4.21-.21,8.23-1.81,12-3.68.34-.16.81-.31,1,0a6.79,6.79,0,0,1-2.58,1.52c-3.74,1.44-7.75,2-11.7,2.7a7.82,7.82,0,0,0-2,.55,8.84,8.84,0,0,0-1.51,1,79.31,79.31,0,0,1-7.43,4.82,22.41,22.41,0,0,1-4.34,2.2c-3.76,1.28-7.93.52-11.65-.91C164.49,356.44,164,356.1,164.22,356Z"/><path class="cls-9" d="M238.67,271.2c-4.27-2-6.64-.9-8,.92A11.17,11.17,0,0,0,229,277.8c0,5.75-5.16,31.6-5.16,31.6a41.39,41.39,0,0,0-2,12.36s2,8.32,13.27,10.29,24.15,7,24.15,7a33.7,33.7,0,0,0,8.86,1.71c2.39.46,3.41.1,3.83-.39a1.24,1.24,0,0,0,.23-1.12c-1.87-2.14-.7-2.9-.7-2.9,1.89-3.11,3.28-10.33,3.72-12.79a7.92,7.92,0,0,1-8.19,3.16s-12.44-5.8-18.77-6.17c0,0-7.67.16-8.2-3,0,0-.88-1.3.49-5.45,0,0,4.07-12.9,4.49-18.59a114.4,114.4,0,0,0,.49-11.9,5.41,5.41,0,0,1,4.52-5.81,49,49,0,0,1-5.87-1.93Z"/><path class="cls-9" d="M272.25,339.21c-1.87-2.14-.7-2.9-.7-2.9,2.29-3.77,3.86-13.63,3.86-13.63a306.8,306.8,0,0,1,6.06-31.84c1.69-6-.05-7.85-.05-7.85-.78-2.44-11.07-3.8-11.07-3.8-16.87-1.38-26.12-5.36-26.12-5.36l-5.56-2.63c-4.27-2-6.64-.9-8,.92A11.17,11.17,0,0,0,229,277.8c0,5.75-5.16,31.6-5.16,31.6a41.39,41.39,0,0,0-2,12.36s2,8.32,13.27,10.29,24.15,7,24.15,7a33.7,33.7,0,0,0,8.86,1.71c2.39.46,3.41.1,3.83-.39A1.24,1.24,0,0,0,272.25,339.21Z"/><path class="cls-10" d="M298.35,279.08s6.69-3.51,7.89,2.78a9.89,9.89,0,0,0-.63-2.56c-1.64-3.88-11.25-5.68-11.25-5.68l-22.52-4.56s-9.18-2.27-11.79-2.89-3.53.15-3.53.15c-2.14.61-8.68.61-8.68.61-16.33,0-17.14,5.19-17.14,5.19h0c1.33-1.82,3.7-2.91,8-.92l5.56,2.63s9.25,4,26.12,5.36c0,0,10.29,1.36,11.07,3.8a2.67,2.67,0,0,1,.24.37,7,7,0,0,0,4.33-.82C289.58,280.6,298.35,279.08,298.35,279.08Z"/><path class="cls-11" d="M281.47,290.84a306.8,306.8,0,0,0-6.06,31.84s-1.57,9.86-3.86,13.63c0,0-1.17.76.7,2.9a1.24,1.24,0,0,1-.23,1.12c1.09.84,5-1.73,5-1.73,5.62-3.75,18-5.3,18-5.3a4,4,0,0,0,3.56-2.6,37.66,37.66,0,0,0,.87-7.67c0-4.06,2.35-13.66,2.35-13.66l4-17.53a42.3,42.3,0,0,0,.43-10c-1.2-6.29-7.89-2.78-7.89-2.78s-8.77,1.52-12.36,3.46a7,7,0,0,1-4.33.82C282.07,284.14,282.74,286.29,281.47,290.84Z"/><path class="cls-5" d="M241.33,274.12a1.09,1.09,0,0,0-1,.56,23.16,23.16,0,0,0-2.59,14.56c1.35,7.41-1.81,18.11-2.42,20.07a1.06,1.06,0,0,1-.31.49,4.51,4.51,0,0,0-1.55,2.86,1.1,1.1,0,0,0,2.18.3v-.06a23.61,23.61,0,0,1,3.09-7.43c1.79-3.19,3.55-8,3.23-12.47a96.76,96.76,0,0,1,.25-11.62,1.11,1.11,0,0,1,.05-.25c.25-.79,1.73-5.08,4.65-5.22S244.09,274.27,241.33,274.12Z"/><path class="cls-5" d="M256.65,290.09s-9.78,3.45-4.62,4.33l14.66-1.06a28.69,28.69,0,0,1-8,2.35c-3.62.3.66,2.33.66,2.33s5.84,2,11,.24.49,2.11.49,2.11,6.75-1.6,6.3-5c0,0,.61-2-1.87-4.14s4.59-2.45,4.59-2.45,1.87-5.09-4.95-6.07c-3.65-.53-5-.1-5.46.41a9,9,0,0,1-2.73,2.19Z"/><path class="cls-5" d="M301.54,284.09a11.14,11.14,0,0,0-3.94,4.75,6.27,6.27,0,0,0-.42,3.77,2,2,0,0,1-1,2.22c-1.9,1.3-.29,5.06-.29,5.06s-1.17,12.95-5.47,17.52a.33.33,0,0,0,.29.55c1.53-.29,4.74-2.36,6.76-13.88a12.94,12.94,0,0,1,1-3.15c.9-2,2.32-5.63,2.16-8.81a19.64,19.64,0,0,1,1.32-7.71A.27.27,0,0,0,301.54,284.09Z"/><path class="cls-5" d="M293.19,285.91c-1.45,1.87-3,3.89-3.1,6.25a16.49,16.49,0,0,0,.8,4.63A20.3,20.3,0,0,1,287,313.7a21.25,21.25,0,0,0,1.79-7.16,17.36,17.36,0,0,0,.16-4.66c-.42-2.87-2.29-5.5-2.09-8.4a7.67,7.67,0,0,1,2-4.44,16.51,16.51,0,0,1,3.87-3.08Z"/><path class="cls-5" d="M279.44,311.47c.1,1.81-.9,3.53-1,5.35,0,1.15.08,2.31,0,3.47-.11,4.7-2.61,9.09-2.77,13.78a.69.69,0,0,0,.17.58.66.66,0,0,0,.5.06,6,6,0,0,0,4.34-3.33c1.53-3.34-.3-7.21-.13-10.88.22-4.87,3.93-8.93,4.73-13.73a16.1,16.1,0,0,0-.7-7.41,38.39,38.39,0,0,1-1.31-4.41,7.18,7.18,0,0,1,.08-3.26.1.1,0,0,0-.18-.07,19.37,19.37,0,0,0-2.57,9.54c0,1.88.26,3.77.14,5.66s.14,2.87-1.24,4.15A.72.72,0,0,0,279.44,311.47Z"/><path class="cls-5" d="M238.93,325c1.85.3,3.15,2.05,5,2.41a19.31,19.31,0,0,0,5.58.16,6.06,6.06,0,0,1,2.65.1,5.66,5.66,0,0,1,1.69,1.1l2.51,2.13a27.7,27.7,0,0,0,2.42,1.9,22.66,22.66,0,0,0,8.56,3.06c.27.05.6.16.62.44a5.08,5.08,0,0,1-2.15-.23,45.77,45.77,0,0,1-8-3.49,5.53,5.53,0,0,0-1.41-.56,6.36,6.36,0,0,0-1.31-.06,59.61,59.61,0,0,1-6.4-.41,16.94,16.94,0,0,1-3.46-.6c-2.73-.88-4.83-3.12-6.36-5.55C238.89,325.42,238.72,325,238.93,325Z"/><path class="cls-9" d="M371.25,256.16c4.43-4.42,7.9-4.14,10.38-2.46,3.1,2.08,4.67,6.34,4.67,6.34,2.57,7.21,20.84,37.16,20.84,37.16a55.59,55.59,0,0,1,8.09,14.57s1.35,11.29-11.91,18.91-27,19.69-27,19.69c-4,3.49-10.3,6.18-10.3,6.18-2.78,1.66-4.22,1.67-5,1.25a1.67,1.67,0,0,1-.8-1.3c1.37-3.52-.44-3.94-.44-3.94-3.78-3-8.82-11.43-10.48-14.3a10.52,10.52,0,0,0,11.68.22s12.92-12.91,20.66-16.26c0,0,9.67-3.29,8.89-7.48,0,0,.51-2-3.09-6.59,0,0-11-14.28-14.08-21.21a149.47,149.47,0,0,1-6-14.66c-1.72-4.82-5.32-5.56-8.3-5.2A67.05,67.05,0,0,0,365.5,262Z"/><path class="cls-9" d="M360.22,356.5c1.37-3.52-.44-3.94-.44-3.94-4.59-3.67-11-15.28-11-15.28-8.83-17.46-22.07-37.06-22.07-37.06-4.87-6.79-3.51-9.84-3.51-9.84-.13-3.42,12.11-9.8,12.11-9.8C355.74,271.18,365.5,262,365.5,262l5.75-5.84c4.43-4.42,7.9-4.14,10.38-2.46,3.1,2.08,4.67,6.34,4.67,6.34,2.57,7.21,20.84,37.16,20.84,37.16a55.59,55.59,0,0,1,8.09,14.57s1.35,11.29-11.91,18.91-27,19.69-27,19.69c-4,3.49-10.3,6.18-10.3,6.18-2.78,1.66-4.22,1.67-5,1.25A1.67,1.67,0,0,1,360.22,356.5Z"/><path class="cls-10" d="M300.2,293.2s-10-1.34-8.59,7.06a13.11,13.11,0,0,1-.39-3.48c.29-5.6,11.49-12.22,11.49-12.22l26.08-16s10.45-7,13.43-9,4.48-1.42,4.48-1.42c3-.21,11.13-3.19,11.13-3.19,20.42-7.49,23.8-1.32,23.8-1.32h0c-2.48-1.68-5.95-2-10.38,2.46L365.5,262s-9.76,9.18-30.23,18.58c0,0-12.24,6.38-12.11,9.8a2.43,2.43,0,0,0-.13.57,9.48,9.48,0,0,1-5.79.95C311.87,291.11,300.2,293.2,300.2,293.2Z"/><path class="cls-11" d="M326.67,300.22s13.24,19.6,22.07,37.06c0,0,6.45,11.61,11,15.28,0,0,1.81.42.44,3.94a1.67,1.67,0,0,0,.8,1.3c-1,1.55-7,.1-7,.1-8.73-2.13-25,1.58-25,1.58a5.29,5.29,0,0,1-5.63-1.62,49.57,49.57,0,0,1-4.58-9.2c-1.86-5.07-9.18-16-9.18-16l-13-20.1s-3.83-6.76-5.09-12.29c-1.37-8.4,8.59-7.06,8.59-7.06s11.67-2.09,17-1.3A9.48,9.48,0,0,0,323,291C322.87,292.11,323,295.1,326.67,300.22Z"/><path class="cls-5" d="M369.25,261a1.47,1.47,0,0,1,1.55.24c2.07,1.82,8.31,8,9.86,17,1.69,9.88,10.51,21.82,12.16,24a1.49,1.49,0,0,0,.62.47,6,6,0,0,1,3.24,2.87,1.47,1.47,0,0,1-2.59,1.37l0-.08c-1.58-2.64-3.54-4.7-7.23-7.88s-8.11-8.43-9.72-14.12a129.87,129.87,0,0,0-5.61-14.42,1.17,1.17,0,0,0-.17-.28c-.67-.88-4.48-5.58-8.19-4.42S365.87,262.47,369.25,261Z"/><path class="cls-5" d="M357.37,288s13.8-.14,7.74,3.32l-18.81,5.34s6.43.56,11.09-.71.23,3.22.23,3.22-6.37,5.2-13.6,5.29.36,2.86.36,2.86-9.18,1.07-10.17-3.41c0,0-1.67-2.22.45-6s-6.85-1-6.85-1-4.66-5.51,3.42-9.84c4.32-2.32,6.2-2.4,7-2a11.88,11.88,0,0,0,4.42,1.49Z"/><path class="cls-5" d="M298.5,300.91a14.93,14.93,0,0,1,7.09,4.15,8.4,8.4,0,0,1,2.24,4.52,2.69,2.69,0,0,0,2.25,2.33c3,.76,2.66,6.19,2.66,6.19s7.36,15.66,14.82,19.42a.44.44,0,0,1-.11.83c-2,.32-7-.8-14.77-14.29a17.33,17.33,0,0,0-2.66-3.49c-2-2.05-5.46-6-6.72-10a26.08,26.08,0,0,0-5.16-9.05A.36.36,0,0,1,298.5,300.91Z"/><path class="cls-5" d="M309.77,299.39c2.67,1.67,5.48,3.51,6.72,6.4.83,1.92.85,4.07,1.11,6.15a26.94,26.94,0,0,0,12.53,19.39c-2.43-2.22-4-5.21-5.5-8.13a23,23,0,0,1-2.33-5.76c-.78-3.78.36-7.92-1.21-11.45a10.24,10.24,0,0,0-4.54-4.64,22.45,22.45,0,0,0-6.25-2.09Z"/><path class="cls-5" d="M338.6,325.09c.7,2.31,2.74,4,3.65,6.25.57,1.42.95,2.93,1.51,4.36,2.29,5.82,7.41,10.17,9.75,16a.88.88,0,0,1,0,.79.85.85,0,0,1-.59.3,8,8,0,0,1-6.95-2.18c-3.43-3.47-2.91-9.16-4.79-13.67-2.49-6-9-9.38-12.17-15a21.45,21.45,0,0,1-2.49-9.58,51.62,51.62,0,0,0-.37-6.1,9.67,9.67,0,0,0-1.58-4c-.09-.12.08-.27.19-.18a25.86,25.86,0,0,1,7.56,10.75c.87,2.36,1.39,4.85,2.39,7.15s1.13,3.65,3.45,4.62A1,1,0,0,1,338.6,325.09Z"/><path class="cls-5" d="M395.43,323.59c-2.18,1.21-3,4-5.13,5.29a26.28,26.28,0,0,1-6.91,2.73,8.14,8.14,0,0,0-3.27,1.33,7.59,7.59,0,0,0-1.6,2.15l-2.18,3.81a34.59,34.59,0,0,1-2.16,3.47c-2.4,3.28-5.81,5.66-9.31,7.72-.31.19-.68.49-.57.84a6.57,6.57,0,0,0,2.58-1.27,60.69,60.69,0,0,0,8.36-8,7.41,7.41,0,0,1,1.52-1.33,7.77,7.77,0,0,1,1.6-.68,77.36,77.36,0,0,0,7.81-3.43,22,22,0,0,0,4.06-2.32c3-2.35,4.62-6.11,5.43-9.84C395.66,324.07,395.67,323.46,395.43,323.59Z"/><path class="cls-9" d="M317.38,338.8c2.61-.37,3.71.61,4.12,1.8a6.3,6.3,0,0,1,0,3.32C320.5,347,319,361.7,319,361.7a23,23,0,0,1-1,6.94s-2.41,4.14-8.8,3.34a85.37,85.37,0,0,0-14.08-.23,19.15,19.15,0,0,1-5-.53c-1.35-.15-1.84-.51-2-.84a.73.73,0,0,1,.06-.64c1.36-.84.86-1.44.86-1.44-.51-2-.07-6.07.1-7.46a4.43,4.43,0,0,0,3.87,3s7.62-1.06,11.07-.23c0,0,4.09,1.35,4.88-.26,0,0,.69-.55.64-3,0,0-.07-7.58.64-10.7a62,62,0,0,1,1.69-6.45,3,3,0,0,0-1.48-3.86,29.14,29.14,0,0,0,3.47-.07Z"/><path class="cls-9" d="M288.23,369.74c1.36-.84.86-1.44.86-1.44-.62-2.4.16-7.93.16-7.93a173.62,173.62,0,0,0,2-18.06c.09-3.52,1.32-4.2,1.32-4.2.82-1.18,6.55-.22,6.55-.22,9.27,2,14.88,1.41,14.88,1.41l3.41-.5c2.61-.37,3.71.61,4.12,1.8a6.3,6.3,0,0,1,0,3.32C320.5,347,319,361.7,319,361.7a23,23,0,0,1-1,6.94s-2.41,4.14-8.8,3.34a85.37,85.37,0,0,0-14.08-.23,19.15,19.15,0,0,1-5-.53c-1.35-.15-1.84-.51-2-.84A.73.73,0,0,1,288.23,369.74Z"/><path class="cls-10" d="M284.1,333.24s-3-3-4.68.19a6.09,6.09,0,0,1,.76-1.27c1.51-1.8,6.95-1.19,6.95-1.19L300,332.21s5.29.29,6.78.39,1.87.66,1.87.66a29.7,29.7,0,0,0,4.55,1.75c8.77,2.66,8.34,5.59,8.34,5.59h0c-.41-1.19-1.51-2.17-4.12-1.8l-3.41.5s-5.61.62-14.88-1.41c0,0-5.73-1-6.55.22a.76.76,0,0,0-.19.16,4,4,0,0,1-2.19-1.15C288.56,335.49,284.1,333.24,284.1,333.24Z"/><path class="cls-11" d="M291.22,342.31a173.62,173.62,0,0,1-2,18.06s-.78,5.53-.16,7.93c0,0,.5.6-.86,1.44a.73.73,0,0,0-.06.64c-.72.27-2.38-1.74-2.38-1.74-2.39-2.93-8.79-5.8-8.79-5.8a2.22,2.22,0,0,1-1.48-2,20.33,20.33,0,0,1,.79-4.26,50.06,50.06,0,0,0,1-7.71l.74-10a24,24,0,0,1,1.4-5.43c1.67-3.17,4.68-.19,4.68-.19s4.46,2.25,6.06,3.88a4,4,0,0,0,2.19,1.15C292,338.62,291.29,339.66,291.22,342.31Z"/><path class="cls-5" d="M315.47,339.93a.61.61,0,0,1,.47.47,13,13,0,0,1-1,8.22c-1.94,3.76-2,10-2,11.16a.56.56,0,0,0,.09.31,2.54,2.54,0,0,1,.36,1.79.62.62,0,0,1-1.22-.2v0a13.44,13.44,0,0,0-.44-4.48,13.33,13.33,0,0,1,.31-7.21,51.76,51.76,0,0,0,1.77-6.27.34.34,0,0,0,0-.14c0-.47-.09-3-1.64-3.56S314,339.56,315.47,339.93Z"/><path class="cls-5" d="M304.65,346s4.67,3.45,1.76,3.08l-7.68-3a16,16,0,0,0,3.91,2.57c1.89.76-.74,1.15-.74,1.15a10.62,10.62,0,0,1-5.91-1.67c-2.46-1.8-.61,1.05-.61,1.05s-3.36-2-2.55-3.73c0,0,0-1.17,1.68-1.91s-2.06-2.07-2.06-2.07-.17-3,3.65-2.44c2,.32,2.69.77,2.86,1.12a5,5,0,0,0,1.1,1.62Z"/><path class="cls-5" d="M281.57,335.4a6.25,6.25,0,0,1,1.34,3.19,3.45,3.45,0,0,1-.4,2.09,1.15,1.15,0,0,0,.17,1.35c.81,1-.67,2.76-.67,2.76s-1.5,7.13.05,10.29a.18.18,0,0,1-.24.25c-.77-.41-2.15-2.05-1.35-8.55a7.16,7.16,0,0,0,0-1.85,11.82,11.82,0,0,1,.29-5.07,11,11,0,0,0,.56-4.35A.15.15,0,0,1,281.57,335.4Z"/><path class="cls-5" d="M285.75,337.75a6.67,6.67,0,0,1,.64,3.85A9.28,9.28,0,0,1,285.2,344a11.35,11.35,0,0,0-.7,9.7,11.74,11.74,0,0,1,.21-4.13,9.57,9.57,0,0,1,.68-2.53c.69-1.47,2.13-2.57,2.49-4.15a4.27,4.27,0,0,0-.35-2.72,9.36,9.36,0,0,0-1.57-2.28Z"/><path class="cls-5" d="M288.93,353.7c-.35.95-.1,2-.36,3-.17.63-.42,1.23-.59,1.85-.71,2.54-.09,5.3-.78,7.85a.36.36,0,0,1-.19.27.3.3,0,0,1-.27-.05,3.32,3.32,0,0,1-1.78-2.49c-.28-2,1.34-3.82,1.85-5.81.68-2.64-.64-5.43-.28-8.14a9,9,0,0,1,1.59-3.85,21.44,21.44,0,0,0,1.42-2.14,4.12,4.12,0,0,0,.49-1.76c0-.07.1-.08.11,0A10.84,10.84,0,0,1,290,348c-.31,1-.76,2-1,3s-.54,1.51,0,2.42A.47.47,0,0,1,288.93,353.7Z"/><path class="cls-5" d="M308.42,367.6c-1-.14-2,.58-3.07.48a10.88,10.88,0,0,1-3-.84,3.55,3.55,0,0,0-1.44-.38,3.14,3.14,0,0,0-1.08.32l-1.7.73c-.53.22-1.06.45-1.61.62a12.63,12.63,0,0,1-5.09.23c-.15,0-.35,0-.4.14a2.81,2.81,0,0,0,1.19.23,25.38,25.38,0,0,0,4.83-.57,3.07,3.07,0,0,1,.85-.06,3,3,0,0,1,.72.18,32.14,32.14,0,0,0,3.49.82,9.3,9.3,0,0,0,1.95.25,7,7,0,0,0,4.33-1.93S308.53,367.62,308.42,367.6Z"/><path class="cls-9" d="M205.05,368.9c2.63-.06,3.6,1,3.87,2.27a6.24,6.24,0,0,1-.42,3.29c-1.32,2.94-4.49,17.37-4.49,17.37a23.19,23.19,0,0,1-1.79,6.79s-2.87,3.82-9.13,2.28a84.57,84.57,0,0,0-14-1.88,19.24,19.24,0,0,1-4.93-1.13c-1.33-.3-1.77-.72-1.88-1.06a.7.7,0,0,1,.13-.63c1.45-.67,1-1.33,1-1.33-.27-2,.65-6,1-7.4a4.44,4.44,0,0,0,3.49,3.47s7.68-.17,11,1.07c0,0,3.9,1.82,4.88.32,0,0,.74-.47,1-2.91,0,0,.82-7.54,1.89-10.55a64.49,64.49,0,0,1,2.44-6.21,3,3,0,0,0-1-4,28.61,28.61,0,0,0,3.45.33Z"/><path class="cls-9" d="M172.46,396.2c1.45-.67,1-1.33,1-1.33-.33-2.45,1.09-7.86,1.09-7.86a173.28,173.28,0,0,0,4.09-17.7c.49-3.48,1.79-4,1.79-4,1-1.08,6.54.54,6.54.54C196,369,201.6,369,201.6,369l3.45-.09c2.63-.06,3.6,1,3.87,2.27a6.24,6.24,0,0,1-.42,3.29c-1.32,2.94-4.49,17.37-4.49,17.37a23.19,23.19,0,0,1-1.79,6.79s-2.87,3.82-9.13,2.28a84.57,84.57,0,0,0-14-1.88,19.24,19.24,0,0,1-4.93-1.13c-1.33-.3-1.77-.72-1.88-1.06A.7.7,0,0,1,172.46,396.2Z"/><path class="cls-10" d="M172.65,359.46s-2.64-3.31-4.67-.35a5.37,5.37,0,0,1,.9-1.17c1.72-1.62,7.05-.37,7.05-.37l12.58,2.74s5.23.91,6.7,1.18,1.78.88,1.78.88a30.38,30.38,0,0,0,4.31,2.27c8.39,3.67,7.62,6.53,7.62,6.53h0c-.27-1.23-1.24-2.33-3.87-2.27l-3.45.09S196,369,187,365.84c0,0-5.58-1.62-6.54-.54a1.08,1.08,0,0,0-.2.13,4,4,0,0,1-2-1.4C176.81,362.23,172.65,359.46,172.65,359.46Z"/><path class="cls-11" d="M178.66,369.31a173.28,173.28,0,0,1-4.09,17.7s-1.42,5.41-1.09,7.86c0,0,.43.66-1,1.33a.7.7,0,0,0-.13.63c-.75.18-2.16-2-2.16-2-2-3.2-8-6.8-8-6.8a2.21,2.21,0,0,1-1.24-2.13,20.89,20.89,0,0,1,1.28-4.13,49.35,49.35,0,0,0,1.88-7.54l1.91-9.89a23.43,23.43,0,0,1,2-5.22c2-3,4.67.35,4.67.35s4.16,2.77,5.56,4.57a4,4,0,0,0,2,1.4C179.86,365.74,179,366.69,178.66,369.31Z"/><path class="cls-5" d="M203,369.79a.63.63,0,0,1,.4.53,13,13,0,0,1-2,8.05c-2.36,3.49-3.16,9.69-3.29,10.84a.7.7,0,0,0,.05.32,2.54,2.54,0,0,1,.15,1.82.62.62,0,0,1-1.19-.34v0a13.19,13.19,0,0,0,.1-4.5,13.34,13.34,0,0,1,1.16-7.13,55.42,55.42,0,0,0,2.49-6,.31.31,0,0,0,0-.13c.05-.47.26-3-1.2-3.73S201.57,369.25,203,369.79Z"/><path class="cls-5" d="M191.56,374.53s4.24,4,1.39,3.26l-7.28-3.85a16.08,16.08,0,0,0,3.58,3c1.78,1-.87,1.05-.87,1.05a10.69,10.69,0,0,1-5.68-2.35c-2.22-2.08-.72,1-.72,1s-3.1-2.35-2.1-4c0,0,.14-1.16,1.89-1.7s-1.8-2.3-1.8-2.3.19-3,3.91-2c2,.55,2.59,1.08,2.71,1.44a5.22,5.22,0,0,0,.91,1.75Z"/><path class="cls-5" d="M169.89,361.31a6.26,6.26,0,0,1,.94,3.33,3.51,3.51,0,0,1-.63,2,1.12,1.12,0,0,0,0,1.36c.68,1.1-1,2.66-1,2.66s-2.32,6.91-1.15,10.22a.18.18,0,0,1-.27.22c-.72-.49-1.9-2.28-.33-8.65a7.5,7.5,0,0,0,.2-1.83,12,12,0,0,1,.88-5,11.05,11.05,0,0,0,1.07-4.25A.15.15,0,0,1,169.89,361.31Z"/><path class="cls-5" d="M173.76,364.14a6.68,6.68,0,0,1,.18,3.9,9.3,9.3,0,0,1-1.46,2.19,11.37,11.37,0,0,0-1.83,9.55,11.7,11.7,0,0,1,.69-4.08,9.65,9.65,0,0,1,1-2.43c.87-1.37,2.42-2.3,3-3.83a4.35,4.35,0,0,0,0-2.74,9.58,9.58,0,0,0-1.29-2.45Z"/><path class="cls-5" d="M175,380.35c-.46.9-.33,2-.71,3-.24.6-.56,1.17-.81,1.77-1,2.44-.71,5.25-1.69,7.7a.29.29,0,0,1-.49.17,3.34,3.34,0,0,1-1.47-2.69c0-2.06,1.78-3.63,2.52-5.55,1-2.54,0-5.47.67-8.11a9.13,9.13,0,0,1,2-3.64,20.83,20.83,0,0,0,1.66-2,4,4,0,0,0,.7-1.69.06.06,0,0,1,.11,0,10.81,10.81,0,0,1-.84,5.47c-.42,1-1,1.88-1.35,2.87s-.72,1.44-.3,2.41A.42.42,0,0,1,175,380.35Z"/><path class="cls-5" d="M192.76,396.45c-1-.27-2.08.34-3.1.11a11.06,11.06,0,0,1-2.9-1.18,3.37,3.37,0,0,0-1.38-.55,3,3,0,0,0-1.11.19l-1.77.52a16.37,16.37,0,0,1-1.67.43,12.48,12.48,0,0,1-5.08-.37c-.15,0-.35-.05-.42.09a2.73,2.73,0,0,0,1.16.37,24.66,24.66,0,0,0,4.86,0,3.42,3.42,0,0,1,.85,0,3.38,3.38,0,0,1,.69.26,33.06,33.06,0,0,0,3.37,1.23,9.22,9.22,0,0,0,1.91.48,7,7,0,0,0,4.52-1.41S192.87,396.48,192.76,396.45Z"/><path class="cls-12" d="M95.34,265.47a17.23,17.23,0,0,0-.22,4.61l24.25,277.39s.06,30.62,17.41,33.19,21.4,3.51,21.4,3.51,114.48,13.52,196.73,1.05c0,0,27.51-6.84,34.83-14.17,3.67-3.67,4.79-12.46,4.79-12.46L428,278.33a17.35,17.35,0,0,0-.68-7.31c-13.7,15.22-162.65,15.86-162.65,15.86C113.81,286.38,96.63,271,95.34,265.47Z"/><path class="cls-4" d="M546.13,333.8s51,6,87.62.47c0,0,12.25-3,15.51-6.31,1.64-1.64,2.14-5.56,2.14-5.56l14.89-124.81a7.79,7.79,0,0,0-5.39-8.35c-8.42-2.66-27-6.62-64.33-7.43-39.1-.85-61.72,1.92-72.12,3.76a7.78,7.78,0,0,0-6.4,8.34l10.8,123.54s0,13.64,7.75,14.78S546.13,333.8,546.13,333.8Z"/><path class="cls-5" d="M673,169.72a.73.73,0,0,0-.34-.51,3,3,0,0,0-.55-.32,10.13,10.13,0,0,0-1.2-.44c-.81-.23-1.64-.42-2.48-.58-1.67-.32-3.35-.57-5-.78-3.38-.42-6.76-.73-10.15-1-6.78-.51-13.57-.79-20.36-1-13.59-.41-27.18-.42-40.77-.25s-27.17.6-40.72,1.3q-10.17.48-20.3,1.32c-3.37.28-6.74.61-10.07,1-1.66.22-3.32.47-4.94.8-.8.16-1.6.34-2.34.56a7.4,7.4,0,0,0-1,.37,1.25,1.25,0,0,0-.27.15s0,0,0-.06a.39.39,0,0,0,.11-.21.72.72,0,0,0,.07-.37.76.76,0,0,0-.06-.37.64.64,0,0,0-.11-.2c0-.06-.09-.09,0-.07a1.13,1.13,0,0,0,.27.16,7.45,7.45,0,0,0,1,.36c.74.22,1.54.41,2.34.57,1.62.32,3.28.57,4.94.79,3.33.44,6.7.76,10.07,1q10.13.84,20.3,1.32,20.34,1,40.72,1.3c13.59.17,27.18.15,40.77-.24,6.79-.23,13.58-.52,20.36-1,3.39-.26,6.77-.57,10.15-1,1.68-.22,3.36-.46,5-.78.84-.17,1.67-.35,2.48-.59a8.63,8.63,0,0,0,1.2-.44,3,3,0,0,0,.55-.31A.77.77,0,0,0,673,169.72Zm0,0a.77.77,0,0,1-.34.52,3,3,0,0,1-.55.32,8.63,8.63,0,0,1-1.2.44c-.81.25-1.64.43-2.47.6-1.67.34-3.35.59-5,.81-3.37.44-6.75.77-10.14,1.05-6.77.57-13.56,1-20.35,1.33q-20.39,1-40.79,1.29c-13.6.17-27.21.17-40.82-.24-6.81-.23-13.62-.51-20.42-1-3.41-.27-6.81-.58-10.22-1-1.7-.22-3.41-.46-5.13-.8-.86-.17-1.73-.36-2.62-.62a10.33,10.33,0,0,1-1.39-.51,4.8,4.8,0,0,1-.83-.49,2.93,2.93,0,0,1-.51-.5,3.24,3.24,0,0,1-.26-.49,2.41,2.41,0,0,1-.13-.68,2.56,2.56,0,0,1,.13-.68,2.48,2.48,0,0,1,.27-.48,2.92,2.92,0,0,1,.5-.5,4,4,0,0,1,.83-.49,10.44,10.44,0,0,1,1.4-.51c.89-.26,1.75-.45,2.61-.62,1.72-.34,3.43-.58,5.13-.8,3.41-.43,6.82-.74,10.22-1,6.81-.51,13.61-.8,20.42-1,13.61-.4,27.22-.41,40.82-.24s27.2.6,40.79,1.29q10.18.5,20.35,1.32c3.39.29,6.77.61,10.14,1.05,1.69.23,3.37.48,5,.81.83.17,1.66.36,2.47.6a10.13,10.13,0,0,1,1.2.44,3.81,3.81,0,0,1,.55.33A.73.73,0,0,1,673,169.72Z"/><path class="cls-13" d="M555.82,331.94a2.61,2.61,0,0,1,.86-.72,9.55,9.55,0,0,1,1-.49,18.13,18.13,0,0,1,2.15-.73c.72-.22,1.46-.4,2.19-.56s1.48-.32,2.22-.46c3-.54,6-.91,8.94-1.17,6-.54,12-.75,18-.8s12,.06,18,.48c3,.23,6,.49,9,.95,1.49.24,3,.53,4.43.9a17.07,17.07,0,0,1,2.17.69,6.87,6.87,0,0,1,1,.5c.28.22.69.46.67.86,0-.39-.45-.56-.74-.73a7.65,7.65,0,0,0-1.05-.36,19.43,19.43,0,0,0-2.17-.46c-1.47-.22-3-.36-4.44-.46-3-.24-5.95-.29-8.93-.38-6-.12-11.93-.1-17.9-.06-3,0-6,0-9,.1s-6,.15-8.94.27-5.95.29-8.91.6c-.74.07-1.48.13-2.22.24s-1.47.2-2.2.34a19.56,19.56,0,0,0-2.17.51,7.61,7.61,0,0,0-1,.35A2.46,2.46,0,0,0,555.82,331.94Z"/><path d="M539.53,324.05c8.32-2.85,17.15-3.77,25.87-4.53s17.53-.87,26.3-.74,17.53.56,26.29,1.12c4.37.33,8.75.64,13.1,1.18,2.18.28,4.35.59,6.51,1,1.08.2,2.15.43,3.22.7a9.85,9.85,0,0,1,3,1.2,9.84,9.84,0,0,0-3.05-1.14c-1.07-.24-2.14-.45-3.22-.63-2.16-.35-4.34-.62-6.52-.85-4.35-.48-8.72-.79-13.1-1.07-8.74-.5-17.51-.85-26.27-.94s-17.52,0-26.27.58c-4.36.33-8.73.74-13.06,1.37-2.16.33-4.33.66-6.47,1.1A47.93,47.93,0,0,0,539.53,324.05Z"/><path class="cls-5" d="M639.93,176.55q8.34-.39,16.66-1.06c2.77-.23,5.53-.5,8.29-.86,1.37-.18,2.74-.39,4.09-.65.68-.14,1.35-.29,2-.47a4.59,4.59,0,0,0,1.66-.74l.9-.85-.06,1.21-1,20.43c-.33,6.81-.68,13.62-1.09,20.43-.8,13.61-1.48,27.23-2.43,40.83S667,282,666,295.62c-.51,6.8-1,13.6-1.45,20.4s-.95,13.61-1.33,20.41v0a22,22,0,0,1-2.29,11.15,15.2,15.2,0,0,1-3.66,4.47,13.5,13.5,0,0,1-5.17,2.67h0c-11.38,3.11-23.12,4.53-34.83,5.39s-23.51,1-35.26.7-23.48-1-35.19-2l-4.4-.44c-1.51-.18-3-.45-4.45-.74a46.73,46.73,0,0,1-8.63-2.59,24.83,24.83,0,0,1-7.77-4.92,15.24,15.24,0,0,1-2.88-3.8,11.83,11.83,0,0,1-.91-2.27,9.42,9.42,0,0,1-.27-1.22,7,7,0,0,1-.09-1.37v.14l-1.82-41.08c-.63-13.69-1.12-27.39-1.67-41.09s-1.05-27.4-1.53-41.1-.89-27.4-1.33-41.1h.24c.81,13.68,1.67,27.36,2.4,41.05s1.52,27.38,2.2,41.07,1.45,27.38,2.06,41.07l1.92,41.08v.14a5.63,5.63,0,0,0,.07.82,7.77,7.77,0,0,0,.21.93,9.53,9.53,0,0,0,.72,1.8,12.5,12.5,0,0,0,2.39,3.2,22.39,22.39,0,0,0,7,4.46,43.27,43.27,0,0,0,8.18,2.51c1.41.3,2.83.57,4.22.75l4.36.46c11.65,1.14,23.34,1.89,35,2.32s23.42.44,35.11-.16c5.84-.31,11.67-.8,17.47-1.55a137.54,137.54,0,0,0,17.22-3.26h0a12.75,12.75,0,0,0,4.81-2.47,14,14,0,0,0,3.49-4.2,21.45,21.45,0,0,0,2.26-10.75v0h0c.47-6.8.8-13.61,1.2-20.42s.74-13.61,1.08-20.42c.69-13.62,1.29-27.25,2.13-40.85s1.74-27.22,2.62-40.83q.66-10.2,1.44-20.4l1.52-20.4.84.37a3.36,3.36,0,0,1-1.07.63,10.59,10.59,0,0,1-1,.33c-.69.18-1.38.32-2.08.45-1.38.24-2.77.42-4.16.57-2.78.31-5.56.52-8.34.7-5.56.36-11.13.55-16.7.66Z"/><path class="cls-14" d="M520.73,332.29a85.71,85.71,0,0,0,11.75,2.77c3.95.75,7.95,1.29,11.92,2,2,.38,4,.71,6,1.08s4,.66,6,.88a107.18,107.18,0,0,0,12.15.55l6.09-.1c2,0,4.05,0,6.08,0l6.07-.05h6.08c4,0,8.1.12,12.16.23s8.12.24,12.19.55v.26c-4,.52-8.1.91-12.16,1.21s-8.13.38-12.2.49A225.82,225.82,0,0,1,568.48,341c-4.05-.48-8.1-.82-12.15-1.12s-8.15-.3-12.22-.67c-1-.12-2-.22-3-.37s-2-.28-3-.5l-3-.59c-1-.2-2-.49-3-.73s-2-.51-3-.83-2-.6-2.92-1-1.92-.74-2.85-1.18a17.09,17.09,0,0,1-2.71-1.5Z"/><path class="cls-14" d="M629.3,338.7a17.56,17.56,0,0,1,3.6-1.31,16.94,16.94,0,0,1,3.67-.6c1.25,0,2.54.17,3.78,0a13,13,0,0,0,3.6-1c.59-.23,1.17-.49,1.75-.71s1.18-.39,1.77-.59c1.17-.38,2.33-.78,3.52-1.08a63.83,63.83,0,0,1,7.35-1.34l.11.23a18,18,0,0,1-6.71,3.75,24.76,24.76,0,0,1-3.71.8,21.79,21.79,0,0,1-3.79.32,16.15,16.15,0,0,0-3.75.42c-1.21.29-2.38.91-3.59,1.26a14.75,14.75,0,0,1-3.74.47,14,14,0,0,1-3.83-.41Z"/><path class="cls-14" d="M539.07,350.39c4.54.16,9,.45,13.56.74q3.39.21,6.76.47c2.26.13,4.5.34,6.75.57s4.5.5,6.74.76,4.51.45,6.77.59a130.5,130.5,0,0,0,13.56,0c4.52-.19,9-.5,13.54-.65,2.26-.1,4.51-.27,6.76-.4,1.12-.08,2.25-.13,3.38-.18l3.37-.23c9-.38,18-1.2,27.07-1.64l0,.26c-2.21.52-4.43,1-6.66,1.43l-3.35.65-3.37.51c-2.25.33-4.5.63-6.76.92s-4.53.4-6.79.6-4.53.32-6.81.35-4.54.14-6.81.15-4.54,0-6.81-.05-4.54-.21-6.8-.31l-6.8-.35c-2.26-.12-4.53-.14-6.79-.2s-4.54,0-6.81,0-4.54,0-6.81-.05c-4.54-.16-9.06-.61-13.56-1.19A120.19,120.19,0,0,1,539,350.65Z"/><path class="cls-14" d="M659.72,341.81a6.34,6.34,0,0,1-1.68,1,17.56,17.56,0,0,1-1.78.68,17.19,17.19,0,0,1-1.82.54c-.61.17-1.22.34-1.84.45l-1.84.37-1.85.27a27.65,27.65,0,0,1-3.73.34c-2.5.1-5-.14-7.49,0a66.32,66.32,0,0,0-7.42.73c-1.23.17-2.46.37-3.7.51s-2.48.23-3.72.33c-2.47.2-5,.36-7.44.4a95.6,95.6,0,0,1-14.9-.95v-.25a116.7,116.7,0,0,1,14.84-1.55c4.95-.11,9.89-.15,14.86.1a48.45,48.45,0,0,0,7.43-.16c2.46-.25,4.9-.85,7.33-1.27s4.9-.57,7.34-.82l3.66-.35c.61-.07,1.22-.13,1.82-.22a10.36,10.36,0,0,0,1.76-.34Z"/><path class="cls-14" d="M521.31,339.5c.74.14,1.26.32,1.89.48l1.8.5c.6.14,1.2.3,1.79.46s1.21.28,1.8.44,1.2.27,1.8.41,1.19.31,1.8.43c1.21.22,2.39.57,3.6.86a73.14,73.14,0,0,0,7.25,1.81c1.23.17,2.47.3,3.71.38s2.5,0,3.75,0,2.5-.07,3.74-.13,2.49-.05,3.73-.06c2.49-.06,5-.16,7.46-.15s5,0,7.47.09,5,.12,7.52.39l0,.26c-2.47.6-5,1-7.45,1.37s-5,.5-7.52.64a83.55,83.55,0,0,1-15.07-1c-1.25-.21-2.49-.38-3.74-.55s-2.48-.32-3.74-.42c-2.49-.26-5-.2-7.56-.55a34.41,34.41,0,0,1-7.37-1.89,30.15,30.15,0,0,1-3.5-1.53c-.57-.29-1.12-.62-1.67-.94s-1.1-.74-1.52-1.06Z"/><path class="cls-6" d="M583.42,308.57c.47-.46.81-3,.49-2.58s-.51,0-.51,0c.77-.5.43-4.56.43-4.56-.18.47-.55.28-.55.28l.14-.8a5.72,5.72,0,0,0-.82-3.05,4.19,4.19,0,0,0-.37-2.12c-.5-.86-.18-1.27-.18-1.27l-.52.08s-.18,0-.55-1-.72-1.25-.72-1.25-.83-.32-.71-.84a1.17,1.17,0,0,0-.38-1l-1.09-.93c-.14-.75-.36-.79-.36-.79-.47,0-.15-.54-.15-.54.08-.59-.3-.32-.3-.32.26-.53-.34-.95-.34-.95s-1.19-.71-1.7-.49a8.47,8.47,0,0,1-2.05.19,4.52,4.52,0,0,1-1.44.87,1.84,1.84,0,0,0-1.63-.29l-.46.79a.74.74,0,0,1-.95-.31c-1.64,1-1.43,1.92-1.43,1.92a.64.64,0,0,0-.63-.46c-.87.9-.75,1.27-.75,1.27a1.06,1.06,0,0,1-1-.49,17.15,17.15,0,0,0-3,3.59c-.46.16-.67-.66-.67-.66-.36-.16-.43.36-.43.36-.18.4-.46.9-.46.9a5.91,5.91,0,0,0-1.16,1.55c-.69.88-.21,1.14-.21,1.14-.36.3-.94-.15-.94-.15-.39-.09-.36.22-.36.22a23.46,23.46,0,0,1-1.42,3.29,2.79,2.79,0,0,0-.33,2.35c-.67-.46-.56-.92-.56-.92a7.37,7.37,0,0,0-.65,2.62l-.18-.11c-.38.57,0,1.62,0,1.62a.46.46,0,0,0-.7-.23,1,1,0,0,0-.1.88s-.35,0-.38.43a.59.59,0,0,1-.38.56,5.54,5.54,0,0,0-.94,2.68,8.61,8.61,0,0,1-.28,2.23c-.23.28-.17-.35-.17-.35-.79,2.71-.24,3.61-.24,3.61-.32.33-.4-.15-.4-.15-.23,1.41.64,1.45.75,2.34s-.1,1.1-.1,1.1a1.16,1.16,0,0,0,.16,1.34,2.34,2.34,0,0,0,.28,1.41,5.73,5.73,0,0,0,.51,2.12c-.21.22-.72-.4-.72-.4.33.69,1.63,2.89,1.63,2.89a2.73,2.73,0,0,0,.89,1c-.37.15,0,.39,0,.39.08.22.76.68.76.68l1.58,1a3.18,3.18,0,0,0,1.44.13c1.2,0,1.36-.55,2.25-1.1.73-.46,1-.32,1-.26h.06a62.28,62.28,0,0,0,6.05-18.22c.24-1.33.45-2.73.61-4.17,0,0,.81,9-4.88,23.75.09-.15.17-.26.17-.26.61-.39,1.6.62,1.6.62a3.56,3.56,0,0,0,2.17,1.27,9.45,9.45,0,0,0,4.18-.7,2.42,2.42,0,0,0,1.19-.16c2-.93,1.55-1.52,1.55-1.52,3.39-1.83,3.25-2.82,3.25-2.82a3.56,3.56,0,0,0,1.57-2.38A6,6,0,0,0,581,320c1.25-1.8.61-2.56.61-2.56l.16-.22a2.74,2.74,0,0,0,.71-1.09,7.28,7.28,0,0,0,.62-3.09c-.66,0-.32-.26-.32-.26a4.45,4.45,0,0,0,.9-2.56c-.3-.23,0-1.53,0-1.53C583.3,308.91,583.42,308.57,583.42,308.57Z"/><path class="cls-6" d="M560.74,328.31a1.15,1.15,0,0,0-.3.46A1.41,1.41,0,0,1,560.74,328.31Z"/><path class="cls-7" d="M568.08,305.6c-.16,1.44-.37,2.84-.61,4.17A62.28,62.28,0,0,1,561.42,328h-.06a1,1,0,0,0-.62.31,1.41,1.41,0,0,0-.3.46,2.61,2.61,0,0,0-.21,1c.19.48,1.82.56,1.82.56l.56.06s.59-.1.55-.39a.75.75,0,0,1,0-.53h0l0-.08C568.89,314.62,568.08,305.6,568.08,305.6Z"/><path class="cls-7" d="M552.84,305.28c.08-.45-.72-2-.75-1.64s-.28.2-.28.2c.23-.58-1.56-2.72-1.56-2.72a.26.26,0,0,1-.2.37l-.24-.5a4,4,0,0,0-1.66-1.39,2.9,2.9,0,0,0-1-1c-.62-.29-.6-.64-.6-.64l-.26.24s-.09.09-.72-.35-.89-.42-.89-.42-.59.15-.73-.19a.81.81,0,0,0-.6-.39l-1-.09c-.38-.37-.52-.3-.52-.3-.28.16-.3-.24-.3-.24-.19-.37-.29-.06-.29-.06-.07-.4-.57-.4-.57-.4s-.94.07-1.15.4a5.59,5.59,0,0,1-1.06.91,3.15,3.15,0,0,1-.47,1.06,1.27,1.27,0,0,0-1,.48l0,.63a.5.5,0,0,1-.65.19c-.53,1.21,0,1.65,0,1.65a.46.46,0,0,0-.54,0c-.13.85.08,1,.08,1a.74.74,0,0,1-.74.11,11.71,11.71,0,0,0-.29,3.21c-.19.27-.63-.1-.63-.1-.27.05-.1.37-.1.37,0,.29.1.69.1.69a3.93,3.93,0,0,0,0,1.32c0,.77.33.73.33.73-.08.3-.58.28-.58.28-.26.1-.12.27-.12.27a16.13,16.13,0,0,1,.51,2.4,1.93,1.93,0,0,0,.74,1.45c-.56,0-.68-.3-.68-.3a5.13,5.13,0,0,0,.67,1.73h-.14c0,.47.65.9.65.9a.32.32,0,0,0-.49.15.69.69,0,0,0,.3.53s-.21.12,0,.39a.4.4,0,0,1,0,.46,3.81,3.81,0,0,0,.54,1.88,5.83,5.83,0,0,1,.72,1.36c0,.25-.23-.13-.23-.13.62,1.82,1.29,2.11,1.29,2.11,0,.31-.28.07-.28.07.42.89.93.57,1.34,1s.38.65.38.65a.81.81,0,0,0,.62.7,1.58,1.58,0,0,0,.71.67,4.09,4.09,0,0,0,1.13,1c0,.2-.57.06-.57.06.46.25,2.06,1,2.06,1a1.87,1.87,0,0,0,.89.2c-.15.23.16.22.16.22a2.1,2.1,0,0,0,.69.08l1.27-.07s.2,0,.86-.5.54-.85.82-1.51.42-.56.47-.55h0a42.71,42.71,0,0,0-3.81-12.59c-.4-.85-.83-1.71-1.31-2.58,0,0,4,4.73,6.66,15.22,0-.11,0-.21,0-.21.18-.46,1.14-.29,1.14-.29a2.42,2.42,0,0,0,1.71-.14,6.39,6.39,0,0,0,2.07-2,1.68,1.68,0,0,0,.6-.56c.77-1.33.26-1.47.26-1.47,1.18-2.36.71-2.86.71-2.86a2.41,2.41,0,0,0-.06-1.95,4.15,4.15,0,0,0-.16-2.75c0-1.51-.67-1.68-.67-1.68v-.18a1.89,1.89,0,0,0,0-.89,5.05,5.05,0,0,0-.88-2c-.36.26-.28,0-.28,0a3,3,0,0,0-.51-1.78c-.25,0-.6-.86-.6-.86C552.91,305.52,552.84,305.28,552.84,305.28Z"/><path class="cls-7" d="M547.94,325.29a1,1,0,0,0,0,.38A1,1,0,0,1,547.94,325.29Z"/><path class="cls-15" d="M543.08,309.68c.48.87.91,1.73,1.31,2.58a42.71,42.71,0,0,1,3.81,12.59h0a.8.8,0,0,0-.23.42,1,1,0,0,0,0,.38,1.94,1.94,0,0,0,.26.62c.3.19,1.24-.41,1.24-.41l.34-.19s.29-.28.15-.43a.58.58,0,0,1-.2-.31h0v-.05C547.1,314.41,543.08,309.68,543.08,309.68Z"/><path class="cls-8" d="M656.7,147.74l-5.61,13.69c-.36.42-.73.83-1.11,1.24a37.36,37.36,0,0,1-8.73,7.05,19.23,19.23,0,0,1-8.54,2.74l5.61-13.69a19.23,19.23,0,0,0,8.54-2.74,36.91,36.91,0,0,0,8.73-7.06Q656.16,148.37,656.7,147.74Z"/><path class="cls-8" d="M667.92,120.36l-5.61,13.69c-.37.42-.74.84-1.11,1.24a37.16,37.16,0,0,1-8.73,7.06,19.25,19.25,0,0,1-8.54,2.73l5.6-13.69a19.14,19.14,0,0,0,8.55-2.74,36.85,36.85,0,0,0,8.73-7.05C667.18,121.2,667.55,120.79,667.92,120.36Z"/><path class="cls-8" d="M645.48,175.12l-5.6,13.68c-.37.42-.74.84-1.11,1.24A37.4,37.4,0,0,1,630,197.1a19.08,19.08,0,0,1-8.54,2.73l5.61-13.69a19.08,19.08,0,0,0,8.54-2.73,37.16,37.16,0,0,0,8.73-7.06Q644.94,175.75,645.48,175.12Z"/><path class="cls-8" d="M634.27,202.49l-5.61,13.69-1.11,1.24a37.09,37.09,0,0,1-8.74,7.05,19.23,19.23,0,0,1-8.54,2.74l5.61-13.69a19.31,19.31,0,0,0,8.55-2.74,37.27,37.27,0,0,0,8.72-7.05C633.53,203.33,633.9,202.92,634.27,202.49Z"/><path class="cls-8" d="M623.05,229.87l-5.61,13.68c-.37.43-.74.84-1.11,1.24a37.16,37.16,0,0,1-8.73,7.06,19.44,19.44,0,0,1-8.55,2.74l5.61-13.69a19.31,19.31,0,0,0,8.55-2.74,37.36,37.36,0,0,0,8.73-7.06C622.31,230.71,622.68,230.29,623.05,229.87Z"/><path class="cls-8" d="M611.83,257.25l-5.61,13.68c-.37.42-.74.84-1.11,1.24a37.1,37.1,0,0,1-8.73,7.05,19.31,19.31,0,0,1-8.55,2.74l5.61-13.69a19.25,19.25,0,0,0,8.55-2.73,37.36,37.36,0,0,0,8.73-7.06Z"/><path class="cls-8" d="M600.61,284.62,595,298.31q-.54.63-1.11,1.23c-5.61,6-12,9.6-17.27,9.8l5.6-13.69a19.33,19.33,0,0,0,8.55-2.73,37.41,37.41,0,0,0,8.73-7.06C599.87,285.46,600.24,285,600.61,284.62Z"/><path class="cls-5" d="M662.31,134.05l-5.61,13.69q-.54.63-1.11,1.23a36.91,36.91,0,0,1-8.73,7.06,19.23,19.23,0,0,1-8.54,2.74l5.61-13.69a19.25,19.25,0,0,0,8.54-2.73,37.16,37.16,0,0,0,8.73-7.06C661.57,134.89,661.94,134.47,662.31,134.05Z"/><path class="cls-5" d="M676.32,99.87l-8.4,20.49c-.37.43-.74.84-1.11,1.24a36.85,36.85,0,0,1-8.73,7.05,19.14,19.14,0,0,1-8.55,2.74L664.45,95Z"/><path class="cls-5" d="M651.09,161.43l-5.61,13.69q-.54.63-1.11,1.23a37.16,37.16,0,0,1-8.73,7.06,19.08,19.08,0,0,1-8.54,2.73l5.61-13.68a19.23,19.23,0,0,0,8.54-2.74,37.36,37.36,0,0,0,8.73-7.05C650.36,162.26,650.73,161.85,651.09,161.43Z"/><path class="cls-5" d="M639.88,188.8l-5.61,13.69c-.37.43-.74.84-1.12,1.24a37.27,37.27,0,0,1-8.72,7.05,19.31,19.31,0,0,1-8.55,2.74l5.61-13.69A19.08,19.08,0,0,0,630,197.1a37.4,37.4,0,0,0,8.74-7.06C639.14,189.64,639.51,189.22,639.88,188.8Z"/><path class="cls-5" d="M628.66,216.18l-5.61,13.69c-.37.42-.74.84-1.11,1.23a37.36,37.36,0,0,1-8.73,7.06,19.31,19.31,0,0,1-8.55,2.74l5.61-13.69a19.23,19.23,0,0,0,8.54-2.74,37.09,37.09,0,0,0,8.74-7.05Z"/><path class="cls-5" d="M617.44,243.55l-5.61,13.7-1.11,1.23a37.36,37.36,0,0,1-8.73,7.06,19.25,19.25,0,0,1-8.55,2.73l5.61-13.68a19.44,19.44,0,0,0,8.55-2.74,37.16,37.16,0,0,0,8.73-7.06C616.7,244.39,617.07,244,617.44,243.55Z"/><path class="cls-5" d="M595,298.31,580.75,333.1l-11.88-4.87,7.75-18.89c5.23-.2,11.66-3.76,17.27-9.8Q594.46,298.94,595,298.31Z"/><path class="cls-5" d="M606.22,270.93l-5.61,13.69c-.37.42-.74.84-1.11,1.24a37.41,37.41,0,0,1-8.73,7.06,19.33,19.33,0,0,1-8.55,2.73L587.83,282a19.31,19.31,0,0,0,8.55-2.74,37.1,37.1,0,0,0,8.73-7.05C605.48,271.77,605.85,271.35,606.22,270.93Z"/><path class="cls-5" d="M511.23,169.72a.7.7,0,0,0,.36.49,2.94,2.94,0,0,0,.55.3,10,10,0,0,0,1.21.38c.82.21,1.65.35,2.48.48,1.68.27,3.36.47,5,.63,3.37.32,6.76.53,10.15.7,6.77.36,13.56.57,20.34.75s13.58.29,20.37.34,13.57.13,20.36.1,13.58,0,20.37-.1,13.58-.21,20.36-.35,13.57-.38,20.35-.75c3.39-.16,6.77-.37,10.15-.69,1.69-.17,3.37-.36,5-.63.84-.13,1.67-.28,2.49-.48a9.32,9.32,0,0,0,1.2-.38,2.73,2.73,0,0,0,.56-.3.7.7,0,0,0,.36-.49.73.73,0,0,1-.33.54,2.78,2.78,0,0,1-.54.35,9.59,9.59,0,0,1-1.19.49c-.81.28-1.63.5-2.46.71-1.67.38-3.35.68-5,1-3.37.54-6.75,1-10.14,1.35-6.77.71-13.57,1.22-20.37,1.6s-13.6.63-20.4.83-13.61.24-20.42.26c-13.61,0-27.22-.31-40.82-1.09-6.8-.38-13.59-.89-20.37-1.6-3.38-.39-6.76-.81-10.13-1.35-1.69-.28-3.37-.58-5-1-.83-.2-1.66-.42-2.47-.7a10.12,10.12,0,0,1-1.18-.49,3.19,3.19,0,0,1-.55-.35A.75.75,0,0,1,511.23,169.72Z"/><path class="cls-6" d="M651.82,301.66c.64-.62,1.1-4,.66-3.48s-.69,0-.69,0c1.05-.67.59-6.15.59-6.15-.24.64-.75.37-.75.37l.19-1.07a7.77,7.77,0,0,0-1.1-4.12,5.67,5.67,0,0,0-.5-2.86c-.67-1.15-.24-1.71-.24-1.71l-.7.11s-.24,0-.75-1.39-1-1.69-1-1.69-1.12-.43-1-1.12a1.56,1.56,0,0,0-.51-1.31L644.63,276c-.19-1-.48-1.07-.48-1.07-.65-.05-.22-.72-.22-.72.11-.8-.4-.43-.4-.43.35-.72-.45-1.29-.45-1.29s-1.61-1-2.3-.66a11.23,11.23,0,0,1-2.76.27,6.25,6.25,0,0,1-1.95,1.16,2.49,2.49,0,0,0-2.19-.39l-.62,1.07a1,1,0,0,1-1.28-.42c-2.22,1.33-1.93,2.59-1.93,2.59a.88.88,0,0,0-.85-.62c-1.18,1.21-1,1.72-1,1.72-.78.16-1.31-.67-1.31-.67-1.71,1.15-4.12,4.84-4.12,4.84-.62.22-.91-.88-.91-.88-.48-.22-.57.48-.57.48-.24.53-.62,1.22-.62,1.22a7.72,7.72,0,0,0-1.57,2.08c-.93,1.19-.29,1.54-.29,1.54-.48.4-1.26-.2-1.26-.2-.53-.13-.48.29-.48.29a31.82,31.82,0,0,1-1.93,4.44,3.77,3.77,0,0,0-.44,3.16c-.9-.61-.75-1.23-.75-1.23-.64.75-.88,3.53-.88,3.53l-.25-.15c-.5.77,0,2.19,0,2.19a.63.63,0,0,0-1-.31,1.39,1.39,0,0,0-.14,1.19s-.46,0-.51.58a.8.8,0,0,1-.5.75,7.54,7.54,0,0,0-1.28,3.62,11.73,11.73,0,0,1-.38,3c-.31.37-.22-.48-.22-.48-1.07,3.65-.32,4.87-.32,4.87-.43.45-.55-.21-.55-.21-.31,1.91.87,2,1,3.17s-.13,1.47-.13,1.47a1.59,1.59,0,0,0,.21,1.82,3.13,3.13,0,0,0,.38,1.89,7.84,7.84,0,0,0,.69,2.86c-.28.3-1-.54-1-.54.45.94,2.21,3.91,2.21,3.91a3.67,3.67,0,0,0,1.2,1.33c-.5.2,0,.52,0,.52.1.3,1,.91,1,.91l2.14,1.34a4.28,4.28,0,0,0,1.93.17c1.62,0,1.84-.75,3-1.49,1-.62,1.3-.43,1.38-.35h.08a84.1,84.1,0,0,0,8.16-24.57c.32-1.8.6-3.68.82-5.63,0,0,1.09,12.17-6.58,32a3.55,3.55,0,0,1,.22-.35c.83-.54,2.17.83,2.17.83a4.84,4.84,0,0,0,2.91,1.71,12.73,12.73,0,0,0,5.65-.94,3.23,3.23,0,0,0,1.6-.21c2.73-1.26,2.09-2.06,2.09-2.06,4.57-2.46,4.38-3.8,4.38-3.8a4.81,4.81,0,0,0,2.12-3.21,8.1,8.1,0,0,0,2.86-4.6c1.68-2.43.83-3.45.83-3.45l.21-.29a3.85,3.85,0,0,0,1-1.47,9.84,9.84,0,0,0,.83-4.18c-.88,0-.43-.34-.43-.34,1.1-1,1.21-3.45,1.21-3.45-.39-.32,0-2.07,0-2.07C651.67,302.12,651.82,301.66,651.82,301.66Z"/><path class="cls-6" d="M621.23,328.28a1.88,1.88,0,0,0-.4.62A2.13,2.13,0,0,1,621.23,328.28Z"/><path class="cls-7" d="M631.14,297.65c-.22,2-.5,3.83-.82,5.63a84.1,84.1,0,0,1-8.16,24.57h-.08a1.49,1.49,0,0,0-.85.42,2.13,2.13,0,0,0-.4.62,3.88,3.88,0,0,0-.28,1.3c.25.64,2.46.75,2.46.75l.75.08s.8-.13.74-.52a1.19,1.19,0,0,1,0-.72h0l0-.1C632.23,309.82,631.14,297.65,631.14,297.65Z"/><path class="cls-7" d="M606.79,288.54c-.18-.87-2.81-3.06-2.59-2.41s-.37.58-.37.58c0-1.24-4.89-3.77-4.89-3.77a.52.52,0,0,1-.08.83l-.81-.73a7.79,7.79,0,0,0-4.07-1.27,5.55,5.55,0,0,0-2.69-1.09c-1.33-.05-1.58-.71-1.58-.71l-.28.64s-.1.22-1.57-.1a3.32,3.32,0,0,0-1.94-.09s-1,.72-1.46.22a1.56,1.56,0,0,0-1.38-.27l-1.85.57c-1-.38-1.16-.16-1.16-.16-.39.52-.73-.2-.73-.2-.62-.52-.57.11-.57.11-.43-.68-1.34-.31-1.34-.31s-1.66.85-1.78,1.6a11.31,11.31,0,0,1-1.25,2.47,6.1,6.1,0,0,1,0,2.27,2.48,2.48,0,0,0-1.5,1.65l.58,1.09a1,1,0,0,1-1,.86c0,2.59,1.17,3,1.17,3a.89.89,0,0,0-1,.4c.39,1.64.91,1.77.91,1.77-.28.74-1.27.75-1.27.75.06,2.06,1.9,6.07,1.9,6.07-.14.64-1.22.29-1.22.29-.45.3.1.75.1.75.32.49.7,1.17.7,1.17a7.88,7.88,0,0,0,.92,2.44c.52,1.42,1.16,1.07,1.16,1.07.07.62-.84.95-.84.95-.4.38,0,.57,0,.57a31.63,31.63,0,0,1,2.73,4,3.74,3.74,0,0,0,2.44,2.06c-1,.44-1.45,0-1.45,0,.3.94,2.52,2.63,2.52,2.63l-.26.13c.39.84,1.87,1.14,1.87,1.14a.63.63,0,0,0-.77.64,1.38,1.38,0,0,0,.94.75s-.29.37.21.74a.8.8,0,0,1,.37.83,7.54,7.54,0,0,0,2.38,3s2.19,1.46,2.34,1.93-.52-.07-.52-.07c2.52,2.85,3.95,2.86,3.95,2.86.15.61-.46.35-.46.35,1.44,1.29,2.12.32,3.21.84s1.18.89,1.18.89a1.58,1.58,0,0,0,1.65.8,3.1,3.1,0,0,0,1.8.69,7.83,7.83,0,0,0,2.79.94c.1.4-1,.53-1,.53,1,.12,4.48.22,4.48.22a3.69,3.69,0,0,0,1.77-.31c-.1.53.44.28.44.28a4.08,4.08,0,0,0,1.32-.37l2.26-1.1s.35-.15,1.18-1.55.35-1.94.36-3.36c0-1.17.33-1.33.44-1.35l0,0v0a83.81,83.81,0,0,0-16.43-20c-1.36-1.23-2.8-2.47-4.33-3.69,0,0,10.88,5.56,23.6,22.64a4.09,4.09,0,0,1-.18-.37c0-1,1.86-1.39,1.86-1.39a4.83,4.83,0,0,0,3-1.56,12.61,12.61,0,0,0,2.21-5.27,3.34,3.34,0,0,0,.68-1.47c.39-3-.63-2.87-.63-2.87.35-5.18-.88-5.73-.88-5.73a4.76,4.76,0,0,0-1.59-3.5,8.05,8.05,0,0,0-2.36-4.87c-1.16-2.73-2.48-2.54-2.48-2.54l-.13-.34a3.87,3.87,0,0,0-.73-1.6,10,10,0,0,0-3.09-2.93c-.47.75-.52.18-.52.18-.27-1.47-2.28-2.86-2.28-2.86-.48.16-1.75-1.1-1.75-1.1C607.1,288.92,606.79,288.54,606.79,288.54Z"/><path class="cls-7" d="M613,328.61a1.76,1.76,0,0,0,.31.68A2.33,2.33,0,0,1,613,328.61Z"/><path class="cls-15" d="M592.37,303.91c1.53,1.22,3,2.46,4.33,3.69a83.81,83.81,0,0,1,16.43,20v0l0,0a1.39,1.39,0,0,0-.1.93,2.33,2.33,0,0,0,.31.68,4,4,0,0,0,1,.93c.68.13,2-1.68,2-1.68l.47-.6s.31-.74,0-.9a1.13,1.13,0,0,1-.6-.41h0l-.06-.08C603.25,309.47,592.37,303.91,592.37,303.91Z"/><path class="cls-9" d="M528.9,205.66c-2.84.59-3.61,2-3.6,3.39a6.88,6.88,0,0,0,1.27,3.41c2.13,2.83,9.07,17.52,9.07,17.52a25.55,25.55,0,0,0,3.57,6.83s4,3.39,10.34.21a92.34,92.34,0,0,1,14.5-5.44,21.25,21.25,0,0,0,5-2.42c1.35-.65,1.72-1.21,1.74-1.6a.78.78,0,0,0-.29-.64c-1.72-.37-1.42-1.17-1.42-1.17-.21-2.23-2.17-6.32-2.86-7.69a4.87,4.87,0,0,1-2.89,4.57s-8.28,1.71-11.54,3.85c0,0-3.74,2.9-5.16,1.54,0,0-.91-.32-1.76-2.87,0,0-2.73-7.88-4.62-10.85a68.75,68.75,0,0,0-4.13-6.05,3.33,3.33,0,0,1,.1-4.54,29.89,29.89,0,0,1-3.62,1.21Z"/><path class="cls-9" d="M570.51,226.92c-1.72-.37-1.42-1.17-1.42-1.17-.25-2.71-3.1-8.16-3.1-8.16a191.26,191.26,0,0,1-8.72-18c-1.38-3.61-2.91-3.86-2.91-3.86-1.28-.92-6.87,2.19-6.87,2.19-8.84,5.52-14.88,7-14.88,7l-3.71.74c-2.84.59-3.61,2-3.6,3.39a6.88,6.88,0,0,0,1.27,3.41c2.13,2.83,9.07,17.52,9.07,17.52a25.55,25.55,0,0,0,3.57,6.83s4,3.39,10.34.21a92.34,92.34,0,0,1,14.5-5.44,21.25,21.25,0,0,0,5-2.42c1.35-.65,1.72-1.21,1.74-1.6A.78.78,0,0,0,570.51,226.92Z"/><path class="cls-10" d="M561.29,187.61s2-4.2,4.92-1.53a6.38,6.38,0,0,0-1.25-1c-2.24-1.31-7.64,1.34-7.64,1.34l-12.82,6s-5.37,2.26-6.88,2.91-1.69,1.38-1.69,1.38a33,33,0,0,1-4.07,3.49c-8.09,6-6.56,8.87-6.56,8.87h0c0-1.39.76-2.8,3.6-3.39l3.71-.74s6-1.44,14.88-7c0,0,5.59-3.11,6.87-2.19a.84.84,0,0,1,.26.09,4.37,4.37,0,0,0,1.84-2C557.52,191.59,561.29,187.61,561.29,187.61Z"/><path class="cls-11" d="M557.27,199.63a191.26,191.26,0,0,0,8.72,18s2.85,5.45,3.1,8.16c0,0-.3.8,1.42,1.17a.78.78,0,0,1,.29.64c.85,0,1.83-2.68,1.83-2.68,1.39-3.92,7-9.26,7-9.26a2.44,2.44,0,0,0,.8-2.59,23,23,0,0,0-2.39-4.11,55.16,55.16,0,0,1-3.86-7.62l-4.47-10.13a25.79,25.79,0,0,0-3.46-5.09c-2.9-2.67-4.92,1.53-4.92,1.53s-3.77,4-4.83,6.25a4.37,4.37,0,0,1-1.84,2C555.11,196.1,556.23,196.91,557.27,199.63Z"/><path class="cls-5" d="M531.29,206.12a.67.67,0,0,0-.3.66,14.21,14.21,0,0,0,4.07,8.15c3.39,3.17,5.77,9.61,6.19,10.81a.63.63,0,0,1,0,.36,2.79,2.79,0,0,0,.29,2,.68.68,0,0,0,1.19-.65l0,0a14.73,14.73,0,0,1-1.21-4.81,14.73,14.73,0,0,0-3-7.35,61.67,61.67,0,0,1-4.15-5.83.42.42,0,0,1-.06-.14c-.17-.49-1-3.15.37-4.29S532.7,205.18,531.29,206.12Z"/><path class="cls-5" d="M544.73,208.38s-3.56,5.31-.69,3.84l6.86-5.91a17.55,17.55,0,0,1-3.1,4.1c-1.68,1.48,1.19.91,1.19.91a11.64,11.64,0,0,0,5.5-3.91c1.88-2.77,1,.87,1,.87s2.75-3.28,1.27-4.81c0,0-.44-1.21-2.45-1.36s1.36-2.89,1.36-2.89S554.75,196,551,198c-2,1.08-2.51,1.79-2.55,2.21a5.4,5.4,0,0,1-.55,2.09Z"/><path class="cls-5" d="M564.71,188.91a6.9,6.9,0,0,0-.2,3.8,3.8,3.8,0,0,0,1.18,2,1.26,1.26,0,0,1,.33,1.46c-.47,1.34,1.71,2.61,1.71,2.61s4.19,6.83,3.75,10.67a.2.2,0,0,0,.34.17c.64-.71,1.47-2.91-1.77-9.35a8.18,8.18,0,0,1-.67-1.91,12.89,12.89,0,0,0-2.17-5.15,12.12,12.12,0,0,1-2.18-4.3A.17.17,0,0,0,564.71,188.91Z"/><path class="cls-5" d="M561.25,192.88a7.33,7.33,0,0,0,.77,4.23,10.4,10.4,0,0,0,2.09,2,12.5,12.5,0,0,1,4.32,9.78,13,13,0,0,0-1.75-4.2,10.68,10.68,0,0,0-1.63-2.36c-1.27-1.26-3.16-1.88-4.12-3.38a4.64,4.64,0,0,1-.64-2.94,10.14,10.14,0,0,1,.78-2.95Z"/><path class="cls-5" d="M563.86,210.57c.71.85.85,2.08,1.49,3,.4.58.88,1.11,1.3,1.69,1.67,2.37,2.05,5.46,3.7,7.84.07.1.16.22.29.22a.38.38,0,0,0,.27-.16,3.66,3.66,0,0,0,.92-3.24c-.47-2.21-2.8-3.45-4.06-5.33-1.68-2.48-1.35-5.85-2.72-8.52a9.84,9.84,0,0,0-3.07-3.41,23.73,23.73,0,0,1-2.26-1.69,4.36,4.36,0,0,1-1.16-1.64.06.06,0,0,0-.12,0,12,12,0,0,0,2.24,5.66c.69.93,1.51,1.77,2.15,2.74s1.12,1.37.91,2.51A.45.45,0,0,0,563.86,210.57Z"/><path class="cls-5" d="M548.82,232.16c1-.53,2.31-.14,3.35-.64a11.67,11.67,0,0,0,2.81-2,3.85,3.85,0,0,1,1.35-.93,3.44,3.44,0,0,1,1.24-.07l2,.13a17.27,17.27,0,0,0,1.9,0,13.75,13.75,0,0,0,5.35-1.63c.15-.08.36-.14.47,0a3.25,3.25,0,0,1-1.15.68A28.76,28.76,0,0,1,561,229a3.42,3.42,0,0,0-.9.24,4.45,4.45,0,0,0-.68.45,34.73,34.73,0,0,1-3.31,2.15,10.61,10.61,0,0,1-1.93,1,7.71,7.71,0,0,1-5.19-.41S548.71,232.22,548.82,232.16Z"/><path class="cls-9" d="M582,194.41c-1.9-.89-3-.4-3.55.41a5,5,0,0,0-.74,2.53c0,2.56-2.3,14.07-2.3,14.07a18.63,18.63,0,0,0-.87,5.51s.86,3.7,5.91,4.58a67.06,67.06,0,0,1,10.75,3.1,15.31,15.31,0,0,0,4,.76c1.06.21,1.52,0,1.7-.17a.54.54,0,0,0,.11-.5c-.84-.95-.32-1.29-.32-1.29a21.4,21.4,0,0,0,1.66-5.7,3.54,3.54,0,0,1-3.65,1.41s-5.54-2.58-8.35-2.75c0,0-3.42.07-3.66-1.33,0,0-.39-.58.22-2.43a56.3,56.3,0,0,0,2-8.28,51.87,51.87,0,0,0,.22-5.3,2.4,2.4,0,0,1,2-2.59,21,21,0,0,1-2.61-.86Z"/><path class="cls-9" d="M596.94,224.7c-.84-.95-.32-1.29-.32-1.29,1-1.68,1.72-6.07,1.72-6.07a136.8,136.8,0,0,1,2.7-14.18c.76-2.7,0-3.5,0-3.5-.35-1.09-4.93-1.69-4.93-1.69a40.62,40.62,0,0,1-11.63-2.39L582,194.41c-1.9-.89-3-.4-3.55.41a5,5,0,0,0-.74,2.53c0,2.56-2.3,14.07-2.3,14.07a18.63,18.63,0,0,0-.87,5.51s.86,3.7,5.91,4.58a67.06,67.06,0,0,1,10.75,3.1,15.31,15.31,0,0,0,4,.76c1.06.21,1.52,0,1.7-.17A.54.54,0,0,0,596.94,224.7Z"/><path class="cls-10" d="M608.56,197.92s3-1.56,3.51,1.23a4.54,4.54,0,0,0-.27-1.14c-.74-1.72-5-2.52-5-2.52l-10-2s-4.08-1-5.25-1.28-1.57.07-1.57.07a23.76,23.76,0,0,1-3.86.27c-7.28,0-7.64,2.31-7.64,2.31h0c.59-.81,1.65-1.3,3.55-.41l2.48,1.17A40.62,40.62,0,0,0,596.09,198s4.58.6,4.93,1.69a.75.75,0,0,1,.11.16,3.13,3.13,0,0,0,1.93-.36A26,26,0,0,1,608.56,197.92Z"/><path class="cls-11" d="M601,203.16a136.8,136.8,0,0,0-2.7,14.18s-.69,4.39-1.72,6.07c0,0-.52.34.32,1.29a.54.54,0,0,1-.11.5c.49.37,2.22-.77,2.22-.77,2.5-1.67,8-2.36,8-2.36a1.79,1.79,0,0,0,1.59-1.16,16.76,16.76,0,0,0,.38-3.42,40.87,40.87,0,0,1,1.05-6.08l1.78-7.81a18.65,18.65,0,0,0,.19-4.45c-.53-2.79-3.51-1.23-3.51-1.23a26,26,0,0,0-5.5,1.54,3.13,3.13,0,0,1-1.93.36C601.31,200.17,601.61,201.13,601,203.16Z"/><path class="cls-5" d="M583.17,195.71a.48.48,0,0,0-.46.25,10.24,10.24,0,0,0-1.16,6.48c.6,3.3-.8,8.07-1.07,8.94a.55.55,0,0,1-.14.22,2,2,0,0,0-.69,1.27.49.49,0,0,0,1,.14v0a10.73,10.73,0,0,1,1.38-3.31,10.64,10.64,0,0,0,1.44-5.55,43.09,43.09,0,0,1,.11-5.18.43.43,0,0,1,0-.11c.11-.35.77-2.26,2.07-2.32S584.39,195.77,583.17,195.71Z"/><path class="cls-5" d="M590,202.82s-4.36,1.54-2.06,1.93l6.53-.47a12.79,12.79,0,0,1-3.57,1c-1.61.14.3,1,.3,1a8.41,8.41,0,0,0,4.88.11c2.28-.8.21.94.21.94s3-.71,2.81-2.24c0,0,.27-.89-.83-1.84s2-1.09,2-1.09.84-2.27-2.2-2.71c-1.63-.23-2.22,0-2.43.19a3.82,3.82,0,0,1-1.22,1Z"/><path class="cls-5" d="M610,200.15a4.93,4.93,0,0,0-1.75,2.12,2.74,2.74,0,0,0-.19,1.67.9.9,0,0,1-.44,1c-.85.58-.13,2.25-.13,2.25S607,213,605,215a.15.15,0,0,0,.12.25c.68-.14,2.11-1.06,3-6.19a6.32,6.32,0,0,1,.44-1.4,9.34,9.34,0,0,0,1-3.92,8.82,8.82,0,0,1,.59-3.44A.12.12,0,0,0,610,200.15Z"/><path class="cls-5" d="M606.26,201a5.32,5.32,0,0,0-1.38,2.78,7.31,7.31,0,0,0,.36,2.06,9.07,9.07,0,0,1-1.72,7.54,9.42,9.42,0,0,0,.8-3.19,8.06,8.06,0,0,0,.07-2.08c-.19-1.28-1-2.45-.93-3.74a3.44,3.44,0,0,1,.9-2,7.41,7.41,0,0,1,1.72-1.37Z"/><path class="cls-5" d="M600.14,212.34c.05.81-.4,1.58-.43,2.39,0,.51,0,1,0,1.54-.05,2.09-1.17,4-1.23,6.14a.3.3,0,0,0,.07.26.28.28,0,0,0,.22,0,2.65,2.65,0,0,0,1.94-1.48c.68-1.48-.14-3.21-.06-4.84.1-2.17,1.75-4,2.11-6.12a7.26,7.26,0,0,0-.32-3.3,16.92,16.92,0,0,1-.58-2,3.09,3.09,0,0,1,0-1.45s-.06-.08-.08,0a8.71,8.71,0,0,0-1.15,4.25c0,.84.12,1.68.07,2.52s.06,1.28-.56,1.85A.31.31,0,0,0,600.14,212.34Z"/><path class="cls-5" d="M582.1,218.38c.82.13,1.4.91,2.21,1.07a8.66,8.66,0,0,0,2.49.07,2,2,0,0,1,1.93.54l1.12.95a12.49,12.49,0,0,0,1.08.84,9.84,9.84,0,0,0,3.81,1.36c.12,0,.27.08.28.2a2.1,2.1,0,0,1-1-.1,19.94,19.94,0,0,1-3.54-1.56,2.55,2.55,0,0,0-.63-.24,2.92,2.92,0,0,0-.59,0,27.26,27.26,0,0,1-2.85-.18,8,8,0,0,1-1.54-.27,5.54,5.54,0,0,1-2.83-2.47S582,218.36,582.1,218.38Z"/><path class="cls-9" d="M641,187.71c2-2,3.52-1.84,4.62-1.1a6.64,6.64,0,0,1,2.08,2.83C648.88,192.65,657,206,657,206a24.86,24.86,0,0,1,3.61,6.49s.6,5-5.31,8.42a89.29,89.29,0,0,0-12,8.77,20.2,20.2,0,0,1-4.59,2.75c-1.23.74-1.87.75-2.21.56a.73.73,0,0,1-.35-.58c.61-1.57-.2-1.75-.2-1.75-1.68-1.35-3.93-5.09-4.67-6.37a4.68,4.68,0,0,0,5.2.09s5.76-5.75,9.21-7.24c0,0,4.31-1.47,4-3.33,0,0,.22-.9-1.38-2.94,0,0-4.88-6.36-6.27-9.44a65.32,65.32,0,0,1-2.68-6.53,3.21,3.21,0,0,0-3.7-2.32,30.11,30.11,0,0,0,2.88-2.26Z"/><path class="cls-9" d="M636.12,232.4c.61-1.57-.2-1.75-.2-1.75-2-1.64-4.91-6.81-4.91-6.81a182.13,182.13,0,0,0-9.84-16.51c-2.16-3-1.56-4.38-1.56-4.38-.06-1.52,5.4-4.36,5.4-4.36,9.11-4.19,13.46-8.28,13.46-8.28l2.56-2.6c2-2,3.52-1.84,4.62-1.1a6.64,6.64,0,0,1,2.08,2.83C648.88,192.65,657,206,657,206a24.86,24.86,0,0,1,3.61,6.49s.6,5-5.31,8.42a89.29,89.29,0,0,0-12,8.77,20.2,20.2,0,0,1-4.59,2.75c-1.23.74-1.87.75-2.21.56A.73.73,0,0,1,636.12,232.4Z"/><path class="cls-10" d="M609.39,204.21s-4.44-.6-3.83,3.14a5.48,5.48,0,0,1-.17-1.55c.13-2.49,5.11-5.44,5.11-5.44l11.62-7.11s4.65-3.13,6-4,2-.63,2-.63a32.23,32.23,0,0,0,4.95-1.42c9.1-3.34,10.6-.59,10.6-.59h0c-1.1-.74-2.65-.87-4.62,1.1l-2.56,2.6s-4.35,4.09-13.46,8.28c0,0-5.46,2.84-5.4,4.36a1.57,1.57,0,0,0-.06.25,4.15,4.15,0,0,1-2.58.43C614.58,203.28,609.39,204.21,609.39,204.21Z"/><path class="cls-11" d="M621.17,207.33A182.13,182.13,0,0,1,631,223.84s2.87,5.17,4.91,6.81c0,0,.81.18.2,1.75a.73.73,0,0,0,.35.58c-.43.69-3.12,0-3.12,0-3.89-1-11.12.71-11.12.71a2.36,2.36,0,0,1-2.51-.73,21.82,21.82,0,0,1-2-4.09,53.45,53.45,0,0,0-4.09-7.14l-5.78-8.94a25.21,25.21,0,0,1-2.26-5.48c-.61-3.74,3.83-3.14,3.83-3.14s5.19-.93,7.58-.58a4.15,4.15,0,0,0,2.58-.43C619.48,203.72,619.54,205.05,621.17,207.33Z"/><path class="cls-5" d="M640.14,189.88a.65.65,0,0,1,.69.11,13.71,13.71,0,0,1,4.39,7.58c.75,4.4,4.68,9.72,5.42,10.69a.71.71,0,0,0,.27.21,2.63,2.63,0,0,1,1.44,1.27.65.65,0,0,1-1.15.61l0,0a14,14,0,0,0-3.22-3.51,14.17,14.17,0,0,1-4.33-6.29,56.48,56.48,0,0,0-2.5-6.42.54.54,0,0,0-.07-.13c-.3-.39-2-2.48-3.65-2S638.63,190.52,640.14,189.88Z"/><path class="cls-5" d="M634.85,201.88s6.14-.06,3.45,1.48l-8.38,2.38a16.91,16.91,0,0,0,4.93-.32c2.08-.56.11,1.44.11,1.44a11.25,11.25,0,0,1-6.06,2.35c-3.22,0,.16,1.27.16,1.27S625,211,624.53,209c0,0-.74-1,.2-2.69s-3.05-.43-3.05-.43-2.07-2.46,1.52-4.39c1.93-1,2.77-1.06,3.13-.87a5.53,5.53,0,0,0,2,.66Z"/><path class="cls-5" d="M608.63,207.64a6.65,6.65,0,0,1,3.16,1.85,3.72,3.72,0,0,1,1,2,1.22,1.22,0,0,0,1,1c1.33.34,1.19,2.76,1.19,2.76s3.28,7,6.6,8.65a.19.19,0,0,1-.05.36c-.91.15-3.12-.35-6.58-6.36a7.14,7.14,0,0,0-1.18-1.55,12.44,12.44,0,0,1-3-4.47,11.69,11.69,0,0,0-2.3-4A.16.16,0,0,1,608.63,207.64Z"/><path class="cls-5" d="M613.65,207a7.1,7.1,0,0,1,3,2.85,10.12,10.12,0,0,1,.5,2.74,12,12,0,0,0,5.58,8.64,12.31,12.31,0,0,1-2.45-3.62,9.84,9.84,0,0,1-1-2.57c-.35-1.68.16-3.53-.54-5.1a4.57,4.57,0,0,0-2-2.06,9.55,9.55,0,0,0-2.79-.93Z"/><path class="cls-5" d="M626.49,218.41c.31,1,1.22,1.78,1.62,2.78.26.64.43,1.31.68,1.95,1,2.59,3.3,4.53,4.34,7.11a.45.45,0,0,1,0,.36.43.43,0,0,1-.27.13,3.54,3.54,0,0,1-3.09-1c-1.53-1.55-1.3-4.08-2.13-6.09-1.11-2.66-4-4.18-5.42-6.69a9.59,9.59,0,0,1-1.12-4.27A20.58,20.58,0,0,0,621,210a4.42,4.42,0,0,0-.7-1.79c0-.06,0-.13.08-.08a11.42,11.42,0,0,1,3.37,4.79c.38,1.05.62,2.15,1.06,3.18s.51,1.63,1.54,2.06A.47.47,0,0,1,626.49,218.41Z"/><path class="cls-5" d="M651.8,217.74c-1,.54-1.34,1.78-2.29,2.36a11.11,11.11,0,0,1-3.08,1.21,3.72,3.72,0,0,0-1.45.6,3.33,3.33,0,0,0-.71,1l-1,1.7a15.47,15.47,0,0,1-1,1.55,13.11,13.11,0,0,1-4.14,3.43c-.14.09-.31.22-.26.38a3,3,0,0,0,1.15-.57,26.62,26.62,0,0,0,3.73-3.55,3.2,3.2,0,0,1,.67-.6,3.53,3.53,0,0,1,.72-.3,34.65,34.65,0,0,0,3.48-1.53,9.74,9.74,0,0,0,1.8-1A7.4,7.4,0,0,0,651.9,218S651.91,217.68,651.8,217.74Z"/><path class="cls-9" d="M617,224.51c1.16-.16,1.65.28,1.83.81a2.73,2.73,0,0,1,0,1.47c-.43,1.37-1.07,7.92-1.07,7.92a10.18,10.18,0,0,1-.44,3.1,3.83,3.83,0,0,1-3.91,1.49,37.56,37.56,0,0,0-6.28-.11,8.29,8.29,0,0,1-2.24-.24c-.6-.06-.82-.22-.88-.37a.29.29,0,0,1,0-.28c.6-.38.37-.64.37-.64a12.59,12.59,0,0,1,.05-3.33,2,2,0,0,0,1.72,1.35,19.21,19.21,0,0,1,4.93-.1s1.83.6,2.18-.12c0,0,.31-.24.28-1.33a30.85,30.85,0,0,1,.29-4.77,26.57,26.57,0,0,1,.75-2.87,1.35,1.35,0,0,0-.66-1.72,12.46,12.46,0,0,0,1.55,0Z"/><path class="cls-9" d="M604.06,238.3c.6-.38.37-.64.37-.64a13.55,13.55,0,0,1,.08-3.54,76.21,76.21,0,0,0,.88-8c0-1.57.58-1.87.58-1.87.37-.53,2.92-.1,2.92-.1a22.87,22.87,0,0,0,6.63.63l1.52-.23c1.16-.16,1.65.28,1.83.81a2.73,2.73,0,0,1,0,1.47c-.43,1.37-1.07,7.92-1.07,7.92a10.18,10.18,0,0,1-.44,3.1,3.83,3.83,0,0,1-3.91,1.49,37.56,37.56,0,0,0-6.28-.11,8.29,8.29,0,0,1-2.24-.24c-.6-.06-.82-.22-.88-.37A.29.29,0,0,1,604.06,238.3Z"/><path class="cls-10" d="M602.22,222s-1.35-1.33-2.09.09a2.39,2.39,0,0,1,.34-.57c.67-.8,3.1-.53,3.1-.53l5.71.55,3,.17c.67.05.83.3.83.3a13.66,13.66,0,0,0,2,.78c3.9,1.18,3.71,2.49,3.71,2.49h0c-.18-.53-.67-1-1.83-.81l-1.52.23a22.87,22.87,0,0,1-6.63-.63s-2.55-.43-2.92.1l-.08.07a1.83,1.83,0,0,1-1-.51A14.07,14.07,0,0,0,602.22,222Z"/><path class="cls-11" d="M605.39,226.08a76.21,76.21,0,0,1-.88,8,13.55,13.55,0,0,0-.08,3.54s.23.26-.37.64a.29.29,0,0,0,0,.28c-.32.12-1.06-.77-1.06-.77a13.76,13.76,0,0,0-3.92-2.59,1,1,0,0,1-.66-.88,9.63,9.63,0,0,1,.35-1.89,21.93,21.93,0,0,0,.44-3.44l.33-4.47a10.68,10.68,0,0,1,.62-2.41c.74-1.42,2.09-.09,2.09-.09a14.07,14.07,0,0,1,2.69,1.73,1.83,1.83,0,0,0,1,.51A2.6,2.6,0,0,0,605.39,226.08Z"/><path class="cls-5" d="M616.19,225a.26.26,0,0,1,.2.21,5.72,5.72,0,0,1-.44,3.66,12.88,12.88,0,0,0-.89,5,.23.23,0,0,0,0,.14,1.08,1.08,0,0,1,.16.79.27.27,0,0,1-.54-.08v0a6.12,6.12,0,0,0-.19-2,5.9,5.9,0,0,1,.13-3.21,21.71,21.71,0,0,0,.79-2.79.13.13,0,0,0,0-.06c0-.21,0-1.34-.73-1.59S615.52,224.85,616.19,225Z"/><path class="cls-5" d="M611.37,227.71s2.08,1.54.78,1.37l-3.42-1.32a7.07,7.07,0,0,0,1.74,1.14c.84.34-.33.51-.33.51a4.72,4.72,0,0,1-2.63-.74c-1.09-.8-.27.47-.27.47s-1.5-.88-1.14-1.66c0,0,0-.52.75-.85s-.92-.92-.92-.92-.07-1.35,1.63-1.09c.91.14,1.2.34,1.27.5a2.42,2.42,0,0,0,.49.72Z"/><path class="cls-5" d="M601.09,223a2.75,2.75,0,0,1,.59,1.42,1.57,1.57,0,0,1-.17.93.51.51,0,0,0,.07.61c.36.44-.3,1.22-.3,1.22s-.66,3.18,0,4.59a.08.08,0,0,1-.11.11c-.34-.19-1-.91-.6-3.81a3.75,3.75,0,0,0,0-.82,5.08,5.08,0,0,1,.12-2.26,4.77,4.77,0,0,0,.25-1.94A.07.07,0,0,1,601.09,223Z"/><path class="cls-5" d="M603,224.05a2.94,2.94,0,0,1,.28,1.71,4.11,4.11,0,0,1-.52,1.05,5,5,0,0,0-.32,4.32,5.19,5.19,0,0,1,.1-1.84,4.11,4.11,0,0,1,.3-1.13c.31-.65,1-1.14,1.11-1.85a2,2,0,0,0-.16-1.21,4.06,4.06,0,0,0-.7-1Z"/><path class="cls-5" d="M604.37,231.15a12.13,12.13,0,0,0-.16,1.35c-.08.28-.19.54-.27.82-.32,1.13,0,2.36-.34,3.5a.19.19,0,0,1-.09.12.17.17,0,0,1-.12,0,1.48,1.48,0,0,1-.79-1.11c-.13-.91.59-1.7.82-2.59.3-1.18-.28-2.42-.13-3.62a4.2,4.2,0,0,1,.71-1.72,10,10,0,0,0,.64-1,1.94,1.94,0,0,0,.22-.78s0,0,0,0a4.93,4.93,0,0,1-.09,2.47c-.13.45-.34.88-.45,1.34s-.24.67,0,1.08A.24.24,0,0,1,604.37,231.15Z"/><path class="cls-5" d="M613,237.34c-.46-.06-.9.26-1.36.22a4.88,4.88,0,0,1-1.34-.38,1.65,1.65,0,0,0-.64-.17,1.46,1.46,0,0,0-.49.15l-.75.32c-.24.1-.47.2-.72.28a5.55,5.55,0,0,1-2.26.1c-.07,0-.16,0-.18.06a1.19,1.19,0,0,0,.53.1,11.16,11.16,0,0,0,2.15-.25,1.58,1.58,0,0,1,.38,0,1.87,1.87,0,0,1,.32.08,13.45,13.45,0,0,0,1.55.37,3.7,3.7,0,0,0,.87.11,3.13,3.13,0,0,0,1.93-.86S613.1,237.35,613,237.34Z"/><path class="cls-9" d="M567,237.92c1.17,0,1.6.46,1.72,1a2.79,2.79,0,0,1-.19,1.47c-.59,1.31-2,7.73-2,7.73a10.18,10.18,0,0,1-.79,3,3.84,3.84,0,0,1-4.07,1,37.9,37.9,0,0,0-6.21-.83,8.74,8.74,0,0,1-2.2-.51c-.59-.13-.79-.32-.84-.47a.34.34,0,0,1,.06-.28c.65-.3.46-.59.46-.59a12.11,12.11,0,0,1,.43-3.3,2,2,0,0,0,1.56,1.55,18.59,18.59,0,0,1,4.9.48s1.74.8,2.18.14c0,0,.33-.21.44-1.3a30.58,30.58,0,0,1,.84-4.7,28.31,28.31,0,0,1,1.08-2.76,1.34,1.34,0,0,0-.45-1.79,11.47,11.47,0,0,0,1.54.15Z"/><path class="cls-9" d="M552.49,250.08c.65-.3.46-.59.46-.59a13.37,13.37,0,0,1,.48-3.5,76.31,76.31,0,0,0,1.82-7.89c.22-1.55.8-1.78.8-1.78.43-.48,2.91.24,2.91.24a22.72,22.72,0,0,0,6.51,1.4l1.54,0c1.17,0,1.6.46,1.72,1a2.79,2.79,0,0,1-.19,1.47c-.59,1.31-2,7.73-2,7.73a10.18,10.18,0,0,1-.79,3,3.84,3.84,0,0,1-4.07,1,37.9,37.9,0,0,0-6.21-.83,8.74,8.74,0,0,1-2.2-.51c-.59-.13-.79-.32-.84-.47A.34.34,0,0,1,552.49,250.08Z"/><path class="cls-10" d="M552.58,233.72s-1.18-1.47-2.08-.16a2.22,2.22,0,0,1,.4-.52c.76-.72,3.14-.17,3.14-.17l5.6,1.23,3,.52c.65.12.79.39.79.39a12.33,12.33,0,0,0,1.92,1c3.73,1.64,3.39,2.91,3.39,2.91h0c-.12-.55-.55-1-1.72-1l-1.54,0a22.72,22.72,0,0,1-6.51-1.4s-2.48-.72-2.91-.24l-.09.06a1.8,1.8,0,0,1-.91-.63A14.42,14.42,0,0,0,552.58,233.72Z"/><path class="cls-11" d="M555.25,238.1a76.31,76.31,0,0,1-1.82,7.89,13.37,13.37,0,0,0-.48,3.5s.19.29-.46.59a.34.34,0,0,0-.06.28c-.33.08-1-.89-1-.89a13.53,13.53,0,0,0-3.58-3,1,1,0,0,1-.56-.95,9.44,9.44,0,0,1,.58-1.84,23.06,23.06,0,0,0,.83-3.36l.85-4.4a10.41,10.41,0,0,1,.91-2.33c.9-1.31,2.08.16,2.08.16a14.42,14.42,0,0,1,2.47,2,1.8,1.8,0,0,0,.91.63A2.6,2.6,0,0,0,555.25,238.1Z"/><path class="cls-5" d="M566.1,238.32a.28.28,0,0,1,.18.23,5.71,5.71,0,0,1-.87,3.59,12.89,12.89,0,0,0-1.47,4.83.32.32,0,0,0,0,.14,1.12,1.12,0,0,1,.06.81.28.28,0,0,1-.53-.15v0a5.82,5.82,0,0,0,0-2,6,6,0,0,1,.52-3.18,23.82,23.82,0,0,0,1.11-2.68s0,0,0-.06c0-.2.12-1.33-.54-1.66S565.46,238.08,566.1,238.32Z"/><path class="cls-5" d="M561,240.43s1.89,1.77.62,1.45l-3.25-1.71a7.13,7.13,0,0,0,1.6,1.34c.8.43-.39.46-.39.46a4.76,4.76,0,0,1-2.53-1c-1-.93-.32.43-.32.43s-1.38-1.05-.93-1.78c0,0,.06-.52.84-.76s-.8-1-.8-1,.08-1.35,1.74-.89c.89.25,1.15.48,1.2.64a2.43,2.43,0,0,0,.41.78Z"/><path class="cls-5" d="M551.35,234.54a2.88,2.88,0,0,1,.42,1.49,1.6,1.6,0,0,1-.28.9.49.49,0,0,0,0,.6c.3.49-.44,1.19-.44,1.19s-1,3.08-.52,4.55a.08.08,0,0,1-.12.1c-.32-.22-.84-1-.15-3.85a3.23,3.23,0,0,0,.1-.82,5.13,5.13,0,0,1,.39-2.23,4.71,4.71,0,0,0,.47-1.89A.07.07,0,0,1,551.35,234.54Z"/><path class="cls-5" d="M553.07,235.8a3,3,0,0,1,.08,1.74,4.17,4.17,0,0,1-.65,1,5.06,5.06,0,0,0-.82,4.25A5.4,5.4,0,0,1,552,241a4.62,4.62,0,0,1,.44-1.08c.38-.61,1.07-1,1.32-1.71a1.89,1.89,0,0,0,0-1.22,4.2,4.2,0,0,0-.57-1.09Z"/><path class="cls-5" d="M553.64,243c-.2.4-.15.9-.32,1.32-.1.27-.25.52-.36.79-.44,1.08-.31,2.34-.75,3.43,0,0-.05.1-.1.11a.12.12,0,0,1-.11,0,1.48,1.48,0,0,1-.66-1.19c0-.92.79-1.62,1.12-2.48.44-1.13,0-2.43.3-3.61a4,4,0,0,1,.91-1.62,8.84,8.84,0,0,0,.74-.88,1.84,1.84,0,0,0,.31-.75s0,0,0,0a4.85,4.85,0,0,1-.37,2.44c-.19.43-.44.84-.61,1.28s-.32.64-.13,1.07A.17.17,0,0,1,553.64,243Z"/><path class="cls-5" d="M561.53,250.19c-.45-.12-.92.15-1.38.05a4.81,4.81,0,0,1-1.29-.53,1.1,1.1,0,0,0-1.11-.16l-.79.24c-.24.07-.49.14-.74.19a5.76,5.76,0,0,1-2.26-.16c-.07,0-.16,0-.19,0a1.33,1.33,0,0,0,.52.17,11.13,11.13,0,0,0,2.16,0,1.2,1.2,0,0,1,.38,0,1.63,1.63,0,0,1,.31.11,12.78,12.78,0,0,0,1.5.55,4.22,4.22,0,0,0,.85.21,3,3,0,0,0,2-.63S561.58,250.2,561.53,250.19Z"/><path class="cls-12" d="M518.14,191.85a7.86,7.86,0,0,0-.09,2.06l10.8,123.54s0,13.64,7.75,14.78,9.53,1.57,9.53,1.57,51,6,87.62.47c0,0,12.25-3,15.51-6.31,1.64-1.64,2.14-5.56,2.14-5.56l14.89-124.81a7.72,7.72,0,0,0-.31-3.26c-6.1,6.78-72.44,7.06-72.44,7.06C526.37,201.17,518.72,194.32,518.14,191.85Z"/></g></svg>