<svg xmlns="http://www.w3.org/2000/svg" xmlns:xlink="http://www.w3.org/1999/xlink" viewBox="0 0 800 500"><defs><style>.cls-1{fill:#545454;}.cls-2{fill:#424242;}.cls-3{opacity:0.6;fill:url(#linear-gradient);}.cls-4{fill:#f8b830;}.cls-17,.cls-5,.cls-7{fill:none;}.cls-6{fill:#895747;}.cls-17,.cls-7{stroke:#fdcf00;stroke-miterlimit:10;}.cls-7{stroke-width:0.54px;}.cls-13,.cls-14,.cls-15,.cls-8{fill:#fff;}.cls-9{fill:#ffe164;}.cls-10{fill:#ffec95;}.cls-11{fill:#4bf7be;}.cls-12{fill:url(#linear-gradient-2);}.cls-13{opacity:0.7;}.cls-14{opacity:0.9;}.cls-15{opacity:0.8;}.cls-16,.cls-20{opacity:0.4;}.cls-16{fill:url(#linear-gradient-3);}.cls-17{stroke-width:0.21px;}.cls-18{fill:#f4a50d;}.cls-19{fill:url(#linear-gradient-4);}.cls-20{fill:url(#linear-gradient-5);}</style><linearGradient id="linear-gradient" x1="598.11" y1="5.64" x2="598.11" y2="403.06" gradientUnits="userSpaceOnUse"><stop offset="0" stop-color="#fff" stop-opacity="0.7"/><stop offset="0.13" stop-color="#fff" stop-opacity="0.64"/><stop offset="0.38" stop-color="#fff" stop-opacity="0.48"/><stop offset="0.73" stop-color="#fff" stop-opacity="0.22"/><stop offset="1" stop-color="#fff" stop-opacity="0"/></linearGradient><linearGradient id="linear-gradient-2" x1="295.73" y1="351.93" x2="295.73" y2="852.86" gradientUnits="userSpaceOnUse"><stop offset="0" stop-color="#edbc4b"/><stop offset="1" stop-color="#f4890d"/></linearGradient><linearGradient id="linear-gradient-3" x1="295.73" y1="258.71" x2="295.73" y2="823.01" gradientUnits="userSpaceOnUse"><stop offset="0" stop-color="#f4e77c"/><stop offset="1" stop-color="#f4a50d"/></linearGradient><linearGradient id="linear-gradient-4" x1="608.58" y1="183.83" x2="608.58" y2="378.44" xlink:href="#linear-gradient-2"/><linearGradient id="linear-gradient-5" x1="608.58" y1="147.62" x2="608.58" y2="366.84" xlink:href="#linear-gradient-3"/></defs><title>featured image</title><g id="Layer_1" data-name="Layer 1"><rect class="cls-1" width="800" height="500"/><polygon class="cls-2" points="0 388.6 800 188.96 800 500 0 500 0 388.6"/></g><g id="Layer_2" data-name="Layer 2"><g id="Layer_12" data-name="Layer 12"><polygon class="cls-3" points="529.17 0.4 402.22 429.32 794 434 666.89 0.4 529.17 0.4"/></g></g><g id="Layer_3" data-name="Layer 3"><path class="cls-4" d="M69.64,229.46c-.81-.62-1.9-1.27-2.79-.77s-1.25,1.86-2.2,1.68a1.62,1.62,0,0,1-.85-.64l-4.14-4.87c-.34-.4-.8-.85-1.32-.75a1.54,1.54,0,0,0-.75.49,15.93,15.93,0,0,0-3,3.61,5.32,5.32,0,0,0-.41,4.51A3.26,3.26,0,0,0,58,234.67c1.06-.35,1.86-1.35,3-1.51,1.77-.25,3,1.69,4.45,2.68a1.22,1.22,0,0,0,1.12.24c.69-.29.48-1.3.25-2s0-1.84.7-1.74a1.17,1.17,0,0,1,.58.33,14.4,14.4,0,0,0,2.31,1.83c1.62.92,4,1.78,5.69.93A30.91,30.91,0,0,0,69.64,229.46Z"/><path class="cls-4" d="M79.82,212.91a8.86,8.86,0,0,0-2.19-2.76,2.33,2.33,0,0,0-3.18.28,2.24,2.24,0,0,0,.32,2.59,6.49,6.49,0,0,0,2.3,1.55c2,1,6.67,3.28,8.64,4.23A19.24,19.24,0,0,1,79.82,212.91Z"/><path class="cls-5" d="M452.45,206.21a14.59,14.59,0,0,0-2.19-.94,45.34,45.34,0,0,0-4.6-1.27c-3.1-.69-6.24-1.22-9.39-1.69-6.3-.92-12.63-1.58-19-2.17-12.67-1.13-25.39-1.79-38.1-2.33-25.44-1-50.9-1.12-76.34-.86S252,198,226.61,199.47q-10.67.57-21.31,1.38c-.83,2.06-1.57,4.16-2.18,6.23a70.58,70.58,0,0,1-2.77,7.48q13.11,1.08,26.26,1.78,38.05,2.15,76.25,2.52c25.44.26,50.9.1,76.34-.86,12.71-.54,25.43-1.2,38.1-2.33,6.34-.58,12.67-1.24,19-2.17,3.15-.46,6.29-1,9.39-1.69a40.67,40.67,0,0,0,4.6-1.27,13.63,13.63,0,0,0,2.19-.94c.65-.38,1.45-.85,1.53-1.69C453.9,207.07,453.1,206.6,452.45,206.21Z"/><path class="cls-5" d="M174.66,260.11a4.63,4.63,0,0,0,.54-.3S172.58,259.73,174.66,260.11Z"/><path class="cls-6" d="M45.65,231.69a8.32,8.32,0,0,1,.21-6s2.24-5.24,1.59-7.44a2.08,2.08,0,0,1-.09-.63c0-2.32,2.59-6.1,2.59-6.1,1,1.87,2.07.35,2.07.35,2.66-3.11,8.78-2.12,9.33-2C58.21,209.39,58,207,58,207c-.16-4.47-4.17-7.65-4.17-7.65.47-4.56,5.38-7.36,5.38-7.36-1.29-2.12,0-2.69,0-2.69S70.39,169,73.35,169.24s5.44-2.83,5.44-2.83a21.12,21.12,0,0,1,7.19-10c5.25-3.66,4.75-5.81,4.75-5.81s4.35-.89,5.74-4.73,6.63-6.3,6.63-6.3c2.78-2.05,10.09-4.15,10.09-4.15a54.71,54.71,0,0,0,7.19-5.26l6.83-3.72h0s-.21.28,1.47,2.69c1.83,2.62,3.11,1.52,3.11,1.52l3.76-3.93s-1.44-.68.31-3.38,5.56-.62,5.56-.62.42,1.25,3.92-1.19,8.18.24,11.19,1.82,8-.86,10.47-.47,2.49-1.36,2.49-1.36c19.23-4.84,32,4.15,32,4.15s4.56.73,2.19,3.77,1.72,8.32,1.72,8.32,6.38-1.33,7.17-4.57c.53-2.2.24-2.84,0-3l-.22-.08a.33.33,0,0,1,.22.08l5.92,2.08,1.86,3.42c2.56,1.94,9.66,4.35,14.68,5.89l.23-.44a6,6,0,0,0,.53-4.29,22.93,22.93,0,0,0-3.05-2.81c-4.32.2-6.72-3.72-6.72-3.72-1.29-5.07-10.21-5.44-10.21-5.44-7.4-.27-8.41-3.61-8.41-3.61-4.95-8.84-9-4.9-9-4.9-6.67.55-15.11-2.37-15.11-2.37-10.26-3.81-20.81,1.94-20.81,1.94-1.86-1.93-5.74-1.16-5.74-1.16-4.93,2-7.34,1-7.34,1-6.37-2.83-15.83,2.72-15.83,2.72-2.68,1.73-3.75,1.24-3.75,1.24-7.4.95-15,7.65-15,7.65a3.71,3.71,0,0,0-3.75-.23c-3.41,1.62-3.4,3.85-3.4,3.85-2-2.4-4.19.94-4.19.94s-6.34,4.13-12.06,7.91-5.74,6.22-5.74,6.22c-6.09.63-7.57,3.59-7.57,3.59s-.14,4.9-8.1,11-8.48,12-8.48,12c-10.41,11.45-16.09,28.61-16.09,28.61l-4.16,1.72,1.82,5c-6.46,11.3-7.33,24-7.33,24,1.69,3.1.72,4,.72,4a5.23,5.23,0,0,0-.53,5l1.24.29c2.51-.47,8.1.5,10.58,1A27.78,27.78,0,0,1,46,235.79S46.86,234.65,45.65,231.69Z"/><path class="cls-7" d="M212.61,130.2a.33.33,0,0,0-.22-.08Z"/><path class="cls-4" d="M212.64,171.7c.4-.13.51-.63.56-1a35.87,35.87,0,0,1,5.32-14.86,19.36,19.36,0,0,0,2.33-4.19,4.88,4.88,0,0,0-.53-4.58c-1.72.71-2.87,4-3.6,5.92-.56,1.47-1.37,2.83-2,4.27a35.2,35.2,0,0,0-1.37,4.14l-1.29,4.54a9.25,9.25,0,0,0-.48,4.89C211.73,171.28,212.14,171.86,212.64,171.7Z"/><path class="cls-8" d="M226.61,199.47q38.05-2.16,76.25-2.52c25.44-.26,50.9-.1,76.34.86,12.71.54,25.43,1.2,38.1,2.33,6.34.59,12.67,1.25,19,2.17,3.15.47,6.29,1,9.39,1.69a45.34,45.34,0,0,1,4.6,1.27,14.59,14.59,0,0,1,2.19.94c.65.39,1.45.86,1.53,1.7-.07-.84-.87-1.32-1.53-1.71a14.09,14.09,0,0,0-2.18-.95,43,43,0,0,0-4.6-1.29c-3.1-.71-6.24-1.26-9.39-1.74-6.29-.95-12.62-1.65-19-2.26-12.67-1.22-25.37-2.13-38.09-2.83q-38.14-2.19-76.37-2.64c-25.47-.31-51-.2-76.45.74-6.36.26-12.73.55-19.09.93-.7,1.53-1.39,3.1-2,4.69Q215.93,200,226.61,199.47Z"/><path class="cls-8" d="M270.91,845.33q10.47.12,20.93,0c7-.06,14-.08,20.9-.39,1.74-.07,3.47-.18,5.19-.31a26.67,26.67,0,0,0,5-.77,46.36,46.36,0,0,0,9.47-3.85,112.52,112.52,0,0,0,17.2-11.45h0l.06-.05a199.27,199.27,0,0,0,15.42-12.83q7.41-6.78,14.27-14.15A234.84,234.84,0,0,0,404.09,770a185.17,185.17,0,0,0,18.13-35.55,156.53,156.53,0,0,0,9.27-38.64c3.14-26.58,2.83-53.53.81-80.28a610.28,610.28,0,0,0-11.62-79.65l-.55-2.44-.26-1.14-.34-1.21c-.45-1.63-.93-3.23-1.33-4.91-.87-3.31-1.64-6.64-2.36-10-1.43-6.67-2.63-13.36-3.7-20.07-2.13-13.42-3.66-26.89-4.88-40.38s-2.13-27-2.8-40.51L404,405.1l-.17-5.07,0-1.28v-.38l0-.32,0-.64.09-2.56c.13-3.41.21-6.83.44-10.2s.35-6.78.65-10.16q1.52-20.3,4.78-40.39t8.48-39.76a376.89,376.89,0,0,1,12.37-38.7c2.42-6.32,5-12.59,7.8-18.75s5.77-12.24,9.19-18.12l.67.79c-2.31.83-4.63,1.52-7,2.15s-4.71,1.19-7.09,1.68a134.38,134.38,0,0,1-14.37,2.2,131.6,131.6,0,0,0,14.24-2.76c2.35-.57,4.67-1.24,7-2s4.6-1.47,6.83-2.34l1.39-.54-.72,1.33c-3.2,5.88-6,12-8.59,18.24s-5,12.5-7.2,18.85c-4.41,12.72-8.11,25.67-11.26,38.74s-5.67,26.28-7.57,39.58-3.33,26.67-4.12,40.08c-.41,6.69-.67,13.43-.77,20.08l-.06,2.5v1.19l.05,1.26.22,5,.53,10.08Q411,435.12,413,455.22c.67,6.69,1.41,13.37,2.26,20s1.75,13.31,2.82,19.93,2.28,13.21,3.7,19.74c.71,3.26,1.48,6.51,2.32,9.72.4,1.61.89,3.24,1.34,4.86l.35,1.23.31,1.32.57,2.5c2.93,13.28,5.31,26.63,7.24,40.06s3.43,26.91,4.42,40.45,1.53,27.12,1.38,40.71c-.14,6.79-.31,13.59-.8,20.38-.17,3.39-.53,6.78-.8,10.17s-.66,6.78-1.15,10.15a157.56,157.56,0,0,1-10,39.78,190.2,190.2,0,0,1-19.14,36.18A229,229,0,0,1,382,804.08q-7.11,7.32-14.78,14a182.51,182.51,0,0,1-16,12.64l.07,0a114.69,114.69,0,0,1-17.93,11.2,47.54,47.54,0,0,1-10,3.72,27.84,27.84,0,0,1-5.33.66c-1.76.09-3.51.14-5.26.16-7,.09-14,0-20.95-.25S277.88,845.68,270.91,845.33Z"/><path class="cls-8" d="M166.51,246.57A425.84,425.84,0,0,1,182.18,298q3.16,13.1,5.64,26.34c1.65,8.84,3.12,17.71,4.21,26.64s2,17.88,2.57,26.87l.22,3.36.15,3.38.28,6.75c.08,4.5.24,9,.14,13.51a323,323,0,0,1-4.77,53.9v.09l-.05.17c-6.23,22.13-11.58,44.63-16.19,67.21q-3.44,16.95-6.31,34t-4.95,34.19q-2,17.15-3.18,34.36c-.69,11.47-1,23-.89,34.42a278.51,278.51,0,0,0,2.5,34.2,168.24,168.24,0,0,0,7.73,33.12l0,.11,0,.12c.74,2.64,1.71,5.44,2.7,8.13s2.07,5.41,3.23,8.08c2.27,5.34,4.82,10.57,7.57,15.69A198.34,198.34,0,0,0,202,791.78q5.43,6.83,11.44,13.16c4,4.18,8.24,8.21,12.65,12a172.27,172.27,0,0,0,28.63,19.86l.17.09.1.08a34,34,0,0,1,4.19,4,30.59,30.59,0,0,1,3.43,4.66,22.17,22.17,0,0,1,2.29,5.51,16,16,0,0,1,.2,6.17v-.75c0,.22.05.32.07.45s0,.24,0,.36,0,.46,0,.68a10.71,10.71,0,0,1-.09,1.28,14.55,14.55,0,0,1-.54,2.41,17.31,17.31,0,0,1-2,4.27,29.64,29.64,0,0,1-6,6.75,21,21,0,0,1-1.73,1.39L253,875.46a16,16,0,0,0-2.8,2.66,23.89,23.89,0,0,0-3.9,7,51.67,51.67,0,0,0-2.83,16.29q-.08,2.1,0,4.2c0,.7,0,1.4.1,2.09l0,.51a3,3,0,0,0,.06.4c.07.33.14.66.22,1a50.63,50.63,0,0,0,2.58,7.93,47.32,47.32,0,0,0,3.91,7.38,38.42,38.42,0,0,0,5.3,6.42l1.58,1.35.8.67.85.59,1.72,1.17c.61.34,1.23.65,1.84,1a48.29,48.29,0,0,0,7.84,3.06,105.79,105.79,0,0,0,33.75,3.49,119.13,119.13,0,0,1-17.11.25,86.48,86.48,0,0,1-17-2.57,50.53,50.53,0,0,1-8.15-2.93c-.65-.33-1.31-.64-2-1l-1.84-1.18-.93-.6-.85-.68-1.71-1.38A40.09,40.09,0,0,1,248.8,926a48.85,48.85,0,0,1-4.29-7.59,52.91,52.91,0,0,1-2.94-8.22c-.1-.36-.18-.72-.27-1.08a6.17,6.17,0,0,1-.12-.66l-.05-.55c-.07-.73-.13-1.45-.17-2.18q-.14-2.17-.12-4.35A54.06,54.06,0,0,1,243.39,884a27.18,27.18,0,0,1,4.28-8,19.4,19.4,0,0,1,3.32-3.27l1.65-1.3c.55-.42,1.07-.86,1.57-1.32a26.47,26.47,0,0,0,5.21-6,13.87,13.87,0,0,0,1.56-3.46,11.27,11.27,0,0,0,.37-1.76c0-.29,0-.58,0-.85a2.42,2.42,0,0,0,0-.39.86.86,0,0,0,0-.17c0-.05,0-.13,0-.08l0-.76a12.29,12.29,0,0,0-.25-4.55,18,18,0,0,0-1.95-4.38,26.21,26.21,0,0,0-3.05-4,30.45,30.45,0,0,0-3.66-3.39l.27.18a177.06,177.06,0,0,1-29.69-20c-4.59-3.82-9-7.9-13.19-12.13s-8.18-8.72-11.93-13.37A203.91,203.91,0,0,1,178,765.32c-2.87-5.24-5.54-10.59-7.94-16.08-1.21-2.73-2.33-5.51-3.4-8.31s-2.06-5.6-3-8.62l.08.23a170.93,170.93,0,0,1-8.16-34.29,286.24,286.24,0,0,1-2.66-34.93c-.16-11.66.09-23.31.85-34.92s1.91-23.17,3.31-34.7q4.36-34.58,11.67-68.62,3.62-17,7.83-33.89c2.82-11.26,5.76-22.44,9.13-33.6l-.06.26a319.38,319.38,0,0,0,5.46-53c.15-4.46.11-8.91.11-13.37l-.14-6.69-.08-3.34-.16-3.34c-.35-8.92-1.08-17.82-2-26.7a505.4,505.4,0,0,0-8.38-53q-2.79-13.12-6.27-26.11C171.9,263.66,169.42,255.05,166.51,246.57Z"/><path class="cls-8" d="M152.78,217.81c.1.82.87,1.27,1.52,1.64a13.65,13.65,0,0,0,2.17.87,41.36,41.36,0,0,0,4.54,1.16c3.07.63,6.18,1.07,9.29,1.46,6.22.82,12.48,1.4,18.74,1.89q18.78,1.42,37.62,2.27c12.56.63,25.12,1.07,37.69,1.56L302.07,230c-6.29.28-12.58.37-18.88.51s-12.59.07-18.88.05c-12.59,0-25.18-.42-37.76-1s-25.16-1.45-37.69-2.86c-6.26-.71-12.52-1.51-18.74-2.58-3.1-.57-6.2-1.2-9.26-2a40.88,40.88,0,0,1-4.52-1.44,14.57,14.57,0,0,1-2.13-1.06,4.79,4.79,0,0,1-.94-.74A1.59,1.59,0,0,1,152.78,217.81Z"/><path class="cls-9" d="M166.22,210.66l3.59.61c6.22.95,12.52,1.65,18.82,2.26q5.85.57,11.72,1a72.34,72.34,0,0,0,2.77-7.49c.6-2.07,1.36-4.16,2.18-6.23.64-1.6,1.32-3.17,2-4.7a140.6,140.6,0,0,1,10.28-18.26c-3.08-5.65,2.75-7.78,2.75-7.78l14.73-28.52c-5-1.55-12.13-4-14.69-5.89l-1.86-3.42-5.92-2.08c.24.2.53.84,0,3-.78,3.24-7.17,4.57-7.17,4.57s-4.09-5.28-1.72-8.32-2.18-3.77-2.18-3.77-12.82-9-32-4.15c0,0,0,1.75-2.49,1.35s-7.46,2.06-10.48.48-7.68-4.26-11.18-1.83-3.92,1.2-3.92,1.2-3.81-2.07-5.57.62-.29,3.38-.29,3.38l-3.78,3.93s-1.27,1.1-3.1-1.52c-1.68-2.41-1.51-2.66-1.47-2.7l-6.83,3.73a54.7,54.7,0,0,1-7.2,5.25s-7.3,2.11-10.08,4.16c0,0-5.23,2.45-6.63,6.3s-5.74,4.73-5.74,4.73.5,2.14-4.75,5.82a20.92,20.92,0,0,0-7.18,9.94s-2.48,3.09-5.45,2.83S59.19,189.3,59.19,189.3s-1.3.57,0,2.68c0,0-4.91,2.81-5.38,7.36,0,0,4,3.18,4.17,7.66,0,0,.23,2.31,3.2,2.81-1.13-.19-6.66-.88-9.15,2,0,0-1.06,1.52-2.07-.35,0,0-2.62,3.77-2.6,6.11a2.44,2.44,0,0,0,.1.62c.66,2.2-1.58,7.45-1.58,7.45a8.29,8.29,0,0,0-.21,6c1.21,3,.34,4.1.34,4.1a27.92,27.92,0,0,0,1.82,6.57l1.23.25c2.19-1.68,6.08-.73,6.08-.73a13.73,13.73,0,0,0,4.25,3.51c4.4.46,9.84-1.21,9.84-1.21,2-1.76,14.11,3.07,14.11,3.07A109.65,109.65,0,0,1,94.79,250c7.2,2,9.15-.32,9.15-.32a6.67,6.67,0,0,1,3.84-1.06s1.23,4.64,4.93,4S127,255.75,127,255.75s13.77,2,24.88,3.56,14.59-.57,14.59-.57c4,2.86,7,1.93,8.23,1.37-2.09-.38.53-.31.53-.31a3.26,3.26,0,0,1-.53.31l.75.13c3.41.51,3.83-2.09,3.83-2.09a41.19,41.19,0,0,1,3.48-10.28s9.27-15.23,15.6-28.77c-3.39-.25-6.76-.51-10.14-.82-6.37-.58-12.74-1.28-19.11-2.22-3.18-.48-6.37-1-9.58-1.75a46.12,46.12,0,0,1-4.87-1.39,15.35,15.35,0,0,1-2.57-1.15,6.6,6.6,0,0,1-.71-.44,4.91,4.91,0,0,1-.75-.63l-.13-.13a10,10,0,0,1,5.11-2.57h0a6.15,6.15,0,0,0,.71.28,36.31,36.31,0,0,0,4.32,1.25l.38.08m57.51-53.82a35.86,35.86,0,0,0-5.32,14.87c0,.41-.16.91-.56,1s-.91-.41-1-.92a9.44,9.44,0,0,1,.47-4.89c.43-1.52.87-3,1.3-4.53a33,33,0,0,1,1.37-4.15c.62-1.45,1.43-2.81,2-4.27.73-1.93,1.89-5.22,3.61-5.92a4.88,4.88,0,0,1,.54,4.58A19.84,19.84,0,0,1,218.52,155.79Z"/><path class="cls-8" d="M452.45,209.6a13.63,13.63,0,0,1-2.19.94,40.67,40.67,0,0,1-4.6,1.27c-3.1.7-6.24,1.23-9.39,1.69-6.3.93-12.63,1.59-19,2.17-12.67,1.13-25.39,1.79-38.1,2.33-25.44,1-50.9,1.12-76.34.86s-50.88-1.09-76.25-2.52q-13.16-.71-26.26-1.78-5.86-.47-11.72-1c-6.31-.61-12.6-1.32-18.82-2.27-1.2-.19-2.39-.39-3.58-.6-1.76-.31-3.5-.65-5.21-1l-.4-.08a41.7,41.7,0,0,1-4.31-1.24c-.25-.09-.48-.19-.71-.29a9.88,9.88,0,0,0-5.13,2.57.8.8,0,0,0,.13.13,5.05,5.05,0,0,0,.76.63,5.67,5.67,0,0,0,.7.44,15,15,0,0,0,2.58,1.15,43,43,0,0,0,4.86,1.38c3.21.75,6.39,1.28,9.58,1.76,6.37.95,12.74,1.63,19.1,2.22,3.38.3,6.77.57,10.15.81,9.36.67,18.72,1.12,28.08,1.51,25.49,1,51,1.05,76.45.74s50.94-1.18,76.37-2.65c12.72-.7,25.42-1.61,38.09-2.83,6.34-.61,12.67-1.31,19-2.26,3.15-.48,6.29-1,9.39-1.74a43,43,0,0,0,4.6-1.29,13.24,13.24,0,0,0,2.18-1c.66-.38,1.46-.86,1.53-1.7C453.9,208.75,453.1,209.22,452.45,209.6Z"/><path class="cls-4" d="M166.22,210.66q-2.64-.47-5.21-1a15.77,15.77,0,0,1-3.52-7.58,14.35,14.35,0,0,1-.2-2.61c0-1.81.32-3.84-.84-5.22a18.18,18.18,0,0,0-1.62-1.41c-1.75-1.64-1.93-4.36-1.45-6.7s1.46-4.57,1.67-7a21,21,0,0,0-1.15-7.38q-2.11-7.59-4.24-15.17c-.92-3.28-1.87-6.63-3.9-9.36-1.66-2.24-4-4.05-5.06-6.64s.39-6.44,3.18-6.31c.76,0,1.47.36,2.23.33s1.72-.52,2.61-.63c2.13-.25,3.85,1.77,4.67,3.75.47,1.11,1.5,2.57,2.52,1.89.35-.23.51-.68.79-1,1.09-1.37,3.39-.47,4.44.94,4.5,6-1.8,15.8,2.82,21.72-2,3.29-3.85,8.18-3.55,12,.31,4.2,3.45,8.19,2.35,12.24-.44,1.6-1.5,3-1.85,4.6-.51,2.44.67,4.87,1.66,7.14.47,1.11.91,2.24,1.31,3.37.55,1.54,1,3.11,1.43,4.7.32,1.27.61,2.56.84,3.86A5.26,5.26,0,0,1,166.22,210.66Z"/><path class="cls-4" d="M112.21,213.48a9.46,9.46,0,0,1-3.95-1.77,12.59,12.59,0,0,1-1.55-1.17c-.3-.27-.58-.57-.86-.87-.16,0-.32-.06-.48-.07a6.39,6.39,0,0,0-2.89.15,2.47,2.47,0,0,0-1.73,2.14c0,1.24,1.19,2.11,2.28,2.7,7.08,3.84,15.42,4.87,22.51,8.68,3.63,1.95,7.25,4.7,11.35,4.37,0,0,.27-1.09-2.54-2.31-5.23-2.27-7.51-8.78-12.56-11.44a21.53,21.53,0,0,0-4.2-1.53l-1.1-.3A5.4,5.4,0,0,1,112.21,213.48Z"/><path class="cls-4" d="M71.12,229c-.82-.63-1.91-1.28-2.8-.77s-1.25,1.86-2.2,1.68a1.67,1.67,0,0,1-.85-.64l-4.14-4.87c-.34-.41-.8-.86-1.32-.76a1.56,1.56,0,0,0-.75.5,15.71,15.71,0,0,0-3,3.61,5.3,5.3,0,0,0-.41,4.5,3.25,3.25,0,0,0,3.78,2c1.06-.34,1.86-1.35,3-1.5,1.77-.25,3,1.69,4.45,2.68a1.22,1.22,0,0,0,1.12.24c.69-.29.48-1.3.25-2s0-1.83.7-1.73a1.17,1.17,0,0,1,.58.33A15,15,0,0,0,71.85,234c1.63.92,4,1.78,5.7.93A31.16,31.16,0,0,0,71.12,229Z"/><path class="cls-4" d="M95.42,160a23.65,23.65,0,0,0,3.29,2.34,19.07,19.07,0,0,1,2.54,1.43c1.48,1.15,2.22,3,3.06,4.67s2,3.4,3.8,3.92c1.18.34,2.58.16,3.49,1a3.84,3.84,0,0,1,.81,1.21c2,4,4.13,8.45,8.12,10.58a20.93,20.93,0,0,0,4.59,1.58c-.73-.87-2-1.07-3-1.45-3.6-1.27-5.85-4.87-7.27-8.42a17.89,17.89,0,0,0-2-4.13,7.28,7.28,0,0,0-3.83-2.61,7.64,7.64,0,0,1-2.12-.69c-1.24-.8-1.49-2.47-2.06-3.84a7.48,7.48,0,0,0-3.43-3.74,20.79,20.79,0,0,1-2.27-1.12c-.7-.47-1.75-1.64-1.7-2.49a1.53,1.53,0,1,0-2.89.85A2.92,2.92,0,0,0,95.42,160Z"/><path class="cls-4" d="M96.88,184.05a16.19,16.19,0,0,0,2,1.34,29.25,29.25,0,0,0,4.42,1.54c1.71.57,3.35,1.39,5.1,1.81-2.14-1.35-5.92-5.72-8.06-7.07a31.86,31.86,0,0,1-3.52-2.43,32.62,32.62,0,0,1-2.84-2.8l-3.26-3.51A9.49,9.49,0,0,0,88.56,171a3.2,3.2,0,0,0-2.8-.27,2.68,2.68,0,0,0-1.42,1.73,3.42,3.42,0,0,0,.21,2.27,3.06,3.06,0,0,0,.79,1.1c1.35,1.12,3.48.49,5,1.32,1.28.68,1.84,2.17,2.67,3.36A15.77,15.77,0,0,0,96.88,184.05Z"/><path class="cls-10" d="M116.89,209.33c-.65-.29-1.23.38-1.82.78-1.25.83-2-1.56-2-1.56a11,11,0,0,0-3.24-3.57,16.71,16.71,0,0,0-6.32-3.25,9,9,0,0,0-6.89,1,6.17,6.17,0,0,0-2.78,6.14,1.44,1.44,0,0,0,.4.84,1.24,1.24,0,0,0,1.35.07,6.06,6.06,0,0,0,1.12-.9,6.29,6.29,0,0,1,8.25-.08,11.9,11.9,0,0,1,.88.86c.28.3.56.6.86.87a12.59,12.59,0,0,0,1.55,1.17,9.46,9.46,0,0,0,3.95,1.77,5.4,5.4,0,0,0,4.28-1.42l.35-.36a2.27,2.27,0,0,0,.62-1.22A1.1,1.1,0,0,0,116.89,209.33Z"/><path class="cls-10" d="M110.93,158.83c1.9-.33,1.89,2.63,1.89,2.63,5.82,2.87,10.87,7.8,12.68,14,.41,1.4.65,2.84,1,4.24A39.34,39.34,0,0,0,131,189l3.37,5.61a3.06,3.06,0,0,0,1.61,1.58,1.94,1.94,0,0,0,2.22-1.59,3.62,3.62,0,0,0-.87-2.84c-1.76-2.25-4.93-3.26-6.2-5.82-.81-1.63-.67-3.54-1-5.32a19.63,19.63,0,0,0-2.38-5.63q-5.15-9.22-10.7-18.22c-1.37-2.22-3.09-4.65-5.68-5a4.11,4.11,0,0,0-4.51,3.46A3.54,3.54,0,0,0,110.93,158.83Z"/><path class="cls-10" d="M138.27,245c-2.68-.51-4.87-2.26-7.36-3.37-2.28-1-4.85-1.1-7.34-1.34a53.15,53.15,0,0,1-13.18-3c-4.36-1.59-9.11-3.77-13.43-2.06a3.07,3.07,0,0,0-1.16.74,2.4,2.4,0,0,0,0,2.93,5.19,5.19,0,0,0,2.63,1.68c5.52,1.85,11.86-.1,17.25,2.1,2.19.89,4.06,2.4,6.13,3.52a19.17,19.17,0,0,0,17.65.13S140.16,245.35,138.27,245Z"/><path class="cls-4" d="M76.84,213.5a9.05,9.05,0,0,0-2.19-2.77,2.36,2.36,0,0,0-3.19.28,2.24,2.24,0,0,0,.33,2.59,6.56,6.56,0,0,0,2.3,1.56c2,1,6.67,3.28,8.63,4.23A19.32,19.32,0,0,1,76.84,213.5Z"/><path class="cls-10" d="M165.39,143.86c-1,1.24-.52,3-.28,4.57.46,2.93.11,6.2,1.91,8.55,0,0,.18,2.26.74.7,1.24-3.49-.25-7.4-.48-11.09a3.78,3.78,0,0,0-1-2.88.62.62,0,0,0-.38-.16A.68.68,0,0,0,165.39,143.86Z"/><path class="cls-10" d="M163.52,140.56a2.4,2.4,0,0,0,.58.75.83.83,0,0,0,.9.1,1.13,1.13,0,0,0,.86-1.26,9.67,9.67,0,0,0-1.81-4.93c-.25-.32-.6-.66-1-.58a1,1,0,0,0-.62.57,3.81,3.81,0,0,0-.16,2.78A11.71,11.71,0,0,0,163.52,140.56Z"/><path class="cls-4" d="M174.22,189.67c.19,0,.31-.18.39-.35q2.43-5.28,4.84-10.56a52.34,52.34,0,0,0,2.26-5.49c.46-1.42.8-2.87,1.13-4.32.51-2.24,2.45-6.11,3-8.35-.77-3.39,1-6.77,2.84-9.74s3.75-6.22,3.26-9.66c-.07-.49-.37-1.09-.85-1-.3.06-.47.36-.58.64-1.23,2.86-1.31,6.28-3.31,8.67-.58.7-1.3,1.27-1.91,1.93a14,14,0,0,0-2.47,4.08,21.71,21.71,0,0,0-1.59,5.26c-.25,1.6-.26,3.22-.49,4.82a34.84,34.84,0,0,1-.91,4l-1.38,5.13a32.86,32.86,0,0,1-3.48,9.18,12.15,12.15,0,0,0-1.51,2.73,2.75,2.75,0,0,0,.59,2.9A.43.43,0,0,0,174.22,189.67Z"/><path class="cls-11" d="M406.69,195.74l-8.25,43.09q-.9,2.25-1.81,4.39a147.86,147.86,0,0,1-14.49,26.93c-5,7.18-10.06,12.23-14.66,14.64l8.26-43.11c4.6-2.4,9.62-7.44,14.66-14.62a148.65,148.65,0,0,0,14.49-26.95Q405.81,198,406.69,195.74Z"/><path class="cls-11" d="M423.2,109.54,415,152.65q-.9,2.22-1.81,4.37A148,148,0,0,1,398.65,184c-5,7.16-10.06,12.22-14.66,14.62l8.26-43.09c4.6-2.42,9.62-7.46,14.66-14.64a149.44,149.44,0,0,0,14.49-26.93Q422.32,111.79,423.2,109.54Z"/><path class="cls-11" d="M390.18,281.94,381.93,325c-.6,1.48-1.2,3-1.81,4.38a148.87,148.87,0,0,1-14.49,26.94c-5,7.19-10.06,12.23-14.66,14.62l8.26-43.09c4.59-2.39,9.62-7.46,14.66-14.62a148.87,148.87,0,0,0,14.49-26.94C389,284.88,389.59,283.42,390.18,281.94Z"/><path class="cls-11" d="M373.67,368.12l-8.26,43.11q-.89,2.22-1.8,4.38a149.33,149.33,0,0,1-14.49,26.95c-5,7.16-10.06,12.22-14.66,14.61l8.26-43.09c4.6-2.41,9.62-7.45,14.66-14.63a149.17,149.17,0,0,0,14.48-26.93C372.47,371.08,373.07,369.62,373.67,368.12Z"/><path class="cls-11" d="M357.16,454.32l-8.25,43.09c-.6,1.5-1.2,3-1.81,4.4a150.71,150.71,0,0,1-14.49,26.95c-5,7.16-10.06,12.2-14.66,14.61l8.25-43.09c4.6-2.41,9.63-7.45,14.66-14.63a148.69,148.69,0,0,0,14.5-26.95C356,457.28,356.57,455.8,357.16,454.32Z"/><path class="cls-8" d="M415,152.65l-8.26,43.09q-.88,2.22-1.8,4.37a148.65,148.65,0,0,1-14.49,26.95c-5,7.18-10.06,12.22-14.66,14.62L384,198.59c4.6-2.4,9.63-7.46,14.66-14.62A148,148,0,0,0,413.14,157Q414.06,154.88,415,152.65Z"/><path class="cls-8" d="M301.09,220.1c12.88-1,25.74-1.69,38.59-2.33l38.53-1.85c6.42-.26,12.84-.6,19.25-.95s12.82-.72,19.23-1.08,12.81-.85,19.19-1.51c3.19-.3,6.37-.68,9.53-1.19a43.65,43.65,0,0,0,4.68-1,14.89,14.89,0,0,0,2.25-.76,4.61,4.61,0,0,0,1-.59,1.47,1.47,0,0,0,.63-1,1.57,1.57,0,0,1-.5,1.1,5.55,5.55,0,0,1-1,.78,15.17,15.17,0,0,1-2.19,1.14,44.23,44.23,0,0,1-4.62,1.6c-3.12.92-6.3,1.6-9.47,2.25-6.37,1.23-12.77,2.18-19.19,2.95s-12.85,1.36-19.28,1.92-12.88.86-19.32,1.21-12.9.51-19.34.64-12.9.21-19.35.12C326.86,221.53,314,221.12,301.09,220.1Z"/><path class="cls-8" d="M435.57,45,423.2,109.54q-.88,2.25-1.8,4.39a149.44,149.44,0,0,1-14.49,26.93c-5,7.18-10.06,12.22-14.66,14.64L414.2,40.91Z"/><path class="cls-8" d="M398.44,238.83l-8.26,43.11c-.59,1.48-1.2,2.94-1.8,4.38a148.87,148.87,0,0,1-14.49,26.94c-5,7.16-10.07,12.23-14.66,14.62l8.25-43.09c4.6-2.41,9.63-7.46,14.66-14.64a147.86,147.86,0,0,0,14.49-26.93Q397.55,241.08,398.44,238.83Z"/><path class="cls-8" d="M381.93,325l-8.26,43.09c-.6,1.5-1.2,3-1.81,4.4a149.17,149.17,0,0,1-14.48,26.93c-5,7.18-10.06,12.22-14.66,14.63L351,371c4.6-2.39,9.62-7.43,14.66-14.62a148.87,148.87,0,0,0,14.49-26.94C380.73,328,381.33,326.51,381.93,325Z"/><path class="cls-8" d="M365.41,411.23l-8.25,43.09c-.59,1.48-1.2,3-1.8,4.38a148.69,148.69,0,0,1-14.5,26.95c-5,7.18-10.06,12.22-14.66,14.63l8.26-43.11c4.6-2.39,9.63-7.45,14.66-14.61a149.33,149.33,0,0,0,14.49-26.95Q364.53,413.45,365.41,411.23Z"/><path class="cls-8" d="M348.91,497.41l-8.26,43.11q-.9,2.22-1.81,4.38a148.09,148.09,0,0,1-14.49,27c-5,7.16-10.06,12.22-14.66,14.61L318,543.37c4.6-2.41,9.62-7.45,14.66-14.61a150.71,150.71,0,0,0,14.49-26.95C347.71,500.37,348.31,498.91,348.91,497.41Z"/><path class="cls-12" d="M397.85,267.81c-2.88-.44-5.75-.85-8.63-1.25q-7.07-1-14.14-1.83l-7.39-.88-1.05-.11c-3.4-.38-6.8-.72-10.21-1.06-2.8-.28-5.61-.54-8.42-.8l-1.41-.12-5.12-.44c-1.17-.1-2.34-.21-3.52-.3-1.85-.15-3.7-.26-5.56-.39l-1.09-.08-5.7-.38c-3.9-.25-7.81-.45-11.71-.64-2.14-.1-4.27-.22-6.41-.31l-.47,0q-7-.27-13.92-.39c-2.36,0-4.73-.07-7.09-.09q-6.9,0-13.81.07l-4.06.08-4.47.13-3.07.11-3.81.17c-1.47.06-2.93.13-4.4.21-2.08.12-4.16.24-6.24.38l-2.28.17c-2.53.18-5.05.38-7.58.6q-5.94.51-11.88,1.2-3.78.44-7.54.94c-5.34.73-10.67,1.55-16,2.51q-3.9.7-7.78,1.49c-2.42.5-4.83,1-7.23,1.56a2.76,2.76,0,0,0-.47.2,2.86,2.86,0,0,0-1.66,2.38,5.72,5.72,0,0,0,.32,1.85l.51,1.93,2,7.7q1.92,7.73,3.74,15.46c2.4,10.33,4.69,20.69,6.8,31.08l1.55,7.81,1.43,7.82c1,5.21,1.82,10.46,2.71,15.69,1.6,10.5,2.95,21.05,3.72,31.68.25,5.32.6,10.64.41,16,0,1.34,0,2.68-.07,4l-.36,4-.73,8c-1.07,10.58-2.39,21.12-3.87,31.64s-3.12,21-4.94,31.49-3.81,20.9-6,31.3-4.54,20.77-7,31.09-4.16,20.63-5.78,31a527.81,527.81,0,0,0-5.92,63c-.68,21.07.12,42.24,3.69,63a189.9,189.9,0,0,0,7.72,30.51,124.5,124.5,0,0,0,13.77,28.14l0,0,0,0A101.89,101.89,0,0,0,206,777.65a133.89,133.89,0,0,0,10,11.38,138.92,138.92,0,0,0,11.25,10.17,124.74,124.74,0,0,0,12.4,8.68,105.22,105.22,0,0,0,27.71,11.89,102.41,102.41,0,0,0,29.94,3.16A125.37,125.37,0,0,0,327.14,818l7.22-2.3a57.35,57.35,0,0,0,6.88-2.94,114.13,114.13,0,0,0,13-7.66,137.61,137.61,0,0,0,40.92-44c10.35-17.39,16.94-36.86,20.49-56.78l.69-3.73c.22-1.25.36-2.51.55-3.77.32-2.51.76-5,1-7.53.47-5.09,1.06-10.1,1.23-15.16.45-10.13.33-20.32-.07-30.49a580,580,0,0,0-5.95-60.83c-1.51-10.08-3.26-20.14-5.22-30.12l-1.52-7.47c-.5-2.51-1-4.94-1.62-7.46-1.19-5-2.21-10.08-3.22-15.13a581.94,581.94,0,0,1-10.65-122.86l.18-7.73c.09-2.57.3-5.14.44-7.72l.47-7.71c.14-2.58.3-5.15.6-7.71l1.59-15.39,2.27-15.29c.71-5.09,1.64-10.2,2.7-15.25s2.2-10.08,3.48-15.08,2.66-10,4.25-14.92a155.73,155.73,0,0,1,5.38-14.64c.51-1.21,1-2.41,1.61-3.59l1.54-3.2a.86.86,0,0,0-.2-.87.73.73,0,0,0-.45-.2l-1.87-.31q-4-.67-8.08-1.29l-6.82-1Z"/><path class="cls-13" d="M237.64,298.52c-3.13-2.39-5.26-1.91-6.66-.64a9.43,9.43,0,0,0-2.35,4.37c-1,4.73-9.73,25.06-9.73,25.06a34.86,34.86,0,0,0-3.77,9.81s.13,7.18,9,10.8a126,126,0,0,1,18.47,10,28.21,28.21,0,0,0,6.93,3c1.87.8,2.76.68,3.19.35a1.05,1.05,0,0,0,.39-.88c-1.16-2.09-.07-2.5-.07-2.5,2.09-2.23,4.49-7.92,5.27-9.86a6.56,6.56,0,0,1-7.23,1.15s-9.13-6.95-14.22-8.38c0,0-6.29-1.22-6.16-3.9,0,0-.5-1.23,1.34-4.4,0,0,5.58-9.88,6.92-14.48a97.34,97.34,0,0,0,2.48-9.7,4.51,4.51,0,0,1,4.7-4,43.19,43.19,0,0,1-4.45-2.62Z"/><path class="cls-13" d="M253.13,360.33c-1.16-2.09-.07-2.5-.07-2.5,2.53-2.7,5.53-10.52,5.53-10.52a261.79,261.79,0,0,1,10.51-25.1c2.44-4.68,1.33-6.46,1.33-6.46-.21-2.15-8.36-5.08-8.36-5.08-13.51-4.1-20.36-9-20.36-9l-4.07-3.15c-3.13-2.39-5.26-1.91-6.66-.64a9.43,9.43,0,0,0-2.35,4.37c-1,4.73-9.73,25.06-9.73,25.06a34.86,34.86,0,0,0-3.77,9.81s.13,7.18,9,10.8a126,126,0,0,1,18.47,10,28.21,28.21,0,0,0,6.93,3c1.87.8,2.76.68,3.19.35A1.05,1.05,0,0,0,253.13,360.33Z"/><path class="cls-14" d="M284.93,315.52s6.07-1.71,5.94,3.67a8.39,8.39,0,0,0-.06-2.21c-.66-3.48-8.18-6.65-8.18-6.65l-17.57-7.72s-7.09-3.49-9.11-4.45-2.9-.5-2.9-.5c-1.86.13-7.18-1-7.18-1-13.32-2.91-14.89,1.24-14.89,1.24h0c1.4-1.27,3.53-1.75,6.66.64l4.07,3.15s6.85,4.9,20.36,9c0,0,8.15,2.93,8.36,5.08a1.51,1.51,0,0,1,.14.34,5.76,5.76,0,0,0,3.67.09C277.51,315.22,284.93,315.52,284.93,315.52Z"/><path class="cls-15" d="M269.1,322.21a261.79,261.79,0,0,0-10.51,25.1s-3,7.82-5.53,10.52c0,0-1.09.41.07,2.5a1.05,1.05,0,0,1-.39.88c.75.89,4.36-.54,4.36-.54,5.24-2.1,15.63-1.18,15.63-1.18a3.32,3.32,0,0,0,3.36-1.51,31.07,31.07,0,0,0,2.05-6.15c.71-3.33,4.31-10.81,4.31-10.81l6.32-13.7a35.84,35.84,0,0,0,2.1-8.13c.13-5.38-5.94-3.67-5.94-3.67s-7.42-.3-10.69.66a5.76,5.76,0,0,1-3.67-.09C270.76,316.81,270.94,318.69,269.1,322.21Z"/><path class="cls-8" d="M239.3,301.39a.9.9,0,0,0-.94.28,19.51,19.51,0,0,0-4.66,11.51c-.2,6.32-4.64,14.56-5.48,16.07a1,1,0,0,1-.34.35,3.77,3.77,0,0,0-1.77,2.07.92.92,0,0,0,1.73.63l0-.05a20.13,20.13,0,0,1,3.81-5.56,20,20,0,0,0,4.82-9.68,82.44,82.44,0,0,1,2.24-9.5.84.84,0,0,1,.08-.2c.34-.6,2.3-3.87,4.7-3.47S241.52,302,239.3,301.39Z"/><path class="cls-8" d="M249,317.21s-8.59,1.12-4.53,2.75l12.14,1.71a23.79,23.79,0,0,1-6.94.52c-3-.39.13,2,.13,2s4.4,2.7,8.9,2.13,0,1.82,0,1.82,5.79-.12,6-3c0,0,.85-1.53-.8-3.73s4.17-1.2,4.17-1.2,2.42-3.85-3-5.86c-2.89-1.08-4.06-1-4.53-.62a7.46,7.46,0,0,1-2.61,1.31Z"/><path class="cls-8" d="M286.65,320.2a9.23,9.23,0,0,0-4,3.21,5.13,5.13,0,0,0-1,3,1.72,1.72,0,0,1-1.2,1.65c-1.78.73-1.12,4.1-1.12,4.1s-3.22,10.44-7.52,13.44a.28.28,0,0,0,.13.51c1.3,0,4.28-1.11,7.94-10.22a11,11,0,0,1,1.35-2.41,17.78,17.78,0,0,0,3.31-6.86,16.39,16.39,0,0,1,2.42-6.11A.22.22,0,0,0,286.65,320.2Z"/><path class="cls-8" d="M279.52,320.22c-1.51,1.28-3.1,2.67-3.62,4.59a14,14,0,0,0-.16,3.94,17.08,17.08,0,0,1-6.1,13.22,17.75,17.75,0,0,0,2.71-5.56,14.48,14.48,0,0,0,.95-3.81c.16-2.43-.91-4.92-.24-7.27a6.53,6.53,0,0,1,2.42-3.3,13.76,13.76,0,0,1,3.7-1.84Z"/><path class="cls-8" d="M263.84,338.8c-.23,1.51-1.35,2.75-1.72,4.23-.24.94-.35,1.91-.57,2.86-.92,3.84-3.72,7-4.67,10.84a.58.58,0,0,0,0,.5.54.54,0,0,0,.39.14,5,5,0,0,0,4.13-2c1.83-2.47,1-6,1.79-9,1-4,4.76-6.65,6.26-10.45a13.77,13.77,0,0,0,.73-6.21,29.36,29.36,0,0,1-.3-3.85,6.27,6.27,0,0,1,.63-2.67c.05-.08-.07-.16-.13-.09a16.31,16.31,0,0,0-3.77,7.38c-.33,1.55-.44,3.15-.87,4.68s-.39,2.38-1.74,3.19A.61.61,0,0,0,263.84,338.8Z"/><path class="cls-8" d="M228.44,342.8c1.45.57,2.2,2.24,3.64,2.86a15.92,15.92,0,0,0,4.52,1.11,3.6,3.6,0,0,1,3.32,1.75l1.68,2.2c.53.68,1.05,1.36,1.64,2a18.77,18.77,0,0,0,6.45,4c.21.09.46.25.43.48a4.27,4.27,0,0,1-1.72-.57,38.25,38.25,0,0,1-5.87-4.27,4.68,4.68,0,0,0-1.06-.71,5.52,5.52,0,0,0-1.06-.28,49.23,49.23,0,0,1-5.14-1.47,14,14,0,0,1-2.72-1.1,10.6,10.6,0,0,1-4.22-5.68S228.27,342.73,228.44,342.8Z"/><path class="cls-13" d="M377,346.31c4-2.85,4.3-5.6,3.34-7.78A11.84,11.84,0,0,0,376,334c-5.24-3-26-21.42-26-21.42a43.37,43.37,0,0,0-10.2-8.34s-8.57-2.61-16.3,6.71-19,18.43-19,18.43a35.58,35.58,0,0,0-6.2,7.21c-1.67,1.94-1.88,3.07-1.65,3.71a1.3,1.3,0,0,0,.89.81c2.93-.59,3,.88,3,.88,1.84,3.38,7.67,8.47,9.67,10.17a8.41,8.41,0,0,1,1.43-9.16s11.79-8.33,15.45-13.93c0,0,3.88-7.11,7-5.92,0,0,1.64-.12,4.69,3.33,0,0,9.59,10.55,14.54,13.94a118.71,118.71,0,0,0,10.55,6.73,5.73,5.73,0,0,1,2.9,7.21,51.4,51.4,0,0,1,4.84-4.35Z"/><path class="cls-13" d="M297.56,341.11c2.93-.59,3,.88,3,.88,2.23,4.1,10.36,10.74,10.36,10.74a326.31,326.31,0,0,1,25.75,22.38c4.6,4.75,7.15,4.1,7.15,4.1,2.63.58,9.27-8.12,9.27-8.12C363.18,356.37,371.65,350,371.65,350l5.31-3.7c4-2.85,4.3-5.6,3.34-7.78A11.84,11.84,0,0,0,376,334c-5.24-3-26-21.42-26-21.42a43.37,43.37,0,0,0-10.2-8.34s-8.57-2.61-16.3,6.71-19,18.43-19,18.43a35.58,35.58,0,0,0-6.2,7.21c-1.67,1.94-1.88,3.07-1.65,3.71A1.3,1.3,0,0,0,297.56,341.11Z"/><path class="cls-14" d="M338.49,396.79s-.32,8-6.65,5.75a10.43,10.43,0,0,0,2.65.78c4.38.54,11.05-7.3,11.05-7.3l16-18.21s6.88-7.2,8.81-9.26,1.71-3.32,1.71-3.32c.57-2.28,4-8.26,4-8.26,8.61-14.94,4.28-18.44,4.28-18.44h0c1,2.18.7,4.93-3.34,7.78l-5.31,3.7s-8.47,6.36-18.56,21.08c0,0-6.64,8.7-9.27,8.12a1.84,1.84,0,0,1-.46,0,7.59,7.59,0,0,0-1.53,4.4C341.71,388,338.49,396.79,338.49,396.79Z"/><path class="cls-15" d="M336.67,375.11a326.31,326.31,0,0,0-25.75-22.38s-8.13-6.64-10.36-10.74c0,0-.07-1.47-3-.88a1.3,1.3,0,0,1-.89-.81c-1.34.56-1,5.47-1,5.47.46,7.12-4.64,19.31-4.64,19.31a4.23,4.23,0,0,0,.49,4.63,39.33,39.33,0,0,0,6.51,4.85c3.68,2.15,11.18,9.39,11.18,9.39L323,396.86a44.3,44.3,0,0,0,8.85,5.68c6.33,2.23,6.65-5.75,6.65-5.75s3.22-8.84,3.34-13.15a7.59,7.59,0,0,1,1.53-4.4C342.44,379.2,340.13,378.69,336.67,375.11Z"/><path class="cls-8" d="M372.91,347.21a1.2,1.2,0,0,0,0-1.25c-1.13-1.87-5-7.6-11.87-10.06-7.44-2.69-15.5-11.23-17-12.83a1,1,0,0,1-.28-.55,4.79,4.79,0,0,0-1.78-2.92,1.17,1.17,0,0,0-1.43,1.83l.06.05a25.33,25.33,0,0,1,5.13,6.75c1.95,3.33,5.43,7.51,9.63,9.55a103.22,103.22,0,0,1,10.42,6.37.86.86,0,0,1,.2.18c.59.64,3.72,4.27,2.31,7S371.33,349.65,372.91,347.21Z"/><path class="cls-8" d="M350.37,352.79s2-10.78-1.52-6.52l-6.72,14a30.44,30.44,0,0,1,2.07-8.58c1.62-3.47-2.47-.62-2.47-.62s-4.91,4.26-6,9.9-2.17-.67-2.17-.67-2.09,7,1.26,8.43c0,0,1.49,1.61,4.74.48s-.18,5.49-.18,5.49,3.64,4.41,8.11-1.31c2.39-3.07,2.71-4.53,2.49-5.22a9.62,9.62,0,0,1-.56-3.67Z"/><path class="cls-8" d="M332.27,397.06a11.83,11.83,0,0,0-2.25-6.12,6.59,6.59,0,0,0-3.2-2.38,2.14,2.14,0,0,1-1.5-2.08c-.18-2.42-4.44-2.94-4.44-2.94s-11.15-7.91-13.05-14.27a.34.34,0,0,0-.65,0c-.53,1.56-.34,5.59,9.07,13.53a13.88,13.88,0,0,1,2.34,2.56c1.31,1.86,3.9,5.1,6.86,6.64a20.64,20.64,0,0,1,6.32,5.28A.28.28,0,0,0,332.27,397.06Z"/><path class="cls-8" d="M335,388.44c-.94-2.31-2-4.76-4.05-6.13a17.35,17.35,0,0,0-4.62-1.72A21.3,21.3,0,0,1,313,368.12a21.88,21.88,0,0,0,5.56,5.42,18,18,0,0,0,4.15,2.62c2.83,1.13,6.2.8,8.72,2.52a8.11,8.11,0,0,1,3,4.2,17.64,17.64,0,0,1,.77,5.17Z"/><path class="cls-8" d="M319,362.35c-1.7-.86-2.73-2.69-4.35-3.71-1-.65-2.14-1.16-3.18-1.79-4.21-2.59-6.88-7.2-11.07-9.83a.69.69,0,0,0-.61-.14.64.64,0,0,0-.31.42,6.31,6.31,0,0,0,.74,5.73c2.23,3.17,6.71,3.54,10,5.64,4.31,2.77,6.06,8.31,10,11.59a16.86,16.86,0,0,0,7.1,3.27,39.37,39.37,0,0,1,4.68,1.13,7.67,7.67,0,0,1,2.92,1.8.1.1,0,0,0,.16-.13,20.5,20.5,0,0,0-7.31-7.4c-1.71-1-3.57-1.75-5.22-2.85s-2.68-1.39-3.11-3.34A.81.81,0,0,0,319,362.35Z"/><path class="cls-8" d="M327.93,318.1c-1.24,1.53-3.52,1.8-4.81,3.28a20.52,20.52,0,0,0-3.06,5,6.56,6.56,0,0,1-1.48,2.38,6,6,0,0,1-1.89.95l-3.25,1.18a28.92,28.92,0,0,0-3,1.21,23.88,23.88,0,0,0-7.26,6.22c-.19.22-.47.47-.73.34a5,5,0,0,1,1.34-1.85,47.76,47.76,0,0,1,7.34-5.44,4.52,4.52,0,0,0,2-2.17,63.78,63.78,0,0,1,3.73-5.63,17.1,17.1,0,0,1,2.36-2.86c2.24-2,5.37-2.77,8.38-2.89C327.59,317.85,328.07,317.93,327.93,318.1Z"/><path class="cls-13" d="M328.59,413.63c-3.13-2.38-5.26-1.9-6.65-.64a9.43,9.43,0,0,0-2.36,4.37c-1,4.74-9.73,25.06-9.73,25.06a35.12,35.12,0,0,0-3.76,9.82s.13,7.18,9,10.79a125.32,125.32,0,0,1,18.48,10,28.21,28.21,0,0,0,6.93,3c1.87.8,2.76.68,3.19.35a1,1,0,0,0,.38-.88c-1.15-2.09-.06-2.51-.06-2.51,2.08-2.22,4.48-7.91,5.27-9.85a6.57,6.57,0,0,1-7.23,1.15s-9.13-7-14.23-8.38c0,0-6.29-1.22-6.16-3.91,0,0-.49-1.22,1.35-4.39,0,0,5.58-9.89,6.91-14.49a93.3,93.3,0,0,0,2.48-9.69,4.53,4.53,0,0,1,4.71-4,42,42,0,0,1-4.46-2.62Z"/><path class="cls-13" d="M344.08,475.45c-1.15-2.09-.06-2.51-.06-2.51,2.53-2.69,5.53-10.52,5.53-10.52a259,259,0,0,1,10.51-25.1c2.43-4.67,1.33-6.45,1.33-6.45-.21-2.15-8.36-5.08-8.36-5.08-13.52-4.11-20.37-9-20.37-9l-4.07-3.15c-3.13-2.38-5.26-1.9-6.65-.64a9.43,9.43,0,0,0-2.36,4.37c-1,4.74-9.73,25.06-9.73,25.06a35.12,35.12,0,0,0-3.76,9.82s.13,7.18,9,10.79a125.32,125.32,0,0,1,18.48,10,28.21,28.21,0,0,0,6.93,3c1.87.8,2.76.68,3.19.35A1,1,0,0,0,344.08,475.45Z"/><path class="cls-14" d="M375.88,430.63s6.07-1.7,5.94,3.67a8,8,0,0,0-.06-2.21c-.66-3.47-8.18-6.64-8.18-6.64L356,417.72s-7.09-3.48-9.11-4.44-2.91-.5-2.91-.5c-1.85.12-7.18-1-7.18-1-13.32-2.92-14.88,1.24-14.88,1.24h0c1.39-1.26,3.52-1.74,6.65.64l4.07,3.15s6.85,4.9,20.37,9c0,0,8.15,2.93,8.36,5.08a1.3,1.3,0,0,1,.13.34,5.83,5.83,0,0,0,3.67.09C368.46,430.34,375.88,430.63,375.88,430.63Z"/><path class="cls-15" d="M360.06,437.32a259,259,0,0,0-10.51,25.1s-3,7.83-5.53,10.52c0,0-1.09.42.06,2.51a1,1,0,0,1-.38.88c.74.88,4.35-.55,4.35-.55,5.24-2.09,15.64-1.18,15.64-1.18a3.3,3.3,0,0,0,3.35-1.5,31.36,31.36,0,0,0,2-6.15c.72-3.34,4.32-10.82,4.32-10.82l6.32-13.69a35.64,35.64,0,0,0,2.09-8.14c.13-5.37-5.94-3.67-5.94-3.67s-7.42-.29-10.69.67a5.83,5.83,0,0,1-3.67-.09C361.72,431.92,361.89,433.81,360.06,437.32Z"/><path class="cls-8" d="M330.25,416.51a.9.9,0,0,0-.94.28,19.51,19.51,0,0,0-4.65,11.5c-.2,6.33-4.64,14.57-5.49,16.07a.82.82,0,0,1-.34.35,3.76,3.76,0,0,0-1.76,2.07.92.92,0,0,0,1.72.64l0-.05a19.91,19.91,0,0,1,3.81-5.56,20.11,20.11,0,0,0,4.82-9.68,83,83,0,0,1,2.23-9.5,1.19,1.19,0,0,1,.08-.2c.35-.61,2.31-3.88,4.71-3.47S332.47,417.11,330.25,416.51Z"/><path class="cls-8" d="M340,432.33s-8.58,1.11-4.52,2.75l12.14,1.71a23.88,23.88,0,0,1-6.95.52c-3-.39.13,2,.13,2s4.41,2.7,8.9,2.13,0,1.82,0,1.82,5.79-.13,6-3c0,0,.84-1.53-.8-3.73s4.17-1.21,4.17-1.21,2.41-3.85-3-5.86c-2.88-1.07-4-1-4.52-.62a7.36,7.36,0,0,1-2.62,1.32Z"/><path class="cls-8" d="M377.61,435.31a9.34,9.34,0,0,0-4.05,3.21,5.33,5.33,0,0,0-1,3,1.71,1.71,0,0,1-1.19,1.65c-1.78.74-1.13,4.11-1.13,4.11s-3.22,10.44-7.52,13.44a.27.27,0,0,0,.14.5c1.29,0,4.27-1.1,7.94-10.22a10.78,10.78,0,0,1,1.35-2.41,17.85,17.85,0,0,0,3.3-6.86,16.48,16.48,0,0,1,2.43-6.1A.23.23,0,0,0,377.61,435.31Z"/><path class="cls-8" d="M370.47,435.34c-1.5,1.28-3.09,2.67-3.61,4.59a14,14,0,0,0-.16,3.94,17.11,17.11,0,0,1-6.11,13.22,17.59,17.59,0,0,0,2.71-5.57,14.43,14.43,0,0,0,1-3.8c.15-2.44-.91-4.93-.24-7.27a6.44,6.44,0,0,1,2.42-3.3,14.09,14.09,0,0,1,3.7-1.85Z"/><path class="cls-8" d="M354.79,453.92c-.23,1.5-1.35,2.74-1.72,4.22-.23.95-.34,1.92-.57,2.86-.91,3.85-3.72,7-4.67,10.85a.58.58,0,0,0,0,.5.53.53,0,0,0,.4.13,5,5,0,0,0,4.12-2c1.83-2.47,1-6,1.8-9,1-4,4.76-6.65,6.26-10.45a13.66,13.66,0,0,0,.72-6.22,33.1,33.1,0,0,1-.3-3.84,6.14,6.14,0,0,1,.64-2.67.08.08,0,0,0-.14-.09,16.4,16.4,0,0,0-3.76,7.38c-.34,1.55-.45,3.15-.87,4.68s-.39,2.38-1.75,3.19A.67.67,0,0,0,354.79,453.92Z"/><path class="cls-8" d="M319.39,457.92c1.46.56,2.21,2.24,3.64,2.86a16,16,0,0,0,4.53,1.1,5.18,5.18,0,0,1,2.14.55,4.85,4.85,0,0,1,1.18,1.21l1.68,2.19a20.88,20.88,0,0,0,1.64,2,18.73,18.73,0,0,0,6.44,4c.21.09.47.24.43.47a3.9,3.9,0,0,1-1.71-.57,37.5,37.5,0,0,1-5.88-4.27,5,5,0,0,0-1.06-.7,5.26,5.26,0,0,0-1.05-.29,47.82,47.82,0,0,1-5.14-1.46,13.71,13.71,0,0,1-2.72-1.1,10.53,10.53,0,0,1-4.22-5.69S319.23,457.85,319.39,457.92Z"/><path class="cls-13" d="M339.59,500.42c-2-1.53-3.38-1.23-4.27-.42a6,6,0,0,0-1.51,2.81c-.63,3-6.25,16.08-6.25,16.08a22.72,22.72,0,0,0-2.42,6.3s.09,4.61,5.79,6.93a80.62,80.62,0,0,1,11.86,6.4,18.2,18.2,0,0,0,4.45,1.91c1.19.51,1.77.44,2,.23a.7.7,0,0,0,.25-.57c-.74-1.34,0-1.61,0-1.61,1.34-1.42,2.88-5.08,3.38-6.32a4.21,4.21,0,0,1-4.64.73s-5.86-4.46-9.13-5.37c0,0-4-.79-4-2.51,0,0-.32-.79.86-2.82,0,0,3.58-6.35,4.44-9.3a60.33,60.33,0,0,0,1.59-6.22,2.9,2.9,0,0,1,3-2.55,28.05,28.05,0,0,1-2.86-1.68Z"/><path class="cls-13" d="M349.53,540.09c-.74-1.34,0-1.61,0-1.61,1.62-1.73,3.55-6.75,3.55-6.75a167.62,167.62,0,0,1,6.75-16.11c1.56-3,.85-4.14.85-4.14-.14-1.38-5.37-3.27-5.37-3.27-8.67-2.63-13.07-5.77-13.07-5.77l-2.61-2c-2-1.53-3.38-1.23-4.27-.42a6,6,0,0,0-1.51,2.81c-.63,3-6.25,16.08-6.25,16.08a22.72,22.72,0,0,0-2.42,6.3s.09,4.61,5.79,6.93a80.62,80.62,0,0,1,11.86,6.4,18.2,18.2,0,0,0,4.45,1.91c1.19.51,1.77.44,2,.23A.7.7,0,0,0,349.53,540.09Z"/><path class="cls-14" d="M369.94,511.33s3.9-1.1,3.82,2.35a5.47,5.47,0,0,0,0-1.42c-.43-2.23-5.25-4.26-5.25-4.26l-11.28-5s-4.55-2.24-5.84-2.86-1.87-.31-1.87-.31a27.93,27.93,0,0,1-4.61-.67c-8.55-1.87-9.55.8-9.55.8h0c.89-.81,2.26-1.11,4.27.42l2.61,2s4.4,3.14,13.07,5.77c0,0,5.23,1.89,5.37,3.27a1,1,0,0,1,.08.22,3.79,3.79,0,0,0,2.36.05C365.18,511.14,369.94,511.33,369.94,511.33Z"/><path class="cls-13" d="M243.46,441.82c-4.12-3.14-6.92-2.51-8.76-.85a12.47,12.47,0,0,0-3.09,5.76c-1.29,6.23-12.81,33-12.81,33a46.34,46.34,0,0,0-5,12.92s.18,9.44,11.87,14.21S250,520,250,520a37.18,37.18,0,0,0,9.11,3.91c2.46,1,3.64.89,4.2.46a1.39,1.39,0,0,0,.51-1.16c-1.52-2.75-.09-3.29-.09-3.29,2.75-2.93,5.91-10.42,6.94-13a8.65,8.65,0,0,1-9.51,1.51s-12-9.15-18.73-11c0,0-8.27-1.6-8.11-5.14,0,0-.64-1.61,1.78-5.78,0,0,7.34-13,9.1-19.07a126.88,126.88,0,0,0,3.26-12.76c.86-4.16,3.71-5.18,6.19-5.23a53.5,53.5,0,0,1-5.86-3.45Z"/><path class="cls-13" d="M263.85,523.17c-1.52-2.75-.09-3.29-.09-3.29,3.34-3.55,7.29-13.85,7.29-13.85a342,342,0,0,1,13.83-33c3.2-6.15,1.75-8.5,1.75-8.5-.28-2.83-11-6.69-11-6.69-17.78-5.4-26.8-11.85-26.8-11.85l-5.36-4.14c-4.12-3.14-6.92-2.51-8.76-.85a12.47,12.47,0,0,0-3.09,5.76c-1.29,6.23-12.81,33-12.81,33a46.34,46.34,0,0,0-5,12.92s.18,9.44,11.87,14.21S250,520,250,520a37.18,37.18,0,0,0,9.11,3.91c2.46,1,3.64.89,4.2.46A1.39,1.39,0,0,0,263.85,523.17Z"/><path class="cls-14" d="M305.7,464.19s8-2.24,7.82,4.83a10.65,10.65,0,0,0-.08-2.91c-.87-4.57-10.76-8.74-10.76-8.74L279.56,447.2s-9.33-4.58-12-5.85-3.82-.66-3.82-.66c-2.44.17-9.46-1.36-9.46-1.36C236.77,435.5,234.7,441,234.7,441h0c1.84-1.66,4.64-2.29,8.76.85l5.36,4.14s9,6.45,26.8,11.85c0,0,10.73,3.86,11,6.69a1.69,1.69,0,0,1,.17.45,7.72,7.72,0,0,0,4.84.12C295.94,463.81,305.7,464.19,305.7,464.19Z"/><path class="cls-15" d="M284.88,473a342,342,0,0,0-13.83,33s-3.95,10.3-7.29,13.85c0,0-1.43.54.09,3.29a1.39,1.39,0,0,1-.51,1.16c1,1.17,5.74-.71,5.74-.71,6.89-2.76,20.58-1.56,20.58-1.56a4.35,4.35,0,0,0,4.41-2,41.31,41.31,0,0,0,2.7-8.09c.94-4.39,5.68-14.24,5.68-14.24l8.31-18A46.92,46.92,0,0,0,313.52,469c.17-7.07-7.82-4.83-7.82-4.83s-9.76-.38-14.06.88a7.72,7.72,0,0,1-4.84-.12C287.06,465.89,287.29,468.37,284.88,473Z"/><path class="cls-8" d="M245.65,445.6a1.19,1.19,0,0,0-1.24.37c-1.49,1.74-5.89,7.5-6.13,15.14-.26,8.33-6.11,19.17-7.21,21.15a1.17,1.17,0,0,1-.45.46,5,5,0,0,0-2.32,2.73,1.21,1.21,0,0,0,2.27.84l0-.07c1-2.36,2.35-4.28,5-7.32s5.66-7.87,6.33-12.74a109.59,109.59,0,0,1,3-12.51.8.8,0,0,1,.11-.25c.45-.8,3-5.11,6.19-4.57S248.57,446.4,245.65,445.6Z"/><path class="cls-8" d="M258.41,466.43s-11.29,1.46-6,3.61l16,2.26a31.55,31.55,0,0,1-9.14.68c-4-.52.17,2.67.17,2.67s5.79,3.55,11.71,2.81,0,2.39,0,2.39,7.62-.17,7.93-4c0,0,1.11-2-1.06-4.92s5.49-1.58,5.49-1.58,3.18-5.07-3.91-7.71c-3.8-1.42-5.34-1.27-6-.82a9.79,9.79,0,0,1-3.44,1.73Z"/><path class="cls-8" d="M308,470.35a12.24,12.24,0,0,0-5.32,4.23,6.94,6.94,0,0,0-1.32,4,2.24,2.24,0,0,1-1.57,2.17c-2.34,1-1.48,5.41-1.48,5.41s-4.23,13.73-9.9,17.68a.37.37,0,0,0,.18.67c1.71,0,5.63-1.46,10.45-13.45a14.39,14.39,0,0,1,1.78-3.18c1.41-1.91,3.78-5.55,4.35-9a21.66,21.66,0,0,1,3.19-8A.3.3,0,0,0,308,470.35Z"/><path class="cls-8" d="M298.59,470.39c-2,1.68-4.08,3.51-4.77,6a19.14,19.14,0,0,0-.21,5.19,22.47,22.47,0,0,1-8,17.4,23.35,23.35,0,0,0,3.57-7.33,18.91,18.91,0,0,0,1.25-5c.21-3.21-1.2-6.48-.31-9.57a8.46,8.46,0,0,1,3.18-4.34,18.35,18.35,0,0,1,4.87-2.43Z"/><path class="cls-8" d="M278,494.84c-.31,2-1.78,3.61-2.27,5.56-.31,1.24-.45,2.52-.75,3.76-1.2,5.06-4.89,9.23-6.14,14.27a.72.72,0,0,0,0,.66.68.68,0,0,0,.52.18,6.51,6.51,0,0,0,5.42-2.59c2.42-3.25,1.34-7.87,2.37-11.8,1.36-5.21,6.27-8.75,8.24-13.76a18.08,18.08,0,0,0,.95-8.17,41.05,41.05,0,0,1-.39-5.07,8,8,0,0,1,.83-3.5.11.11,0,0,0-.17-.13,21.48,21.48,0,0,0-5,9.72c-.44,2-.59,4.14-1.14,6.16s-.51,3.13-2.3,4.2A.8.8,0,0,0,278,494.84Z"/><path class="cls-13" d="M306,407.17c3.69,1.91,4.21,4.18,3.66,6.1a9.94,9.94,0,0,1-3.06,4.27c-4,3.11-19.27,20.86-19.27,20.86a36.68,36.68,0,0,1-7.57,8.13s-6.86,3.16-14.36-3.73a133.92,133.92,0,0,0-17.93-13.19,30.05,30.05,0,0,1-6-5.31c-1.62-1.43-1.92-2.34-1.8-2.9a1.1,1.1,0,0,1,.66-.78c2.5.15,2.4-1.08,2.4-1.08,1.15-3,5.44-8,6.91-9.6a7.09,7.09,0,0,0,2.23,7.48s10.78,5.6,14.46,9.85c0,0,4,5.49,6.53,4.13,0,0,1.38-.09,3.54-3.31,0,0,6.81-9.9,10.55-13.3A101.34,101.34,0,0,1,295,408a4.82,4.82,0,0,0,1.6-6.35,42.9,42.9,0,0,0,4.53,3.08Z"/><path class="cls-13" d="M240.33,420.62c2.5.15,2.4-1.08,2.4-1.08,1.39-3.68,7.42-10.15,7.42-10.15a273.89,273.89,0,0,0,19-21.63c3.3-4.48,5.5-4.24,5.5-4.24,2.13-.79,8.65,5.71,8.65,5.71,10.08,11.12,17.87,15.46,17.87,15.46l4.85,2.48c3.69,1.91,4.21,4.18,3.66,6.1a9.94,9.94,0,0,1-3.06,4.27c-4,3.11-19.27,20.86-19.27,20.86a36.68,36.68,0,0,1-7.57,8.13s-6.86,3.16-14.36-3.73a133.92,133.92,0,0,0-17.93-13.19,30.05,30.05,0,0,1-6-5.31c-1.62-1.43-1.92-2.34-1.8-2.9A1.1,1.1,0,0,1,240.33,420.62Z"/><path class="cls-14" d="M268.18,369.47s-1.17-6.62-6.2-4a8.86,8.86,0,0,1,2.12-1c3.6-1,10,4.82,10,4.82l15.37,13.36s6.56,5.22,8.4,6.72,1.8,2.57,1.8,2.57c.73,1.84,4.27,6.43,4.27,6.43,8.87,11.48,5.65,14.89,5.65,14.89h0c.55-1.92,0-4.19-3.66-6.1l-4.85-2.48s-7.79-4.34-17.87-15.46c0,0-6.52-6.5-8.65-5.71a1.81,1.81,0,0,0-.38,0,6.28,6.28,0,0,1-1.78-3.49C271.86,376.47,268.18,369.47,268.18,369.47Z"/><path class="cls-15" d="M269.11,387.76a273.89,273.89,0,0,1-19,21.63s-6,6.47-7.42,10.15c0,0,.1,1.23-2.4,1.08a1.1,1.1,0,0,0-.66.78c-1.18-.31-1.49-4.45-1.49-4.45-.41-6-6.05-15.58-6.05-15.58a3.57,3.57,0,0,1-.11-3.92,33.24,33.24,0,0,1,4.88-4.79c2.83-2.22,8.27-9.11,8.27-9.11l10.07-12.36a37.29,37.29,0,0,1,6.74-5.75c5-2.59,6.2,4,6.2,4s3.68,7,4.27,10.59a6.28,6.28,0,0,0,1.78,3.49C273.46,383.69,271.6,384.38,269.11,387.76Z"/><path class="cls-8" d="M302.5,406.88a1,1,0,0,1,.16,1,20.53,20.53,0,0,1-8.76,9.76c-5.9,3.09-11.67,11.14-12.71,12.64a1,1,0,0,0-.17.49,4,4,0,0,1-1.15,2.65,1,1,0,0,1-1.4-1.37l0,0a21.29,21.29,0,0,0,3.52-6.22c1.26-3,3.69-6.89,7-9.07a85.63,85.63,0,0,0,8-6.52.61.61,0,0,0,.15-.17c.42-.6,2.62-4,1.13-6.12S300.9,405,302.5,406.88Z"/><path class="cls-8" d="M283.06,404.82s2.88,8.76-.53,5.61l-7.19-10.9a25.75,25.75,0,0,0,2.7,6.92c1.74,2.71-2,.81-2,.81s-4.57-3-6.1-7.58-1.73.81-1.73.81-2.54-5.63.09-7.18c0,0,1.07-1.52,3.91-.94s-.77-4.57-.77-4.57,2.54-4.09,6.91.17c2.34,2.29,2.77,3.47,2.66,4.07a8,8,0,0,0,0,3.12Z"/><path class="cls-8" d="M263,370a10,10,0,0,1-1.19,5.36,5.5,5.5,0,0,1-2.4,2.35,1.8,1.8,0,0,0-1,1.91c.12,2-3.38,3-3.38,3s-8.41,7.88-9.27,13.4a.29.29,0,0,1-.54.1c-.62-1.23-.92-4.62,6-12.33a11.09,11.09,0,0,0,1.67-2.4c.89-1.7,2.68-4.7,5-6.33a17.29,17.29,0,0,0,4.67-5.13A.24.24,0,0,1,263,370Z"/><path class="cls-8" d="M266.21,376.83c-.52,2-1.11,4.2-2.69,5.59a15,15,0,0,1-3.66,2,18,18,0,0,0-9.72,11.94,18.66,18.66,0,0,1,4-5.17,15.13,15.13,0,0,1,3.16-2.66c2.24-1.26,5.09-1.38,7-3.1a6.87,6.87,0,0,0,2-3.85,14.74,14.74,0,0,0,.05-4.4Z"/><path class="cls-8" d="M255.8,400.44c-1.32.91-2,2.56-3.21,3.59-.78.66-1.66,1.21-2.45,1.86-3.22,2.65-4.93,6.8-8.12,9.47a.58.58,0,0,1-.5.19.61.61,0,0,1-.31-.32,5.31,5.31,0,0,1,0-4.86c1.5-2.9,5.19-3.73,7.66-5.85,3.28-2.81,4.12-7.63,7-10.81a14.22,14.22,0,0,1,5.55-3.55,33.44,33.44,0,0,0,3.79-1.48,6.61,6.61,0,0,0,2.23-1.83.09.09,0,0,1,.15.08,17.17,17.17,0,0,1-5.27,7c-1.31,1-2.78,1.88-4,3s-2.08,1.46-2.22,3.14A.64.64,0,0,1,255.8,400.44Z"/><path class="cls-8" d="M268.26,436.33c-1.21-1.14-3.14-1.09-4.38-2.19a17.32,17.32,0,0,1-3.13-3.84,5.51,5.51,0,0,0-1.5-1.81,4.73,4.73,0,0,0-1.68-.58l-2.85-.61a23,23,0,0,1-2.63-.67,20,20,0,0,1-6.77-4.35c-.18-.17-.44-.34-.64-.2a4.49,4.49,0,0,0,1.32,1.39,40.38,40.38,0,0,0,6.74,3.69,4.78,4.78,0,0,1,1.15.7,5.34,5.34,0,0,1,.76.88,52.31,52.31,0,0,0,3.74,4.28,15.75,15.75,0,0,0,2.29,2.11,11.07,11.07,0,0,0,7.33,1.45S268.39,436.46,268.26,436.33Z"/><path class="cls-16" d="M413.1,582.79c-1.51-10.08-3.26-20.14-5.22-30.12l-1.52-7.47c-.5-2.51-1-4.94-1.62-7.46-1.19-5-2.21-10.08-3.22-15.13a581.94,581.94,0,0,1-10.65-122.86l.18-7.73c.09-2.57.3-5.14.44-7.72l.47-7.71c.14-2.58.3-5.15.6-7.71l1.59-15.39,2.27-15.29c.71-5.09,1.64-10.2,2.7-15.25s2.2-10.08,3.48-15.08,2.66-10,4.25-14.92a155.73,155.73,0,0,1,5.38-14.64c.51-1.21,1-2.41,1.61-3.59l1.54-3.2c-95.51,20.38-231.62-.6-231.62-.6a5.72,5.72,0,0,0,.32,1.85l.51,1.93,2,7.7q1.92,7.73,3.74,15.46c2.4,10.33,4.69,20.69,6.8,31.08l1.55,7.81,1.43,7.82c1,5.21,1.82,10.46,2.71,15.69,1.6,10.5,2.95,21.05,3.72,31.68.25,5.32.6,10.64.41,16,0,1.34,0,2.68-.07,4l-.36,4-.73,8c-1.07,10.58-2.39,21.12-3.87,31.64s-3.12,21-4.94,31.49-3.81,20.9-6,31.3-4.54,20.77-7,31.09-4.16,20.63-5.78,31a527.81,527.81,0,0,0-5.92,63c-.68,21.07.12,42.24,3.69,63a189.9,189.9,0,0,0,7.72,30.51,124.5,124.5,0,0,0,13.77,28.14l0,0,0,0A101.89,101.89,0,0,0,206,777.65a133.89,133.89,0,0,0,10,11.38,138.92,138.92,0,0,0,11.25,10.17,124.74,124.74,0,0,0,12.4,8.68,105.22,105.22,0,0,0,27.71,11.89,102.41,102.41,0,0,0,29.94,3.16A125.37,125.37,0,0,0,327.14,818l7.22-2.3a57.35,57.35,0,0,0,6.88-2.94,114.13,114.13,0,0,0,13-7.66,137.61,137.61,0,0,0,40.92-44c10.35-17.39,16.94-36.86,20.49-56.78l.69-3.74c.22-1.24.36-2.5.55-3.76.32-2.51.76-5,1-7.53.47-5.09,1.06-10.1,1.23-15.16.45-10.13.33-20.32-.07-30.49A580,580,0,0,0,413.1,582.79Z"/><path class="cls-10" d="M181.26,192.48a50.43,50.43,0,0,0-2.47,6,11.45,11.45,0,0,0-.47,2.6,19.61,19.61,0,0,0,0,2.3,23.13,23.13,0,0,1,0,5.64c-.27,1.4-1.29,1.26-1.29,1.26a8.21,8.21,0,0,1-2.08-6.47c0-.37.07-.74.13-1.11a18.46,18.46,0,0,1,1.15-3.91c1.07-2.66,2.57-5.21,3.62-7.89,2.86-7.29,2.3-15.49,4.53-23A44.19,44.19,0,0,1,181.26,192.48Z"/><path class="cls-4" d="M520.74,136.25c-.31-.24-.73-.49-1.08-.3s-.49.73-.85.66a.71.71,0,0,1-.34-.25l-1.6-1.89c-.14-.16-.31-.34-.52-.3a.61.61,0,0,0-.29.2,5.69,5.69,0,0,0-1.14,1.4,2,2,0,0,0-.16,1.75,1.26,1.26,0,0,0,1.47.75c.41-.13.72-.52,1.14-.58.69-.1,1.15.66,1.73,1a.45.45,0,0,0,.44.09c.27-.11.19-.5.1-.78s0-.71.27-.67a.38.38,0,0,1,.22.13,6.11,6.11,0,0,0,.9.71,2.61,2.61,0,0,0,2.21.36A12,12,0,0,0,520.74,136.25Z"/><path class="cls-4" d="M524.7,129.82a3.44,3.44,0,0,0-.85-1.07.92.92,0,0,0-1.24.11.87.87,0,0,0,.13,1,2.64,2.64,0,0,0,.89.6l3.35,1.64A7.44,7.44,0,0,1,524.7,129.82Z"/><path class="cls-5" d="M669.46,127.22a4.52,4.52,0,0,0-.85-.36,15.67,15.67,0,0,0-1.78-.5c-1.21-.27-2.43-.47-3.65-.65-2.45-.36-4.91-.62-7.37-.85-4.93-.44-9.87-.69-14.8-.9-9.89-.38-19.78-.44-29.66-.34s-19.77.42-29.63,1q-4.14.23-8.27.54c-.32.8-.61,1.61-.85,2.42a27.74,27.74,0,0,1-1.08,2.91q5.1.41,10.2.68,14.79.84,29.63,1c9.88.1,19.77,0,29.66-.33,4.93-.21,9.87-.47,14.8-.9,2.46-.23,4.92-.49,7.37-.85,1.22-.18,2.44-.38,3.65-.65a15.67,15.67,0,0,0,1.78-.5,5.29,5.29,0,0,0,.85-.36c.26-.15.57-.34.6-.66S669.72,127.37,669.46,127.22Z"/><path class="cls-5" d="M561.54,148.16l.21-.12S560.74,148,561.54,148.16Z"/><path class="cls-6" d="M511.42,137.12a3.21,3.21,0,0,1,.09-2.34s.87-2,.61-2.89a.93.93,0,0,1,0-.24,5.66,5.66,0,0,1,1-2.37c.4.72.81.13.81.13,1-1.21,3.41-.82,3.62-.79a1.35,1.35,0,0,1-1.31-1.09,4.53,4.53,0,0,0-1.62-3,4.37,4.37,0,0,1,2.09-2.86c-.5-.82,0-1,0-1s4.35-7.9,5.51-7.8a2.86,2.86,0,0,0,2.11-1.09,8.15,8.15,0,0,1,2.79-3.87c2-1.42,1.85-2.26,1.85-2.26a3.19,3.19,0,0,0,2.23-1.84,5.53,5.53,0,0,1,2.57-2.44,17.44,17.44,0,0,1,3.92-1.62,21.45,21.45,0,0,0,2.8-2l2.65-1.45h0s-.08.11.57,1.05,1.21.59,1.21.59l1.46-1.53s-.56-.26.12-1.31,2.16-.24,2.16-.24.16.49,1.52-.46,3.18.09,4.35.7,3.1-.33,4.07-.18,1-.53,1-.53A15.94,15.94,0,0,1,572,95.94s1.77.29.85,1.47.67,3.23.67,3.23,2.48-.51,2.79-1.77c.2-.86.09-1.11,0-1.18l-.09,0a.19.19,0,0,1,.09,0l2.3.81.72,1.32a25.1,25.1,0,0,0,5.7,2.3l.09-.17a2.35,2.35,0,0,0,.21-1.67,9.15,9.15,0,0,0-1.19-1.1,3.13,3.13,0,0,1-2.61-1.44c-.5-2-4-2.11-4-2.11-2.87-.11-3.26-1.4-3.26-1.4-1.93-3.44-3.49-1.91-3.49-1.91a17.51,17.51,0,0,1-5.87-.92c-4-1.48-8.09.76-8.09.76-.72-.76-2.22-.46-2.22-.46a4.14,4.14,0,0,1-2.86.41c-2.47-1.1-6.15,1-6.15,1-1,.68-1.45.49-1.45.49-2.88.36-5.84,3-5.84,3a1.43,1.43,0,0,0-1.46-.09c-1.32.63-1.32,1.5-1.32,1.5-.77-.94-1.62.36-1.62.36s-2.47,1.6-4.69,3.07-2.23,2.42-2.23,2.42c-2.37.24-2.94,1.39-2.94,1.39s-.06,1.91-3.15,4.27-3.29,4.67-3.29,4.67c-4,4.45-6.25,11.11-6.25,11.11l-1.62.67.71,2a24.53,24.53,0,0,0-2.85,9.31c.66,1.21.28,1.57.28,1.57a2,2,0,0,0-.21,1.93l.48.11a15.94,15.94,0,0,1,4.12.38,10.83,10.83,0,0,1-.71-2.55S511.9,138.27,511.42,137.12Z"/><path class="cls-17" d="M576.29,97.69a.19.19,0,0,0-.09,0Z"/><path class="cls-4" d="M576.3,113.81c.15,0,.2-.24.22-.4a13.9,13.9,0,0,1,2.06-5.78,7.46,7.46,0,0,0,.91-1.63,1.88,1.88,0,0,0-.21-1.78c-.67.28-1.11,1.56-1.4,2.3-.21.57-.53,1.1-.77,1.66a13.18,13.18,0,0,0-.53,1.61l-.5,1.77a3.52,3.52,0,0,0-.19,1.89C575.94,113.65,576.1,113.87,576.3,113.81Z"/><path class="cls-8" d="M581.72,124.6q14.79-.84,29.63-1c9.88-.1,19.77,0,29.66.34,4.93.21,9.87.46,14.8.9,2.46.23,4.92.49,7.37.85,1.22.18,2.44.38,3.65.65a15.67,15.67,0,0,1,1.78.5,4.52,4.52,0,0,1,.85.36c.26.15.57.33.6.66,0-.33-.34-.51-.59-.66a5.76,5.76,0,0,0-.85-.37c-.59-.21-1.19-.36-1.79-.51-1.21-.27-2.42-.48-3.65-.67-2.44-.37-4.9-.64-7.36-.88q-7.4-.71-14.8-1.1-14.82-.85-29.67-1c-9.9-.12-19.8-.08-29.7.28-2.47.1-4.95.22-7.42.36-.27.6-.54,1.21-.78,1.83Q577.58,124.83,581.72,124.6Z"/><path class="cls-8" d="M598.94,375.52q4.06,0,8.13,0c2.71,0,5.42,0,8.12-.15a20.53,20.53,0,0,0,4-.42,17.46,17.46,0,0,0,3.68-1.5,42.58,42.58,0,0,0,6.68-4.44l0,0a92.24,92.24,0,0,0,21.16-22.73,66.44,66.44,0,0,0,10.64-28.84,158.64,158.64,0,0,0,.33-31.2,244.41,244.41,0,0,0-4.54-30.94l-.21-.95-.1-.44-.12-.48-.51-1.91c-.36-1.27-.62-2.57-.91-3.87s-.52-2.59-.77-3.89-.45-2.6-.66-3.9c-.81-5.22-1.42-10.45-1.91-15.69s-.84-10.48-1.11-15.73l-.17-3.94-.07-2c0-.69,0-1.34,0-2,.09-2.66.23-5.28.43-7.91a176.16,176.16,0,0,1,5.15-31.14,143.68,143.68,0,0,1,4.8-15,104.14,104.14,0,0,1,6.6-14.32l.26.31a43.32,43.32,0,0,1-5.47,1.48,52.58,52.58,0,0,1-5.58.86,54.51,54.51,0,0,0,5.53-1.07,49.13,49.13,0,0,0,5.37-1.67l.52-.2-.26.51c-4.84,9.26-8,19.33-10.52,29.45a176,176,0,0,0-4.55,30.95c-.15,2.6-.25,5.22-.29,7.8,0,.65,0,1.31,0,1.93l.08,2,.2,3.92c.3,5.22.69,10.44,1.2,15.64s1.15,10.39,2,15.53c.21,1.29.42,2.57.68,3.85s.47,2.56.77,3.82.55,2.53.92,3.78l.51,1.88.13.48.12.51.22,1a220.32,220.32,0,0,1,4.52,31.28,160.67,160.67,0,0,1-.52,31.62,68.21,68.21,0,0,1-1.43,7.86,63.46,63.46,0,0,1-2.45,7.6,75.16,75.16,0,0,1-7.45,14,92.46,92.46,0,0,1-10,12.3,85.23,85.23,0,0,1-12,10.38l0,0a43.6,43.6,0,0,1-7,4.35,18.72,18.72,0,0,1-3.89,1.45,21.28,21.28,0,0,1-4.11.32C609.77,376,604.35,375.77,598.94,375.52Z"/><path class="cls-8" d="M558.38,142.9a169.34,169.34,0,0,1,6.08,20,193.56,193.56,0,0,1,3.81,20.58,157.34,157.34,0,0,1,1.27,20.93l-.11,5.25c-.08,1.75-.26,3.5-.38,5.25l-.21,2.62c-.1.87-.24,1.74-.36,2.61l-.74,5.21v0l0,.07c-2.41,8.6-4.51,17.34-6.31,26.11S558.11,269.16,557,278a209.73,209.73,0,0,0-1.57,26.72,109,109,0,0,0,.95,13.29,64.66,64.66,0,0,0,3,12.88V331a68.57,68.57,0,0,0,5.28,12.39,73.73,73.73,0,0,0,7.47,11.28c1.36,1.81,2.92,3.44,4.42,5.14s3.16,3.23,4.93,4.63a69,69,0,0,0,11.09,7.77l.08,0,0,0a12.66,12.66,0,0,1,1.63,1.55,12.05,12.05,0,0,1,1.33,1.81,8.56,8.56,0,0,1,.89,2.13,6.19,6.19,0,0,1,.08,2.39v-.29a4.41,4.41,0,0,1-.19,2,6.85,6.85,0,0,1-.79,1.66,11.53,11.53,0,0,1-2.34,2.62c-.42.39-.92.71-1.33,1.06a6.31,6.31,0,0,0-1.09,1,8.92,8.92,0,0,0-1.51,2.7,20,20,0,0,0-1.11,6.33c0,.54,0,1.08,0,1.63l0,.81a1.78,1.78,0,0,0,0,.35l.09.39a19.77,19.77,0,0,0,1,3.08,16,16,0,0,0,3.58,5.36,13.79,13.79,0,0,0,5.68,3,41,41,0,0,0,13.11,1.35,39.92,39.92,0,0,1-13.24-.9,14.37,14.37,0,0,1-6-3,16.78,16.78,0,0,1-3.9-5.5,19.62,19.62,0,0,1-1.14-3.2l-.11-.41a2.88,2.88,0,0,1-.06-.47l-.07-.85c0-.56,0-1.13,0-1.69a20.37,20.37,0,0,1,1-6.72,10,10,0,0,1,1.66-3.09,7.81,7.81,0,0,1,1.29-1.28c.43-.37.86-.65,1.25-1a10.67,10.67,0,0,0,2-2.34,5.62,5.62,0,0,0,.61-1.35,3.16,3.16,0,0,0,.14-1.27l0-.15v-.14a4.82,4.82,0,0,0-.09-1.77,7.28,7.28,0,0,0-.76-1.72,10.16,10.16,0,0,0-1.18-1.54,11,11,0,0,0-1.43-1.32l.1.06a70.41,70.41,0,0,1-11.51-7.77c-1.85-1.41-3.45-3.1-5.16-4.67-1.56-1.72-3.21-3.36-4.61-5.21a75.84,75.84,0,0,1-7.74-11.55,69.37,69.37,0,0,1-5.53-12.83l0,.09a66.14,66.14,0,0,1-3.18-13.31,108.32,108.32,0,0,1-1-13.57c-.07-4.52,0-9.05.32-13.56s.75-9,1.3-13.48c1.14-8.95,2.68-17.84,4.55-26.65s4-17.57,6.55-26.23l0,.1.82-5.11c.13-.85.29-1.7.4-2.56l.24-2.58c.16-1.72.36-3.44.47-5.17l.2-5.18a156.55,156.55,0,0,0-.91-20.76A201.94,201.94,0,0,0,563.8,163L562.65,158c-.44-1.69-.82-3.38-1.29-5.06C560.47,149.54,559.5,146.2,558.38,142.9Z"/><path class="cls-8" d="M596.77,420.58c2,.35,4.09.66,6.15.81a55.64,55.64,0,0,0,6.19.18,55,55,0,0,0,6.16-.53,37.45,37.45,0,0,0,6-1.3l-.07.79a5,5,0,0,1-1.77-2.58,12.17,12.17,0,0,1-.56-2.91c0-.49-.06-1,0-1.46l0-.75a2.42,2.42,0,0,1,.26-.86,10.64,10.64,0,0,1,1.76-2.44,5.49,5.49,0,0,1,.55-.53l.51-.47c.33-.31.65-.65,1-1a14.14,14.14,0,0,0,1.58-2.21,13.29,13.29,0,0,0,1.59-5.14,16.61,16.61,0,0,0-.33-5.4,19.79,19.79,0,0,0-2-5.08,20.79,20.79,0,0,0-1.52-2.3c-.29-.36-.58-.72-.88-1.05a7.17,7.17,0,0,1-1-1.16,9.49,9.49,0,0,1-1.33-5.72l.48.29a7,7,0,0,1-1.18.38,11.62,11.62,0,0,1-1.18.2,12.44,12.44,0,0,1-2.36.06h-.07v-.14h.07a17.52,17.52,0,0,0,2.29-.32c.38-.09.75-.19,1.11-.31a7.86,7.86,0,0,0,1-.44.32.32,0,0,1,.44.11.47.47,0,0,1,0,.16v0a8.67,8.67,0,0,0,1.56,5.1,7.35,7.35,0,0,0,.91,1c.35.35.68.71,1,1.08a22.5,22.5,0,0,1,1.72,2.38,17.08,17.08,0,0,1,2.63,11.33,14.11,14.11,0,0,1-3.71,8,14.69,14.69,0,0,1-1.06,1c-.18.17-.36.33-.55.48a5.19,5.19,0,0,0-.48.45,9.79,9.79,0,0,0-1.62,2.12,1.76,1.76,0,0,0-.18.49l0,.67c0,.47,0,.93,0,1.39a11.47,11.47,0,0,0,.45,2.68,6.83,6.83,0,0,0,.53,1.2,3.1,3.1,0,0,0,.77.91l0,0a.42.42,0,0,1,.11.58.48.48,0,0,1-.23.17,37.86,37.86,0,0,1-6.18,1.19,54.25,54.25,0,0,1-6.24.35,56.45,56.45,0,0,1-6.23-.37c-2.07-.22-4.11-.59-6.15-1h-.07l0-.14Z"/><path class="cls-8" d="M592.64,417c-6.29.62-12.55,1.51-18.74,2.74-3.09.63-6.16,1.36-9.17,2.29a40.3,40.3,0,0,0-4.42,1.63,11.3,11.3,0,0,0-3.86,2.53,9.34,9.34,0,0,0-2.49,8.49,6.92,6.92,0,0,0,2.38,3.79,19.48,19.48,0,0,0,4,2.43,65.72,65.72,0,0,0,18.1,5c1.56.2,3.11.47,4.68.61l4.7.45c3.15.18,6.29.41,9.44.43s6.3.06,9.46,0,6.3-.17,9.45-.33c6.3-.29,12.6-.73,18.86-1.49,3.12-.4,6.25-.86,9.33-1.52,1.54-.31,3.07-.69,4.58-1.14a20.88,20.88,0,0,0,4.36-1.77l0,.08a21.34,21.34,0,0,1-4.33,1.95c-1.5.51-3,.94-4.57,1.31-3.08.73-6.21,1.24-9.34,1.7-6.27.88-12.58,1.44-18.89,1.84-3.16.15-6.32.31-9.49.32s-6.33.09-9.49,0-6.33-.31-9.49-.52l-4.73-.5c-1.57-.16-3.13-.44-4.7-.66A66.35,66.35,0,0,1,560,441.47a20.13,20.13,0,0,1-4.08-2.54,7.64,7.64,0,0,1-2.53-4.12,9.88,9.88,0,0,1,2.68-8.94,11.78,11.78,0,0,1,4-2.6,43.5,43.5,0,0,1,4.48-1.6,94.69,94.69,0,0,1,9.24-2.2c6.21-1.17,12.48-2,18.78-2.56Z"/><path class="cls-8" d="M656.89,438.87a11,11,0,0,0,3.71-5.12,5.57,5.57,0,0,0,0-3,7,7,0,0,0-1.48-2.67,17.58,17.58,0,0,0-5-3.86,27.83,27.83,0,0,0-2.93-1.33c-1-.41-2-.82-3-1.2-8.12-3.09-16.84-4.39-25.54-4.86v-.1a103.89,103.89,0,0,1,13.06,1.06,70.91,70.91,0,0,1,12.75,3.15c1,.35,2.07.74,3.09,1.12a26.1,26.1,0,0,1,3.05,1.3,17.16,17.16,0,0,1,2.84,1.79,14.2,14.2,0,0,1,2.44,2.34,7.86,7.86,0,0,1,1.53,3.07,5.94,5.94,0,0,1-.2,3.42,10.43,10.43,0,0,1-4.28,5Z"/><path class="cls-8" d="M595.77,412.33a10.49,10.49,0,0,1,0,2.17,11.25,11.25,0,0,1-.42,2.14,6.57,6.57,0,0,1-1,2,3.57,3.57,0,0,1-1.75,1.29,4.51,4.51,0,0,0,1.45-1.5,7.38,7.38,0,0,0,.83-1.91,14.28,14.28,0,0,0,.51-2.05C595.56,413.75,595.66,413.05,595.77,412.33Z"/><path class="cls-18" d="M595.34,415.86q2.61.69,5.26,1.15c1.76.3,3.54.56,5.32.69a41.54,41.54,0,0,0,5.35.08,29.07,29.07,0,0,0,5.3-.83,21.56,21.56,0,0,1-5.27,1.2,36.32,36.32,0,0,1-5.42,0,47.94,47.94,0,0,1-5.35-.81A35.86,35.86,0,0,1,595.34,415.86Z"/><path class="cls-18" d="M585,424.69a52.71,52.71,0,0,0,11,3.46,64.15,64.15,0,0,0,11.47,1.36,67.49,67.49,0,0,0,11.54-.59c1.92-.18,3.81-.63,5.71-1s3.75-.93,5.63-1.39c-1.86.53-3.7,1.17-5.58,1.62s-3.78.88-5.71,1.11c-1,.13-1.92.29-2.88.39l-2.9.22c-1,.09-1.94.09-2.91.1s-1.95.07-2.91,0A61.38,61.38,0,0,1,596,428.51,47,47,0,0,1,585,424.69Z"/><path class="cls-18" d="M598.36,378.09c3.5.18,7,.42,10.48.48,1.74.07,3.48.06,5.23,0a32.45,32.45,0,0,0,5.2-.49,22.17,22.17,0,0,1-5.18.86c-1.76.13-3.51.13-5.27.1s-3.5-.15-5.24-.31S600.09,378.38,598.36,378.09Z"/><path class="cls-18" d="M595.13,383.1c1.7.24,3.4.44,5.1.62s3.4.32,5.1.37a44.79,44.79,0,0,0,10.21-.53,25.72,25.72,0,0,1-5.07.93,46.76,46.76,0,0,1-5.16.08c-1.71-.1-3.43-.24-5.13-.49A47.89,47.89,0,0,1,595.13,383.1Z"/><path class="cls-8" d="M553,131.73c0,.32.34.49.59.63a5.2,5.2,0,0,0,.85.34,15.13,15.13,0,0,0,1.76.45c1.19.25,2.4.42,3.61.57,2.42.32,4.85.54,7.28.73,4.86.38,9.74.69,14.62.88s9.75.43,14.64.61l14.65.52c-2.44.11-4.89.15-7.33.2l-7.34,0c-4.89,0-9.78-.19-14.67-.39s-9.77-.57-14.64-1.11c-2.43-.27-4.86-.58-7.28-1-1.21-.22-2.41-.47-3.6-.78a15.48,15.48,0,0,1-1.75-.56,5,5,0,0,1-.83-.42C553.35,132.26,553.05,132.05,553,131.73Z"/><path class="cls-18" d="M597.29,409.72a19.86,19.86,0,0,1-2.49-4.93,20.62,20.62,0,0,1-1.11-5.46,15.13,15.13,0,0,1,.72-5.55,12.71,12.71,0,0,1,2.88-4.72c-.22.41-.44.81-.67,1.19l-.34.59-.26.63c-.17.42-.37.82-.51,1.24l-.38,1.28a18.1,18.1,0,0,0-.48,5.29,27.29,27.29,0,0,0,.87,5.29A37.3,37.3,0,0,0,597.29,409.72Z"/><path class="cls-18" d="M617.34,409.72a36.07,36.07,0,0,0,1.78-5.15,27.29,27.29,0,0,0,.87-5.29,18.1,18.1,0,0,0-.48-5.29l-.38-1.28c-.14-.42-.34-.82-.51-1.24l-.26-.63-.34-.59c-.23-.38-.46-.78-.68-1.19a12.73,12.73,0,0,1,2.89,4.72,15.35,15.35,0,0,1,.72,5.55,20.25,20.25,0,0,1-1.12,5.46A19.53,19.53,0,0,1,617.34,409.72Z"/><path class="cls-9" d="M558.26,129l1.4.23c2.42.37,4.86.65,7.31.88,1.52.15,3,.28,4.55.41a29.5,29.5,0,0,0,1.08-2.91c.23-.81.53-1.62.84-2.42.25-.62.52-1.23.79-1.83a54.4,54.4,0,0,1,4-7.09,2,2,0,0,1,1.06-3L585,102.11a25.27,25.27,0,0,1-5.71-2.28l-.72-1.33-2.31-.81c.1.08.21.33,0,1.18-.3,1.26-2.78,1.77-2.78,1.77s-1.59-2-.67-3.23-.85-1.47-.85-1.47a15.94,15.94,0,0,0-12.45-1.61s0,.68-1,.53-2.9.8-4.07.19-3-1.66-4.35-.72-1.52.47-1.52.47-1.48-.81-2.16.24-.12,1.31-.12,1.31l-1.46,1.53s-.5.43-1.21-.59-.59-1-.57-1.05l-2.65,1.45a21.21,21.21,0,0,1-2.8,2,17.44,17.44,0,0,0-3.92,1.62,5.53,5.53,0,0,0-2.57,2.44,3.2,3.2,0,0,1-2.23,1.84s.19.83-1.85,2.26a8.15,8.15,0,0,0-2.79,3.86,2.86,2.86,0,0,1-2.11,1.1c-1.15-.1-5.51,7.8-5.51,7.8s-.5.22,0,1a4.37,4.37,0,0,0-2.09,2.86,4.53,4.53,0,0,1,1.62,3,1.35,1.35,0,0,0,1.24,1.09c-.44-.08-2.58-.34-3.55.79,0,0-.41.59-.81-.14a5.83,5.83,0,0,0-1,2.38,1.5,1.5,0,0,0,0,.24c.26.85-.61,2.89-.61,2.89a3.24,3.24,0,0,0-.08,2.34c.47,1.15.13,1.59.13,1.59a10.83,10.83,0,0,0,.71,2.55l.47.1a3.31,3.31,0,0,1,2.37-.28,5.35,5.35,0,0,0,1.65,1.36,11.48,11.48,0,0,0,3.82-.47c.79-.68,5.48,1.19,5.48,1.19a42.81,42.81,0,0,1,4.45,1.05c2.8.8,3.56-.12,3.56-.12a2.53,2.53,0,0,1,1.49-.41s.48,1.8,1.92,1.57,5.54,1.21,5.54,1.21l9.66,1.39c4.32.62,5.67-.22,5.67-.22a3.07,3.07,0,0,0,3.2.53c-.82-.15.2-.12.2-.12l-.2.12.29.05c1.32.2,1.48-.81,1.48-.81a16.11,16.11,0,0,1,1.36-4s3.6-5.91,6.06-11.17c-1.32-.1-2.63-.2-3.94-.32-2.48-.23-4.95-.5-7.43-.86-1.23-.19-2.47-.4-3.71-.68a18.2,18.2,0,0,1-1.9-.54,6.61,6.61,0,0,1-1-.45,2.92,2.92,0,0,1-.27-.17,2.05,2.05,0,0,1-.29-.25.12.12,0,0,1-.05-.05,3.93,3.93,0,0,1,2-1h0a2.36,2.36,0,0,0,.28.12,15.58,15.58,0,0,0,1.67.48l.15,0m22.34-20.91a14,14,0,0,0-2.06,5.78c0,.16-.07.35-.22.4s-.36-.16-.41-.35a3.64,3.64,0,0,1,.18-1.9l.51-1.77a13.18,13.18,0,0,1,.53-1.61c.24-.56.55-1.09.77-1.65.28-.75.74-2,1.4-2.31a1.88,1.88,0,0,1,.21,1.78A7.46,7.46,0,0,1,578.58,107.63Z"/><path class="cls-8" d="M669.46,128.54a5.29,5.29,0,0,1-.85.36,15.67,15.67,0,0,1-1.78.5c-1.21.27-2.43.47-3.65.65-2.45.36-4.91.62-7.37.85-4.93.43-9.87.69-14.8.9-9.89.37-19.78.43-29.66.33s-19.77-.42-29.63-1q-5.1-.27-10.2-.68c-1.52-.13-3-.26-4.55-.41-2.45-.23-4.89-.51-7.31-.88l-1.39-.23c-.69-.12-1.36-.26-2-.41l-.15,0a15.58,15.58,0,0,1-1.67-.48l-.28-.11a3.78,3.78,0,0,0-2,1,.12.12,0,0,0,.05.05,2.05,2.05,0,0,0,.29.25l.27.17a7.08,7.08,0,0,0,1,.45,16.36,16.36,0,0,0,1.89.53c1.25.29,2.49.5,3.73.69,2.47.36,4.94.63,7.42.86,1.31.12,2.62.22,3.94.31,3.63.26,7.27.44,10.91.59,9.9.37,19.8.41,29.7.29s19.79-.46,29.67-1q7.41-.4,14.8-1.1c2.46-.24,4.92-.51,7.36-.88,1.23-.19,2.44-.4,3.65-.68a16.44,16.44,0,0,0,1.79-.5,5.76,5.76,0,0,0,.85-.37c.25-.15.56-.33.59-.66C670,128.2,669.72,128.39,669.46,128.54Z"/><path class="cls-4" d="M558.26,129c-.68-.12-1.36-.26-2-.41a6,6,0,0,1-.76-1.13,5.84,5.84,0,0,1-.61-1.82,5.65,5.65,0,0,1-.07-1,3,3,0,0,0-.33-2c-.18-.21-.43-.35-.63-.55a2.76,2.76,0,0,1-.56-2.6c.18-.91.56-1.77.65-2.7a8.32,8.32,0,0,0-.45-2.87l-1.65-5.89a11.14,11.14,0,0,0-1.51-3.64,12.43,12.43,0,0,1-2-2.58c-.39-1,.15-2.5,1.24-2.45.29,0,.57.14.86.13a8.76,8.76,0,0,0,1-.25c.83-.09,1.5.69,1.82,1.46.18.43.58,1,1,.74a1.68,1.68,0,0,0,.3-.4c.43-.54,1.32-.19,1.73.36,1.75,2.33-.7,6.14,1.1,8.44a8.74,8.74,0,0,0-1.38,4.67c.12,1.64,1.34,3.18.91,4.76-.17.62-.58,1.16-.72,1.79a4.71,4.71,0,0,0,.65,2.77c.18.43.35.87.51,1.31.21.6.39,1.21.55,1.82s.24,1,.33,1.5A1.88,1.88,0,0,1,558.26,129Z"/><path class="cls-4" d="M537.28,130a3.7,3.7,0,0,1-1.53-.68,4.54,4.54,0,0,1-.6-.46l-.34-.34-.18,0a2.68,2.68,0,0,0-1.13.06,1,1,0,0,0-.67.84c0,.48.46.82.88,1,2.76,1.49,6,1.89,8.75,3.37,1.41.76,2.82,1.82,4.41,1.69,0,0,.1-.42-1-.89-2-.88-2.91-3.41-4.88-4.45a8.34,8.34,0,0,0-1.63-.59l-.43-.12A2.06,2.06,0,0,1,537.28,130Z"/><path class="cls-4" d="M521.32,136.08c-.32-.25-.74-.5-1.09-.3s-.49.72-.85.65a.69.69,0,0,1-.34-.25l-1.6-1.89c-.14-.16-.31-.33-.52-.29a.67.67,0,0,0-.29.19,6.36,6.36,0,0,0-1.14,1.4,2,2,0,0,0-.16,1.75,1.26,1.26,0,0,0,1.47.76c.41-.14.72-.53,1.15-.59.68-.09,1.15.66,1.72,1a.48.48,0,0,0,.44.1c.27-.12.19-.51.1-.78s0-.72.27-.68a.45.45,0,0,1,.23.13,5.55,5.55,0,0,0,.89.71,2.57,2.57,0,0,0,2.21.36A11.89,11.89,0,0,0,521.32,136.08Z"/><path class="cls-4" d="M530.76,109.26a9.57,9.57,0,0,0,1.28.91,6.67,6.67,0,0,1,1,.55,4.8,4.8,0,0,1,1.19,1.82,2.7,2.7,0,0,0,1.48,1.52c.46.13,1,.06,1.36.38a1.38,1.38,0,0,1,.31.47c.79,1.57,1.6,3.28,3.15,4.11a8,8,0,0,0,1.79.61,2.66,2.66,0,0,0-1.17-.56,5.31,5.31,0,0,1-2.83-3.27,6.66,6.66,0,0,0-.78-1.61,2.74,2.74,0,0,0-1.48-1,2.82,2.82,0,0,1-.82-.27c-.49-.31-.59-1-.81-1.49a2.85,2.85,0,0,0-1.33-1.45,7.22,7.22,0,0,1-.88-.44c-.27-.18-.68-.64-.66-1a.6.6,0,1,0-1.12.33A1.28,1.28,0,0,0,530.76,109.26Z"/><path class="cls-4" d="M531.33,118.61a6.61,6.61,0,0,0,.78.52,11.68,11.68,0,0,0,1.72.6c.67.22,1.3.54,2,.7-.83-.52-2.3-2.22-3.13-2.74a12.86,12.86,0,0,1-1.37-1,12.57,12.57,0,0,1-1.1-1.09l-1.27-1.36a3.33,3.33,0,0,0-.85-.74,1.22,1.22,0,0,0-1.08-.11,1.06,1.06,0,0,0-.56.68,1.28,1.28,0,0,0,.09.88,1.15,1.15,0,0,0,.3.42c.53.44,1.35.2,1.95.52s.72.84,1,1.3A6.13,6.13,0,0,0,531.33,118.61Z"/><path class="cls-10" d="M539.1,128.43c-.25-.11-.48.15-.71.3-.48.33-.77-.6-.77-.6a4.28,4.28,0,0,0-1.26-1.39,6.43,6.43,0,0,0-2.45-1.26,3.47,3.47,0,0,0-2.68.39,2.4,2.4,0,0,0-1.08,2.39.53.53,0,0,0,.15.32.48.48,0,0,0,.53,0,2.86,2.86,0,0,0,.43-.35,2.46,2.46,0,0,1,3.21,0c.12.1.23.22.34.33l.34.34a4.54,4.54,0,0,0,.6.46,3.7,3.7,0,0,0,1.53.68,2.06,2.06,0,0,0,1.66-.55l.14-.14a.85.85,0,0,0,.24-.47A.44.44,0,0,0,539.1,128.43Z"/><path class="cls-10" d="M536.79,108.81c.73-.13.73,1,.73,1a9.3,9.3,0,0,1,4.93,5.46c.15.54.25,1.1.4,1.65a15.23,15.23,0,0,0,1.75,3.58l1.3,2.18a1.25,1.25,0,0,0,.63.61.76.76,0,0,0,.86-.62,1.4,1.4,0,0,0-.33-1.1c-.69-.87-1.92-1.27-2.41-2.26a7.91,7.91,0,0,1-.4-2.07,7.33,7.33,0,0,0-.92-2.18q-2-3.58-4.16-7.08c-.53-.86-1.2-1.81-2.2-1.93a1.6,1.6,0,0,0-1.76,1.34A1.38,1.38,0,0,0,536.79,108.81Z"/><path class="cls-10" d="M547.41,142.29a13.42,13.42,0,0,1-2.86-1.31,8.88,8.88,0,0,0-2.86-.52,20.81,20.81,0,0,1-5.11-1.16c-1.7-.62-3.55-1.46-5.22-.8a1.13,1.13,0,0,0-.45.29.92.92,0,0,0,0,1.14,2,2,0,0,0,1,.65c2.14.72,4.6,0,6.7.82a24.35,24.35,0,0,1,2.38,1.36,7.42,7.42,0,0,0,6.86.05S548.14,142.43,547.41,142.29Z"/><path class="cls-4" d="M523.54,130.05a3.44,3.44,0,0,0-.85-1.07.92.92,0,0,0-1.24.1.88.88,0,0,0,.13,1,2.62,2.62,0,0,0,.89.61l3.36,1.64A7.47,7.47,0,0,1,523.54,130.05Z"/><path class="cls-10" d="M557.94,103c-.37.48-.2,1.17-.11,1.77.18,1.14,0,2.41.75,3.32,0,0,.06.88.28.27.48-1.35-.09-2.87-.18-4.3a1.47,1.47,0,0,0-.41-1.12.25.25,0,0,0-.14-.06A.26.26,0,0,0,557.94,103Z"/><path class="cls-10" d="M557.21,101.71a1,1,0,0,0,.23.29.3.3,0,0,0,.35,0,.44.44,0,0,0,.34-.48,3.87,3.87,0,0,0-.71-1.92c-.09-.13-.23-.26-.38-.23a.43.43,0,0,0-.24.22,1.47,1.47,0,0,0-.06,1.09A4.49,4.49,0,0,0,557.21,101.71Z"/><path class="cls-4" d="M561.37,120.79c.07,0,.12-.07.16-.13.62-1.37,1.25-2.74,1.87-4.1a18.87,18.87,0,0,0,.88-2.14c.18-.55.31-1.11.44-1.68.2-.87.95-2.37,1.15-3.24-.3-1.32.4-2.63,1.1-3.78s1.46-2.42,1.27-3.76c0-.19-.14-.42-.33-.38s-.18.14-.23.24c-.47,1.11-.51,2.44-1.28,3.37-.23.27-.5.49-.74.75a5.28,5.28,0,0,0-1,1.59,8.59,8.59,0,0,0-.62,2c-.1.62-.1,1.25-.19,1.87s-.22,1-.35,1.56l-.54,2a12.77,12.77,0,0,1-1.35,3.56,4.83,4.83,0,0,0-.59,1.06,1.07,1.07,0,0,0,.23,1.13A.12.12,0,0,0,561.37,120.79Z"/><path class="cls-11" d="M651.69,123.15l-3.21,16.74c-.23.58-.47,1.15-.7,1.71a58.31,58.31,0,0,1-5.63,10.46,18.09,18.09,0,0,1-5.7,5.69L639.66,141a17.93,17.93,0,0,0,5.7-5.68A58.09,58.09,0,0,0,651,124.85C651.22,124.29,651.46,123.73,651.69,123.15Z"/><path class="cls-11" d="M658.1,89.66l-3.21,16.75c-.23.58-.46,1.14-.7,1.7a56.86,56.86,0,0,1-5.63,10.47,18,18,0,0,1-5.69,5.68l3.21-16.74a18.18,18.18,0,0,0,5.69-5.69,58,58,0,0,0,5.63-10.46C657.64,90.81,657.87,90.25,658.1,89.66Z"/><path class="cls-11" d="M645.27,156.64l-3.2,16.74c-.24.58-.47,1.15-.71,1.7a56.86,56.86,0,0,1-5.63,10.47,17.82,17.82,0,0,1-5.69,5.68l3.21-16.74a18,18,0,0,0,5.69-5.68,58.09,58.09,0,0,0,5.63-10.47C644.81,157.78,645,157.21,645.27,156.64Z"/><path class="cls-11" d="M638.86,190.12l-3.21,16.75c-.23.57-.46,1.14-.7,1.7A58.09,58.09,0,0,1,629.32,219a18.13,18.13,0,0,1-5.69,5.68l3.2-16.74a18.09,18.09,0,0,0,5.7-5.69,58.31,58.31,0,0,0,5.63-10.46C638.39,191.27,638.63,190.7,638.86,190.12Z"/><path class="cls-11" d="M632.44,223.61l-3.2,16.74c-.24.58-.47,1.15-.71,1.71a57.53,57.53,0,0,1-5.63,10.47,18,18,0,0,1-5.69,5.68l3.21-16.74a18.08,18.08,0,0,0,5.69-5.69,56.86,56.86,0,0,0,5.63-10.47C632,224.76,632.21,224.18,632.44,223.61Z"/><path class="cls-11" d="M626,257.1l-3.21,16.74c-.23.57-.46,1.15-.7,1.71A58.31,58.31,0,0,1,616.49,286a18,18,0,0,1-5.69,5.68L614,275c1.79-.93,3.74-2.9,5.7-5.68a58.43,58.43,0,0,0,5.63-10.47C625.56,258.24,625.8,257.67,626,257.1Z"/><path class="cls-11" d="M619.61,290.59l-3.2,16.74c-.23.57-.47,1.14-.7,1.7-3.56,8.37-7.77,14.29-11.33,16.15l3.21-16.74a18,18,0,0,0,5.69-5.68,57.53,57.53,0,0,0,5.63-10.47C619.15,291.73,619.38,291.16,619.61,290.59Z"/><path class="cls-8" d="M654.89,106.41l-3.2,16.74c-.23.58-.47,1.14-.7,1.7a58.09,58.09,0,0,1-5.63,10.47,17.93,17.93,0,0,1-5.7,5.68l3.21-16.74a18,18,0,0,0,5.69-5.68,56.86,56.86,0,0,0,5.63-10.47C654.43,107.55,654.66,107,654.89,106.41Z"/><path class="cls-8" d="M610.66,132.62c10-.76,20-1.13,30-1.63q7.49-.33,15-.79c2.49-.17,5-.33,7.46-.58,1.24-.12,2.47-.25,3.7-.45.61-.11,1.22-.23,1.82-.39a5.26,5.26,0,0,0,.87-.3c.26-.13.58-.28.64-.6,0,.34-.32.56-.57.73a5.71,5.71,0,0,1-.85.44,14.67,14.67,0,0,1-1.8.61c-1.21.35-2.44.63-3.68.89-2.47.48-5,.85-7.45,1.15-5,.61-10,1-15,1.21s-10,.34-15,.29S615.66,133,610.66,132.62Z"/><path class="cls-8" d="M662.9,64.59l-4.8,25.07c-.23.59-.46,1.15-.7,1.71a58,58,0,0,1-5.63,10.46,18.18,18.18,0,0,1-5.69,5.69L654.6,63Z"/><path class="cls-8" d="M648.48,139.89l-3.21,16.75c-.23.57-.46,1.14-.7,1.7a58.09,58.09,0,0,1-5.63,10.47,18,18,0,0,1-5.69,5.68l3.2-16.74a18.09,18.09,0,0,0,5.7-5.69,58.31,58.31,0,0,0,5.63-10.46C648,141,648.25,140.47,648.48,139.89Z"/><path class="cls-8" d="M642.07,173.38l-3.21,16.74c-.23.58-.47,1.15-.7,1.71a58.31,58.31,0,0,1-5.63,10.46,18.09,18.09,0,0,1-5.7,5.69L630,191.23a17.82,17.82,0,0,0,5.69-5.68,56.86,56.86,0,0,0,5.63-10.47C641.6,174.53,641.83,174,642.07,173.38Z"/><path class="cls-8" d="M635.65,206.87l-3.21,16.74c-.23.57-.46,1.15-.7,1.7a56.86,56.86,0,0,1-5.63,10.47,18.08,18.08,0,0,1-5.69,5.69l3.21-16.75a18.13,18.13,0,0,0,5.69-5.68A58.09,58.09,0,0,0,635,208.57C635.19,208,635.42,207.44,635.65,206.87Z"/><path class="cls-8" d="M629.24,240.35,626,257.1c-.23.57-.47,1.14-.7,1.7a58.43,58.43,0,0,1-5.63,10.47c-2,2.78-3.91,4.75-5.7,5.68l3.21-16.74a18,18,0,0,0,5.69-5.68,57.53,57.53,0,0,0,5.63-10.47C628.77,241.5,629,240.93,629.24,240.35Z"/><path class="cls-8" d="M616.41,307.33l-8.15,42.55L600,348.29l4.43-23.11c3.56-1.86,7.77-7.78,11.33-16.15C615.94,308.47,616.18,307.9,616.41,307.33Z"/><path class="cls-8" d="M622.82,273.84l-3.21,16.75c-.23.57-.46,1.14-.7,1.7a57.53,57.53,0,0,1-5.63,10.47,18,18,0,0,1-5.69,5.68l3.21-16.75a18,18,0,0,0,5.69-5.68,58.31,58.31,0,0,0,5.63-10.46C622.36,275,622.59,274.41,622.82,273.84Z"/><path class="cls-19" d="M648.25,151.15c-1.12-.17-2.23-.33-3.35-.48-1.83-.26-3.66-.49-5.5-.72l-2.87-.34-.4,0c-1.32-.15-2.65-.28-4-.41l-3.27-.31-.55,0-2-.17-1.36-.12-2.16-.15-.43,0-2.21-.15-4.55-.24-2.49-.13H613c-1.8-.07-3.6-.12-5.4-.16l-2.76,0c-1.79,0-3.58,0-5.36,0l-1.58,0-1.74,0-1.19,0-1.48.07-1.71.08c-.81,0-1.61.09-2.42.15l-.89.06-2.94.23c-1.54.14-3.08.29-4.62.47-1,.11-2,.24-2.93.37q-3.11.42-6.2,1c-1,.18-2,.38-3,.58s-1.87.39-2.8.61a1.07,1.07,0,0,0-.19.07,1.13,1.13,0,0,0-.64.93,2.41,2.41,0,0,0,.12.72l.2.75.76,3q.75,3,1.45,6,1.41,6,2.65,12.07l.6,3,.56,3c.39,2,.7,4.07,1.05,6.1.62,4.08,1.14,8.17,1.44,12.3.1,2.07.24,4.14.16,6.22,0,.52,0,1,0,1.56l-.14,1.56-.28,3.09c-.41,4.11-.93,8.2-1.5,12.29s-1.21,8.16-1.92,12.23-1.48,8.12-2.33,12.16-1.76,8.07-2.71,12.08-1.61,8-2.25,12.06a206.71,206.71,0,0,0-2.3,24.46,121.34,121.34,0,0,0,1.44,24.47,73,73,0,0,0,3,11.85,48.4,48.4,0,0,0,5.35,10.93v0a41.52,41.52,0,0,0,3.31,4.85,51.33,51.33,0,0,0,3.9,4.42,54.27,54.27,0,0,0,4.37,3.95,50.23,50.23,0,0,0,4.82,3.38,41.08,41.08,0,0,0,10.77,4.62,39.64,39.64,0,0,0,11.63,1.22,48.33,48.33,0,0,0,11.56-1.91l2.81-.89a23.87,23.87,0,0,0,2.67-1.15,43.56,43.56,0,0,0,5.06-3,53.44,53.44,0,0,0,15.89-17.09,65.52,65.52,0,0,0,8-22.06l.26-1.46c.09-.48.14-1,.21-1.46.13-1,.3-1.94.39-2.93.18-2,.41-3.92.48-5.88.17-3.94.12-7.9,0-11.85a225.5,225.5,0,0,0-2.31-23.63c-.59-3.92-1.27-7.83-2-11.7l-.59-2.9c-.2-1-.39-1.92-.63-2.9-.46-2-.86-3.92-1.25-5.88a225.45,225.45,0,0,1-4.14-47.73l.07-3c0-1,.11-2,.17-3l.18-3c.06-1,.12-2,.24-3l.61-6,.89-5.94c.27-2,.63-4,1-5.93s.85-3.91,1.35-5.86,1-3.88,1.65-5.79a58.8,58.8,0,0,1,2.09-5.69c.2-.47.39-.94.62-1.39l.6-1.25a.3.3,0,0,0-.08-.33.24.24,0,0,0-.17-.08l-.73-.12c-1-.18-2.09-.34-3.14-.51l-2.65-.39Z"/><path class="cls-13" d="M586,163.08c-1.22-.93-2-.74-2.59-.25a3.71,3.71,0,0,0-.91,1.7c-.38,1.84-3.78,9.74-3.78,9.74a13.47,13.47,0,0,0-1.46,3.81s.05,2.79,3.5,4.19a49.2,49.2,0,0,1,7.18,3.88,11.05,11.05,0,0,0,2.69,1.15c.72.31,1.07.26,1.24.14a.42.42,0,0,0,.15-.35c-.45-.81,0-1,0-1a16,16,0,0,0,2-3.83,2.55,2.55,0,0,1-2.81.45s-3.55-2.7-5.53-3.25c0,0-2.44-.48-2.39-1.52,0,0-.19-.48.52-1.71a40.87,40.87,0,0,0,2.69-5.63,37.43,37.43,0,0,0,1-3.76,1.76,1.76,0,0,1,1.83-1.55,15.34,15.34,0,0,1-1.73-1Z"/><path class="cls-13" d="M592,187.09c-.45-.81,0-1,0-1a17.49,17.49,0,0,0,2.15-4.08,101.64,101.64,0,0,1,4.08-9.76c.95-1.81.52-2.5.52-2.5-.08-.84-3.25-2-3.25-2a29.11,29.11,0,0,1-7.91-3.5L586,163.08c-1.22-.93-2-.74-2.59-.25a3.71,3.71,0,0,0-.91,1.7c-.38,1.84-3.78,9.74-3.78,9.74a13.47,13.47,0,0,0-1.46,3.81s.05,2.79,3.5,4.19a49.2,49.2,0,0,1,7.18,3.88,11.05,11.05,0,0,0,2.69,1.15c.72.31,1.07.26,1.24.14A.42.42,0,0,0,592,187.09Z"/><path class="cls-14" d="M604.38,169.68s2.36-.66,2.31,1.43a3.46,3.46,0,0,0,0-.86c-.26-1.35-3.18-2.58-3.18-2.58l-6.83-3-3.53-1.73c-.79-.37-1.13-.19-1.13-.19a16.87,16.87,0,0,1-2.79-.4c-5.18-1.13-5.79.48-5.79.48h0c.55-.49,1.37-.68,2.59.25l1.58,1.22a29.11,29.11,0,0,0,7.91,3.5s3.17,1.14,3.25,2a.36.36,0,0,1,0,.13,2.28,2.28,0,0,0,1.43,0A18.87,18.87,0,0,1,604.38,169.68Z"/><path class="cls-15" d="M598.23,172.28a101.64,101.64,0,0,0-4.08,9.76,17.49,17.49,0,0,1-2.15,4.08s-.42.16,0,1a.42.42,0,0,1-.15.35c.29.34,1.69-.21,1.69-.21,2-.82,6.07-.46,6.07-.46a1.29,1.29,0,0,0,1.31-.59,11.82,11.82,0,0,0,.79-2.39,29.72,29.72,0,0,1,1.68-4.2l2.46-5.32a14,14,0,0,0,.81-3.16c0-2.09-2.31-1.43-2.31-1.43a18.87,18.87,0,0,0-4.15.26,2.28,2.28,0,0,1-1.43,0A3.35,3.35,0,0,1,598.23,172.28Z"/><path class="cls-8" d="M586.66,164.2a.34.34,0,0,0-.37.11,7.55,7.55,0,0,0-1.81,4.47c-.08,2.45-1.8,5.65-2.13,6.24a.33.33,0,0,1-.13.13,1.48,1.48,0,0,0-.69.81.36.36,0,0,0,.67.25v0a7.86,7.86,0,0,1,1.48-2.16,7.74,7.74,0,0,0,1.87-3.76,34,34,0,0,1,.87-3.7l0-.07c.14-.24.9-1.51,1.83-1.35S587.52,164.43,586.66,164.2Z"/><path class="cls-8" d="M590.42,170.34s-3.33.44-1.75,1.07l4.71.67a9.35,9.35,0,0,1-2.7.2c-1.16-.15.05.79.05.79a6.11,6.11,0,0,0,3.46.83c1.75-.23,0,.7,0,.7s2.25,0,2.34-1.17a1.38,1.38,0,0,0-.31-1.45c-.64-.86,1.62-.47,1.62-.47s.94-1.5-1.16-2.28c-1.12-.41-1.57-.37-1.75-.24a2.8,2.8,0,0,1-1,.51Z"/><path class="cls-8" d="M605.05,171.5a3.66,3.66,0,0,0-1.57,1.25,2.05,2.05,0,0,0-.39,1.17.65.65,0,0,1-.46.64c-.69.29-.44,1.6-.44,1.6s-1.25,4.05-2.92,5.22a.11.11,0,0,0,.05.2c.51,0,1.66-.43,3.09-4a4.1,4.1,0,0,1,.52-.94,6.79,6.79,0,0,0,1.28-2.67,6.34,6.34,0,0,1,.95-2.37A.09.09,0,0,0,605.05,171.5Z"/><path class="cls-8" d="M602.28,171.51a3.93,3.93,0,0,0-1.41,1.78,6.08,6.08,0,0,0-.06,1.54,6.61,6.61,0,0,1-2.37,5.13,6.78,6.78,0,0,0,1-2.16,5.45,5.45,0,0,0,.37-1.48c.07-.94-.35-1.91-.09-2.82a2.51,2.51,0,0,1,.94-1.28,5.12,5.12,0,0,1,1.44-.72Z"/><path class="cls-8" d="M596.19,178.73c-.09.59-.53,1.07-.67,1.64-.09.37-.13.75-.22,1.11-.36,1.5-1.45,2.73-1.82,4.22a.25.25,0,0,0,0,.19.21.21,0,0,0,.15.05,1.94,1.94,0,0,0,1.61-.76c.71-1,.39-2.33.69-3.48.4-1.54,1.85-2.59,2.44-4.07a5.45,5.45,0,0,0,.28-2.41,10.69,10.69,0,0,1-.12-1.49,2.31,2.31,0,0,1,.25-1,0,0,0,0,0-.06,0,6.39,6.39,0,0,0-1.46,2.87c-.13.6-.17,1.23-.34,1.82s-.15.93-.67,1.24A.22.22,0,0,0,596.19,178.73Z"/><path class="cls-8" d="M582.44,180.28c.56.22.85.87,1.41,1.11a6,6,0,0,0,1.76.44,2,2,0,0,1,.83.21,1.87,1.87,0,0,1,.46.47l.65.85a9.33,9.33,0,0,0,.64.77,7.22,7.22,0,0,0,2.5,1.56c.08,0,.18.1.17.19a1.61,1.61,0,0,1-.67-.22,15.44,15.44,0,0,1-2.28-1.66,1.86,1.86,0,0,0-.41-.28,2.75,2.75,0,0,0-.41-.11,17.51,17.51,0,0,1-2-.57,5.09,5.09,0,0,1-1.06-.42,4.18,4.18,0,0,1-1.64-2.21S582.37,180.26,582.44,180.28Z"/><path class="cls-13" d="M640.14,181.65c1.57-1.11,1.66-2.18,1.29-3a4.5,4.5,0,0,0-1.66-1.76c-2-1.17-10.1-8.33-10.1-8.33a17,17,0,0,0-4-3.24s-3.33-1-6.33,2.61a61.29,61.29,0,0,1-7.38,7.16,14.13,14.13,0,0,0-2.41,2.8c-.65.76-.72,1.19-.64,1.44a.52.52,0,0,0,.35.32c1.14-.23,1.17.34,1.17.34a19.87,19.87,0,0,0,3.75,3.95,3.27,3.27,0,0,1,.56-3.56s4.58-3.23,6-5.41c0,0,1.51-2.76,2.73-2.3,0,0,.63-.05,1.82,1.29a50.76,50.76,0,0,0,5.65,5.42,46.39,46.39,0,0,0,4.1,2.61,2.23,2.23,0,0,1,1.12,2.81,21.61,21.61,0,0,1,1.88-1.7Z"/><path class="cls-13" d="M609.29,179.63c1.14-.23,1.17.34,1.17.34.86,1.59,4,4.17,4,4.17a125.64,125.64,0,0,1,10,8.7c1.79,1.84,2.78,1.59,2.78,1.59,1,.23,3.6-3.16,3.6-3.16a37.35,37.35,0,0,1,7.21-8.19l2.07-1.43c1.57-1.11,1.66-2.18,1.29-3a4.5,4.5,0,0,0-1.66-1.76c-2-1.17-10.1-8.33-10.1-8.33a17,17,0,0,0-4-3.24s-3.33-1-6.33,2.61a61.29,61.29,0,0,1-7.38,7.16,14.13,14.13,0,0,0-2.41,2.8c-.65.76-.72,1.19-.64,1.44A.52.52,0,0,0,609.29,179.63Z"/><path class="cls-14" d="M625.19,201.26s-.12,3.1-2.58,2.23a3.74,3.74,0,0,0,1,.31c1.7.21,4.29-2.84,4.29-2.84l6.2-7.07s2.67-2.8,3.42-3.6.67-1.29.67-1.29a21.66,21.66,0,0,1,1.55-3.21c3.34-5.81,1.66-7.16,1.66-7.16h0c.37.84.28,1.91-1.29,3l-2.07,1.43a37.35,37.35,0,0,0-7.21,8.19s-2.58,3.39-3.6,3.16a.5.5,0,0,1-.18,0,3,3,0,0,0-.59,1.71A24.21,24.21,0,0,1,625.19,201.26Z"/><path class="cls-15" d="M624.48,192.84a125.64,125.64,0,0,0-10-8.7s-3.16-2.58-4-4.17c0,0,0-.57-1.17-.34a.52.52,0,0,1-.35-.32c-.52.22-.4,2.13-.4,2.13.18,2.77-1.8,7.5-1.8,7.5a1.63,1.63,0,0,0,.19,1.8,15.08,15.08,0,0,0,2.53,1.88,36.87,36.87,0,0,1,4.34,3.65l5.37,5a17.38,17.38,0,0,0,3.44,2.2c2.46.87,2.58-2.23,2.58-2.23a24.21,24.21,0,0,0,1.3-5.11,3,3,0,0,1,.59-1.71C626.72,194.43,625.83,194.23,624.48,192.84Z"/><path class="cls-8" d="M638.56,182a.46.46,0,0,0,0-.49A9.42,9.42,0,0,0,634,177.6c-2.89-1-6-4.36-6.59-5a.53.53,0,0,1-.11-.21,1.81,1.81,0,0,0-.69-1.14.45.45,0,0,0-.55.71l0,0a9.78,9.78,0,0,1,2,2.62,9.73,9.73,0,0,0,3.74,3.71,38.7,38.7,0,0,1,4.05,2.48.27.27,0,0,1,.08.07c.23.25,1.44,1.66.9,2.72S638,182.94,638.56,182Z"/><path class="cls-8" d="M629.8,184.16s.78-4.18-.58-2.53l-2.62,5.43a12.06,12.06,0,0,1,.81-3.33c.63-1.35-1-.24-1-.24a7.78,7.78,0,0,0-2.32,3.85c-.41,2.19-.84-.26-.84-.26s-.81,2.73.49,3.27a1.7,1.7,0,0,0,1.84.19c1.26-.44-.07,2.13-.07,2.13s1.41,1.71,3.15-.51c.93-1.19,1-1.76,1-2a3.83,3.83,0,0,1-.21-1.42Z"/><path class="cls-8" d="M622.77,201.36a4.48,4.48,0,0,0-.87-2.37,2.49,2.49,0,0,0-1.24-.93.81.81,0,0,1-.58-.8c-.08-.95-1.73-1.15-1.73-1.15s-4.33-3.07-5.07-5.54a.14.14,0,0,0-.26,0c-.2.6-.13,2.17,3.53,5.25a5.41,5.41,0,0,1,.91,1,8.59,8.59,0,0,0,2.67,2.58,8,8,0,0,1,2.45,2.05A.11.11,0,0,0,622.77,201.36Z"/><path class="cls-8" d="M623.83,198a4.93,4.93,0,0,0-1.57-2.39,6.86,6.86,0,0,0-1.79-.66,8.3,8.3,0,0,1-5.19-4.85,8.67,8.67,0,0,0,2.16,2.11,7,7,0,0,0,1.62,1c1.09.44,2.4.32,3.38,1a3.14,3.14,0,0,1,1.16,1.63,6.85,6.85,0,0,1,.3,2Z"/><path class="cls-8" d="M617.62,187.88c-.66-.34-1.07-1-1.69-1.44-.4-.26-.84-.45-1.24-.7-1.64-1-2.67-2.8-4.3-3.82-.07,0-.16-.09-.24,0a.28.28,0,0,0-.12.16,2.46,2.46,0,0,0,.29,2.23c.86,1.23,2.61,1.38,3.87,2.19,1.67,1.08,2.35,3.23,3.88,4.5a6.35,6.35,0,0,0,2.76,1.27,16.08,16.08,0,0,1,1.82.44,3,3,0,0,1,1.13.7s.09,0,.06-.05a7.89,7.89,0,0,0-2.84-2.87c-.66-.39-1.38-.68-2-1.11s-1.05-.54-1.21-1.3A.36.36,0,0,0,617.62,187.88Z"/><path class="cls-8" d="M621.09,170.69c-.48.59-1.37.7-1.87,1.27a8.15,8.15,0,0,0-1.19,2,2.53,2.53,0,0,1-.58.92,2.19,2.19,0,0,1-.73.37l-1.26.46a9.85,9.85,0,0,0-1.17.47,9.18,9.18,0,0,0-2.82,2.42c-.07.08-.18.18-.28.13a2,2,0,0,1,.52-.72,18.43,18.43,0,0,1,2.85-2.11,3.11,3.11,0,0,0,.49-.39,3.58,3.58,0,0,0,.29-.46,23.58,23.58,0,0,1,1.44-2.19,6.47,6.47,0,0,1,.92-1.1,5.07,5.07,0,0,1,3.26-1.13S621.14,170.62,621.09,170.69Z"/><path class="cls-13" d="M621.35,207.8c-1.22-.92-2.05-.74-2.59-.25a3.65,3.65,0,0,0-.91,1.7c-.38,1.84-3.78,9.74-3.78,9.74a13.7,13.7,0,0,0-1.47,3.81s0,2.79,3.51,4.19a48.82,48.82,0,0,1,7.17,3.88A11.05,11.05,0,0,0,626,232c.73.31,1.08.27,1.24.14a.41.41,0,0,0,.15-.34c-.45-.81,0-1,0-1a15.73,15.73,0,0,0,2-3.82,2.54,2.54,0,0,1-2.8.44s-3.55-2.7-5.53-3.25c0,0-2.44-.48-2.39-1.52,0,0-.19-.48.52-1.71a40.87,40.87,0,0,0,2.69-5.63,37.43,37.43,0,0,0,1-3.76,1.77,1.77,0,0,1,1.83-1.55,16.61,16.61,0,0,1-1.73-1Z"/><path class="cls-13" d="M627.36,231.82c-.45-.81,0-1,0-1a17.7,17.7,0,0,0,2.15-4.08,99.34,99.34,0,0,1,4.08-9.75c.95-1.82.52-2.51.52-2.51-.08-.84-3.25-2-3.25-2a29.32,29.32,0,0,1-7.91-3.49l-1.58-1.23c-1.22-.92-2.05-.74-2.59-.25a3.65,3.65,0,0,0-.91,1.7c-.38,1.84-3.78,9.74-3.78,9.74a13.7,13.7,0,0,0-1.47,3.81s0,2.79,3.51,4.19a48.82,48.82,0,0,1,7.17,3.88A11.05,11.05,0,0,0,626,232c.73.31,1.08.27,1.24.14A.41.41,0,0,0,627.36,231.82Z"/><path class="cls-14" d="M639.72,214.41s2.36-.66,2.31,1.42a3.43,3.43,0,0,0,0-.86c-.25-1.35-3.18-2.58-3.18-2.58l-6.82-3-3.54-1.73c-.78-.37-1.13-.19-1.13-.19a16.87,16.87,0,0,1-2.79-.4c-5.17-1.13-5.78.48-5.78.48h0c.54-.49,1.37-.67,2.59.25l1.58,1.23a29.32,29.32,0,0,0,7.91,3.49s3.17,1.14,3.25,2a1.11,1.11,0,0,1,0,.13,2.33,2.33,0,0,0,1.43,0A18.22,18.22,0,0,1,639.72,214.41Z"/><path class="cls-15" d="M633.57,217a99.34,99.34,0,0,0-4.08,9.75,17.7,17.7,0,0,1-2.15,4.08s-.43.17,0,1a.41.41,0,0,1-.15.34c.29.34,1.7-.21,1.7-.21,2-.82,6.07-.46,6.07-.46a1.28,1.28,0,0,0,1.3-.58,12.5,12.5,0,0,0,.8-2.39,29.48,29.48,0,0,1,1.68-4.21l2.45-5.32a13.78,13.78,0,0,0,.82-3.16c.05-2.08-2.31-1.42-2.31-1.42a18.22,18.22,0,0,0-4.15.26,2.33,2.33,0,0,1-1.43,0A3.51,3.51,0,0,1,633.57,217Z"/><path class="cls-8" d="M622,208.92a.35.35,0,0,0-.37.11,7.62,7.62,0,0,0-1.8,4.47c-.08,2.46-1.81,5.66-2.13,6.24a.38.38,0,0,1-.14.14,1.48,1.48,0,0,0-.68.8.36.36,0,0,0,.67.25v0a7.43,7.43,0,0,1,1.48-2.16A7.91,7.91,0,0,0,620.9,215a30.92,30.92,0,0,1,.87-3.69l0-.08c.13-.24.89-1.51,1.83-1.35S622.85,209.15,622,208.92Z"/><path class="cls-8" d="M625.76,215.07s-3.34.43-1.76,1.06l4.72.67a9.35,9.35,0,0,1-2.7.2c-1.17-.15.05.79.05.79a6.11,6.11,0,0,0,3.46.83c1.74-.22,0,.7,0,.7s2.25,0,2.34-1.17a1.4,1.4,0,0,0-.32-1.45c-.63-.85,1.62-.47,1.62-.47s.94-1.49-1.15-2.27c-1.12-.42-1.58-.38-1.76-.24a3,3,0,0,1-1,.51Z"/><path class="cls-8" d="M640.39,216.23a3.49,3.49,0,0,0-1.57,1.24,2,2,0,0,0-.39,1.18.67.67,0,0,1-.47.64c-.69.28-.43,1.59-.43,1.59s-1.25,4.06-2.93,5.22a.11.11,0,0,0,.06.2c.5,0,1.66-.43,3.08-4a4.14,4.14,0,0,1,.53-.94,7,7,0,0,0,1.28-2.66,6.69,6.69,0,0,1,.94-2.38A.08.08,0,0,0,640.39,216.23Z"/><path class="cls-8" d="M637.62,216.24a3.77,3.77,0,0,0-1.41,1.78,5.58,5.58,0,0,0-.06,1.53,6.61,6.61,0,0,1-2.37,5.13,7,7,0,0,0,1.05-2.16,5.45,5.45,0,0,0,.37-1.48c.06-.94-.35-1.91-.09-2.82a2.51,2.51,0,0,1,.94-1.28,5.4,5.4,0,0,1,1.44-.72Z"/><path class="cls-8" d="M631.52,223.45c-.09.59-.52,1.07-.66,1.64-.1.37-.14.75-.23,1.12-.35,1.49-1.44,2.72-1.81,4.21a.19.19,0,0,0,0,.19.23.23,0,0,0,.15.06,1.94,1.94,0,0,0,1.6-.77c.71-1,.4-2.32.7-3.48.4-1.54,1.85-2.58,2.43-4.06a5.35,5.35,0,0,0,.28-2.42,12.45,12.45,0,0,1-.11-1.49,2.48,2.48,0,0,1,.24-1s0-.06,0,0a6.3,6.3,0,0,0-1.46,2.86c-.13.61-.18,1.23-.34,1.82s-.15.93-.68,1.24A.27.27,0,0,0,631.52,223.45Z"/><path class="cls-8" d="M617.77,225c.57.22.86.87,1.41,1.11a6.3,6.3,0,0,0,1.76.43,1.37,1.37,0,0,1,1.29.68l.66.85a7.82,7.82,0,0,0,.63.77,7.35,7.35,0,0,0,2.51,1.57c.08,0,.18.09.16.18a1.61,1.61,0,0,1-.66-.22,15.33,15.33,0,0,1-2.29-1.66,1.46,1.46,0,0,0-.41-.27,1.93,1.93,0,0,0-.41-.12,20.34,20.34,0,0,1-2-.56,5.47,5.47,0,0,1-1.06-.43,4.08,4.08,0,0,1-1.64-2.21S617.71,225,617.77,225Z"/><path class="cls-13" d="M625.62,241.52c-.78-.6-1.31-.48-1.66-.16a2.31,2.31,0,0,0-.59,1.09c-.24,1.18-2.43,6.25-2.43,6.25a8.83,8.83,0,0,0-.94,2.44,3.25,3.25,0,0,0,2.25,2.7,31.2,31.2,0,0,1,4.61,2.48,7,7,0,0,0,1.73.74c.46.2.69.17.79.09a.27.27,0,0,0,.1-.22c-.29-.52,0-.62,0-.62a10.65,10.65,0,0,0,1.32-2.46,1.64,1.64,0,0,1-1.8.29,15.69,15.69,0,0,0-3.55-2.09s-1.57-.31-1.54-1c0,0-.12-.3.34-1.09a26.1,26.1,0,0,0,1.72-3.62,23.9,23.9,0,0,0,.62-2.41,1.11,1.11,0,0,1,1.17-1,9.9,9.9,0,0,1-1.11-.66Z"/><path class="cls-13" d="M629.48,256.93c-.29-.52,0-.62,0-.62a11.58,11.58,0,0,0,1.38-2.63,67.62,67.62,0,0,1,2.62-6.26c.61-1.16.33-1.61.33-1.61,0-.53-2.08-1.26-2.08-1.26a19,19,0,0,1-5.08-2.25l-1-.78c-.78-.6-1.31-.48-1.66-.16a2.31,2.31,0,0,0-.59,1.09c-.24,1.18-2.43,6.25-2.43,6.25a8.83,8.83,0,0,0-.94,2.44,3.25,3.25,0,0,0,2.25,2.7,31.2,31.2,0,0,1,4.61,2.48,7,7,0,0,0,1.73.74c.46.2.69.17.79.09A.27.27,0,0,0,629.48,256.93Z"/><path class="cls-14" d="M637.41,245.76s1.51-.43,1.48.91a2,2,0,0,0,0-.55c-.17-.87-2-1.66-2-1.66l-4.38-1.92-2.28-1.11c-.5-.24-.72-.13-.72-.13a11.28,11.28,0,0,1-1.79-.25c-3.32-.73-3.71.31-3.71.31h0c.35-.32.88-.44,1.66.16l1,.78a19,19,0,0,0,5.08,2.25s2,.73,2.08,1.26a.41.41,0,0,1,0,.09,1.45,1.45,0,0,0,.91,0A11.87,11.87,0,0,1,637.41,245.76Z"/><path class="cls-15" d="M633.46,247.42a67.62,67.62,0,0,0-2.62,6.26,11.58,11.58,0,0,1-1.38,2.63s-.27.1,0,.62a.27.27,0,0,1-.1.22c.19.22,1.09-.14,1.09-.14a11.38,11.38,0,0,1,3.9-.29.84.84,0,0,0,.84-.37,8.28,8.28,0,0,0,.51-1.54,18.18,18.18,0,0,1,1.07-2.7l1.58-3.41a9.23,9.23,0,0,0,.52-2c0-1.34-1.48-.91-1.48-.91a11.87,11.87,0,0,0-2.67.16,1.45,1.45,0,0,1-.91,0A2.18,2.18,0,0,1,633.46,247.42Z"/><path class="cls-8" d="M626,242.23a.24.24,0,0,0-.23.07,4.84,4.84,0,0,0-1.16,2.87,10.8,10.8,0,0,1-1.37,4,.2.2,0,0,1-.09.09,1,1,0,0,0-.44.51.23.23,0,0,0,.43.16h0a5.13,5.13,0,0,1,1-1.39,5,5,0,0,0,1.2-2.41,20.32,20.32,0,0,1,.56-2.37s0,0,0,0,.57-1,1.17-.87S626.58,242.38,626,242.23Z"/><path class="cls-8" d="M628.45,246.18s-2.14.28-1.13.68l3,.43a5.81,5.81,0,0,1-1.73.13c-.75-.1,0,.51,0,.51a4,4,0,0,0,2.22.53c1.12-.14,0,.45,0,.45s1.45,0,1.51-.75a.89.89,0,0,0-.2-.93c-.41-.55,1-.3,1-.3s.6-1-.74-1.46c-.72-.27-1-.24-1.13-.16a1.86,1.86,0,0,1-.66.33Z"/><path class="cls-8" d="M637.84,246.92a2.34,2.34,0,0,0-1,.8,1.38,1.38,0,0,0-.25.76.42.42,0,0,1-.3.41c-.44.18-.28,1-.28,1s-.8,2.6-1.87,3.35a.07.07,0,0,0,0,.13c.32,0,1.07-.28,2-2.55a2.73,2.73,0,0,1,.34-.6,4.4,4.4,0,0,0,.82-1.71,4.08,4.08,0,0,1,.61-1.52A.06.06,0,0,0,637.84,246.92Z"/><path class="cls-8" d="M636.06,246.93a2.49,2.49,0,0,0-.9,1.14,3.28,3.28,0,0,0,0,1,4.25,4.25,0,0,1-1.52,3.29,4.37,4.37,0,0,0,.67-1.39,3.42,3.42,0,0,0,.24-.94,8.57,8.57,0,0,1-.06-1.82,1.69,1.69,0,0,1,.6-.82,3.51,3.51,0,0,1,.93-.46Z"/><path class="cls-8" d="M632.15,251.56c-.06.38-.34.69-.43,1.06s-.08.47-.14.71c-.23,1-.93,1.75-1.16,2.7a.12.12,0,0,0,0,.13.14.14,0,0,0,.09,0,1.21,1.21,0,0,0,1-.49c.46-.62.26-1.49.45-2.24.26-1,1.19-1.65,1.56-2.6a3.4,3.4,0,0,0,.18-1.55,7.75,7.75,0,0,1-.07-1,1.49,1.49,0,0,1,.15-.66s0-.05,0,0a4.14,4.14,0,0,0-.94,1.84c-.08.39-.11.79-.21,1.17s-.1.59-.44.79A.2.2,0,0,0,632.15,251.56Z"/><path class="cls-8" d="M623.32,252.56c.37.14.55.56.91.71a4,4,0,0,0,1.13.28,1.19,1.19,0,0,1,.53.14,1.07,1.07,0,0,1,.3.3l.42.54a6.4,6.4,0,0,0,.41.5,4.6,4.6,0,0,0,1.6,1s.12.06.11.12a1.14,1.14,0,0,1-.43-.14,10.13,10.13,0,0,1-1.46-1.07,1.53,1.53,0,0,0-.27-.17.77.77,0,0,0-.26-.07,11.05,11.05,0,0,1-1.28-.37,3.71,3.71,0,0,1-.68-.27,2.64,2.64,0,0,1-1.05-1.42S623.28,252.54,623.32,252.56Z"/><path class="cls-13" d="M588.27,218.75c-1.6-1.22-2.69-1-3.4-.33a4.85,4.85,0,0,0-1.2,2.24c-.5,2.42-5,12.81-5,12.81a18.2,18.2,0,0,0-1.93,5s.07,3.67,4.62,5.52a64.09,64.09,0,0,1,9.44,5.1,14.47,14.47,0,0,0,3.55,1.52c1,.41,1.41.35,1.63.18a.54.54,0,0,0,.19-.45c-.59-1.07,0-1.28,0-1.28a20.93,20.93,0,0,0,2.69-5,3.34,3.34,0,0,1-3.69.59s-4.67-3.56-7.28-4.29c0,0-3.21-.62-3.15-2,0,0-.25-.63.69-2.25a53.63,53.63,0,0,0,3.54-7.41,50.93,50.93,0,0,0,1.27-4.95,2.31,2.31,0,0,1,2.4-2,21.31,21.31,0,0,1-2.28-1.34Z"/><path class="cls-13" d="M596.19,250.36c-.59-1.07,0-1.28,0-1.28,1.29-1.38,2.83-5.38,2.83-5.38a130.85,130.85,0,0,1,5.37-12.83c1.25-2.39.68-3.31.68-3.31-.1-1.1-4.27-2.59-4.27-2.59a38.69,38.69,0,0,1-10.42-4.61l-2.08-1.61c-1.6-1.22-2.69-1-3.4-.33a4.85,4.85,0,0,0-1.2,2.24c-.5,2.42-5,12.81-5,12.81a18.2,18.2,0,0,0-1.93,5s.07,3.67,4.62,5.52a64.09,64.09,0,0,1,9.44,5.1,14.47,14.47,0,0,0,3.55,1.52c1,.41,1.41.35,1.63.18A.54.54,0,0,0,596.19,250.36Z"/><path class="cls-14" d="M612.45,227.44s3.11-.87,3,1.88a4.18,4.18,0,0,0,0-1.13c-.34-1.78-4.18-3.4-4.18-3.4l-9-3.95s-3.62-1.78-4.65-2.27-1.49-.26-1.49-.26a21.85,21.85,0,0,1-3.67-.52c-6.81-1.49-7.61.63-7.61.63h0c.71-.64,1.8-.89,3.4.33l2.08,1.61A38.69,38.69,0,0,0,600.77,225s4.17,1.49,4.27,2.59a.62.62,0,0,1,.07.18,3,3,0,0,0,1.88,0A24.15,24.15,0,0,1,612.45,227.44Z"/><path class="cls-15" d="M604.36,230.87A130.85,130.85,0,0,0,599,243.7s-1.54,4-2.83,5.38c0,0-.56.21,0,1.28a.54.54,0,0,1-.19.45c.38.45,2.22-.28,2.22-.28,2.68-1.07,8-.6,8-.6a1.69,1.69,0,0,0,1.71-.77A15.66,15.66,0,0,0,609,246a39.29,39.29,0,0,1,2.21-5.53l3.23-7a17.9,17.9,0,0,0,1.07-4.16c.07-2.75-3-1.88-3-1.88a24.15,24.15,0,0,0-5.46.35,3,3,0,0,1-1.88,0C605.21,228.1,605.3,229.07,604.36,230.87Z"/><path class="cls-8" d="M589.12,220.22a.47.47,0,0,0-.48.15,9.92,9.92,0,0,0-2.38,5.88c-.1,3.23-2.37,7.44-2.8,8.22a.42.42,0,0,1-.18.17,2,2,0,0,0-.9,1.06.47.47,0,0,0,.88.33v0a10.31,10.31,0,0,1,2-2.84,10.23,10.23,0,0,0,2.47-4.95,41.66,41.66,0,0,1,1.14-4.86.3.3,0,0,1,0-.1c.18-.31,1.18-2,2.41-1.77S590.26,220.53,589.12,220.22Z"/><path class="cls-8" d="M594.08,228.31s-4.39.57-2.31,1.41l6.21.87a12.15,12.15,0,0,1-3.56.27c-1.53-.2.07,1,.07,1A8,8,0,0,0,599,233c2.3-.29,0,.93,0,.93s3-.07,3.08-1.55a1.82,1.82,0,0,0-.41-1.91c-.84-1.12,2.13-.61,2.13-.61s1.24-2-1.51-3c-1.48-.55-2.08-.49-2.32-.32a3.86,3.86,0,0,1-1.34.68Z"/><path class="cls-8" d="M613.33,229.84a4.7,4.7,0,0,0-2.06,1.64,2.69,2.69,0,0,0-.52,1.54.87.87,0,0,1-.61.85c-.91.37-.57,2.1-.57,2.1s-1.65,5.33-3.85,6.87a.14.14,0,0,0,.07.26c.67,0,2.19-.57,4.06-5.23a5.71,5.71,0,0,1,.69-1.23,9.12,9.12,0,0,0,1.69-3.51,8.58,8.58,0,0,1,1.24-3.12A.11.11,0,0,0,613.33,229.84Z"/><path class="cls-8" d="M609.69,229.85a5.11,5.11,0,0,0-1.85,2.35,7.11,7.11,0,0,0-.08,2,8.75,8.75,0,0,1-3.13,6.76,8.94,8.94,0,0,0,1.39-2.84,7.86,7.86,0,0,0,.49-1.95c.08-1.24-.47-2.52-.12-3.72a3.28,3.28,0,0,1,1.23-1.68,7,7,0,0,1,1.9-.95Z"/><path class="cls-8" d="M601.67,239.35c-.12.77-.69,1.4-.88,2.16-.12.48-.18,1-.29,1.46-.47,2-1.9,3.59-2.39,5.55,0,.08,0,.19,0,.25a.25.25,0,0,0,.2.07,2.52,2.52,0,0,0,2.11-1c.94-1.27.52-3.06.92-4.59.53-2,2.44-3.4,3.2-5.34a6.86,6.86,0,0,0,.37-3.18,16.33,16.33,0,0,1-.15-2,3.16,3.16,0,0,1,.32-1.36s0-.08-.07-.05a8.36,8.36,0,0,0-1.92,3.78c-.17.79-.23,1.61-.45,2.39s-.19,1.22-.89,1.63A.31.31,0,0,0,601.67,239.35Z"/><path class="cls-8" d="M583.57,241.39c.74.29,1.13,1.15,1.86,1.47a8.3,8.3,0,0,0,2.31.56,2.71,2.71,0,0,1,1.1.28,2.53,2.53,0,0,1,.6.62l.86,1.12c.27.35.54.7.84,1a9.51,9.51,0,0,0,3.29,2c.11.05.24.13.22.25a2.1,2.1,0,0,1-.87-.3,19.37,19.37,0,0,1-3-2.18,2.42,2.42,0,0,0-.54-.36,2.38,2.38,0,0,0-.54-.14,27.11,27.11,0,0,1-2.63-.75,7.26,7.26,0,0,1-1.39-.57,5.32,5.32,0,0,1-2.15-2.9S583.49,241.36,583.57,241.39Z"/><path class="cls-13" d="M612.56,205.29c1.43.75,1.64,1.63,1.42,2.37a3.83,3.83,0,0,1-1.19,1.66c-1.57,1.21-7.48,8.1-7.48,8.1a14.38,14.38,0,0,1-2.94,3.16s-2.67,1.23-5.58-1.44a51.69,51.69,0,0,0-7-5.13A11.71,11.71,0,0,1,587.5,212c-.63-.56-.75-.91-.7-1.13a.42.42,0,0,1,.25-.3c1,.06.94-.42.94-.42a16.74,16.74,0,0,1,2.68-3.73,2.78,2.78,0,0,0,.87,2.91s4.19,2.17,5.62,3.82c0,0,1.57,2.13,2.53,1.61,0,0,.54,0,1.38-1.29a42.71,42.71,0,0,1,4.1-5.17,37.94,37.94,0,0,1,3.12-2.65,1.89,1.89,0,0,0,.63-2.47,17.53,17.53,0,0,0,1.76,1.2Z"/><path class="cls-13" d="M587.05,210.52c1,.06.94-.42.94-.42a18.69,18.69,0,0,1,2.88-3.95,106,106,0,0,0,7.36-8.4c1.29-1.74,2.14-1.65,2.14-1.65.83-.3,3.36,2.22,3.36,2.22a31.27,31.27,0,0,0,6.95,6l1.88,1c1.43.75,1.64,1.63,1.42,2.37a3.83,3.83,0,0,1-1.19,1.66c-1.57,1.21-7.48,8.1-7.48,8.1a14.38,14.38,0,0,1-2.94,3.16s-2.67,1.23-5.58-1.44a51.69,51.69,0,0,0-7-5.13A11.71,11.71,0,0,1,587.5,212c-.63-.56-.75-.91-.7-1.13A.42.42,0,0,1,587.05,210.52Z"/><path class="cls-14" d="M597.88,190.64s-.46-2.57-2.41-1.56a3.26,3.26,0,0,1,.82-.37c1.4-.38,3.9,1.87,3.9,1.87l6,5.19,3.26,2.61c.71.58.7,1,.7,1a18.2,18.2,0,0,0,1.66,2.5c3.44,4.46,2.19,5.78,2.19,5.78h0c.22-.74,0-1.62-1.42-2.37l-1.88-1a31.27,31.27,0,0,1-6.95-6s-2.53-2.52-3.36-2.22l-.15,0a2.5,2.5,0,0,1-.68-1.36A20.39,20.39,0,0,0,597.88,190.64Z"/><path class="cls-15" d="M598.23,197.75a106,106,0,0,1-7.36,8.4A18.69,18.69,0,0,0,588,210.1s0,.48-.94.42a.42.42,0,0,0-.25.3c-.46-.12-.58-1.73-.58-1.73-.16-2.33-2.35-6.05-2.35-6.05a1.38,1.38,0,0,1,0-1.52,12.87,12.87,0,0,1,1.89-1.87,30.65,30.65,0,0,0,3.21-3.54l3.92-4.8a14.53,14.53,0,0,1,2.62-2.23c1.95-1,2.41,1.56,2.41,1.56a20.39,20.39,0,0,1,1.66,4.12,2.5,2.5,0,0,0,.68,1.36C599.93,196.17,599.2,196.44,598.23,197.75Z"/><path class="cls-8" d="M611.21,205.18a.39.39,0,0,1,.06.4,7.94,7.94,0,0,1-3.4,3.79c-2.3,1.21-4.53,4.33-4.94,4.92a.4.4,0,0,0-.07.19,1.55,1.55,0,0,1-.44,1,.38.38,0,0,1-.55-.53h0a8.46,8.46,0,0,0,1.37-2.42A8.07,8.07,0,0,1,606,209a34.32,34.32,0,0,0,3.1-2.54.15.15,0,0,0,.05-.06c.17-.24,1-1.55.44-2.38S610.59,204.46,611.21,205.18Z"/><path class="cls-8" d="M603.66,204.38s1.12,3.4-.21,2.18l-2.79-4.24a10,10,0,0,0,1.05,2.69c.67,1.05-.78.32-.78.32a6.63,6.63,0,0,1-2.37-3c-.59-1.78-.67.31-.67.31s-1-2.18,0-2.78a1.43,1.43,0,0,1,1.51-.37c1.11.22-.3-1.77-.3-1.77s1-1.59,2.69.06c.91.89,1.08,1.35,1,1.58a3.13,3.13,0,0,0,0,1.22Z"/><path class="cls-8" d="M595.85,190.84a4,4,0,0,1-.46,2.08,2.17,2.17,0,0,1-.94.91.7.7,0,0,0-.39.74c.05.8-1.31,1.15-1.31,1.15s-3.27,3.07-3.61,5.21a.11.11,0,0,1-.21,0c-.24-.48-.35-1.8,2.35-4.79a5,5,0,0,0,.65-.93,7.17,7.17,0,0,1,1.93-2.46,6.84,6.84,0,0,0,1.82-2A.09.09,0,0,1,595.85,190.84Z"/><path class="cls-8" d="M597.11,193.5a4.06,4.06,0,0,1-1,2.17,5.8,5.8,0,0,1-1.43.77,7,7,0,0,0-3.77,4.63,7.16,7.16,0,0,1,1.56-2,6,6,0,0,1,1.23-1c.87-.5,2-.54,2.72-1.21a2.7,2.7,0,0,0,.78-1.49,5.83,5.83,0,0,0,0-1.72Z"/><path class="cls-8" d="M593.07,202.68c-.52.35-.77,1-1.25,1.39-.31.26-.64.47-1,.73-1.25,1-1.92,2.64-3.16,3.67a.21.21,0,0,1-.19.08.22.22,0,0,1-.12-.13,2.07,2.07,0,0,1,0-1.89c.58-1.12,2-1.44,3-2.27,1.27-1.09,1.59-3,2.73-4.2a5.56,5.56,0,0,1,2.15-1.38,11.78,11.78,0,0,0,1.47-.57,2.52,2.52,0,0,0,.87-.71,0,0,0,0,1,.06,0,6.64,6.64,0,0,1-2,2.72c-.51.41-1.08.73-1.56,1.16s-.81.57-.87,1.22A.25.25,0,0,1,593.07,202.68Z"/><path class="cls-8" d="M597.91,216.62c-.47-.44-1.22-.43-1.71-.85a6.7,6.7,0,0,1-1.21-1.49,2.24,2.24,0,0,0-.58-.71,2.14,2.14,0,0,0-.66-.22l-1.1-.24a9.13,9.13,0,0,1-1-.26,7.71,7.71,0,0,1-2.62-1.69c-.08-.06-.18-.13-.26-.08a1.68,1.68,0,0,0,.52.54,15.15,15.15,0,0,0,2.62,1.44,1.92,1.92,0,0,1,.45.27,2.37,2.37,0,0,1,.29.34,19.14,19.14,0,0,0,1.45,1.66,5.73,5.73,0,0,0,.89.82,4.34,4.34,0,0,0,2.85.57S598,216.67,597.91,216.62Z"/><path class="cls-20" d="M654.18,273.52c-.59-3.92-1.27-7.83-2-11.7l-.59-2.9c-.2-1-.39-1.92-.63-2.9-.46-2-.86-3.92-1.25-5.88a225.45,225.45,0,0,1-4.14-47.73l.07-3c0-1,.11-2,.17-3l.18-3c.06-1,.12-2,.24-3l.61-6,.89-5.94c.27-2,.63-4,1-5.93s.85-3.91,1.35-5.86,1-3.88,1.65-5.79a58.8,58.8,0,0,1,2.09-5.69c.2-.47.39-.94.62-1.39l.6-1.25c-37.1,7.92-90-.23-90-.23a2.41,2.41,0,0,0,.12.72l.2.75.76,3q.75,3,1.45,6,1.41,6,2.65,12.07l.6,3,.56,3c.39,2,.7,4.07,1.05,6.1.62,4.08,1.14,8.17,1.44,12.3.1,2.07.24,4.14.16,6.22,0,.52,0,1,0,1.56l-.14,1.56-.28,3.09c-.41,4.11-.93,8.2-1.5,12.29s-1.21,8.16-1.92,12.23-1.48,8.12-2.33,12.16-1.76,8.07-2.71,12.08-1.61,8-2.25,12.06a206.71,206.71,0,0,0-2.3,24.46,121.34,121.34,0,0,0,1.44,24.47,73,73,0,0,0,3,11.85,48.4,48.4,0,0,0,5.35,10.93v0a41.52,41.52,0,0,0,3.31,4.85,51.33,51.33,0,0,0,3.9,4.42,54.27,54.27,0,0,0,4.37,3.95,50.23,50.23,0,0,0,4.82,3.38,41.08,41.08,0,0,0,10.77,4.62,39.64,39.64,0,0,0,11.63,1.22,48.33,48.33,0,0,0,11.56-1.91l2.81-.89a23.87,23.87,0,0,0,2.67-1.15,43.56,43.56,0,0,0,5.06-3,53.44,53.44,0,0,0,15.89-17.09,65.52,65.52,0,0,0,8-22.06l.26-1.46c.09-.48.14-1,.21-1.46.13-1,.3-1.94.39-2.93.18-2,.41-3.92.48-5.88.17-3.94.12-7.9,0-11.85A225.5,225.5,0,0,0,654.18,273.52Z"/><path class="cls-10" d="M564.11,121.88a19.52,19.52,0,0,0-1,2.34,4.49,4.49,0,0,0-.19,1q0,.45,0,.9a9.43,9.43,0,0,1,0,2.19c-.11.54-.5.49-.5.49a3.2,3.2,0,0,1-.81-2.51,3.29,3.29,0,0,1,.05-.44,7.53,7.53,0,0,1,.44-1.52c.42-1,1-2,1.41-3.06,1.11-2.83.89-6,1.76-8.93A17.2,17.2,0,0,1,564.11,121.88Z"/></g></svg>